<?xml version="1.0" encoding="utf-8" standalone="no"?>
<!DOCTYPE svg PUBLIC "-//W3C//DTD SVG 1.1//EN"
  "http://www.w3.org/Graphics/SVG/1.1/DTD/svg11.dtd">
<svg xmlns:xlink="http://www.w3.org/1999/xlink" width="360pt" height="288pt" viewBox="0 0 360 288" xmlns="http://www.w3.org/2000/svg" version="1.1">
 <metadata>
  <rdf:RDF xmlns:dc="http://purl.org/dc/elements/1.1/" xmlns:cc="http://creativecommons.org/ns#" xmlns:rdf="http://www.w3.org/1999/02/22-rdf-syntax-ns#">
   <cc:Work>
    <dc:type rdf:resource="http://purl.org/dc/dcmitype/StillImage"/>
    <dc:date>2025-06-13T19:14:11.589068</dc:date>
    <dc:format>image/svg+xml</dc:format>
    <dc:creator>
     <cc:Agent>
      <dc:title>Matplotlib v3.5.1, https://matplotlib.org/</dc:title>
     </cc:Agent>
    </dc:creator>
   </cc:Work>
  </rdf:RDF>
 </metadata>
 <defs>
  <style type="text/css">*{stroke-linejoin: round; stroke-linecap: butt}</style>
 </defs>
 <g id="figure_1">
  <g id="patch_1">
   <path d="M 0 288 
L 360 288 
L 360 0 
L 0 0 
z
" style="fill: #ffffff"/>
  </g>
  <g id="axes_1">
   <g id="patch_2">
    <path d="M 45 256.32 
L 324 256.32 
L 324 34.56 
L 45 34.56 
z
" style="fill: #ffffff"/>
   </g>
   <g id="matplotlib.axis_1">
    <g id="xtick_1">
     <g id="line2d_1">
      <defs>
       <path id="m599df9e04c" d="M 0 0 
L 0 3.5 
" style="stroke: #000000; stroke-width: 0.8"/>
      </defs>
      <g>
       <use xlink:href="#m599df9e04c" x="45" y="256.32" style="stroke: #000000; stroke-width: 0.8"/>
      </g>
     </g>
     <g id="text_1">
      <!-- 0 -->
      <g transform="translate(42.5 270.26375)scale(0.1 -0.1)">
       <defs>
        <path id="TimesNewRomanPSMT-30" d="M 231 2094 
Q 231 2819 450 3342 
Q 669 3866 1031 4122 
Q 1313 4325 1613 4325 
Q 2100 4325 2488 3828 
Q 2972 3213 2972 2159 
Q 2972 1422 2759 906 
Q 2547 391 2217 158 
Q 1888 -75 1581 -75 
Q 975 -75 572 641 
Q 231 1244 231 2094 
z
M 844 2016 
Q 844 1141 1059 588 
Q 1238 122 1591 122 
Q 1759 122 1940 273 
Q 2122 425 2216 781 
Q 2359 1319 2359 2297 
Q 2359 3022 2209 3506 
Q 2097 3866 1919 4016 
Q 1791 4119 1609 4119 
Q 1397 4119 1231 3928 
Q 1006 3669 925 3112 
Q 844 2556 844 2016 
z
" transform="scale(0.015625)"/>
       </defs>
       <use xlink:href="#TimesNewRomanPSMT-30"/>
      </g>
     </g>
    </g>
    <g id="xtick_2">
     <g id="line2d_2">
      <g>
       <use xlink:href="#m599df9e04c" x="100.744256" y="256.32" style="stroke: #000000; stroke-width: 0.8"/>
      </g>
     </g>
     <g id="text_2">
      <!-- 200 -->
      <g transform="translate(93.244256 270.26375)scale(0.1 -0.1)">
       <defs>
        <path id="TimesNewRomanPSMT-32" d="M 2934 816 
L 2638 0 
L 138 0 
L 138 116 
Q 1241 1122 1691 1759 
Q 2141 2397 2141 2925 
Q 2141 3328 1894 3587 
Q 1647 3847 1303 3847 
Q 991 3847 742 3664 
Q 494 3481 375 3128 
L 259 3128 
Q 338 3706 661 4015 
Q 984 4325 1469 4325 
Q 1984 4325 2329 3994 
Q 2675 3663 2675 3213 
Q 2675 2891 2525 2569 
Q 2294 2063 1775 1497 
Q 997 647 803 472 
L 1909 472 
Q 2247 472 2383 497 
Q 2519 522 2628 598 
Q 2738 675 2819 816 
L 2934 816 
z
" transform="scale(0.015625)"/>
       </defs>
       <use xlink:href="#TimesNewRomanPSMT-32"/>
       <use xlink:href="#TimesNewRomanPSMT-30" x="50"/>
       <use xlink:href="#TimesNewRomanPSMT-30" x="100"/>
      </g>
     </g>
    </g>
    <g id="xtick_3">
     <g id="line2d_3">
      <g>
       <use xlink:href="#m599df9e04c" x="156.488511" y="256.32" style="stroke: #000000; stroke-width: 0.8"/>
      </g>
     </g>
     <g id="text_3">
      <!-- 400 -->
      <g transform="translate(148.988511 270.26375)scale(0.1 -0.1)">
       <defs>
        <path id="TimesNewRomanPSMT-34" d="M 2978 1563 
L 2978 1119 
L 2409 1119 
L 2409 0 
L 1894 0 
L 1894 1119 
L 100 1119 
L 100 1519 
L 2066 4325 
L 2409 4325 
L 2409 1563 
L 2978 1563 
z
M 1894 1563 
L 1894 3666 
L 406 1563 
L 1894 1563 
z
" transform="scale(0.015625)"/>
       </defs>
       <use xlink:href="#TimesNewRomanPSMT-34"/>
       <use xlink:href="#TimesNewRomanPSMT-30" x="50"/>
       <use xlink:href="#TimesNewRomanPSMT-30" x="100"/>
      </g>
     </g>
    </g>
    <g id="xtick_4">
     <g id="line2d_4">
      <g>
       <use xlink:href="#m599df9e04c" x="212.232767" y="256.32" style="stroke: #000000; stroke-width: 0.8"/>
      </g>
     </g>
     <g id="text_4">
      <!-- 600 -->
      <g transform="translate(204.732767 270.26375)scale(0.1 -0.1)">
       <defs>
        <path id="TimesNewRomanPSMT-36" d="M 2869 4325 
L 2869 4209 
Q 2456 4169 2195 4045 
Q 1934 3922 1679 3669 
Q 1425 3416 1258 3105 
Q 1091 2794 978 2366 
Q 1428 2675 1881 2675 
Q 2316 2675 2634 2325 
Q 2953 1975 2953 1425 
Q 2953 894 2631 456 
Q 2244 -75 1606 -75 
Q 1172 -75 869 213 
Q 275 772 275 1663 
Q 275 2231 503 2743 
Q 731 3256 1154 3653 
Q 1578 4050 1965 4187 
Q 2353 4325 2688 4325 
L 2869 4325 
z
M 925 2138 
Q 869 1716 869 1456 
Q 869 1156 980 804 
Q 1091 453 1309 247 
Q 1469 100 1697 100 
Q 1969 100 2183 356 
Q 2397 613 2397 1088 
Q 2397 1622 2184 2012 
Q 1972 2403 1581 2403 
Q 1463 2403 1327 2353 
Q 1191 2303 925 2138 
z
" transform="scale(0.015625)"/>
       </defs>
       <use xlink:href="#TimesNewRomanPSMT-36"/>
       <use xlink:href="#TimesNewRomanPSMT-30" x="50"/>
       <use xlink:href="#TimesNewRomanPSMT-30" x="100"/>
      </g>
     </g>
    </g>
    <g id="xtick_5">
     <g id="line2d_5">
      <g>
       <use xlink:href="#m599df9e04c" x="267.977023" y="256.32" style="stroke: #000000; stroke-width: 0.8"/>
      </g>
     </g>
     <g id="text_5">
      <!-- 800 -->
      <g transform="translate(260.477023 270.26375)scale(0.1 -0.1)">
       <defs>
        <path id="TimesNewRomanPSMT-38" d="M 1228 2134 
Q 725 2547 579 2797 
Q 434 3047 434 3316 
Q 434 3728 753 4026 
Q 1072 4325 1600 4325 
Q 2113 4325 2425 4047 
Q 2738 3769 2738 3413 
Q 2738 3175 2569 2928 
Q 2400 2681 1866 2347 
Q 2416 1922 2594 1678 
Q 2831 1359 2831 1006 
Q 2831 559 2490 242 
Q 2150 -75 1597 -75 
Q 994 -75 656 303 
Q 388 606 388 966 
Q 388 1247 577 1523 
Q 766 1800 1228 2134 
z
M 1719 2469 
Q 2094 2806 2194 3001 
Q 2294 3197 2294 3444 
Q 2294 3772 2109 3958 
Q 1925 4144 1606 4144 
Q 1288 4144 1088 3959 
Q 888 3775 888 3528 
Q 888 3366 970 3203 
Q 1053 3041 1206 2894 
L 1719 2469 
z
M 1375 2016 
Q 1116 1797 991 1539 
Q 866 1281 866 981 
Q 866 578 1086 336 
Q 1306 94 1647 94 
Q 1984 94 2187 284 
Q 2391 475 2391 747 
Q 2391 972 2272 1150 
Q 2050 1481 1375 2016 
z
" transform="scale(0.015625)"/>
       </defs>
       <use xlink:href="#TimesNewRomanPSMT-38"/>
       <use xlink:href="#TimesNewRomanPSMT-30" x="50"/>
       <use xlink:href="#TimesNewRomanPSMT-30" x="100"/>
      </g>
     </g>
    </g>
    <g id="xtick_6">
     <g id="line2d_6">
      <g>
       <use xlink:href="#m599df9e04c" x="323.721279" y="256.32" style="stroke: #000000; stroke-width: 0.8"/>
      </g>
     </g>
     <g id="text_6">
      <!-- 1000 -->
      <g transform="translate(313.721279 270.26375)scale(0.1 -0.1)">
       <defs>
        <path id="TimesNewRomanPSMT-31" d="M 750 3822 
L 1781 4325 
L 1884 4325 
L 1884 747 
Q 1884 391 1914 303 
Q 1944 216 2037 169 
Q 2131 122 2419 116 
L 2419 0 
L 825 0 
L 825 116 
Q 1125 122 1212 167 
Q 1300 213 1334 289 
Q 1369 366 1369 747 
L 1369 3034 
Q 1369 3497 1338 3628 
Q 1316 3728 1258 3775 
Q 1200 3822 1119 3822 
Q 1003 3822 797 3725 
L 750 3822 
z
" transform="scale(0.015625)"/>
       </defs>
       <use xlink:href="#TimesNewRomanPSMT-31"/>
       <use xlink:href="#TimesNewRomanPSMT-30" x="50"/>
       <use xlink:href="#TimesNewRomanPSMT-30" x="100"/>
       <use xlink:href="#TimesNewRomanPSMT-30" x="150"/>
      </g>
     </g>
    </g>
    <g id="text_7">
     <!-- Train Step -->
     <g transform="translate(163.708594 283.346563)scale(0.1 -0.1)">
      <defs>
       <path id="TimesNewRomanPSMT-54" d="M 3703 4238 
L 3750 3244 
L 3631 3244 
Q 3597 3506 3538 3619 
Q 3441 3800 3280 3886 
Q 3119 3972 2856 3972 
L 2259 3972 
L 2259 734 
Q 2259 344 2344 247 
Q 2463 116 2709 116 
L 2856 116 
L 2856 0 
L 1059 0 
L 1059 116 
L 1209 116 
Q 1478 116 1591 278 
Q 1659 378 1659 734 
L 1659 3972 
L 1150 3972 
Q 853 3972 728 3928 
Q 566 3869 450 3700 
Q 334 3531 313 3244 
L 194 3244 
L 244 4238 
L 3703 4238 
z
" transform="scale(0.015625)"/>
       <path id="TimesNewRomanPSMT-72" d="M 1038 2947 
L 1038 2303 
Q 1397 2947 1775 2947 
Q 1947 2947 2059 2842 
Q 2172 2738 2172 2600 
Q 2172 2478 2090 2393 
Q 2009 2309 1897 2309 
Q 1788 2309 1652 2417 
Q 1516 2525 1450 2525 
Q 1394 2525 1328 2463 
Q 1188 2334 1038 2041 
L 1038 669 
Q 1038 431 1097 309 
Q 1138 225 1241 169 
Q 1344 113 1538 113 
L 1538 0 
L 72 0 
L 72 113 
Q 291 113 397 181 
Q 475 231 506 341 
Q 522 394 522 644 
L 522 1753 
Q 522 2253 501 2348 
Q 481 2444 426 2487 
Q 372 2531 291 2531 
Q 194 2531 72 2484 
L 41 2597 
L 906 2947 
L 1038 2947 
z
" transform="scale(0.015625)"/>
       <path id="TimesNewRomanPSMT-61" d="M 1822 413 
Q 1381 72 1269 19 
Q 1100 -59 909 -59 
Q 613 -59 420 144 
Q 228 347 228 678 
Q 228 888 322 1041 
Q 450 1253 767 1440 
Q 1084 1628 1822 1897 
L 1822 2009 
Q 1822 2438 1686 2597 
Q 1550 2756 1291 2756 
Q 1094 2756 978 2650 
Q 859 2544 859 2406 
L 866 2225 
Q 866 2081 792 2003 
Q 719 1925 600 1925 
Q 484 1925 411 2006 
Q 338 2088 338 2228 
Q 338 2497 613 2722 
Q 888 2947 1384 2947 
Q 1766 2947 2009 2819 
Q 2194 2722 2281 2516 
Q 2338 2381 2338 1966 
L 2338 994 
Q 2338 584 2353 492 
Q 2369 400 2405 369 
Q 2441 338 2488 338 
Q 2538 338 2575 359 
Q 2641 400 2828 588 
L 2828 413 
Q 2478 -56 2159 -56 
Q 2006 -56 1915 50 
Q 1825 156 1822 413 
z
M 1822 616 
L 1822 1706 
Q 1350 1519 1213 1441 
Q 966 1303 859 1153 
Q 753 1003 753 825 
Q 753 600 887 451 
Q 1022 303 1197 303 
Q 1434 303 1822 616 
z
" transform="scale(0.015625)"/>
       <path id="TimesNewRomanPSMT-69" d="M 928 4444 
Q 1059 4444 1151 4351 
Q 1244 4259 1244 4128 
Q 1244 3997 1151 3903 
Q 1059 3809 928 3809 
Q 797 3809 703 3903 
Q 609 3997 609 4128 
Q 609 4259 701 4351 
Q 794 4444 928 4444 
z
M 1188 2947 
L 1188 647 
Q 1188 378 1227 289 
Q 1266 200 1342 156 
Q 1419 113 1622 113 
L 1622 0 
L 231 0 
L 231 113 
Q 441 113 512 153 
Q 584 194 626 287 
Q 669 381 669 647 
L 669 1750 
Q 669 2216 641 2353 
Q 619 2453 572 2492 
Q 525 2531 444 2531 
Q 356 2531 231 2484 
L 188 2597 
L 1050 2947 
L 1188 2947 
z
" transform="scale(0.015625)"/>
       <path id="TimesNewRomanPSMT-6e" d="M 1034 2341 
Q 1538 2947 1994 2947 
Q 2228 2947 2397 2830 
Q 2566 2713 2666 2444 
Q 2734 2256 2734 1869 
L 2734 647 
Q 2734 375 2778 278 
Q 2813 200 2889 156 
Q 2966 113 3172 113 
L 3172 0 
L 1756 0 
L 1756 113 
L 1816 113 
Q 2016 113 2095 173 
Q 2175 234 2206 353 
Q 2219 400 2219 647 
L 2219 1819 
Q 2219 2209 2117 2386 
Q 2016 2563 1775 2563 
Q 1403 2563 1034 2156 
L 1034 647 
Q 1034 356 1069 288 
Q 1113 197 1189 155 
Q 1266 113 1500 113 
L 1500 0 
L 84 0 
L 84 113 
L 147 113 
Q 366 113 442 223 
Q 519 334 519 647 
L 519 1709 
Q 519 2225 495 2337 
Q 472 2450 423 2490 
Q 375 2531 294 2531 
Q 206 2531 84 2484 
L 38 2597 
L 900 2947 
L 1034 2947 
L 1034 2341 
z
" transform="scale(0.015625)"/>
       <path id="TimesNewRomanPSMT-20" transform="scale(0.015625)"/>
       <path id="TimesNewRomanPSMT-53" d="M 2934 4334 
L 2934 2869 
L 2819 2869 
Q 2763 3291 2617 3541 
Q 2472 3791 2203 3937 
Q 1934 4084 1647 4084 
Q 1322 4084 1109 3886 
Q 897 3688 897 3434 
Q 897 3241 1031 3081 
Q 1225 2847 1953 2456 
Q 2547 2138 2764 1967 
Q 2981 1797 3098 1565 
Q 3216 1334 3216 1081 
Q 3216 600 2842 251 
Q 2469 -97 1881 -97 
Q 1697 -97 1534 -69 
Q 1438 -53 1133 45 
Q 828 144 747 144 
Q 669 144 623 97 
Q 578 50 556 -97 
L 441 -97 
L 441 1356 
L 556 1356 
Q 638 900 775 673 
Q 913 447 1195 297 
Q 1478 147 1816 147 
Q 2206 147 2432 353 
Q 2659 559 2659 841 
Q 2659 997 2573 1156 
Q 2488 1316 2306 1453 
Q 2184 1547 1640 1851 
Q 1097 2156 867 2337 
Q 638 2519 519 2737 
Q 400 2956 400 3219 
Q 400 3675 750 4004 
Q 1100 4334 1641 4334 
Q 1978 4334 2356 4169 
Q 2531 4091 2603 4091 
Q 2684 4091 2736 4139 
Q 2788 4188 2819 4334 
L 2934 4334 
z
" transform="scale(0.015625)"/>
       <path id="TimesNewRomanPSMT-74" d="M 1031 3803 
L 1031 2863 
L 1700 2863 
L 1700 2644 
L 1031 2644 
L 1031 788 
Q 1031 509 1111 412 
Q 1191 316 1316 316 
Q 1419 316 1516 380 
Q 1613 444 1666 569 
L 1788 569 
Q 1678 263 1478 108 
Q 1278 -47 1066 -47 
Q 922 -47 784 33 
Q 647 113 581 261 
Q 516 409 516 719 
L 516 2644 
L 63 2644 
L 63 2747 
Q 234 2816 414 2980 
Q 594 3144 734 3369 
Q 806 3488 934 3803 
L 1031 3803 
z
" transform="scale(0.015625)"/>
       <path id="TimesNewRomanPSMT-65" d="M 681 1784 
Q 678 1147 991 784 
Q 1303 422 1725 422 
Q 2006 422 2214 576 
Q 2422 731 2563 1106 
L 2659 1044 
Q 2594 616 2278 264 
Q 1963 -88 1488 -88 
Q 972 -88 605 314 
Q 238 716 238 1394 
Q 238 2128 614 2539 
Q 991 2950 1559 2950 
Q 2041 2950 2350 2633 
Q 2659 2316 2659 1784 
L 681 1784 
z
M 681 1966 
L 2006 1966 
Q 1991 2241 1941 2353 
Q 1863 2528 1708 2628 
Q 1553 2728 1384 2728 
Q 1125 2728 920 2526 
Q 716 2325 681 1966 
z
" transform="scale(0.015625)"/>
       <path id="TimesNewRomanPSMT-70" d="M -6 2578 
L 875 2934 
L 994 2934 
L 994 2266 
Q 1216 2644 1439 2795 
Q 1663 2947 1909 2947 
Q 2341 2947 2628 2609 
Q 2981 2197 2981 1534 
Q 2981 794 2556 309 
Q 2206 -88 1675 -88 
Q 1444 -88 1275 -22 
Q 1150 25 994 166 
L 994 -706 
Q 994 -1000 1030 -1079 
Q 1066 -1159 1155 -1206 
Q 1244 -1253 1478 -1253 
L 1478 -1369 
L -22 -1369 
L -22 -1253 
L 56 -1253 
Q 228 -1256 350 -1188 
Q 409 -1153 442 -1076 
Q 475 -1000 475 -688 
L 475 2019 
Q 475 2297 450 2372 
Q 425 2447 370 2484 
Q 316 2522 222 2522 
Q 147 2522 31 2478 
L -6 2578 
z
M 994 2081 
L 994 1013 
Q 994 666 1022 556 
Q 1066 375 1236 237 
Q 1406 100 1666 100 
Q 1978 100 2172 344 
Q 2425 663 2425 1241 
Q 2425 1897 2138 2250 
Q 1938 2494 1663 2494 
Q 1513 2494 1366 2419 
Q 1253 2363 994 2081 
z
" transform="scale(0.015625)"/>
      </defs>
      <use xlink:href="#TimesNewRomanPSMT-54"/>
      <use xlink:href="#TimesNewRomanPSMT-72" x="57.583984"/>
      <use xlink:href="#TimesNewRomanPSMT-61" x="90.884766"/>
      <use xlink:href="#TimesNewRomanPSMT-69" x="135.269531"/>
      <use xlink:href="#TimesNewRomanPSMT-6e" x="163.052734"/>
      <use xlink:href="#TimesNewRomanPSMT-20" x="213.052734"/>
      <use xlink:href="#TimesNewRomanPSMT-53" x="238.052734"/>
      <use xlink:href="#TimesNewRomanPSMT-74" x="293.667969"/>
      <use xlink:href="#TimesNewRomanPSMT-65" x="321.451172"/>
      <use xlink:href="#TimesNewRomanPSMT-70" x="365.835938"/>
     </g>
    </g>
   </g>
   <g id="matplotlib.axis_2">
    <g id="ytick_1">
     <g id="line2d_7">
      <defs>
       <path id="m993b3e15c1" d="M 0 0 
L -3.5 0 
" style="stroke: #000000; stroke-width: 0.8"/>
      </defs>
      <g>
       <use xlink:href="#m993b3e15c1" x="45" y="256.32" style="stroke: #000000; stroke-width: 0.8"/>
      </g>
     </g>
     <g id="text_8">
      <!-- 0 -->
      <g transform="translate(33 259.791875)scale(0.1 -0.1)">
       <use xlink:href="#TimesNewRomanPSMT-30"/>
      </g>
     </g>
    </g>
    <g id="ytick_2">
     <g id="line2d_8">
      <g>
       <use xlink:href="#m993b3e15c1" x="45" y="224.64" style="stroke: #000000; stroke-width: 0.8"/>
      </g>
     </g>
     <g id="text_9">
      <!-- 50 -->
      <g transform="translate(28 228.111875)scale(0.1 -0.1)">
       <defs>
        <path id="TimesNewRomanPSMT-35" d="M 2778 4238 
L 2534 3706 
L 1259 3706 
L 981 3138 
Q 1809 3016 2294 2522 
Q 2709 2097 2709 1522 
Q 2709 1188 2573 903 
Q 2438 619 2231 419 
Q 2025 219 1772 97 
Q 1413 -75 1034 -75 
Q 653 -75 479 54 
Q 306 184 306 341 
Q 306 428 378 495 
Q 450 563 559 563 
Q 641 563 702 538 
Q 763 513 909 409 
Q 1144 247 1384 247 
Q 1750 247 2026 523 
Q 2303 800 2303 1197 
Q 2303 1581 2056 1914 
Q 1809 2247 1375 2428 
Q 1034 2569 447 2591 
L 1259 4238 
L 2778 4238 
z
" transform="scale(0.015625)"/>
       </defs>
       <use xlink:href="#TimesNewRomanPSMT-35"/>
       <use xlink:href="#TimesNewRomanPSMT-30" x="50"/>
      </g>
     </g>
    </g>
    <g id="ytick_3">
     <g id="line2d_9">
      <g>
       <use xlink:href="#m993b3e15c1" x="45" y="192.96" style="stroke: #000000; stroke-width: 0.8"/>
      </g>
     </g>
     <g id="text_10">
      <!-- 100 -->
      <g transform="translate(23 196.431875)scale(0.1 -0.1)">
       <use xlink:href="#TimesNewRomanPSMT-31"/>
       <use xlink:href="#TimesNewRomanPSMT-30" x="50"/>
       <use xlink:href="#TimesNewRomanPSMT-30" x="100"/>
      </g>
     </g>
    </g>
    <g id="ytick_4">
     <g id="line2d_10">
      <g>
       <use xlink:href="#m993b3e15c1" x="45" y="161.28" style="stroke: #000000; stroke-width: 0.8"/>
      </g>
     </g>
     <g id="text_11">
      <!-- 150 -->
      <g transform="translate(23 164.751875)scale(0.1 -0.1)">
       <use xlink:href="#TimesNewRomanPSMT-31"/>
       <use xlink:href="#TimesNewRomanPSMT-35" x="50"/>
       <use xlink:href="#TimesNewRomanPSMT-30" x="100"/>
      </g>
     </g>
    </g>
    <g id="ytick_5">
     <g id="line2d_11">
      <g>
       <use xlink:href="#m993b3e15c1" x="45" y="129.6" style="stroke: #000000; stroke-width: 0.8"/>
      </g>
     </g>
     <g id="text_12">
      <!-- 200 -->
      <g transform="translate(23 133.071875)scale(0.1 -0.1)">
       <use xlink:href="#TimesNewRomanPSMT-32"/>
       <use xlink:href="#TimesNewRomanPSMT-30" x="50"/>
       <use xlink:href="#TimesNewRomanPSMT-30" x="100"/>
      </g>
     </g>
    </g>
    <g id="ytick_6">
     <g id="line2d_12">
      <g>
       <use xlink:href="#m993b3e15c1" x="45" y="97.92" style="stroke: #000000; stroke-width: 0.8"/>
      </g>
     </g>
     <g id="text_13">
      <!-- 250 -->
      <g transform="translate(23 101.391875)scale(0.1 -0.1)">
       <use xlink:href="#TimesNewRomanPSMT-32"/>
       <use xlink:href="#TimesNewRomanPSMT-35" x="50"/>
       <use xlink:href="#TimesNewRomanPSMT-30" x="100"/>
      </g>
     </g>
    </g>
    <g id="ytick_7">
     <g id="line2d_13">
      <g>
       <use xlink:href="#m993b3e15c1" x="45" y="66.24" style="stroke: #000000; stroke-width: 0.8"/>
      </g>
     </g>
     <g id="text_14">
      <!-- 300 -->
      <g transform="translate(23 69.711875)scale(0.1 -0.1)">
       <defs>
        <path id="TimesNewRomanPSMT-33" d="M 325 3431 
Q 506 3859 782 4092 
Q 1059 4325 1472 4325 
Q 1981 4325 2253 3994 
Q 2459 3747 2459 3466 
Q 2459 3003 1878 2509 
Q 2269 2356 2469 2072 
Q 2669 1788 2669 1403 
Q 2669 853 2319 450 
Q 1863 -75 997 -75 
Q 569 -75 414 31 
Q 259 138 259 259 
Q 259 350 332 419 
Q 406 488 509 488 
Q 588 488 669 463 
Q 722 447 909 348 
Q 1097 250 1169 231 
Q 1284 197 1416 197 
Q 1734 197 1970 444 
Q 2206 691 2206 1028 
Q 2206 1275 2097 1509 
Q 2016 1684 1919 1775 
Q 1784 1900 1550 2001 
Q 1316 2103 1072 2103 
L 972 2103 
L 972 2197 
Q 1219 2228 1467 2375 
Q 1716 2522 1828 2728 
Q 1941 2934 1941 3181 
Q 1941 3503 1739 3701 
Q 1538 3900 1238 3900 
Q 753 3900 428 3381 
L 325 3431 
z
" transform="scale(0.015625)"/>
       </defs>
       <use xlink:href="#TimesNewRomanPSMT-33"/>
       <use xlink:href="#TimesNewRomanPSMT-30" x="50"/>
       <use xlink:href="#TimesNewRomanPSMT-30" x="100"/>
      </g>
     </g>
    </g>
    <g id="ytick_8">
     <g id="line2d_14">
      <g>
       <use xlink:href="#m993b3e15c1" x="45" y="34.56" style="stroke: #000000; stroke-width: 0.8"/>
      </g>
     </g>
     <g id="text_15">
      <!-- 350 -->
      <g transform="translate(23 38.031875)scale(0.1 -0.1)">
       <use xlink:href="#TimesNewRomanPSMT-33"/>
       <use xlink:href="#TimesNewRomanPSMT-35" x="50"/>
       <use xlink:href="#TimesNewRomanPSMT-30" x="100"/>
      </g>
     </g>
    </g>
    <g id="text_16">
     <!-- Actor Loss -->
     <g transform="translate(16.860937 167.520469)rotate(-90)scale(0.1 -0.1)">
      <defs>
       <path id="TimesNewRomanPSMT-41" d="M 2928 1419 
L 1288 1419 
L 1000 750 
Q 894 503 894 381 
Q 894 284 986 211 
Q 1078 138 1384 116 
L 1384 0 
L 50 0 
L 50 116 
Q 316 163 394 238 
Q 553 388 747 847 
L 2238 4334 
L 2347 4334 
L 3822 809 
Q 4000 384 4145 257 
Q 4291 131 4550 116 
L 4550 0 
L 2878 0 
L 2878 116 
Q 3131 128 3220 200 
Q 3309 272 3309 375 
Q 3309 513 3184 809 
L 2928 1419 
z
M 2841 1650 
L 2122 3363 
L 1384 1650 
L 2841 1650 
z
" transform="scale(0.015625)"/>
       <path id="TimesNewRomanPSMT-63" d="M 2631 1088 
Q 2516 522 2178 217 
Q 1841 -88 1431 -88 
Q 944 -88 581 321 
Q 219 731 219 1428 
Q 219 2103 620 2525 
Q 1022 2947 1584 2947 
Q 2006 2947 2278 2723 
Q 2550 2500 2550 2259 
Q 2550 2141 2473 2067 
Q 2397 1994 2259 1994 
Q 2075 1994 1981 2113 
Q 1928 2178 1911 2362 
Q 1894 2547 1784 2644 
Q 1675 2738 1481 2738 
Q 1169 2738 978 2506 
Q 725 2200 725 1697 
Q 725 1184 976 792 
Q 1228 400 1656 400 
Q 1963 400 2206 609 
Q 2378 753 2541 1131 
L 2631 1088 
z
" transform="scale(0.015625)"/>
       <path id="TimesNewRomanPSMT-6f" d="M 1600 2947 
Q 2250 2947 2644 2453 
Q 2978 2031 2978 1484 
Q 2978 1100 2793 706 
Q 2609 313 2286 112 
Q 1963 -88 1566 -88 
Q 919 -88 538 428 
Q 216 863 216 1403 
Q 216 1797 411 2186 
Q 606 2575 925 2761 
Q 1244 2947 1600 2947 
z
M 1503 2744 
Q 1338 2744 1170 2645 
Q 1003 2547 900 2300 
Q 797 2053 797 1666 
Q 797 1041 1045 587 
Q 1294 134 1700 134 
Q 2003 134 2200 384 
Q 2397 634 2397 1244 
Q 2397 2006 2069 2444 
Q 1847 2744 1503 2744 
z
" transform="scale(0.015625)"/>
       <path id="TimesNewRomanPSMT-4c" d="M 3669 1172 
L 3772 1150 
L 3409 0 
L 128 0 
L 128 116 
L 288 116 
Q 556 116 672 291 
Q 738 391 738 753 
L 738 3488 
Q 738 3884 650 3984 
Q 528 4122 288 4122 
L 128 4122 
L 128 4238 
L 2047 4238 
L 2047 4122 
Q 1709 4125 1573 4059 
Q 1438 3994 1388 3894 
Q 1338 3794 1338 3416 
L 1338 753 
Q 1338 494 1388 397 
Q 1425 331 1503 300 
Q 1581 269 1991 269 
L 2300 269 
Q 2788 269 2984 341 
Q 3181 413 3343 595 
Q 3506 778 3669 1172 
z
" transform="scale(0.015625)"/>
       <path id="TimesNewRomanPSMT-73" d="M 2050 2947 
L 2050 1972 
L 1947 1972 
Q 1828 2431 1642 2597 
Q 1456 2763 1169 2763 
Q 950 2763 815 2647 
Q 681 2531 681 2391 
Q 681 2216 781 2091 
Q 878 1963 1175 1819 
L 1631 1597 
Q 2266 1288 2266 781 
Q 2266 391 1970 151 
Q 1675 -88 1309 -88 
Q 1047 -88 709 6 
Q 606 38 541 38 
Q 469 38 428 -44 
L 325 -44 
L 325 978 
L 428 978 
Q 516 541 762 319 
Q 1009 97 1316 97 
Q 1531 97 1667 223 
Q 1803 350 1803 528 
Q 1803 744 1651 891 
Q 1500 1038 1047 1263 
Q 594 1488 453 1669 
Q 313 1847 313 2119 
Q 313 2472 555 2709 
Q 797 2947 1181 2947 
Q 1350 2947 1591 2875 
Q 1750 2828 1803 2828 
Q 1853 2828 1881 2850 
Q 1909 2872 1947 2947 
L 2050 2947 
z
" transform="scale(0.015625)"/>
      </defs>
      <use xlink:href="#TimesNewRomanPSMT-41"/>
      <use xlink:href="#TimesNewRomanPSMT-63" x="72.216797"/>
      <use xlink:href="#TimesNewRomanPSMT-74" x="116.601562"/>
      <use xlink:href="#TimesNewRomanPSMT-6f" x="144.384766"/>
      <use xlink:href="#TimesNewRomanPSMT-72" x="194.384766"/>
      <use xlink:href="#TimesNewRomanPSMT-20" x="227.685547"/>
      <use xlink:href="#TimesNewRomanPSMT-4c" x="252.685547"/>
      <use xlink:href="#TimesNewRomanPSMT-6f" x="313.769531"/>
      <use xlink:href="#TimesNewRomanPSMT-73" x="363.769531"/>
      <use xlink:href="#TimesNewRomanPSMT-73" x="402.685547"/>
     </g>
    </g>
   </g>
   <g id="line2d_15">
    <path d="M 45.278721 233.147293 
L 45.557443 182.500505 
L 45.836164 213.88701 
L 46.114885 176.959608 
L 46.393606 171.272387 
L 46.672328 171.017539 
L 46.951049 172.303998 
L 47.22977 174.299061 
L 47.508492 177.251823 
L 47.787213 178.650275 
L 48.065934 175.946241 
L 48.344655 175.51795 
L 48.623377 177.113774 
L 49.180819 172.737355 
L 49.45954 173.142791 
L 49.738262 170.350682 
L 50.016983 169.200986 
L 50.295704 172.021867 
L 50.574426 169.896442 
L 50.853147 169.689702 
L 51.131868 167.773888 
L 51.410589 168.823027 
L 51.689311 179.718827 
L 51.968032 175.076501 
L 52.246753 174.900447 
L 52.804196 168.676905 
L 53.361638 170.891546 
L 53.64036 171.113707 
L 53.919081 166.102808 
L 54.197802 166.661191 
L 54.476523 160.366097 
L 54.755245 161.218222 
L 55.033966 163.815976 
L 55.591409 159.644489 
L 56.148851 150.089326 
L 56.427572 148.828507 
L 56.706294 153.177604 
L 56.985015 165.033657 
L 57.263736 150.585544 
L 57.542458 170.981323 
L 58.0999 159.179373 
L 58.378621 166.692274 
L 58.657343 157.751858 
L 58.936064 154.397373 
L 59.214785 156.519396 
L 59.493506 152.024244 
L 59.772228 144.171592 
L 60.050949 140.398744 
L 60.32967 159.743789 
L 60.608392 162.674914 
L 60.887113 151.075333 
L 61.165834 165.427675 
L 61.444555 142.374916 
L 61.723277 160.111568 
L 62.280719 135.760855 
L 62.559441 158.569546 
L 63.116883 133.084104 
L 63.395604 164.776537 
L 63.674326 164.784677 
L 64.231768 125.972849 
L 64.51049 163.503111 
L 65.067932 126.36211 
L 65.346653 137.24514 
L 65.625375 129.008243 
L 65.904096 125.173501 
L 66.182817 136.673598 
L 66.461538 95.133546 
L 66.74026 93.965414 
L 67.576424 79.48357 
L 67.855145 84.149351 
L 68.133866 83.770502 
L 68.412587 80.517695 
L 68.691309 85.2084 
L 68.97003 83.82066 
L 69.527473 89.611038 
L 69.806194 84.523792 
L 70.084915 72.768741 
L 70.363636 66.135547 
L 70.642358 69.524518 
L 71.1998 72.218749 
L 71.478521 68.546062 
L 71.757243 69.808331 
L 72.035964 68.823513 
L 72.314685 68.571875 
L 72.593407 54.825996 
L 72.872128 54.071314 
L 73.150849 53.88712 
L 73.42957 55.043738 
L 73.708292 66.41615 
L 73.987013 65.337321 
L 74.544456 47.322531 
L 74.823177 49.371405 
L 75.101898 48.447766 
L 75.380619 63.521213 
L 75.659341 67.02152 
L 75.938062 54.361972 
L 76.216783 61.850916 
L 76.495504 66.099408 
L 76.774226 63.265321 
L 77.052947 65.958913 
L 77.331668 60.068858 
L 77.889111 67.941563 
L 78.167832 67.979345 
L 78.446553 77.439626 
L 78.725275 78.850724 
L 79.003996 85.354889 
L 79.282717 82.920649 
L 79.561439 88.08727 
L 79.84016 99.82954 
L 80.118881 87.768188 
L 80.397602 87.437698 
L 80.676324 103.105724 
L 80.955045 104.856168 
L 81.233766 104.562359 
L 81.512488 104.008365 
L 81.791209 127.295021 
L 82.06993 133.818831 
L 82.348651 134.879484 
L 82.627373 123.009752 
L 82.906094 126.541026 
L 83.184815 136.422947 
L 83.463536 141.94995 
L 84.020979 130.279765 
L 84.2997 129.738117 
L 84.578422 129.630406 
L 84.857143 129.783073 
L 85.414585 145.480083 
L 85.693307 148.328576 
L 85.972028 137.947634 
L 86.250749 134.913883 
L 86.529471 146.411728 
L 86.808192 127.137675 
L 87.086913 137.199236 
L 87.365634 131.219926 
L 87.644356 142.394358 
L 87.923077 135.248433 
L 88.201798 132.574467 
L 88.480519 131.564512 
L 88.759241 150.454969 
L 89.037962 122.09667 
L 89.316683 109.141012 
L 89.595405 116.749568 
L 89.874126 114.079488 
L 90.431568 136.442099 
L 90.71029 161.061523 
L 90.989011 131.251618 
L 91.267732 141.270447 
L 91.546454 142.587495 
L 91.825175 134.008632 
L 92.103896 118.357912 
L 92.382617 117.883911 
L 92.661339 150.198265 
L 92.94006 105.482585 
L 93.218781 119.109587 
L 93.497502 109.811215 
L 93.776224 134.884918 
L 94.333666 91.620236 
L 94.612388 114.636643 
L 94.891109 105.910895 
L 95.16983 85.827904 
L 95.448551 125.014801 
L 95.727273 98.41353 
L 96.005994 103.627833 
L 96.284715 112.983759 
L 96.563437 93.767549 
L 96.842158 123.707044 
L 97.120879 110.945364 
L 97.3996 118.517317 
L 97.678322 107.87153 
L 97.957043 92.189795 
L 98.235764 110.556325 
L 98.514486 118.701086 
L 98.793207 96.649697 
L 99.071928 92.193391 
L 99.350649 137.478582 
L 99.629371 106.577473 
L 99.908092 115.63779 
L 100.186813 113.966663 
L 100.465534 126.76017 
L 100.744256 115.408099 
L 101.022977 114.101859 
L 101.301698 94.936475 
L 101.58042 123.050425 
L 101.859141 106.139417 
L 102.137862 111.050619 
L 102.416583 101.018391 
L 102.974026 140.497676 
L 103.252747 113.24927 
L 103.531469 111.898955 
L 103.81019 132.421519 
L 104.367632 111.824337 
L 104.646354 126.604515 
L 104.925075 126.483743 
L 105.203796 126.6233 
L 105.482517 121.06242 
L 105.761239 133.452202 
L 106.03996 96.238257 
L 106.318681 155.134981 
L 106.597403 110.165739 
L 106.876124 103.476027 
L 107.433566 119.268441 
L 107.712288 104.391506 
L 107.991009 100.047823 
L 108.26973 118.912641 
L 108.827173 89.913027 
L 109.384615 119.005763 
L 109.663337 116.487585 
L 109.942058 152.931419 
L 110.220779 121.911741 
L 110.778222 109.964907 
L 111.056943 122.355269 
L 111.335664 121.531036 
L 111.614386 134.884724 
L 111.893107 96.769086 
L 112.171828 101.999709 
L 112.450549 138.969403 
L 112.729271 126.969442 
L 113.007992 103.963834 
L 113.286713 127.948614 
L 113.565435 98.598082 
L 113.844156 128.653274 
L 114.401598 92.755062 
L 114.68032 121.254841 
L 114.959041 136.397646 
L 115.237762 108.796629 
L 115.516484 130.646983 
L 115.795205 122.765539 
L 116.073926 109.413784 
L 116.352647 114.347271 
L 116.631369 125.076792 
L 116.91009 148.57684 
L 117.467532 109.475717 
L 117.746254 123.502035 
L 118.024975 123.84112 
L 118.303696 140.928094 
L 118.582418 140.084738 
L 118.861139 119.766496 
L 119.13986 153.893807 
L 119.418581 167.76713 
L 119.697303 124.18296 
L 119.976024 120.891867 
L 120.254745 153.036094 
L 120.533467 129.400443 
L 120.812188 120.957397 
L 121.36963 162.199869 
L 121.648352 133.673618 
L 121.927073 138.902365 
L 122.205794 151.454076 
L 122.484515 151.387077 
L 122.763237 165.319074 
L 123.041958 163.998091 
L 123.320679 143.281819 
L 123.599401 113.704612 
L 123.878122 137.473884 
L 124.156843 126.753151 
L 124.435564 149.660281 
L 124.714286 129.397456 
L 124.993007 136.582391 
L 125.271728 131.961846 
L 125.55045 131.959767 
L 125.829171 134.18662 
L 126.107892 110.091325 
L 126.386613 136.442747 
L 126.665335 129.249584 
L 126.944056 135.161103 
L 127.222777 138.074361 
L 127.501499 173.794122 
L 127.78022 138.07177 
L 128.058941 119.914097 
L 128.337662 124.698553 
L 128.616384 150.796306 
L 128.895105 113.489993 
L 129.173826 145.021261 
L 129.452547 127.272804 
L 129.731269 142.54657 
L 130.00999 135.617218 
L 130.288711 140.154657 
L 130.567433 140.071551 
L 130.846154 179.325206 
L 131.124875 141.756794 
L 131.403596 162.461116 
L 131.961039 139.201617 
L 132.23976 152.997374 
L 132.797203 117.984709 
L 133.075924 113.584401 
L 133.354645 140.377542 
L 133.633367 149.986594 
L 133.912088 102.665049 
L 134.190809 135.858424 
L 134.46953 148.702292 
L 134.748252 138.67481 
L 135.026973 122.408162 
L 135.584416 153.52161 
L 135.863137 123.394092 
L 136.141858 116.619031 
L 136.420579 132.840877 
L 136.699301 127.338971 
L 136.978022 148.372624 
L 137.256743 144.059366 
L 137.814186 118.17248 
L 138.092907 115.645138 
L 138.371628 119.118017 
L 138.65035 125.478622 
L 138.929071 112.74293 
L 139.207792 107.007272 
L 139.486513 107.438231 
L 139.765235 119.069455 
L 140.043956 105.202204 
L 140.322677 105.318336 
L 140.601399 107.653392 
L 140.88012 99.155856 
L 141.158841 120.765642 
L 141.437562 118.170682 
L 141.716284 110.147196 
L 141.995005 90.856756 
L 142.273726 122.540817 
L 142.552448 111.772691 
L 142.831169 127.42258 
L 143.10989 97.80325 
L 143.388611 87.685121 
L 143.946054 110.933028 
L 144.224775 73.507876 
L 144.782218 105.368841 
L 145.060939 103.295159 
L 145.33966 113.226531 
L 145.618382 108.124947 
L 145.897103 105.248504 
L 146.175824 94.606942 
L 146.454545 114.780357 
L 146.733267 93.964815 
L 147.011988 82.181436 
L 147.290709 93.789399 
L 147.569431 92.123241 
L 147.848152 84.350929 
L 148.126873 91.474404 
L 148.405594 111.061206 
L 148.684316 91.818178 
L 148.963037 108.194228 
L 149.241758 90.489335 
L 149.52048 108.83038 
L 149.799201 82.769462 
L 150.077922 87.84762 
L 150.356643 98.307618 
L 150.635365 97.858164 
L 150.914086 78.761876 
L 151.192807 101.140449 
L 151.471528 98.96677 
L 152.028971 97.2596 
L 152.307692 103.902935 
L 152.586414 97.64395 
L 153.143856 106.184064 
L 153.701299 100.348265 
L 153.98002 89.661002 
L 154.537463 100.901834 
L 154.816184 95.283874 
L 155.094905 118.164688 
L 155.373626 101.780091 
L 155.652348 92.928814 
L 155.931069 107.801979 
L 156.488511 98.487954 
L 156.767233 140.112031 
L 157.045954 119.488484 
L 157.324675 133.454329 
L 157.603397 129.581786 
L 157.882118 107.834502 
L 158.160839 111.419211 
L 158.43956 124.644161 
L 158.718282 109.225935 
L 158.997003 106.094712 
L 159.275724 108.503293 
L 159.554446 112.041016 
L 159.833167 99.123585 
L 160.111888 113.20705 
L 160.390609 99.896104 
L 160.669331 99.873935 
L 160.948052 120.095323 
L 161.226773 87.477569 
L 161.505495 110.816771 
L 161.784216 98.152534 
L 162.062937 121.95573 
L 162.341658 95.431504 
L 162.62038 105.611952 
L 162.899101 103.518846 
L 163.177822 102.654946 
L 163.456543 98.833894 
L 163.735265 125.688707 
L 164.292707 104.687327 
L 164.571429 103.567235 
L 164.85015 112.858481 
L 165.128871 93.788374 
L 165.407592 131.670686 
L 165.686314 103.882082 
L 165.965035 93.674872 
L 166.243756 93.693087 
L 166.522478 107.027343 
L 166.801199 97.014827 
L 167.07992 91.945389 
L 167.358641 95.149373 
L 167.637363 73.597827 
L 167.916084 95.407981 
L 168.194805 75.608416 
L 168.473526 86.314841 
L 168.752248 79.286305 
L 169.030969 84.279347 
L 169.30969 86.06999 
L 169.588412 85.393387 
L 169.867133 96.48276 
L 170.145854 92.090602 
L 170.424575 104.754867 
L 170.703297 111.782282 
L 170.982018 98.445686 
L 171.539461 121.340896 
L 171.818182 115.39497 
L 172.096903 121.669675 
L 172.375624 122.181323 
L 172.654346 133.613628 
L 172.933067 117.913601 
L 173.211788 132.472344 
L 173.490509 96.008179 
L 173.769231 99.062348 
L 174.047952 96.040789 
L 174.326673 99.564473 
L 174.605395 95.59408 
L 174.884116 123.336239 
L 175.162837 99.973863 
L 175.441558 97.729908 
L 175.72028 106.108479 
L 175.999001 118.036452 
L 176.277722 116.464218 
L 176.556444 108.505285 
L 176.835165 93.296739 
L 177.113886 93.087079 
L 177.392607 131.066882 
L 177.671329 112.020578 
L 177.95005 116.260514 
L 178.228771 133.211518 
L 178.507493 102.738206 
L 178.786214 98.04199 
L 179.343656 72.415202 
L 179.622378 79.838307 
L 179.901099 79.379504 
L 180.17982 98.205398 
L 180.737263 93.798158 
L 181.015984 82.758749 
L 181.573427 91.998563 
L 181.852148 78.45223 
L 182.130869 74.997459 
L 182.40959 89.138178 
L 182.688312 84.758414 
L 182.967033 76.367062 
L 183.245754 71.633373 
L 183.524476 80.778208 
L 183.803197 78.58704 
L 184.081918 77.380207 
L 184.360639 87.704998 
L 184.639361 87.958357 
L 184.918082 82.834218 
L 185.196803 88.198567 
L 185.475524 78.205581 
L 185.754246 75.530763 
L 186.032967 70.840522 
L 186.311688 75.443829 
L 186.59041 94.16208 
L 186.869131 102.757329 
L 187.147852 101.4086 
L 187.426573 85.389384 
L 187.705295 99.096708 
L 187.984016 99.984469 
L 188.262737 70.549091 
L 188.541459 100.708049 
L 188.82018 94.507864 
L 189.098901 95.171706 
L 189.377622 97.449905 
L 189.656344 74.043211 
L 189.935065 87.309288 
L 190.213786 87.672301 
L 190.771229 110.501411 
L 191.04995 93.365478 
L 191.607393 84.065453 
L 191.886114 92.447466 
L 192.164835 93.111036 
L 192.443556 91.164565 
L 192.722278 88.117704 
L 193.000999 101.345245 
L 193.27972 90.868087 
L 193.558442 93.203539 
L 193.837163 96.766205 
L 194.115884 81.917153 
L 194.394605 90.008237 
L 194.673327 88.684344 
L 194.952048 88.21015 
L 195.230769 109.347346 
L 195.509491 86.726696 
L 195.788212 90.850472 
L 196.066933 87.949849 
L 196.345654 111.813412 
L 196.624376 79.622731 
L 196.903097 97.163597 
L 197.181818 85.616195 
L 197.460539 90.398436 
L 197.739261 91.080647 
L 198.017982 95.574705 
L 198.296703 103.21185 
L 198.575425 86.48171 
L 198.854146 111.383865 
L 199.132867 91.65941 
L 199.69031 81.479735 
L 199.969031 85.918686 
L 200.247752 80.680155 
L 200.526474 99.77275 
L 200.805195 89.033164 
L 201.083916 96.854774 
L 201.362637 85.730876 
L 201.641359 105.750697 
L 201.92008 89.98457 
L 202.198801 83.184701 
L 202.477522 90.868435 
L 202.756244 91.902927 
L 203.034965 87.528809 
L 203.313686 87.247839 
L 203.592408 83.013655 
L 203.871129 85.096851 
L 204.14985 102.690195 
L 204.428571 100.791348 
L 204.707293 96.902688 
L 204.986014 115.637887 
L 205.264735 97.221132 
L 205.543457 96.754497 
L 205.822178 103.526552 
L 206.100899 104.532417 
L 206.37962 104.330153 
L 206.658342 96.465899 
L 206.937063 102.918968 
L 207.215784 97.274885 
L 207.494505 98.558047 
L 207.773227 102.386331 
L 208.051948 92.381259 
L 208.609391 116.908026 
L 208.888112 95.42695 
L 209.166833 104.983795 
L 209.445554 122.11736 
L 209.724276 121.583949 
L 210.002997 96.98444 
L 210.281718 106.820661 
L 210.56044 100.118022 
L 210.839161 110.47377 
L 211.396603 93.568061 
L 211.675325 125.235067 
L 211.954046 91.138887 
L 212.232767 104.882397 
L 212.79021 113.42485 
L 213.068931 114.315599 
L 213.347652 125.389203 
L 213.626374 106.853068 
L 213.905095 100.393569 
L 214.183816 98.616403 
L 214.462537 89.619179 
L 214.741259 114.458762 
L 215.01998 106.188279 
L 215.298701 86.788726 
L 215.577423 91.632765 
L 215.856144 109.901591 
L 216.134865 94.02814 
L 216.692308 85.82307 
L 216.971029 89.921399 
L 217.24975 85.936514 
L 217.528472 85.253356 
L 217.807193 91.887091 
L 218.085914 89.664773 
L 218.364635 82.943698 
L 218.643357 105.127867 
L 218.922078 94.177249 
L 219.47952 94.745561 
L 219.758242 104.189716 
L 220.036963 89.653365 
L 220.315684 86.177788 
L 220.594406 98.475715 
L 220.873127 101.811686 
L 221.151848 89.347721 
L 221.430569 95.352246 
L 221.709291 97.116089 
L 221.988012 97.026003 
L 222.266733 108.954729 
L 222.545455 101.780478 
L 222.824176 102.381574 
L 223.102897 84.798904 
L 223.381618 85.394779 
L 223.66034 87.950468 
L 223.939061 89.306575 
L 224.217782 94.766695 
L 224.496503 90.704138 
L 224.775225 91.162013 
L 225.053946 78.971941 
L 225.332667 80.623366 
L 225.611389 94.909491 
L 226.168831 76.508176 
L 226.726274 91.510465 
L 227.004995 81.376713 
L 227.283716 77.399988 
L 227.562438 88.241164 
L 227.841159 83.338093 
L 228.11988 71.233525 
L 228.398601 75.091954 
L 228.677323 91.211629 
L 228.956044 88.495935 
L 229.234765 84.536998 
L 229.513487 72.978748 
L 229.792208 80.456729 
L 230.070929 73.350095 
L 230.34965 78.887598 
L 230.628372 76.437619 
L 230.907093 77.158037 
L 231.185814 94.890175 
L 231.464535 98.781039 
L 231.743257 91.385729 
L 232.021978 90.6796 
L 232.300699 82.66205 
L 232.579421 79.141247 
L 232.858142 94.934058 
L 233.136863 103.14983 
L 233.694306 86.531229 
L 233.973027 89.489241 
L 234.251748 104.112953 
L 234.53047 81.784624 
L 234.809191 97.697211 
L 235.087912 79.449694 
L 235.366633 83.596827 
L 235.645355 60.550671 
L 235.924076 90.764833 
L 236.202797 89.03533 
L 236.481518 88.134411 
L 236.76024 90.598331 
L 237.038961 81.380851 
L 237.317682 67.026895 
L 237.596404 75.989547 
L 237.875125 70.84 
L 238.153846 96.115367 
L 238.432567 85.899988 
L 238.711289 101.650289 
L 238.99001 88.520105 
L 239.268731 91.317512 
L 239.547453 86.760148 
L 239.826174 100.686895 
L 240.383616 62.860523 
L 240.662338 63.615456 
L 240.941059 94.97941 
L 241.21978 90.835274 
L 241.498501 91.697347 
L 242.055944 66.069573 
L 242.334665 85.654364 
L 242.613387 80.042263 
L 242.892108 76.897176 
L 243.170829 97.424555 
L 243.44955 80.024783 
L 243.728272 84.154939 
L 244.006993 82.790441 
L 244.285714 96.169595 
L 244.564436 94.851512 
L 244.843157 107.51107 
L 245.121878 104.101767 
L 245.400599 108.380878 
L 245.679321 110.276718 
L 245.958042 99.538244 
L 246.236763 104.70937 
L 246.515485 87.242831 
L 246.794206 112.034828 
L 247.072927 95.605411 
L 247.351648 100.584541 
L 247.63037 110.156371 
L 248.187812 75.396765 
L 248.466533 99.072886 
L 248.745255 95.48607 
L 249.023976 95.342113 
L 249.302697 123.740786 
L 249.581419 119.487943 
L 249.86014 121.019301 
L 250.138861 88.228093 
L 250.417582 109.863548 
L 250.696304 113.769765 
L 250.975025 114.263904 
L 251.253746 110.609016 
L 251.532468 142.917318 
L 251.811189 110.245838 
L 252.08991 98.366883 
L 252.368631 106.769943 
L 252.647353 87.995985 
L 252.926074 80.313585 
L 253.483516 127.355388 
L 253.762238 99.15401 
L 254.040959 89.487636 
L 254.31968 107.549732 
L 254.598402 98.113611 
L 254.877123 123.189769 
L 255.155844 88.459506 
L 255.434565 85.413612 
L 255.713287 84.436432 
L 255.992008 111.768959 
L 256.270729 83.903456 
L 256.549451 98.356103 
L 256.828172 101.423014 
L 257.106893 130.604502 
L 257.664336 97.75228 
L 257.943057 125.105226 
L 258.221778 106.274749 
L 258.5005 132.754987 
L 258.779221 112.202606 
L 259.057942 119.414921 
L 259.336663 98.559091 
L 259.615385 121.460643 
L 259.894106 103.278501 
L 260.172827 107.223776 
L 260.451548 96.555115 
L 260.73027 90.716087 
L 261.008991 94.758478 
L 261.287712 81.218449 
L 261.566434 93.433308 
L 261.845155 100.067217 
L 262.123876 133.921389 
L 262.402597 108.901304 
L 262.681319 100.304953 
L 262.96004 100.075725 
L 263.796204 82.73282 
L 264.074925 70.300702 
L 264.353646 95.811029 
L 264.632368 92.265263 
L 264.911089 114.394064 
L 265.468531 87.045836 
L 265.747253 88.271928 
L 266.025974 80.343014 
L 266.304695 87.944261 
L 266.583417 89.125745 
L 267.41958 75.214079 
L 267.698302 99.074162 
L 267.977023 91.636149 
L 268.255744 78.976099 
L 268.534466 79.082311 
L 268.813187 71.560767 
L 269.091908 79.053288 
L 269.370629 72.081387 
L 269.649351 81.229161 
L 269.928072 80.547047 
L 270.206793 80.686846 
L 270.485514 69.958185 
L 270.764236 78.698918 
L 271.042957 108.083336 
L 271.321678 94.255521 
L 271.879121 78.954539 
L 272.157842 86.021805 
L 272.436563 83.945067 
L 272.994006 76.456723 
L 273.272727 93.569433 
L 273.551449 79.961071 
L 273.83017 94.341459 
L 274.108891 93.830372 
L 274.387612 82.642018 
L 274.666334 79.679443 
L 274.945055 94.469521 
L 275.223776 90.111008 
L 275.502498 71.529926 
L 275.781219 87.146209 
L 276.05994 87.241477 
L 276.338661 71.39703 
L 276.617383 95.061974 
L 276.896104 103.568859 
L 277.174825 70.287418 
L 277.453546 99.464168 
L 277.732268 90.024305 
L 278.010989 90.77425 
L 278.28971 93.379187 
L 278.568432 80.873399 
L 278.847153 78.702224 
L 279.125874 99.311578 
L 279.404595 78.335944 
L 279.683317 89.337531 
L 279.962038 76.778685 
L 280.240759 96.14703 
L 280.519481 97.334256 
L 280.798202 115.087141 
L 281.076923 121.710251 
L 281.355644 78.908191 
L 281.634366 75.916496 
L 282.191808 98.396747 
L 282.470529 114.016733 
L 282.749251 93.318511 
L 283.027972 84.43794 
L 283.306693 88.393764 
L 283.585415 105.000269 
L 283.864136 101.938897 
L 284.142857 108.930734 
L 284.421578 91.252311 
L 284.7003 101.443646 
L 284.979021 82.984767 
L 285.257742 84.822919 
L 285.536464 92.60486 
L 285.815185 107.495079 
L 286.093906 77.751264 
L 286.372627 110.585329 
L 286.651349 89.08309 
L 286.93007 85.11261 
L 287.208791 84.478391 
L 287.487512 77.005941 
L 287.766234 101.098316 
L 288.044955 104.232565 
L 288.323676 85.16735 
L 288.602398 87.286549 
L 288.881119 85.371673 
L 289.438561 72.057294 
L 289.996004 105.287978 
L 290.274725 87.039011 
L 290.553447 97.749505 
L 290.832168 81.862355 
L 291.110889 105.590257 
L 291.38961 95.77287 
L 291.668332 74.977021 
L 292.225774 97.154104 
L 292.504496 86.416935 
L 292.783217 95.947048 
L 293.061938 75.143948 
L 293.340659 75.254955 
L 293.619381 90.696848 
L 293.898102 69.527767 
L 294.176823 75.417455 
L 294.455544 84.504901 
L 294.734266 79.942431 
L 295.012987 80.518797 
L 295.291708 85.531852 
L 295.57043 78.039311 
L 296.127872 85.397022 
L 296.406593 70.344671 
L 296.685315 76.514537 
L 296.964036 61.492331 
L 297.242757 60.189998 
L 297.521479 64.308901 
L 297.8002 71.801789 
L 298.078921 63.91379 
L 298.357642 62.183282 
L 298.636364 66.25222 
L 298.915085 66.999438 
L 299.193806 70.251124 
L 299.472527 69.464442 
L 299.751249 92.15791 
L 300.02997 72.672332 
L 300.308691 68.607183 
L 300.587413 71.76246 
L 300.866134 69.011111 
L 301.144855 68.865434 
L 301.423576 66.081407 
L 301.702298 68.119763 
L 301.981019 73.592645 
L 302.25974 72.666028 
L 302.538462 70.701342 
L 302.817183 67.816575 
L 303.095904 71.219449 
L 303.374625 71.193751 
L 303.653347 81.948013 
L 303.932068 86.432984 
L 304.210789 78.418702 
L 304.48951 84.083396 
L 304.768232 74.464599 
L 305.046953 77.027984 
L 305.604396 69.464964 
L 305.883117 68.151783 
L 306.161838 71.7514 
L 306.440559 73.727571 
L 306.719281 73.194557 
L 306.998002 98.591537 
L 307.276723 91.845596 
L 307.555445 97.696941 
L 307.834166 78.797976 
L 308.112887 82.368144 
L 308.391608 90.623159 
L 308.67033 95.268869 
L 308.949051 68.619113 
L 309.227772 113.846287 
L 309.506494 89.862038 
L 309.785215 89.075104 
L 310.063936 73.114738 
L 310.342657 79.092192 
L 310.621379 78.18259 
L 310.9001 82.9483 
L 311.178821 94.477178 
L 311.457542 86.208803 
L 312.014985 96.003712 
L 312.293706 82.894932 
L 312.572428 90.049964 
L 312.851149 89.700834 
L 313.12987 91.400212 
L 313.408591 94.175915 
L 313.687313 68.9788 
L 313.966034 89.768065 
L 314.244755 78.89336 
L 314.523477 101.409247 
L 314.802198 66.185763 
L 315.080919 83.116406 
L 315.35964 86.02778 
L 315.638362 85.883592 
L 315.917083 71.588784 
L 316.474525 71.734655 
L 316.753247 64.647067 
L 317.031968 73.903915 
L 317.310689 67.294389 
L 317.589411 74.12651 
L 317.868132 69.743363 
L 318.146853 62.641118 
L 318.425574 81.013623 
L 318.704296 65.494754 
L 318.983017 72.893767 
L 319.261738 72.782411 
L 319.54046 71.721893 
L 319.819181 65.930161 
L 320.097902 73.82661 
L 320.376623 72.709882 
L 320.655345 67.018059 
L 320.934066 73.355161 
L 321.212787 63.768674 
L 321.491508 66.76586 
L 321.77023 64.056122 
L 322.048951 78.148153 
L 322.327672 76.590257 
L 322.606394 69.797929 
L 322.885115 65.758071 
L 323.163836 65.750433 
L 323.442557 67.228724 
L 323.721279 78.697294 
L 323.721279 78.697294 
" clip-path="url(#p0bfa7b3f9f)" style="fill: none; stroke: #0000ff; stroke-linecap: square"/>
   </g>
   <g id="patch_3">
    <path d="M 45 256.32 
L 45 34.56 
" style="fill: none; stroke: #000000; stroke-width: 0.8; stroke-linejoin: miter; stroke-linecap: square"/>
   </g>
   <g id="patch_4">
    <path d="M 324 256.32 
L 324 34.56 
" style="fill: none; stroke: #000000; stroke-width: 0.8; stroke-linejoin: miter; stroke-linecap: square"/>
   </g>
   <g id="patch_5">
    <path d="M 45 256.32 
L 324 256.32 
" style="fill: none; stroke: #000000; stroke-width: 0.8; stroke-linejoin: miter; stroke-linecap: square"/>
   </g>
   <g id="patch_6">
    <path d="M 45 34.56 
L 324 34.56 
" style="fill: none; stroke: #000000; stroke-width: 0.8; stroke-linejoin: miter; stroke-linecap: square"/>
   </g>
  </g>
 </g>
 <defs>
  <clipPath id="p0bfa7b3f9f">
   <rect x="45" y="34.56" width="279" height="221.76"/>
  </clipPath>
 </defs>
</svg>
