<?xml version="1.0" encoding="utf-8" standalone="no"?>
<!DOCTYPE svg PUBLIC "-//W3C//DTD SVG 1.1//EN"
  "http://www.w3.org/Graphics/SVG/1.1/DTD/svg11.dtd">
<svg xmlns:xlink="http://www.w3.org/1999/xlink" width="360pt" height="288pt" viewBox="0 0 360 288" xmlns="http://www.w3.org/2000/svg" version="1.1">
 <metadata>
  <rdf:RDF xmlns:dc="http://purl.org/dc/elements/1.1/" xmlns:cc="http://creativecommons.org/ns#" xmlns:rdf="http://www.w3.org/1999/02/22-rdf-syntax-ns#">
   <cc:Work>
    <dc:type rdf:resource="http://purl.org/dc/dcmitype/StillImage"/>
    <dc:date>2025-06-13T19:14:11.667593</dc:date>
    <dc:format>image/svg+xml</dc:format>
    <dc:creator>
     <cc:Agent>
      <dc:title>Matplotlib v3.5.1, https://matplotlib.org/</dc:title>
     </cc:Agent>
    </dc:creator>
   </cc:Work>
  </rdf:RDF>
 </metadata>
 <defs>
  <style type="text/css">*{stroke-linejoin: round; stroke-linecap: butt}</style>
 </defs>
 <g id="figure_1">
  <g id="patch_1">
   <path d="M 0 288 
L 360 288 
L 360 0 
L 0 0 
z
" style="fill: #ffffff"/>
  </g>
  <g id="axes_1">
   <g id="patch_2">
    <path d="M 45 256.32 
L 324 256.32 
L 324 34.56 
L 45 34.56 
z
" style="fill: #ffffff"/>
   </g>
   <g id="matplotlib.axis_1">
    <g id="xtick_1">
     <g id="line2d_1">
      <defs>
       <path id="m0aa2439d8c" d="M 0 0 
L 0 3.5 
" style="stroke: #000000; stroke-width: 0.8"/>
      </defs>
      <g>
       <use xlink:href="#m0aa2439d8c" x="45" y="256.32" style="stroke: #000000; stroke-width: 0.8"/>
      </g>
     </g>
     <g id="text_1">
      <!-- 0 -->
      <g transform="translate(42.5 270.26375)scale(0.1 -0.1)">
       <defs>
        <path id="TimesNewRomanPSMT-30" d="M 231 2094 
Q 231 2819 450 3342 
Q 669 3866 1031 4122 
Q 1313 4325 1613 4325 
Q 2100 4325 2488 3828 
Q 2972 3213 2972 2159 
Q 2972 1422 2759 906 
Q 2547 391 2217 158 
Q 1888 -75 1581 -75 
Q 975 -75 572 641 
Q 231 1244 231 2094 
z
M 844 2016 
Q 844 1141 1059 588 
Q 1238 122 1591 122 
Q 1759 122 1940 273 
Q 2122 425 2216 781 
Q 2359 1319 2359 2297 
Q 2359 3022 2209 3506 
Q 2097 3866 1919 4016 
Q 1791 4119 1609 4119 
Q 1397 4119 1231 3928 
Q 1006 3669 925 3112 
Q 844 2556 844 2016 
z
" transform="scale(0.015625)"/>
       </defs>
       <use xlink:href="#TimesNewRomanPSMT-30"/>
      </g>
     </g>
    </g>
    <g id="xtick_2">
     <g id="line2d_2">
      <g>
       <use xlink:href="#m0aa2439d8c" x="100.744256" y="256.32" style="stroke: #000000; stroke-width: 0.8"/>
      </g>
     </g>
     <g id="text_2">
      <!-- 200 -->
      <g transform="translate(93.244256 270.26375)scale(0.1 -0.1)">
       <defs>
        <path id="TimesNewRomanPSMT-32" d="M 2934 816 
L 2638 0 
L 138 0 
L 138 116 
Q 1241 1122 1691 1759 
Q 2141 2397 2141 2925 
Q 2141 3328 1894 3587 
Q 1647 3847 1303 3847 
Q 991 3847 742 3664 
Q 494 3481 375 3128 
L 259 3128 
Q 338 3706 661 4015 
Q 984 4325 1469 4325 
Q 1984 4325 2329 3994 
Q 2675 3663 2675 3213 
Q 2675 2891 2525 2569 
Q 2294 2063 1775 1497 
Q 997 647 803 472 
L 1909 472 
Q 2247 472 2383 497 
Q 2519 522 2628 598 
Q 2738 675 2819 816 
L 2934 816 
z
" transform="scale(0.015625)"/>
       </defs>
       <use xlink:href="#TimesNewRomanPSMT-32"/>
       <use xlink:href="#TimesNewRomanPSMT-30" x="50"/>
       <use xlink:href="#TimesNewRomanPSMT-30" x="100"/>
      </g>
     </g>
    </g>
    <g id="xtick_3">
     <g id="line2d_3">
      <g>
       <use xlink:href="#m0aa2439d8c" x="156.488511" y="256.32" style="stroke: #000000; stroke-width: 0.8"/>
      </g>
     </g>
     <g id="text_3">
      <!-- 400 -->
      <g transform="translate(148.988511 270.26375)scale(0.1 -0.1)">
       <defs>
        <path id="TimesNewRomanPSMT-34" d="M 2978 1563 
L 2978 1119 
L 2409 1119 
L 2409 0 
L 1894 0 
L 1894 1119 
L 100 1119 
L 100 1519 
L 2066 4325 
L 2409 4325 
L 2409 1563 
L 2978 1563 
z
M 1894 1563 
L 1894 3666 
L 406 1563 
L 1894 1563 
z
" transform="scale(0.015625)"/>
       </defs>
       <use xlink:href="#TimesNewRomanPSMT-34"/>
       <use xlink:href="#TimesNewRomanPSMT-30" x="50"/>
       <use xlink:href="#TimesNewRomanPSMT-30" x="100"/>
      </g>
     </g>
    </g>
    <g id="xtick_4">
     <g id="line2d_4">
      <g>
       <use xlink:href="#m0aa2439d8c" x="212.232767" y="256.32" style="stroke: #000000; stroke-width: 0.8"/>
      </g>
     </g>
     <g id="text_4">
      <!-- 600 -->
      <g transform="translate(204.732767 270.26375)scale(0.1 -0.1)">
       <defs>
        <path id="TimesNewRomanPSMT-36" d="M 2869 4325 
L 2869 4209 
Q 2456 4169 2195 4045 
Q 1934 3922 1679 3669 
Q 1425 3416 1258 3105 
Q 1091 2794 978 2366 
Q 1428 2675 1881 2675 
Q 2316 2675 2634 2325 
Q 2953 1975 2953 1425 
Q 2953 894 2631 456 
Q 2244 -75 1606 -75 
Q 1172 -75 869 213 
Q 275 772 275 1663 
Q 275 2231 503 2743 
Q 731 3256 1154 3653 
Q 1578 4050 1965 4187 
Q 2353 4325 2688 4325 
L 2869 4325 
z
M 925 2138 
Q 869 1716 869 1456 
Q 869 1156 980 804 
Q 1091 453 1309 247 
Q 1469 100 1697 100 
Q 1969 100 2183 356 
Q 2397 613 2397 1088 
Q 2397 1622 2184 2012 
Q 1972 2403 1581 2403 
Q 1463 2403 1327 2353 
Q 1191 2303 925 2138 
z
" transform="scale(0.015625)"/>
       </defs>
       <use xlink:href="#TimesNewRomanPSMT-36"/>
       <use xlink:href="#TimesNewRomanPSMT-30" x="50"/>
       <use xlink:href="#TimesNewRomanPSMT-30" x="100"/>
      </g>
     </g>
    </g>
    <g id="xtick_5">
     <g id="line2d_5">
      <g>
       <use xlink:href="#m0aa2439d8c" x="267.977023" y="256.32" style="stroke: #000000; stroke-width: 0.8"/>
      </g>
     </g>
     <g id="text_5">
      <!-- 800 -->
      <g transform="translate(260.477023 270.26375)scale(0.1 -0.1)">
       <defs>
        <path id="TimesNewRomanPSMT-38" d="M 1228 2134 
Q 725 2547 579 2797 
Q 434 3047 434 3316 
Q 434 3728 753 4026 
Q 1072 4325 1600 4325 
Q 2113 4325 2425 4047 
Q 2738 3769 2738 3413 
Q 2738 3175 2569 2928 
Q 2400 2681 1866 2347 
Q 2416 1922 2594 1678 
Q 2831 1359 2831 1006 
Q 2831 559 2490 242 
Q 2150 -75 1597 -75 
Q 994 -75 656 303 
Q 388 606 388 966 
Q 388 1247 577 1523 
Q 766 1800 1228 2134 
z
M 1719 2469 
Q 2094 2806 2194 3001 
Q 2294 3197 2294 3444 
Q 2294 3772 2109 3958 
Q 1925 4144 1606 4144 
Q 1288 4144 1088 3959 
Q 888 3775 888 3528 
Q 888 3366 970 3203 
Q 1053 3041 1206 2894 
L 1719 2469 
z
M 1375 2016 
Q 1116 1797 991 1539 
Q 866 1281 866 981 
Q 866 578 1086 336 
Q 1306 94 1647 94 
Q 1984 94 2187 284 
Q 2391 475 2391 747 
Q 2391 972 2272 1150 
Q 2050 1481 1375 2016 
z
" transform="scale(0.015625)"/>
       </defs>
       <use xlink:href="#TimesNewRomanPSMT-38"/>
       <use xlink:href="#TimesNewRomanPSMT-30" x="50"/>
       <use xlink:href="#TimesNewRomanPSMT-30" x="100"/>
      </g>
     </g>
    </g>
    <g id="xtick_6">
     <g id="line2d_6">
      <g>
       <use xlink:href="#m0aa2439d8c" x="323.721279" y="256.32" style="stroke: #000000; stroke-width: 0.8"/>
      </g>
     </g>
     <g id="text_6">
      <!-- 1000 -->
      <g transform="translate(313.721279 270.26375)scale(0.1 -0.1)">
       <defs>
        <path id="TimesNewRomanPSMT-31" d="M 750 3822 
L 1781 4325 
L 1884 4325 
L 1884 747 
Q 1884 391 1914 303 
Q 1944 216 2037 169 
Q 2131 122 2419 116 
L 2419 0 
L 825 0 
L 825 116 
Q 1125 122 1212 167 
Q 1300 213 1334 289 
Q 1369 366 1369 747 
L 1369 3034 
Q 1369 3497 1338 3628 
Q 1316 3728 1258 3775 
Q 1200 3822 1119 3822 
Q 1003 3822 797 3725 
L 750 3822 
z
" transform="scale(0.015625)"/>
       </defs>
       <use xlink:href="#TimesNewRomanPSMT-31"/>
       <use xlink:href="#TimesNewRomanPSMT-30" x="50"/>
       <use xlink:href="#TimesNewRomanPSMT-30" x="100"/>
       <use xlink:href="#TimesNewRomanPSMT-30" x="150"/>
      </g>
     </g>
    </g>
    <g id="text_7">
     <!-- Train Step -->
     <g transform="translate(163.708594 283.346563)scale(0.1 -0.1)">
      <defs>
       <path id="TimesNewRomanPSMT-54" d="M 3703 4238 
L 3750 3244 
L 3631 3244 
Q 3597 3506 3538 3619 
Q 3441 3800 3280 3886 
Q 3119 3972 2856 3972 
L 2259 3972 
L 2259 734 
Q 2259 344 2344 247 
Q 2463 116 2709 116 
L 2856 116 
L 2856 0 
L 1059 0 
L 1059 116 
L 1209 116 
Q 1478 116 1591 278 
Q 1659 378 1659 734 
L 1659 3972 
L 1150 3972 
Q 853 3972 728 3928 
Q 566 3869 450 3700 
Q 334 3531 313 3244 
L 194 3244 
L 244 4238 
L 3703 4238 
z
" transform="scale(0.015625)"/>
       <path id="TimesNewRomanPSMT-72" d="M 1038 2947 
L 1038 2303 
Q 1397 2947 1775 2947 
Q 1947 2947 2059 2842 
Q 2172 2738 2172 2600 
Q 2172 2478 2090 2393 
Q 2009 2309 1897 2309 
Q 1788 2309 1652 2417 
Q 1516 2525 1450 2525 
Q 1394 2525 1328 2463 
Q 1188 2334 1038 2041 
L 1038 669 
Q 1038 431 1097 309 
Q 1138 225 1241 169 
Q 1344 113 1538 113 
L 1538 0 
L 72 0 
L 72 113 
Q 291 113 397 181 
Q 475 231 506 341 
Q 522 394 522 644 
L 522 1753 
Q 522 2253 501 2348 
Q 481 2444 426 2487 
Q 372 2531 291 2531 
Q 194 2531 72 2484 
L 41 2597 
L 906 2947 
L 1038 2947 
z
" transform="scale(0.015625)"/>
       <path id="TimesNewRomanPSMT-61" d="M 1822 413 
Q 1381 72 1269 19 
Q 1100 -59 909 -59 
Q 613 -59 420 144 
Q 228 347 228 678 
Q 228 888 322 1041 
Q 450 1253 767 1440 
Q 1084 1628 1822 1897 
L 1822 2009 
Q 1822 2438 1686 2597 
Q 1550 2756 1291 2756 
Q 1094 2756 978 2650 
Q 859 2544 859 2406 
L 866 2225 
Q 866 2081 792 2003 
Q 719 1925 600 1925 
Q 484 1925 411 2006 
Q 338 2088 338 2228 
Q 338 2497 613 2722 
Q 888 2947 1384 2947 
Q 1766 2947 2009 2819 
Q 2194 2722 2281 2516 
Q 2338 2381 2338 1966 
L 2338 994 
Q 2338 584 2353 492 
Q 2369 400 2405 369 
Q 2441 338 2488 338 
Q 2538 338 2575 359 
Q 2641 400 2828 588 
L 2828 413 
Q 2478 -56 2159 -56 
Q 2006 -56 1915 50 
Q 1825 156 1822 413 
z
M 1822 616 
L 1822 1706 
Q 1350 1519 1213 1441 
Q 966 1303 859 1153 
Q 753 1003 753 825 
Q 753 600 887 451 
Q 1022 303 1197 303 
Q 1434 303 1822 616 
z
" transform="scale(0.015625)"/>
       <path id="TimesNewRomanPSMT-69" d="M 928 4444 
Q 1059 4444 1151 4351 
Q 1244 4259 1244 4128 
Q 1244 3997 1151 3903 
Q 1059 3809 928 3809 
Q 797 3809 703 3903 
Q 609 3997 609 4128 
Q 609 4259 701 4351 
Q 794 4444 928 4444 
z
M 1188 2947 
L 1188 647 
Q 1188 378 1227 289 
Q 1266 200 1342 156 
Q 1419 113 1622 113 
L 1622 0 
L 231 0 
L 231 113 
Q 441 113 512 153 
Q 584 194 626 287 
Q 669 381 669 647 
L 669 1750 
Q 669 2216 641 2353 
Q 619 2453 572 2492 
Q 525 2531 444 2531 
Q 356 2531 231 2484 
L 188 2597 
L 1050 2947 
L 1188 2947 
z
" transform="scale(0.015625)"/>
       <path id="TimesNewRomanPSMT-6e" d="M 1034 2341 
Q 1538 2947 1994 2947 
Q 2228 2947 2397 2830 
Q 2566 2713 2666 2444 
Q 2734 2256 2734 1869 
L 2734 647 
Q 2734 375 2778 278 
Q 2813 200 2889 156 
Q 2966 113 3172 113 
L 3172 0 
L 1756 0 
L 1756 113 
L 1816 113 
Q 2016 113 2095 173 
Q 2175 234 2206 353 
Q 2219 400 2219 647 
L 2219 1819 
Q 2219 2209 2117 2386 
Q 2016 2563 1775 2563 
Q 1403 2563 1034 2156 
L 1034 647 
Q 1034 356 1069 288 
Q 1113 197 1189 155 
Q 1266 113 1500 113 
L 1500 0 
L 84 0 
L 84 113 
L 147 113 
Q 366 113 442 223 
Q 519 334 519 647 
L 519 1709 
Q 519 2225 495 2337 
Q 472 2450 423 2490 
Q 375 2531 294 2531 
Q 206 2531 84 2484 
L 38 2597 
L 900 2947 
L 1034 2947 
L 1034 2341 
z
" transform="scale(0.015625)"/>
       <path id="TimesNewRomanPSMT-20" transform="scale(0.015625)"/>
       <path id="TimesNewRomanPSMT-53" d="M 2934 4334 
L 2934 2869 
L 2819 2869 
Q 2763 3291 2617 3541 
Q 2472 3791 2203 3937 
Q 1934 4084 1647 4084 
Q 1322 4084 1109 3886 
Q 897 3688 897 3434 
Q 897 3241 1031 3081 
Q 1225 2847 1953 2456 
Q 2547 2138 2764 1967 
Q 2981 1797 3098 1565 
Q 3216 1334 3216 1081 
Q 3216 600 2842 251 
Q 2469 -97 1881 -97 
Q 1697 -97 1534 -69 
Q 1438 -53 1133 45 
Q 828 144 747 144 
Q 669 144 623 97 
Q 578 50 556 -97 
L 441 -97 
L 441 1356 
L 556 1356 
Q 638 900 775 673 
Q 913 447 1195 297 
Q 1478 147 1816 147 
Q 2206 147 2432 353 
Q 2659 559 2659 841 
Q 2659 997 2573 1156 
Q 2488 1316 2306 1453 
Q 2184 1547 1640 1851 
Q 1097 2156 867 2337 
Q 638 2519 519 2737 
Q 400 2956 400 3219 
Q 400 3675 750 4004 
Q 1100 4334 1641 4334 
Q 1978 4334 2356 4169 
Q 2531 4091 2603 4091 
Q 2684 4091 2736 4139 
Q 2788 4188 2819 4334 
L 2934 4334 
z
" transform="scale(0.015625)"/>
       <path id="TimesNewRomanPSMT-74" d="M 1031 3803 
L 1031 2863 
L 1700 2863 
L 1700 2644 
L 1031 2644 
L 1031 788 
Q 1031 509 1111 412 
Q 1191 316 1316 316 
Q 1419 316 1516 380 
Q 1613 444 1666 569 
L 1788 569 
Q 1678 263 1478 108 
Q 1278 -47 1066 -47 
Q 922 -47 784 33 
Q 647 113 581 261 
Q 516 409 516 719 
L 516 2644 
L 63 2644 
L 63 2747 
Q 234 2816 414 2980 
Q 594 3144 734 3369 
Q 806 3488 934 3803 
L 1031 3803 
z
" transform="scale(0.015625)"/>
       <path id="TimesNewRomanPSMT-65" d="M 681 1784 
Q 678 1147 991 784 
Q 1303 422 1725 422 
Q 2006 422 2214 576 
Q 2422 731 2563 1106 
L 2659 1044 
Q 2594 616 2278 264 
Q 1963 -88 1488 -88 
Q 972 -88 605 314 
Q 238 716 238 1394 
Q 238 2128 614 2539 
Q 991 2950 1559 2950 
Q 2041 2950 2350 2633 
Q 2659 2316 2659 1784 
L 681 1784 
z
M 681 1966 
L 2006 1966 
Q 1991 2241 1941 2353 
Q 1863 2528 1708 2628 
Q 1553 2728 1384 2728 
Q 1125 2728 920 2526 
Q 716 2325 681 1966 
z
" transform="scale(0.015625)"/>
       <path id="TimesNewRomanPSMT-70" d="M -6 2578 
L 875 2934 
L 994 2934 
L 994 2266 
Q 1216 2644 1439 2795 
Q 1663 2947 1909 2947 
Q 2341 2947 2628 2609 
Q 2981 2197 2981 1534 
Q 2981 794 2556 309 
Q 2206 -88 1675 -88 
Q 1444 -88 1275 -22 
Q 1150 25 994 166 
L 994 -706 
Q 994 -1000 1030 -1079 
Q 1066 -1159 1155 -1206 
Q 1244 -1253 1478 -1253 
L 1478 -1369 
L -22 -1369 
L -22 -1253 
L 56 -1253 
Q 228 -1256 350 -1188 
Q 409 -1153 442 -1076 
Q 475 -1000 475 -688 
L 475 2019 
Q 475 2297 450 2372 
Q 425 2447 370 2484 
Q 316 2522 222 2522 
Q 147 2522 31 2478 
L -6 2578 
z
M 994 2081 
L 994 1013 
Q 994 666 1022 556 
Q 1066 375 1236 237 
Q 1406 100 1666 100 
Q 1978 100 2172 344 
Q 2425 663 2425 1241 
Q 2425 1897 2138 2250 
Q 1938 2494 1663 2494 
Q 1513 2494 1366 2419 
Q 1253 2363 994 2081 
z
" transform="scale(0.015625)"/>
      </defs>
      <use xlink:href="#TimesNewRomanPSMT-54"/>
      <use xlink:href="#TimesNewRomanPSMT-72" x="57.583984"/>
      <use xlink:href="#TimesNewRomanPSMT-61" x="90.884766"/>
      <use xlink:href="#TimesNewRomanPSMT-69" x="135.269531"/>
      <use xlink:href="#TimesNewRomanPSMT-6e" x="163.052734"/>
      <use xlink:href="#TimesNewRomanPSMT-20" x="213.052734"/>
      <use xlink:href="#TimesNewRomanPSMT-53" x="238.052734"/>
      <use xlink:href="#TimesNewRomanPSMT-74" x="293.667969"/>
      <use xlink:href="#TimesNewRomanPSMT-65" x="321.451172"/>
      <use xlink:href="#TimesNewRomanPSMT-70" x="365.835938"/>
     </g>
    </g>
   </g>
   <g id="matplotlib.axis_2">
    <g id="ytick_1">
     <g id="line2d_7">
      <defs>
       <path id="m6aabe25f5a" d="M 0 0 
L -3.5 0 
" style="stroke: #000000; stroke-width: 0.8"/>
      </defs>
      <g>
       <use xlink:href="#m6aabe25f5a" x="45" y="256.317782" style="stroke: #000000; stroke-width: 0.8"/>
      </g>
     </g>
     <g id="text_8">
      <!-- 0 -->
      <g transform="translate(33 259.789657)scale(0.1 -0.1)">
       <use xlink:href="#TimesNewRomanPSMT-30"/>
      </g>
     </g>
    </g>
    <g id="ytick_2">
     <g id="line2d_8">
      <g>
       <use xlink:href="#m6aabe25f5a" x="45" y="211.966226" style="stroke: #000000; stroke-width: 0.8"/>
      </g>
     </g>
     <g id="text_9">
      <!-- 20000 -->
      <g transform="translate(13 215.438101)scale(0.1 -0.1)">
       <use xlink:href="#TimesNewRomanPSMT-32"/>
       <use xlink:href="#TimesNewRomanPSMT-30" x="50"/>
       <use xlink:href="#TimesNewRomanPSMT-30" x="100"/>
       <use xlink:href="#TimesNewRomanPSMT-30" x="150"/>
       <use xlink:href="#TimesNewRomanPSMT-30" x="200"/>
      </g>
     </g>
    </g>
    <g id="ytick_3">
     <g id="line2d_9">
      <g>
       <use xlink:href="#m6aabe25f5a" x="45" y="167.614669" style="stroke: #000000; stroke-width: 0.8"/>
      </g>
     </g>
     <g id="text_10">
      <!-- 40000 -->
      <g transform="translate(13 171.086544)scale(0.1 -0.1)">
       <use xlink:href="#TimesNewRomanPSMT-34"/>
       <use xlink:href="#TimesNewRomanPSMT-30" x="50"/>
       <use xlink:href="#TimesNewRomanPSMT-30" x="100"/>
       <use xlink:href="#TimesNewRomanPSMT-30" x="150"/>
       <use xlink:href="#TimesNewRomanPSMT-30" x="200"/>
      </g>
     </g>
    </g>
    <g id="ytick_4">
     <g id="line2d_10">
      <g>
       <use xlink:href="#m6aabe25f5a" x="45" y="123.263113" style="stroke: #000000; stroke-width: 0.8"/>
      </g>
     </g>
     <g id="text_11">
      <!-- 60000 -->
      <g transform="translate(13 126.734988)scale(0.1 -0.1)">
       <use xlink:href="#TimesNewRomanPSMT-36"/>
       <use xlink:href="#TimesNewRomanPSMT-30" x="50"/>
       <use xlink:href="#TimesNewRomanPSMT-30" x="100"/>
       <use xlink:href="#TimesNewRomanPSMT-30" x="150"/>
       <use xlink:href="#TimesNewRomanPSMT-30" x="200"/>
      </g>
     </g>
    </g>
    <g id="ytick_5">
     <g id="line2d_11">
      <g>
       <use xlink:href="#m6aabe25f5a" x="45" y="78.911556" style="stroke: #000000; stroke-width: 0.8"/>
      </g>
     </g>
     <g id="text_12">
      <!-- 80000 -->
      <g transform="translate(13 82.383431)scale(0.1 -0.1)">
       <use xlink:href="#TimesNewRomanPSMT-38"/>
       <use xlink:href="#TimesNewRomanPSMT-30" x="50"/>
       <use xlink:href="#TimesNewRomanPSMT-30" x="100"/>
       <use xlink:href="#TimesNewRomanPSMT-30" x="150"/>
       <use xlink:href="#TimesNewRomanPSMT-30" x="200"/>
      </g>
     </g>
    </g>
    <g id="ytick_6">
     <g id="line2d_12">
      <g>
       <use xlink:href="#m6aabe25f5a" x="45" y="34.56" style="stroke: #000000; stroke-width: 0.8"/>
      </g>
     </g>
     <g id="text_13">
      <!-- 100000 -->
      <g transform="translate(8 38.031875)scale(0.1 -0.1)">
       <use xlink:href="#TimesNewRomanPSMT-31"/>
       <use xlink:href="#TimesNewRomanPSMT-30" x="50"/>
       <use xlink:href="#TimesNewRomanPSMT-30" x="100"/>
       <use xlink:href="#TimesNewRomanPSMT-30" x="150"/>
       <use xlink:href="#TimesNewRomanPSMT-30" x="200"/>
       <use xlink:href="#TimesNewRomanPSMT-30" x="250"/>
      </g>
     </g>
    </g>
   </g>
   <g id="line2d_13">
    <path d="M 45.278721 211.622003 
L 45.836164 221.262323 
L 46.114885 199.2449 
L 46.393606 228.498427 
L 46.672328 226.42746 
L 46.951049 217.328676 
L 47.508492 226.059121 
L 47.787213 225.913981 
L 48.065934 216.337444 
L 48.344655 248.491787 
L 48.623377 249.372352 
L 48.902098 252.079143 
L 49.180819 244.843593 
L 49.45954 251.919229 
L 49.738262 253.186249 
L 50.016983 239.704379 
L 50.295704 159.331592 
L 50.574426 160.742456 
L 50.853147 250.531839 
L 51.131868 134.947383 
L 51.410589 235.273666 
L 51.689311 249.666882 
L 51.968032 142.296549 
L 52.246753 252.920394 
L 52.525475 213.740626 
L 52.804196 248.705359 
L 53.082917 247.174204 
L 53.361638 239.799604 
L 53.64036 185.672817 
L 53.919081 203.412929 
L 54.197802 237.348615 
L 54.476523 236.77671 
L 54.755245 229.218044 
L 55.033966 243.451741 
L 55.312687 235.7476 
L 55.591409 184.458685 
L 55.87013 245.732745 
L 56.148851 56.283167 
L 56.427572 218.436572 
L 56.706294 184.805211 
L 56.985015 190.746726 
L 57.263736 143.728853 
L 57.542458 251.584144 
L 57.821179 135.886865 
L 58.0999 225.835168 
L 58.378621 253.310411 
L 58.657343 250.203449 
L 58.936064 251.57865 
L 59.214785 244.975307 
L 59.493506 211.629644 
L 59.772228 234.564271 
L 60.050949 157.142539 
L 60.32967 149.357429 
L 60.608392 120.146264 
L 60.887113 159.545337 
L 61.165834 24.611114 
L 61.444555 194.94804 
L 61.723277 103.844477 
L 62.001998 193.901729 
L 62.280719 122.406054 
L 62.559441 241.600882 
L 62.838162 115.19799 
L 63.116883 60.531371 
L 63.395604 212.73641 
L 63.674326 214.446305 
L 63.953047 250.460195 
L 64.231768 105.829053 
L 64.51049 216.006202 
L 64.789211 110.686346 
L 65.067932 201.541076 
L 65.346653 239.774932 
L 65.625375 239.080381 
L 65.904096 126.301697 
L 66.182817 234.136345 
L 66.461538 245.770687 
L 66.74026 64.137914 
L 67.018981 207.775268 
L 67.297702 189.837225 
L 67.576424 232.121288 
L 67.855145 181.07671 
L 68.133866 46.296288 
L 68.412587 254.60842 
L 68.691309 254.218284 
L 68.97003 254.769462 
L 69.527473 254.204178 
L 69.806194 253.299304 
L 70.084915 254.5417 
L 70.363636 154.333916 
L 70.642358 156.486336 
L 70.921079 255.013203 
L 71.1998 251.77283 
L 71.478521 253.567209 
L 71.757243 254.404018 
L 72.035964 254.332551 
L 72.314685 252.065605 
L 72.593407 254.058273 
L 73.150849 255.239332 
L 73.42957 255.526176 
L 73.708292 165.481186 
L 73.987013 254.294744 
L 74.265734 255.087357 
L 74.544456 255.116892 
L 75.101898 254.693076 
L 75.380619 192.298632 
L 75.659341 251.042356 
L 75.938062 254.513301 
L 76.216783 253.646695 
L 76.495504 251.450425 
L 76.774226 254.884912 
L 77.052947 173.036682 
L 77.331668 254.274288 
L 77.61039 251.445218 
L 77.889111 255.691023 
L 78.167832 254.746776 
L 78.446553 254.475141 
L 78.725275 255.696803 
L 79.003996 255.565478 
L 79.282717 252.633896 
L 79.561439 255.627122 
L 79.84016 250.563386 
L 80.118881 253.228412 
L 80.397602 251.890552 
L 80.676324 248.557615 
L 80.955045 228.485717 
L 81.233766 177.354895 
L 81.512488 180.802345 
L 82.06993 253.526026 
L 82.348651 229.456353 
L 82.627373 234.842863 
L 82.906094 252.678752 
L 83.184815 210.015286 
L 83.463536 253.222802 
L 83.742258 203.812712 
L 84.020979 223.806615 
L 84.2997 214.835564 
L 84.578422 227.654991 
L 84.857143 166.524877 
L 85.135864 164.789744 
L 85.414585 230.037274 
L 85.693307 252.655405 
L 85.972028 169.901434 
L 86.250749 243.863548 
L 86.808192 220.545344 
L 87.086913 248.441151 
L 87.365634 236.034858 
L 87.644356 249.93853 
L 87.923077 231.679154 
L 88.201798 254.387297 
L 88.480519 251.865434 
L 88.759241 250.953608 
L 89.037962 241.902368 
L 89.316683 238.217163 
L 89.595405 244.967826 
L 89.874126 244.822447 
L 90.152847 251.118721 
L 90.431568 253.133938 
L 90.71029 248.388595 
L 90.989011 246.738431 
L 91.267732 251.549261 
L 91.825175 251.964456 
L 92.103896 250.881605 
L 92.382617 253.421092 
L 92.661339 249.749859 
L 92.94006 252.624941 
L 93.218781 252.416305 
L 93.497502 253.756442 
L 93.776224 252.598987 
L 94.612388 254.57028 
L 94.891109 251.789579 
L 95.16983 253.828652 
L 95.448551 252.547065 
L 95.727273 252.834814 
L 96.005994 254.350665 
L 96.284715 252.404562 
L 96.563437 253.261085 
L 96.842158 252.395027 
L 97.120879 254.549608 
L 97.3996 254.222104 
L 97.678322 255.1694 
L 97.957043 253.550117 
L 98.235764 255.117543 
L 98.514486 245.283057 
L 98.793207 253.548444 
L 99.071928 249.770684 
L 99.350649 239.384842 
L 99.629371 252.845825 
L 99.908092 194.537359 
L 100.186813 251.75034 
L 100.465534 248.830465 
L 100.744256 242.866012 
L 101.022977 254.853303 
L 101.301698 253.925447 
L 101.58042 225.745315 
L 101.859141 248.939059 
L 102.416583 251.40961 
L 102.695305 251.695595 
L 102.974026 251.435797 
L 103.252747 236.647083 
L 103.531469 248.834309 
L 104.088911 231.290009 
L 104.367632 236.680576 
L 104.646354 182.673227 
L 104.925075 235.494763 
L 105.203796 245.532633 
L 105.482517 237.795072 
L 105.761239 248.76107 
L 106.03996 238.964125 
L 106.318681 247.19194 
L 106.597403 222.172156 
L 106.876124 250.575329 
L 107.154845 251.780108 
L 107.433566 237.409432 
L 107.712288 247.980849 
L 107.991009 212.293501 
L 108.26973 192.26092 
L 108.548452 234.020211 
L 108.827173 242.349552 
L 109.105894 237.86825 
L 109.384615 216.720687 
L 109.663337 245.044422 
L 109.942058 239.684938 
L 110.220779 250.435878 
L 110.4995 191.392505 
L 110.778222 187.448352 
L 111.056943 248.51873 
L 111.335664 237.028948 
L 111.614386 240.595922 
L 111.893107 160.391819 
L 112.171828 240.631706 
L 112.450549 190.426793 
L 112.729271 248.818648 
L 113.007992 250.296525 
L 113.286713 195.42449 
L 113.565435 247.51075 
L 113.844156 211.3962 
L 114.122877 247.991528 
L 114.401598 250.658727 
L 114.68032 213.207654 
L 114.959041 248.743426 
L 115.237762 251.777052 
L 115.516484 247.932355 
L 115.795205 249.694616 
L 116.073926 242.947107 
L 116.352647 239.006097 
L 116.631369 241.584139 
L 116.91009 237.886475 
L 117.188811 251.448214 
L 117.467532 248.066872 
L 117.746254 251.156281 
L 118.024975 252.104452 
L 118.303696 251.741922 
L 118.582418 251.808995 
L 118.861139 251.078271 
L 119.13986 252.381979 
L 119.418581 241.980494 
L 119.697303 238.348646 
L 119.976024 249.637247 
L 120.254745 249.040292 
L 120.533467 241.937819 
L 121.090909 251.652191 
L 121.36963 235.333651 
L 121.927073 249.293387 
L 122.205794 248.741172 
L 122.484515 210.376604 
L 122.763237 252.860229 
L 123.041958 203.062785 
L 123.320679 241.347627 
L 123.599401 253.429038 
L 123.878122 214.306143 
L 124.156843 252.870035 
L 124.714286 233.53507 
L 124.993007 251.615484 
L 125.271728 252.063368 
L 125.55045 246.855062 
L 125.829171 254.301977 
L 126.107892 246.291016 
L 126.386613 255.735314 
L 126.665335 252.965959 
L 126.944056 253.084034 
L 127.222777 255.462855 
L 127.501499 251.010017 
L 127.78022 251.584233 
L 128.058941 247.186631 
L 128.337662 245.818944 
L 128.616384 253.424031 
L 128.895105 254.949713 
L 129.173826 254.385141 
L 129.452547 247.674674 
L 129.731269 210.617501 
L 130.00999 252.423201 
L 130.288711 252.902358 
L 130.567433 254.028435 
L 130.846154 252.586969 
L 131.124875 245.867571 
L 131.403596 254.430979 
L 131.682318 247.556954 
L 131.961039 253.703211 
L 132.23976 252.842425 
L 132.518482 252.978377 
L 132.797203 255.032066 
L 133.075924 255.371886 
L 133.354645 251.908757 
L 133.912088 255.451709 
L 134.190809 213.931715 
L 134.46953 251.548311 
L 134.748252 245.518709 
L 135.026973 253.621817 
L 135.305694 252.85478 
L 135.584416 213.380846 
L 135.863137 254.71016 
L 136.141858 255.092026 
L 136.420579 214.226146 
L 136.699301 252.632828 
L 136.978022 252.628306 
L 137.256743 251.428736 
L 137.535465 254.76147 
L 137.814186 251.992833 
L 138.092907 250.687341 
L 138.65035 253.793602 
L 138.929071 213.208728 
L 139.207792 254.062709 
L 139.486513 255.725327 
L 139.765235 254.424583 
L 140.043956 255.215034 
L 140.322677 254.972295 
L 140.601399 254.564726 
L 140.88012 253.774052 
L 141.158841 253.774347 
L 141.437562 254.156404 
L 141.716284 253.910666 
L 141.995005 255.742476 
L 142.273726 256.013686 
L 142.552448 218.570766 
L 142.831169 255.860383 
L 143.10989 254.418439 
L 143.388611 255.914544 
L 143.667333 217.057685 
L 143.946054 255.065404 
L 144.224775 254.309563 
L 144.503497 215.69102 
L 144.782218 255.931302 
L 145.060939 255.241996 
L 145.33966 254.045182 
L 145.618382 253.3866 
L 145.897103 254.2534 
L 146.175824 255.993811 
L 146.454545 252.484374 
L 146.733267 255.873897 
L 147.011988 254.244239 
L 147.290709 255.107157 
L 147.569431 251.868421 
L 147.848152 256.017377 
L 148.126873 255.751315 
L 148.405594 255.70021 
L 148.684316 256.04304 
L 149.52048 255.783255 
L 149.799201 255.005131 
L 150.077922 256.128045 
L 150.356643 255.095828 
L 150.635365 252.098343 
L 150.914086 254.132563 
L 151.192807 254.6893 
L 151.471528 255.859755 
L 151.75025 256.109271 
L 152.028971 256.158434 
L 152.307692 255.265103 
L 152.586414 255.942416 
L 152.865135 256.167204 
L 153.143856 253.480878 
L 153.422577 255.987121 
L 153.701299 254.104859 
L 153.98002 227.644941 
L 154.258741 255.022592 
L 154.537463 251.708396 
L 154.816184 255.529895 
L 155.094905 254.452563 
L 155.373626 256.155488 
L 155.652348 253.769052 
L 155.931069 255.501796 
L 156.488511 254.546672 
L 156.767233 255.854319 
L 157.045954 254.773969 
L 157.324675 248.766606 
L 157.603397 255.176615 
L 157.882118 256.094413 
L 158.160839 230.13624 
L 158.43956 255.748425 
L 158.718282 254.791215 
L 158.997003 255.956743 
L 159.275724 251.130932 
L 159.554446 253.807406 
L 159.833167 254.167152 
L 160.111888 255.592994 
L 160.390609 253.525294 
L 160.669331 231.240371 
L 160.948052 252.41446 
L 161.226773 231.585304 
L 161.505495 249.843374 
L 161.784216 231.531926 
L 162.062937 255.029587 
L 162.62038 255.742825 
L 163.177822 255.795828 
L 163.456543 226.498395 
L 163.735265 251.285628 
L 164.013986 254.840573 
L 164.292707 251.31602 
L 164.571429 255.757851 
L 164.85015 256.058703 
L 165.128871 254.788513 
L 165.965035 256.076381 
L 166.243756 233.359611 
L 166.522478 255.292615 
L 166.801199 255.376284 
L 167.07992 256.091143 
L 167.916084 255.429942 
L 168.194805 254.219969 
L 168.473526 254.287159 
L 168.752248 255.854834 
L 169.030969 256.119813 
L 169.30969 255.594953 
L 169.588412 234.381199 
L 169.867133 234.48098 
L 170.145854 255.062397 
L 170.424575 254.888878 
L 170.703297 256.187192 
L 170.982018 255.933011 
L 171.260739 256.172789 
L 171.539461 256.08095 
L 171.818182 254.527434 
L 172.096903 255.703358 
L 172.375624 255.58358 
L 172.654346 241.986528 
L 172.933067 254.400339 
L 173.211788 254.328459 
L 173.490509 253.514176 
L 173.769231 255.92276 
L 174.047952 255.742556 
L 174.326673 255.086279 
L 174.605395 209.367996 
L 174.884116 254.022469 
L 175.162837 255.697536 
L 175.441558 255.921766 
L 175.999001 255.62992 
L 176.277722 255.607174 
L 176.556444 255.782769 
L 176.835165 232.072203 
L 177.113886 255.46251 
L 177.392607 231.331683 
L 177.671329 254.254414 
L 177.95005 254.1535 
L 178.228771 236.239748 
L 178.507493 255.389252 
L 178.786214 255.824821 
L 179.064935 255.85887 
L 179.343656 236.654793 
L 179.622378 255.543493 
L 179.901099 255.098009 
L 180.458541 255.992688 
L 180.737263 255.865231 
L 181.015984 237.284648 
L 181.294705 255.650493 
L 181.573427 256.072559 
L 181.852148 255.050972 
L 182.130869 255.703041 
L 182.40959 255.767069 
L 182.688312 256.074933 
L 182.967033 256.09293 
L 183.245754 255.909306 
L 183.524476 255.989363 
L 183.803197 255.308471 
L 184.081918 253.598044 
L 184.360639 256.091371 
L 184.639361 256.015044 
L 185.196803 256.205197 
L 185.475524 256.147165 
L 185.754246 238.148498 
L 186.032967 239.115579 
L 186.311688 256.154041 
L 186.59041 256.19989 
L 186.869131 239.005356 
L 187.147852 255.787233 
L 187.426573 256.068287 
L 187.705295 255.78371 
L 187.984016 253.967938 
L 188.262737 255.933971 
L 188.541459 255.949229 
L 188.82018 255.824587 
L 189.098901 255.903743 
L 189.377622 254.968842 
L 189.656344 256.137828 
L 189.935065 256.212936 
L 190.213786 254.552421 
L 190.492507 255.990075 
L 190.771229 255.969393 
L 191.04995 255.746436 
L 191.328671 256.228076 
L 191.607393 256.068086 
L 191.886114 256.206797 
L 192.164835 256.106749 
L 192.443556 256.187117 
L 193.000999 255.582726 
L 193.27972 256.049031 
L 193.558442 240.398706 
L 193.837163 255.605922 
L 194.394605 255.822111 
L 194.673327 254.872544 
L 195.230769 256.204424 
L 195.509491 256.011194 
L 195.788212 256.145301 
L 196.066933 255.749927 
L 196.345654 256.213552 
L 197.181818 256.051488 
L 197.460539 256.233656 
L 197.739261 256.0187 
L 198.017982 254.885815 
L 198.296703 256.145796 
L 198.854146 256.16714 
L 199.132867 255.499988 
L 199.411588 256.061748 
L 200.526474 256.072437 
L 200.805195 242.198147 
L 201.083916 256.043183 
L 201.362637 256.231551 
L 201.92008 255.970841 
L 202.477522 256.227022 
L 202.756244 256.088203 
L 203.034965 256.19199 
L 203.313686 256.171355 
L 203.592408 255.943451 
L 203.871129 256.167239 
L 204.14985 255.672314 
L 204.428571 241.179521 
L 204.707293 241.85889 
L 204.986014 255.093573 
L 205.264735 255.408394 
L 205.543457 242.608659 
L 205.822178 255.541317 
L 206.100899 255.862847 
L 206.37962 255.902691 
L 206.658342 255.480635 
L 207.215784 255.953024 
L 207.494505 241.786433 
L 207.773227 254.150599 
L 208.051948 253.585113 
L 208.330669 255.96057 
L 208.888112 254.708816 
L 209.166833 254.229111 
L 209.445554 255.594866 
L 209.724276 255.972351 
L 210.002997 255.670032 
L 210.281718 255.975642 
L 210.56044 255.048845 
L 210.839161 255.679265 
L 211.117882 255.426669 
L 211.396603 254.407642 
L 211.675325 255.727774 
L 211.954046 256.085373 
L 212.232767 255.618456 
L 212.511489 255.686752 
L 212.79021 255.039148 
L 213.068931 254.050515 
L 213.347652 244.298407 
L 213.626374 255.88638 
L 213.905095 255.422428 
L 214.183816 255.994267 
L 214.462537 255.838757 
L 214.741259 254.984066 
L 215.01998 254.724921 
L 215.577423 256.161141 
L 215.856144 255.544828 
L 216.134865 255.638015 
L 216.413586 256.05761 
L 216.692308 254.62388 
L 216.971029 256.033308 
L 217.24975 255.180133 
L 217.528472 256.048829 
L 217.807193 254.926285 
L 218.085914 255.98504 
L 218.364635 254.750699 
L 218.643357 255.577289 
L 218.922078 255.673238 
L 219.200799 254.699155 
L 219.47952 255.311765 
L 219.758242 254.266622 
L 220.036963 255.507483 
L 220.315684 254.65783 
L 220.594406 253.451659 
L 220.873127 254.43546 
L 221.151848 253.955753 
L 221.430569 256.058033 
L 221.709291 253.614649 
L 221.988012 253.829692 
L 222.266733 254.492302 
L 222.545455 254.731588 
L 222.824176 251.196801 
L 223.102897 254.999694 
L 223.381618 255.577043 
L 223.66034 254.691827 
L 223.939061 255.591441 
L 224.217782 254.518374 
L 224.496503 254.998785 
L 224.775225 254.406332 
L 225.053946 255.471022 
L 225.611389 254.971658 
L 225.89011 243.684615 
L 226.168831 254.60263 
L 226.447552 256.029581 
L 226.726274 243.736777 
L 227.004995 255.316823 
L 227.283716 256.030871 
L 227.562438 255.76938 
L 227.841159 255.301318 
L 228.11988 255.762806 
L 228.398601 255.454533 
L 228.677323 255.984055 
L 228.956044 246.792193 
L 229.234765 255.653431 
L 229.513487 256.053214 
L 229.792208 255.148142 
L 230.070929 255.815785 
L 230.34965 256.063859 
L 230.907093 255.517806 
L 231.185814 255.137317 
L 231.464535 254.019474 
L 231.743257 255.85173 
L 232.021978 254.407406 
L 232.300699 254.186758 
L 232.579421 243.534039 
L 232.858142 255.912047 
L 233.136863 256.03685 
L 233.415584 255.592625 
L 233.694306 256.132272 
L 233.973027 256.275503 
L 234.251748 255.986122 
L 234.53047 256.199816 
L 234.809191 256.070927 
L 235.087912 256.232223 
L 235.366633 256.019878 
L 235.645355 256.116494 
L 235.924076 255.432138 
L 236.202797 255.885188 
L 236.481518 256.125391 
L 236.76024 256.178964 
L 237.038961 255.973367 
L 237.317682 256.184286 
L 237.596404 255.728452 
L 237.875125 256.148108 
L 238.153846 255.705077 
L 238.432567 256.188465 
L 238.711289 256.225728 
L 238.99001 247.985069 
L 239.268731 256.181141 
L 239.547453 255.501571 
L 239.826174 256.180972 
L 240.104895 256.156933 
L 240.383616 255.905648 
L 240.662338 256.260884 
L 240.941059 255.726689 
L 241.21978 256.005249 
L 241.498501 255.908602 
L 241.777223 256.047777 
L 242.334665 256.053971 
L 242.613387 256.203971 
L 242.892108 256.215007 
L 243.170829 255.960072 
L 243.44955 256.2079 
L 243.728272 256.214244 
L 244.006993 255.133326 
L 244.285714 255.845674 
L 244.564436 256.250592 
L 244.843157 255.602293 
L 245.121878 255.849923 
L 245.400599 255.745397 
L 245.679321 255.914691 
L 245.958042 255.730153 
L 246.236763 255.950967 
L 246.515485 256.005358 
L 246.794206 255.851248 
L 247.072927 255.451354 
L 247.351648 255.278352 
L 247.63037 256.161745 
L 247.909091 255.454495 
L 248.187812 256.199562 
L 248.466533 256.108818 
L 248.745255 249.060442 
L 249.023976 248.777514 
L 249.302697 256.046017 
L 249.581419 255.782529 
L 249.86014 255.274236 
L 250.138861 256.161704 
L 250.417582 255.542786 
L 250.696304 251.65143 
L 250.975025 255.206489 
L 251.811189 256.093522 
L 252.08991 255.522929 
L 252.368631 255.805571 
L 252.926074 255.79503 
L 253.204795 254.611333 
L 253.483516 255.967997 
L 253.762238 256.219763 
L 254.040959 248.169673 
L 254.31968 255.783259 
L 254.598402 256.154565 
L 254.877123 253.896784 
L 255.155844 255.605209 
L 255.434565 249.597423 
L 255.713287 256.050628 
L 255.992008 256.12996 
L 256.270729 254.06241 
L 256.549451 253.801327 
L 256.828172 255.886661 
L 257.106893 255.556425 
L 257.385614 255.644061 
L 257.664336 256.168776 
L 258.221778 255.786617 
L 258.5005 256.150612 
L 258.779221 255.689195 
L 259.057942 255.763955 
L 259.336663 255.217077 
L 259.615385 256.202182 
L 259.894106 254.468979 
L 260.172827 255.56137 
L 260.451548 255.518812 
L 260.73027 255.200972 
L 261.008991 255.895967 
L 261.287712 255.97277 
L 261.566434 256.173433 
L 261.845155 256.072906 
L 262.123876 254.437234 
L 262.402597 255.732133 
L 262.681319 256.185231 
L 262.96004 255.899326 
L 263.238761 250.186511 
L 263.517483 256.078131 
L 263.796204 255.427145 
L 264.074925 256.210359 
L 264.353646 256.010859 
L 264.632368 256.265187 
L 264.911089 255.934908 
L 265.18981 255.345361 
L 265.468531 256.265557 
L 265.747253 256.152157 
L 266.025974 255.520241 
L 266.304695 256.093012 
L 266.583417 255.859107 
L 266.862138 256.182648 
L 267.140859 256.053223 
L 267.41958 255.1998 
L 267.698302 256.090785 
L 267.977023 256.027017 
L 268.255744 256.120551 
L 268.534466 256.006533 
L 268.813187 247.980947 
L 269.091908 248.461204 
L 269.370629 241.081429 
L 269.649351 255.79898 
L 269.928072 256.036199 
L 270.206793 255.674257 
L 270.485514 253.924713 
L 270.764236 255.290366 
L 271.042957 248.465278 
L 271.321678 256.188925 
L 271.6004 248.969313 
L 271.879121 253.963782 
L 272.157842 256.049081 
L 272.436563 251.081086 
L 272.715285 255.944997 
L 272.994006 255.924161 
L 273.272727 256.017462 
L 273.551449 255.884136 
L 273.83017 254.86792 
L 274.108891 255.700652 
L 274.387612 256.043317 
L 274.666334 253.425673 
L 274.945055 255.823722 
L 275.223776 256.156345 
L 275.502498 255.595184 
L 275.781219 254.505376 
L 276.05994 255.58372 
L 276.338661 254.961169 
L 276.896104 255.473032 
L 277.174825 255.300892 
L 277.453546 254.989402 
L 278.010989 255.433176 
L 279.962038 255.691574 
L 280.519481 255.015537 
L 280.798202 255.762063 
L 281.355644 254.624669 
L 281.634366 254.683536 
L 281.913087 254.880392 
L 282.470529 255.825845 
L 282.749251 254.554354 
L 283.306693 255.64909 
L 283.585415 255.234901 
L 283.864136 255.316164 
L 284.421578 256.197796 
L 284.7003 256.181714 
L 284.979021 254.427507 
L 285.536464 255.141976 
L 285.815185 256.026187 
L 286.093906 255.960389 
L 286.372627 255.265595 
L 286.651349 256.013035 
L 286.93007 254.824137 
L 287.208791 254.673469 
L 287.487512 255.366705 
L 287.766234 253.643243 
L 288.044955 254.781427 
L 288.323676 254.465703 
L 288.602398 254.460299 
L 288.881119 253.053249 
L 289.15984 255.088235 
L 289.438561 255.622086 
L 289.717283 255.102455 
L 289.996004 255.765369 
L 290.274725 255.988536 
L 290.553447 255.150448 
L 290.832168 256.093715 
L 291.110889 255.838494 
L 291.38961 256.035878 
L 291.947053 255.844937 
L 292.225774 255.998602 
L 292.504496 255.89653 
L 292.783217 255.92477 
L 293.061938 255.747147 
L 293.619381 256.162303 
L 293.898102 253.648023 
L 294.176823 255.719777 
L 294.455544 255.677629 
L 294.734266 256.030298 
L 295.291708 256.2247 
L 295.57043 256.219346 
L 295.849151 255.730763 
L 296.127872 253.313909 
L 296.406593 256.21542 
L 296.685315 256.003029 
L 296.964036 256.158136 
L 297.242757 256.099032 
L 297.521479 256.233545 
L 297.8002 256.027205 
L 298.078921 255.981564 
L 298.357642 251.130899 
L 298.636364 256.242016 
L 299.193806 256.219358 
L 299.472527 255.657156 
L 299.751249 256.271344 
L 300.02997 256.163857 
L 300.308691 252.171786 
L 300.587413 252.8842 
L 300.866134 255.734573 
L 301.423576 256.287954 
L 301.702298 256.26791 
L 301.981019 256.084075 
L 302.25974 255.666052 
L 302.538462 256.283746 
L 302.817183 256.15944 
L 303.374625 256.270879 
L 303.653347 256.268863 
L 303.932068 255.591264 
L 304.210789 255.259267 
L 304.48951 256.055703 
L 304.768232 256.193013 
L 305.046953 256.204934 
L 305.325674 256.103473 
L 305.604396 253.06884 
L 305.883117 256.021208 
L 306.161838 256.238229 
L 306.440559 251.930397 
L 306.719281 256.052766 
L 306.998002 249.293887 
L 307.276723 256.063853 
L 307.555445 255.654566 
L 307.834166 253.15031 
L 308.112887 256.215514 
L 308.391608 254.961438 
L 308.67033 254.599752 
L 308.949051 255.73796 
L 309.227772 256.164994 
L 309.506494 255.011368 
L 309.785215 254.38642 
L 310.063936 255.337525 
L 310.342657 254.991527 
L 310.621379 256.148546 
L 310.9001 250.621536 
L 311.178821 256.140339 
L 311.457542 255.470658 
L 311.736264 255.894268 
L 312.014985 251.718295 
L 312.293706 255.867319 
L 312.572428 255.033492 
L 312.851149 256.213409 
L 313.12987 256.007384 
L 313.687313 256.005236 
L 313.966034 252.426555 
L 314.244755 255.060951 
L 314.523477 256.123328 
L 314.802198 255.916147 
L 315.35964 256.081374 
L 315.638362 254.868994 
L 315.917083 256.205329 
L 316.195804 255.879435 
L 316.474525 255.085389 
L 316.753247 256.25977 
L 317.031968 256.104282 
L 317.310689 256.18865 
L 317.589411 255.384574 
L 317.868132 256.226513 
L 318.146853 255.93639 
L 318.425574 256.227485 
L 318.704296 252.152759 
L 318.983017 256.255094 
L 319.261738 256.160553 
L 319.819181 256.130922 
L 320.097902 255.863924 
L 320.655345 256.236439 
L 321.212787 256.275801 
L 321.491508 255.279458 
L 321.77023 256.220981 
L 322.327672 256.275904 
L 322.606394 256.301403 
L 322.885115 256.186113 
L 323.163836 256.303863 
L 323.442557 256.273283 
L 323.721279 255.773502 
L 323.721279 255.773502 
" clip-path="url(#p3afe0fea91)" style="fill: none; stroke: #ff0000; stroke-opacity: 0.8; stroke-width: 0.5; stroke-linecap: square"/>
   </g>
   <g id="line2d_14">
    <path d="M 45.278721 184.631504 
L 45.557443 189.036125 
L 45.836164 212.288221 
L 46.114885 195.020908 
L 46.393606 226.952182 
L 46.672328 224.6783 
L 46.951049 216.290355 
L 47.508492 225.758685 
L 47.787213 225.477113 
L 48.065934 216.099986 
L 48.344655 248.33656 
L 48.623377 249.247357 
L 48.902098 251.896184 
L 49.180819 244.828176 
L 49.45954 251.859509 
L 49.738262 253.093804 
L 50.016983 239.56878 
L 50.295704 158.531306 
L 50.574426 160.636229 
L 50.853147 250.287047 
L 51.131868 133.909782 
L 51.410589 234.873725 
L 51.689311 249.331766 
L 51.968032 141.951005 
L 52.246753 252.910204 
L 52.525475 212.015602 
L 52.804196 248.83187 
L 53.082917 246.871647 
L 53.361638 239.301067 
L 53.64036 185.371928 
L 53.919081 202.800985 
L 54.197802 236.872189 
L 54.476523 236.412661 
L 54.755245 228.31652 
L 55.033966 242.924443 
L 55.312687 234.967112 
L 55.591409 181.996545 
L 55.87013 245.778447 
L 56.148851 47.450312 
L 56.427572 216.299148 
L 56.706294 179.931521 
L 56.985015 190.875809 
L 57.263736 143.705378 
L 57.542458 251.087681 
L 57.821179 134.868339 
L 58.0999 224.569827 
L 58.378621 253.347457 
L 58.657343 250.046926 
L 58.936064 250.498497 
L 59.214785 245.678173 
L 59.493506 211.400198 
L 59.772228 235.724489 
L 60.050949 154.199571 
L 60.32967 147.388211 
L 60.608392 112.471816 
L 60.887113 155.892103 
L 61.165834 15.07307 
L 61.444555 193.176802 
L 61.723277 104.989267 
L 62.001998 191.115572 
L 62.280719 110.001859 
L 62.559441 239.267631 
L 62.838162 107.051441 
L 63.116883 90.763678 
L 63.395604 208.835604 
L 63.674326 218.124717 
L 63.953047 250.222935 
L 64.231768 100.473672 
L 64.51049 217.258138 
L 64.789211 111.749172 
L 65.067932 207.576024 
L 65.346653 237.799212 
L 65.625375 240.45531 
L 65.904096 126.573827 
L 66.182817 230.458477 
L 66.461538 245.528611 
L 66.74026 60.207154 
L 67.018981 213.454307 
L 67.297702 189.525928 
L 67.576424 230.114816 
L 67.855145 181.549946 
L 68.133866 48.091036 
L 68.412587 254.380591 
L 68.691309 253.600921 
L 68.97003 254.566158 
L 69.248751 254.562157 
L 69.527473 254.055533 
L 69.806194 253.234795 
L 70.084915 254.480822 
L 70.363636 153.715411 
L 70.642358 157.200014 
L 70.921079 254.922759 
L 71.1998 253.717486 
L 71.478521 253.396875 
L 71.757243 254.55812 
L 72.035964 254.458912 
L 72.314685 252.105345 
L 72.593407 254.053394 
L 72.872128 254.922975 
L 73.42957 255.614555 
L 73.708292 164.121421 
L 73.987013 254.480648 
L 74.265734 255.03395 
L 74.544456 255.083132 
L 75.101898 254.669257 
L 75.380619 191.690132 
L 75.659341 250.878845 
L 75.938062 254.432731 
L 76.216783 253.835952 
L 76.495504 251.391002 
L 76.774226 254.947258 
L 77.052947 172.850691 
L 77.331668 254.267955 
L 77.61039 251.402195 
L 77.889111 255.680057 
L 78.167832 254.850063 
L 78.446553 254.468282 
L 78.725275 255.749603 
L 79.003996 255.602903 
L 79.282717 252.896568 
L 79.561439 255.755479 
L 79.84016 250.64788 
L 80.118881 252.976175 
L 80.397602 251.628728 
L 80.676324 248.439278 
L 80.955045 228.605997 
L 81.233766 177.304731 
L 81.512488 179.717152 
L 82.06993 253.605417 
L 82.348651 237.657552 
L 82.627373 235.195544 
L 82.906094 252.43888 
L 83.184815 208.218905 
L 83.463536 252.935486 
L 83.742258 202.668485 
L 84.020979 223.274461 
L 84.2997 214.81318 
L 84.578422 228.125908 
L 84.857143 166.73896 
L 85.135864 165.368506 
L 85.414585 229.135361 
L 85.693307 251.191668 
L 85.972028 169.842634 
L 86.250749 242.484281 
L 86.529471 227.585703 
L 86.808192 222.478285 
L 87.086913 248.872084 
L 87.365634 236.215108 
L 87.644356 249.593617 
L 87.923077 230.918053 
L 88.201798 253.970252 
L 88.480519 252.42368 
L 88.759241 250.024067 
L 89.316683 238.346287 
L 89.595405 244.028027 
L 90.152847 249.809656 
L 90.431568 253.823858 
L 90.989011 247.154983 
L 91.267732 247.703999 
L 91.546454 250.251906 
L 91.825175 246.627989 
L 92.382617 252.625083 
L 92.661339 248.290778 
L 92.94006 251.412428 
L 93.218781 250.567776 
L 93.497502 254.774872 
L 94.054945 253.042168 
L 94.333666 254.371713 
L 94.612388 254.410315 
L 94.891109 252.924304 
L 95.16983 254.471983 
L 95.448551 249.456627 
L 96.005994 252.083457 
L 96.284715 251.66002 
L 96.563437 253.435396 
L 96.842158 252.588813 
L 97.120879 255.364695 
L 97.3996 251.650847 
L 97.678322 255.625697 
L 97.957043 254.734016 
L 98.235764 254.302242 
L 98.514486 246.320759 
L 98.793207 251.990994 
L 99.350649 236.85227 
L 99.629371 253.118757 
L 99.908092 195.823195 
L 100.186813 251.868583 
L 100.744256 242.176463 
L 101.022977 255.009014 
L 101.301698 254.116282 
L 101.58042 224.385125 
L 101.859141 248.649755 
L 102.137862 247.405397 
L 102.695305 251.406574 
L 102.974026 249.490311 
L 103.252747 236.068685 
L 103.531469 245.104091 
L 103.81019 241.126558 
L 104.088911 230.158048 
L 104.367632 239.913744 
L 104.646354 186.579542 
L 104.925075 234.649013 
L 105.203796 248.972394 
L 105.482517 242.574069 
L 105.761239 248.49707 
L 106.03996 236.865016 
L 106.318681 252.332647 
L 106.597403 213.267788 
L 106.876124 252.475486 
L 107.154845 250.981022 
L 107.433566 241.198391 
L 107.712288 251.64612 
L 108.26973 191.536219 
L 108.548452 233.347234 
L 108.827173 243.808543 
L 109.105894 239.841035 
L 109.384615 213.118695 
L 109.663337 243.2203 
L 109.942058 241.637654 
L 110.220779 252.409984 
L 110.4995 198.259958 
L 110.778222 190.876268 
L 111.056943 253.749935 
L 111.614386 239.90021 
L 111.893107 163.275641 
L 112.171828 232.305083 
L 112.450549 188.879218 
L 112.729271 253.324416 
L 113.007992 249.777789 
L 113.286713 198.826947 
L 113.565435 247.493307 
L 113.844156 201.826668 
L 114.122877 248.063565 
L 114.401598 251.698322 
L 114.68032 215.494643 
L 114.959041 249.956896 
L 115.237762 251.831149 
L 115.516484 250.14762 
L 115.795205 250.448494 
L 116.352647 236.344397 
L 116.631369 247.283438 
L 116.91009 232.576678 
L 117.188811 251.872105 
L 117.467532 246.14537 
L 117.746254 251.527743 
L 118.024975 249.143695 
L 118.303696 250.859394 
L 118.582418 253.689228 
L 118.861139 247.769358 
L 119.13986 253.19885 
L 119.418581 242.867803 
L 119.697303 244.486375 
L 119.976024 250.554313 
L 120.254745 249.331655 
L 120.533467 238.5884 
L 120.812188 250.793797 
L 121.090909 245.971606 
L 121.36963 237.61268 
L 121.648352 242.309441 
L 121.927073 250.771813 
L 122.205794 250.677923 
L 122.484515 212.137681 
L 122.763237 255.237796 
L 123.041958 203.154083 
L 123.320679 242.911483 
L 123.599401 250.368779 
L 123.878122 215.300034 
L 124.156843 253.871503 
L 124.714286 237.487257 
L 124.993007 250.524116 
L 125.55045 251.920749 
L 125.829171 255.193453 
L 126.107892 244.471594 
L 126.386613 255.82992 
L 126.665335 254.558756 
L 126.944056 254.686419 
L 127.222777 254.261011 
L 127.501499 248.823908 
L 127.78022 248.795626 
L 128.058941 248.899393 
L 128.337662 249.122313 
L 128.616384 254.293867 
L 128.895105 250.556942 
L 129.173826 253.726111 
L 129.452547 254.10802 
L 129.731269 210.42996 
L 130.00999 249.751602 
L 130.288711 252.748191 
L 130.567433 254.142514 
L 130.846154 251.184495 
L 131.124875 245.398241 
L 131.403596 254.438567 
L 131.682318 247.162729 
L 131.961039 251.83025 
L 132.23976 253.96422 
L 132.518482 251.604798 
L 132.797203 252.0025 
L 133.075924 255.608219 
L 133.354645 252.669393 
L 133.633367 251.515997 
L 133.912088 255.54965 
L 134.190809 215.361979 
L 134.46953 250.556526 
L 134.748252 247.306251 
L 135.026973 254.620148 
L 135.305694 252.492148 
L 135.584416 213.220054 
L 135.863137 255.043232 
L 136.141858 254.357373 
L 136.420579 214.354566 
L 136.699301 252.440144 
L 136.978022 248.484765 
L 137.256743 248.068234 
L 137.535465 254.969989 
L 137.814186 250.335831 
L 138.092907 248.466973 
L 138.65035 254.512524 
L 138.929071 216.165963 
L 139.207792 254.823076 
L 139.486513 254.418133 
L 139.765235 253.237852 
L 140.043956 254.817874 
L 140.322677 251.961096 
L 140.601399 254.444938 
L 140.88012 253.953524 
L 141.158841 253.785138 
L 141.437562 252.186806 
L 141.716284 253.329845 
L 141.995005 255.889503 
L 142.273726 255.576974 
L 142.552448 219.005541 
L 142.831169 255.188331 
L 143.10989 254.401507 
L 143.388611 253.026681 
L 143.667333 216.451446 
L 143.946054 255.336339 
L 144.224775 254.238066 
L 144.503497 215.671058 
L 144.782218 255.883577 
L 145.618382 253.281138 
L 145.897103 255.355452 
L 146.175824 256.012548 
L 146.454545 252.431779 
L 146.733267 255.873201 
L 147.011988 254.165312 
L 147.290709 255.673911 
L 147.569431 254.402801 
L 147.848152 255.569453 
L 148.126873 255.245905 
L 148.405594 255.278764 
L 148.684316 255.9927 
L 149.241758 255.91678 
L 149.52048 255.935266 
L 149.799201 256.073291 
L 150.077922 255.97188 
L 150.356643 254.319693 
L 150.635365 251.503438 
L 150.914086 254.273215 
L 151.192807 251.525985 
L 151.471528 255.946825 
L 151.75025 255.419465 
L 152.028971 256.062389 
L 152.307692 254.516887 
L 152.586414 255.909022 
L 152.865135 256.083117 
L 153.143856 253.429989 
L 153.422577 255.873257 
L 153.701299 254.258648 
L 153.98002 227.483402 
L 154.258741 255.471848 
L 154.537463 253.968096 
L 154.816184 255.644116 
L 155.094905 254.174828 
L 155.373626 255.99635 
L 155.652348 253.856193 
L 155.931069 255.512982 
L 156.20979 255.112296 
L 156.488511 254.429768 
L 156.767233 255.614453 
L 157.045954 255.805142 
L 157.324675 248.480304 
L 157.603397 254.997258 
L 157.882118 256.070966 
L 158.160839 229.966654 
L 158.43956 255.679494 
L 158.997003 255.404071 
L 159.275724 253.703008 
L 159.554446 253.418759 
L 159.833167 253.680459 
L 160.111888 255.520102 
L 160.390609 253.685368 
L 160.669331 231.044756 
L 160.948052 253.690072 
L 161.226773 231.212956 
L 161.505495 250.43479 
L 161.784216 231.042497 
L 162.062937 255.688072 
L 162.341658 255.485436 
L 162.62038 255.679129 
L 162.899101 255.259893 
L 163.177822 255.926502 
L 163.456543 227.057073 
L 163.735265 253.158198 
L 164.013986 255.252929 
L 164.292707 252.773569 
L 164.571429 255.692329 
L 164.85015 256.025535 
L 165.128871 254.93563 
L 165.407592 255.970496 
L 165.965035 255.855792 
L 166.243756 232.984862 
L 166.522478 255.455544 
L 166.801199 255.571724 
L 167.358641 256.096972 
L 167.637363 255.518473 
L 167.916084 255.922444 
L 168.194805 253.010278 
L 168.473526 253.515227 
L 168.752248 255.964743 
L 169.030969 256.17038 
L 169.30969 254.797954 
L 169.588412 234.583096 
L 169.867133 234.24949 
L 170.145854 254.667951 
L 170.424575 254.669222 
L 170.703297 256.115375 
L 170.982018 255.927304 
L 171.260739 256.180953 
L 171.539461 256.087127 
L 171.818182 253.359579 
L 172.096903 255.412484 
L 172.375624 255.234803 
L 172.654346 245.771064 
L 172.933067 253.62248 
L 173.211788 255.651886 
L 173.490509 252.190312 
L 173.769231 255.596348 
L 174.326673 255.439242 
L 174.605395 208.361241 
L 174.884116 255.687325 
L 175.72028 256.050979 
L 175.999001 255.722348 
L 176.556444 255.331066 
L 176.835165 231.211198 
L 177.113886 255.394439 
L 177.392607 231.664039 
L 177.671329 255.33927 
L 177.95005 254.020981 
L 178.228771 236.280024 
L 178.507493 256.122268 
L 178.786214 255.438216 
L 179.064935 255.827963 
L 179.343656 236.992523 
L 179.622378 254.851732 
L 179.901099 254.111409 
L 180.17982 254.694473 
L 180.458541 255.955619 
L 180.737263 255.904609 
L 181.015984 237.429975 
L 181.294705 254.870152 
L 181.573427 256.095003 
L 181.852148 254.967693 
L 182.130869 255.881732 
L 182.688312 256.101517 
L 182.967033 256.136681 
L 183.245754 255.923977 
L 183.524476 256.23767 
L 183.803197 254.806095 
L 184.081918 254.111357 
L 184.360639 255.995413 
L 184.639361 255.830944 
L 184.918082 256.174328 
L 185.196803 255.737683 
L 185.475524 255.954561 
L 185.754246 238.577224 
L 186.032967 239.712646 
L 186.311688 256.184219 
L 186.59041 255.441587 
L 186.869131 239.252003 
L 187.147852 255.845645 
L 187.705295 256.006103 
L 187.984016 254.476557 
L 188.262737 255.840285 
L 188.541459 255.796994 
L 189.098901 256.10449 
L 189.377622 255.188201 
L 189.656344 256.144107 
L 189.935065 256.143488 
L 190.213786 255.251385 
L 190.492507 255.818154 
L 191.328671 256.181685 
L 191.607393 255.91296 
L 191.886114 256.113431 
L 192.164835 256.083215 
L 192.443556 256.18687 
L 192.722278 255.658395 
L 193.27972 256.01718 
L 193.558442 240.673121 
L 193.837163 255.546009 
L 194.115884 255.97027 
L 194.394605 255.653086 
L 194.673327 254.400404 
L 194.952048 255.715254 
L 195.230769 256.245054 
L 195.509491 255.931876 
L 195.788212 255.999108 
L 196.066933 255.658497 
L 196.345654 256.179786 
L 196.903097 256.21412 
L 197.181818 255.837274 
L 197.460539 256.271699 
L 197.739261 255.898154 
L 198.017982 254.720572 
L 198.296703 255.894899 
L 198.575425 255.286664 
L 198.854146 256.212969 
L 199.132867 254.183026 
L 199.411588 256.176315 
L 199.69031 256.21063 
L 199.969031 256.000653 
L 200.247752 256.213252 
L 200.526474 256.115522 
L 200.805195 242.086066 
L 201.083916 256.102393 
L 201.362637 256.197373 
L 201.92008 255.920662 
L 202.477522 256.182985 
L 202.756244 256.057299 
L 203.034965 256.191633 
L 203.313686 256.154865 
L 203.592408 255.872937 
L 203.871129 255.968701 
L 204.14985 255.764289 
L 204.428571 241.62134 
L 204.707293 241.966333 
L 204.986014 255.645163 
L 205.264735 255.387998 
L 205.543457 242.683745 
L 205.822178 255.682341 
L 206.100899 255.932555 
L 206.37962 255.133636 
L 206.658342 255.49266 
L 207.215784 255.934543 
L 207.494505 242.12551 
L 207.773227 254.920771 
L 208.051948 253.113829 
L 208.330669 255.966615 
L 208.609391 255.084793 
L 209.166833 254.102154 
L 209.445554 255.568137 
L 209.724276 255.885452 
L 210.002997 255.859829 
L 210.281718 256.16237 
L 210.56044 254.78898 
L 210.839161 255.141728 
L 211.117882 255.20435 
L 211.396603 253.338929 
L 211.675325 255.760952 
L 211.954046 255.653899 
L 212.232767 256.01354 
L 212.511489 255.700444 
L 212.79021 254.815536 
L 213.068931 254.415657 
L 213.347652 243.752909 
L 213.626374 255.862833 
L 214.183816 255.995118 
L 214.462537 255.906306 
L 214.741259 254.954478 
L 215.01998 254.642795 
L 215.577423 256.148895 
L 216.134865 255.693143 
L 216.413586 256.018625 
L 216.692308 254.60604 
L 216.971029 255.89186 
L 217.24975 255.167619 
L 217.528472 255.953703 
L 217.807193 254.744199 
L 218.085914 255.453619 
L 218.364635 255.122548 
L 218.922078 255.695274 
L 219.200799 254.594224 
L 219.47952 255.239721 
L 219.758242 254.263728 
L 220.036963 255.424716 
L 220.594406 252.955822 
L 220.873127 254.204306 
L 221.151848 254.192296 
L 221.430569 256.111887 
L 221.709291 253.681079 
L 221.988012 253.39238 
L 222.266733 254.821437 
L 222.545455 254.721145 
L 222.824176 250.773469 
L 223.102897 254.664466 
L 223.381618 255.485763 
L 223.66034 254.673276 
L 223.939061 255.638329 
L 224.217782 254.55874 
L 224.496503 254.86043 
L 224.775225 254.332689 
L 225.053946 255.17211 
L 225.332667 255.256163 
L 225.611389 254.77358 
L 225.89011 243.754441 
L 226.168831 254.537993 
L 226.447552 256.051344 
L 226.726274 244.325765 
L 227.004995 255.176523 
L 227.283716 255.89354 
L 227.562438 255.742374 
L 227.841159 255.093663 
L 228.11988 255.813974 
L 228.398601 255.837563 
L 228.677323 255.986588 
L 228.956044 246.542498 
L 229.234765 255.777931 
L 229.513487 255.907888 
L 229.792208 255.116485 
L 230.070929 256.061191 
L 230.34965 255.936409 
L 230.628372 255.623995 
L 230.907093 255.759807 
L 231.185814 255.246161 
L 231.464535 254.303196 
L 231.743257 256.07712 
L 232.300699 253.982038 
L 232.579421 243.998908 
L 232.858142 256.011353 
L 233.415584 255.417122 
L 233.694306 256.029514 
L 233.973027 256.280287 
L 234.53047 256.05759 
L 235.087912 256.217616 
L 235.366633 255.910145 
L 235.645355 256.100131 
L 235.924076 255.21765 
L 236.202797 255.985736 
L 236.481518 255.969993 
L 236.76024 256.071588 
L 237.038961 255.637796 
L 237.317682 256.179716 
L 237.875125 256.206928 
L 238.153846 255.812833 
L 238.432567 256.171459 
L 238.711289 256.082061 
L 238.99001 247.795343 
L 239.268731 255.972061 
L 239.547453 255.180286 
L 239.826174 256.191179 
L 240.104895 256.022684 
L 240.383616 255.57994 
L 240.662338 256.1857 
L 240.941059 256.006166 
L 242.055944 256.041453 
L 242.334665 255.719036 
L 242.613387 256.216895 
L 242.892108 256.197831 
L 243.170829 256.05229 
L 243.728272 256.248818 
L 244.006993 254.757288 
L 244.285714 255.898741 
L 244.564436 256.212581 
L 244.843157 255.882132 
L 245.121878 256.132499 
L 245.400599 255.791414 
L 245.679321 256.025665 
L 247.072927 255.932703 
L 247.351648 255.082508 
L 247.63037 256.235882 
L 247.909091 255.565454 
L 248.187812 256.003287 
L 248.466533 256.206318 
L 248.745255 248.909246 
L 249.023976 249.15223 
L 249.302697 255.745107 
L 249.86014 254.965451 
L 250.138861 256.099179 
L 250.417582 256.076498 
L 250.696304 251.52555 
L 250.975025 254.370422 
L 251.253746 255.791982 
L 251.532468 255.830745 
L 251.811189 256.098984 
L 252.08991 255.08416 
L 252.368631 255.710674 
L 252.647353 255.554186 
L 252.926074 255.859792 
L 253.204795 254.859717 
L 253.483516 256.007656 
L 253.762238 256.226505 
L 254.040959 247.42532 
L 254.31968 255.355344 
L 254.598402 256.220786 
L 254.877123 253.84964 
L 255.155844 255.789109 
L 255.434565 249.557108 
L 255.713287 256.191733 
L 255.992008 255.784972 
L 256.549451 253.76015 
L 256.828172 255.773443 
L 257.106893 255.333081 
L 257.385614 255.510256 
L 257.664336 256.155019 
L 258.221778 255.686497 
L 258.5005 256.088481 
L 258.779221 255.668703 
L 259.057942 255.695969 
L 259.336663 255.082202 
L 259.615385 256.209316 
L 259.894106 254.187742 
L 260.172827 255.424517 
L 260.451548 255.844239 
L 260.73027 255.182867 
L 261.008991 255.890628 
L 261.845155 256.06512 
L 262.123876 254.446671 
L 262.402597 255.700852 
L 262.681319 256.006465 
L 262.96004 255.879124 
L 263.238761 250.199989 
L 263.517483 256.155287 
L 263.796204 255.388282 
L 264.074925 256.206433 
L 264.353646 256.013762 
L 264.632368 256.282151 
L 264.911089 255.958454 
L 265.18981 255.390498 
L 265.468531 256.254676 
L 265.747253 256.243856 
L 266.025974 255.496072 
L 266.304695 255.93049 
L 266.583417 255.841684 
L 266.862138 256.162226 
L 267.140859 256.070079 
L 267.41958 255.155694 
L 267.698302 255.830363 
L 268.255744 256.184807 
L 268.534466 256.018884 
L 268.813187 248.398866 
L 269.091908 248.528906 
L 269.370629 240.840254 
L 269.649351 255.817876 
L 269.928072 254.880002 
L 270.206793 256.057318 
L 270.485514 253.831263 
L 270.764236 254.894395 
L 271.042957 248.015993 
L 271.321678 256.189708 
L 271.6004 248.95637 
L 271.879121 253.768676 
L 272.157842 255.957412 
L 272.436563 250.818316 
L 272.715285 255.825883 
L 273.272727 256.143476 
L 273.551449 255.69945 
L 273.83017 254.841193 
L 274.108891 255.706077 
L 274.387612 256.06604 
L 274.666334 253.284117 
L 274.945055 255.839141 
L 275.223776 256.129699 
L 275.502498 255.763995 
L 275.781219 254.344764 
L 276.05994 255.48424 
L 276.338661 254.950811 
L 276.896104 255.419979 
L 277.174825 255.360559 
L 277.453546 254.936597 
L 277.732268 255.18628 
L 278.010989 255.207669 
L 278.28971 255.457322 
L 278.847153 255.289824 
L 279.125874 255.577865 
L 279.404595 255.638712 
L 279.683317 255.505647 
L 279.962038 255.670853 
L 280.519481 254.953187 
L 280.798202 255.987467 
L 281.076923 255.616269 
L 281.355644 253.735784 
L 281.634366 254.365172 
L 281.913087 254.25305 
L 282.470529 255.91354 
L 282.749251 254.227457 
L 283.306693 255.834609 
L 283.585415 255.312687 
L 283.864136 255.08899 
L 284.142857 255.853479 
L 284.421578 256.232863 
L 284.7003 256.1274 
L 284.979021 254.315096 
L 285.257742 254.581214 
L 285.815185 256.005671 
L 286.093906 255.782731 
L 286.372627 255.269859 
L 286.651349 256.151497 
L 286.93007 254.716819 
L 287.208791 254.463033 
L 287.487512 255.103733 
L 287.766234 254.020191 
L 288.044955 254.897841 
L 288.323676 254.776138 
L 288.881119 253.654387 
L 289.15984 255.018991 
L 289.438561 255.53351 
L 289.717283 255.13974 
L 289.996004 255.873623 
L 290.274725 256.037278 
L 290.553447 255.63094 
L 290.832168 255.943155 
L 291.110889 255.789387 
L 291.38961 255.925265 
L 291.947053 255.882633 
L 292.225774 256.04055 
L 292.504496 255.855901 
L 292.783217 256.020689 
L 293.061938 255.705727 
L 293.619381 256.129602 
L 293.898102 253.576298 
L 294.176823 255.643574 
L 294.734266 255.981194 
L 295.57043 256.218475 
L 295.849151 255.672904 
L 296.127872 253.359955 
L 296.406593 256.218113 
L 296.964036 256.114178 
L 297.8002 256.095476 
L 298.078921 255.821775 
L 298.357642 251.081508 
L 298.636364 256.276537 
L 299.193806 256.258703 
L 299.472527 255.682462 
L 299.751249 256.232148 
L 300.02997 256.144074 
L 300.308691 252.12489 
L 300.587413 252.883268 
L 300.866134 255.74745 
L 301.423576 256.290138 
L 301.702298 256.270956 
L 301.981019 256.138429 
L 302.25974 255.628681 
L 302.538462 256.269543 
L 302.817183 256.157152 
L 303.374625 256.291745 
L 303.653347 256.290869 
L 303.932068 255.588145 
L 304.210789 255.293853 
L 304.768232 256.213172 
L 305.325674 256.11249 
L 305.604396 253.057245 
L 305.883117 256.019239 
L 306.161838 256.233413 
L 306.440559 251.989375 
L 306.719281 256.051408 
L 306.998002 249.109164 
L 307.276723 255.943197 
L 307.555445 255.034485 
L 307.834166 252.958699 
L 308.112887 256.242502 
L 308.391608 254.942959 
L 308.67033 254.561351 
L 308.949051 255.652583 
L 309.227772 256.077799 
L 309.506494 254.979209 
L 309.785215 254.477357 
L 310.063936 255.13536 
L 310.342657 254.89695 
L 310.621379 256.075872 
L 310.9001 250.510238 
L 311.178821 256.201675 
L 311.457542 255.434022 
L 311.736264 255.64022 
L 312.014985 251.671353 
L 312.293706 255.990479 
L 312.572428 254.987154 
L 312.851149 256.176745 
L 313.12987 255.902992 
L 313.687313 255.990248 
L 313.966034 252.431371 
L 314.244755 254.899247 
L 314.523477 256.152701 
L 314.802198 255.942585 
L 315.35964 255.984426 
L 315.638362 255.231416 
L 315.917083 256.153665 
L 316.195804 255.996784 
L 316.474525 255.070786 
L 316.753247 256.205827 
L 317.031968 256.046868 
L 317.310689 256.201661 
L 317.589411 255.239043 
L 317.868132 256.236434 
L 318.146853 255.992743 
L 318.425574 256.231065 
L 318.704296 252.227074 
L 318.983017 256.25576 
L 319.819181 256.156767 
L 320.097902 255.923026 
L 320.655345 256.208897 
L 321.212787 256.274339 
L 321.491508 255.234796 
L 321.77023 256.229725 
L 322.327672 256.290949 
L 323.442557 256.266501 
L 323.721279 255.721894 
L 323.721279 255.721894 
" clip-path="url(#p3afe0fea91)" style="fill: none; stroke: #0000ff; stroke-opacity: 0.8; stroke-width: 0.5; stroke-linecap: square"/>
   </g>
   <g id="patch_3">
    <path d="M 45 256.32 
L 45 34.56 
" style="fill: none; stroke: #000000; stroke-width: 0.8; stroke-linejoin: miter; stroke-linecap: square"/>
   </g>
   <g id="patch_4">
    <path d="M 324 256.32 
L 324 34.56 
" style="fill: none; stroke: #000000; stroke-width: 0.8; stroke-linejoin: miter; stroke-linecap: square"/>
   </g>
   <g id="patch_5">
    <path d="M 45 256.32 
L 324 256.32 
" style="fill: none; stroke: #000000; stroke-width: 0.8; stroke-linejoin: miter; stroke-linecap: square"/>
   </g>
   <g id="patch_6">
    <path d="M 45 34.56 
L 324 34.56 
" style="fill: none; stroke: #000000; stroke-width: 0.8; stroke-linejoin: miter; stroke-linecap: square"/>
   </g>
   <g id="legend_1">
    <g id="patch_7">
     <path d="M 235.834375 70.838125 
L 317 70.838125 
Q 319 70.838125 319 68.838125 
L 319 41.56 
Q 319 39.56 317 39.56 
L 235.834375 39.56 
Q 233.834375 39.56 233.834375 41.56 
L 233.834375 68.838125 
Q 233.834375 70.838125 235.834375 70.838125 
z
" style="fill: #ffffff; opacity: 0.8; stroke: #cccccc; stroke-linejoin: miter"/>
    </g>
    <g id="line2d_15">
     <path d="M 237.834375 47.06 
L 247.834375 47.06 
L 257.834375 47.06 
" style="fill: none; stroke: #ff0000; stroke-opacity: 0.8; stroke-width: 0.5; stroke-linecap: square"/>
    </g>
    <g id="text_14">
     <!-- Critic1 Loss -->
     <g transform="translate(265.834375 50.56)scale(0.1 -0.1)">
      <defs>
       <path id="TimesNewRomanPSMT-43" d="M 3853 4334 
L 3950 2894 
L 3853 2894 
Q 3659 3541 3300 3825 
Q 2941 4109 2438 4109 
Q 2016 4109 1675 3895 
Q 1334 3681 1139 3212 
Q 944 2744 944 2047 
Q 944 1472 1128 1050 
Q 1313 628 1683 403 
Q 2053 178 2528 178 
Q 2941 178 3256 354 
Q 3572 531 3950 1056 
L 4047 994 
Q 3728 428 3303 165 
Q 2878 -97 2294 -97 
Q 1241 -97 663 684 
Q 231 1266 231 2053 
Q 231 2688 515 3219 
Q 800 3750 1298 4042 
Q 1797 4334 2388 4334 
Q 2847 4334 3294 4109 
Q 3425 4041 3481 4041 
Q 3566 4041 3628 4100 
Q 3709 4184 3744 4334 
L 3853 4334 
z
" transform="scale(0.015625)"/>
       <path id="TimesNewRomanPSMT-63" d="M 2631 1088 
Q 2516 522 2178 217 
Q 1841 -88 1431 -88 
Q 944 -88 581 321 
Q 219 731 219 1428 
Q 219 2103 620 2525 
Q 1022 2947 1584 2947 
Q 2006 2947 2278 2723 
Q 2550 2500 2550 2259 
Q 2550 2141 2473 2067 
Q 2397 1994 2259 1994 
Q 2075 1994 1981 2113 
Q 1928 2178 1911 2362 
Q 1894 2547 1784 2644 
Q 1675 2738 1481 2738 
Q 1169 2738 978 2506 
Q 725 2200 725 1697 
Q 725 1184 976 792 
Q 1228 400 1656 400 
Q 1963 400 2206 609 
Q 2378 753 2541 1131 
L 2631 1088 
z
" transform="scale(0.015625)"/>
       <path id="TimesNewRomanPSMT-4c" d="M 3669 1172 
L 3772 1150 
L 3409 0 
L 128 0 
L 128 116 
L 288 116 
Q 556 116 672 291 
Q 738 391 738 753 
L 738 3488 
Q 738 3884 650 3984 
Q 528 4122 288 4122 
L 128 4122 
L 128 4238 
L 2047 4238 
L 2047 4122 
Q 1709 4125 1573 4059 
Q 1438 3994 1388 3894 
Q 1338 3794 1338 3416 
L 1338 753 
Q 1338 494 1388 397 
Q 1425 331 1503 300 
Q 1581 269 1991 269 
L 2300 269 
Q 2788 269 2984 341 
Q 3181 413 3343 595 
Q 3506 778 3669 1172 
z
" transform="scale(0.015625)"/>
       <path id="TimesNewRomanPSMT-6f" d="M 1600 2947 
Q 2250 2947 2644 2453 
Q 2978 2031 2978 1484 
Q 2978 1100 2793 706 
Q 2609 313 2286 112 
Q 1963 -88 1566 -88 
Q 919 -88 538 428 
Q 216 863 216 1403 
Q 216 1797 411 2186 
Q 606 2575 925 2761 
Q 1244 2947 1600 2947 
z
M 1503 2744 
Q 1338 2744 1170 2645 
Q 1003 2547 900 2300 
Q 797 2053 797 1666 
Q 797 1041 1045 587 
Q 1294 134 1700 134 
Q 2003 134 2200 384 
Q 2397 634 2397 1244 
Q 2397 2006 2069 2444 
Q 1847 2744 1503 2744 
z
" transform="scale(0.015625)"/>
       <path id="TimesNewRomanPSMT-73" d="M 2050 2947 
L 2050 1972 
L 1947 1972 
Q 1828 2431 1642 2597 
Q 1456 2763 1169 2763 
Q 950 2763 815 2647 
Q 681 2531 681 2391 
Q 681 2216 781 2091 
Q 878 1963 1175 1819 
L 1631 1597 
Q 2266 1288 2266 781 
Q 2266 391 1970 151 
Q 1675 -88 1309 -88 
Q 1047 -88 709 6 
Q 606 38 541 38 
Q 469 38 428 -44 
L 325 -44 
L 325 978 
L 428 978 
Q 516 541 762 319 
Q 1009 97 1316 97 
Q 1531 97 1667 223 
Q 1803 350 1803 528 
Q 1803 744 1651 891 
Q 1500 1038 1047 1263 
Q 594 1488 453 1669 
Q 313 1847 313 2119 
Q 313 2472 555 2709 
Q 797 2947 1181 2947 
Q 1350 2947 1591 2875 
Q 1750 2828 1803 2828 
Q 1853 2828 1881 2850 
Q 1909 2872 1947 2947 
L 2050 2947 
z
" transform="scale(0.015625)"/>
      </defs>
      <use xlink:href="#TimesNewRomanPSMT-43"/>
      <use xlink:href="#TimesNewRomanPSMT-72" x="66.699219"/>
      <use xlink:href="#TimesNewRomanPSMT-69" x="100"/>
      <use xlink:href="#TimesNewRomanPSMT-74" x="127.783203"/>
      <use xlink:href="#TimesNewRomanPSMT-69" x="155.566406"/>
      <use xlink:href="#TimesNewRomanPSMT-63" x="183.349609"/>
      <use xlink:href="#TimesNewRomanPSMT-31" x="227.734375"/>
      <use xlink:href="#TimesNewRomanPSMT-20" x="277.734375"/>
      <use xlink:href="#TimesNewRomanPSMT-4c" x="302.734375"/>
      <use xlink:href="#TimesNewRomanPSMT-6f" x="363.818359"/>
      <use xlink:href="#TimesNewRomanPSMT-73" x="413.818359"/>
      <use xlink:href="#TimesNewRomanPSMT-73" x="452.734375"/>
     </g>
    </g>
    <g id="line2d_16">
     <path d="M 237.834375 61.199062 
L 247.834375 61.199062 
L 257.834375 61.199062 
" style="fill: none; stroke: #0000ff; stroke-opacity: 0.8; stroke-width: 0.5; stroke-linecap: square"/>
    </g>
    <g id="text_15">
     <!-- Critic2 Loss -->
     <g transform="translate(265.834375 64.699062)scale(0.1 -0.1)">
      <use xlink:href="#TimesNewRomanPSMT-43"/>
      <use xlink:href="#TimesNewRomanPSMT-72" x="66.699219"/>
      <use xlink:href="#TimesNewRomanPSMT-69" x="100"/>
      <use xlink:href="#TimesNewRomanPSMT-74" x="127.783203"/>
      <use xlink:href="#TimesNewRomanPSMT-69" x="155.566406"/>
      <use xlink:href="#TimesNewRomanPSMT-63" x="183.349609"/>
      <use xlink:href="#TimesNewRomanPSMT-32" x="227.734375"/>
      <use xlink:href="#TimesNewRomanPSMT-20" x="277.734375"/>
      <use xlink:href="#TimesNewRomanPSMT-4c" x="302.734375"/>
      <use xlink:href="#TimesNewRomanPSMT-6f" x="363.818359"/>
      <use xlink:href="#TimesNewRomanPSMT-73" x="413.818359"/>
      <use xlink:href="#TimesNewRomanPSMT-73" x="452.734375"/>
     </g>
    </g>
   </g>
  </g>
 </g>
 <defs>
  <clipPath id="p3afe0fea91">
   <rect x="45" y="34.56" width="279" height="221.76"/>
  </clipPath>
 </defs>
</svg>
