<?xml version="1.0" encoding="utf-8" standalone="no"?>
<!DOCTYPE svg PUBLIC "-//W3C//DTD SVG 1.1//EN"
  "http://www.w3.org/Graphics/SVG/1.1/DTD/svg11.dtd">
<svg xmlns:xlink="http://www.w3.org/1999/xlink" width="360pt" height="288pt" viewBox="0 0 360 288" xmlns="http://www.w3.org/2000/svg" version="1.1">
 <metadata>
  <rdf:RDF xmlns:dc="http://purl.org/dc/elements/1.1/" xmlns:cc="http://creativecommons.org/ns#" xmlns:rdf="http://www.w3.org/1999/02/22-rdf-syntax-ns#">
   <cc:Work>
    <dc:type rdf:resource="http://purl.org/dc/dcmitype/StillImage"/>
    <dc:date>2025-07-16T18:16:28.658129</dc:date>
    <dc:format>image/svg+xml</dc:format>
    <dc:creator>
     <cc:Agent>
      <dc:title>Matplotlib v3.5.1, https://matplotlib.org/</dc:title>
     </cc:Agent>
    </dc:creator>
   </cc:Work>
  </rdf:RDF>
 </metadata>
 <defs>
  <style type="text/css">*{stroke-linejoin: round; stroke-linecap: butt}</style>
 </defs>
 <g id="figure_1">
  <g id="patch_1">
   <path d="M 0 288 
L 360 288 
L 360 0 
L 0 0 
z
" style="fill: #ffffff"/>
  </g>
  <g id="axes_1">
   <g id="patch_2">
    <path d="M 45 256.32 
L 324 256.32 
L 324 34.56 
L 45 34.56 
z
" style="fill: #ffffff"/>
   </g>
   <g id="matplotlib.axis_1">
    <g id="xtick_1">
     <g id="line2d_1">
      <defs>
       <path id="m0ccd2cd5f6" d="M 0 0 
L 0 3.5 
" style="stroke: #000000; stroke-width: 0.8"/>
      </defs>
      <g>
       <use xlink:href="#m0ccd2cd5f6" x="45" y="256.32" style="stroke: #000000; stroke-width: 0.8"/>
      </g>
     </g>
     <g id="text_1">
      <!-- 0 -->
      <g transform="translate(42.5 270.26375)scale(0.1 -0.1)">
       <defs>
        <path id="TimesNewRomanPSMT-30" d="M 231 2094 
Q 231 2819 450 3342 
Q 669 3866 1031 4122 
Q 1313 4325 1613 4325 
Q 2100 4325 2488 3828 
Q 2972 3213 2972 2159 
Q 2972 1422 2759 906 
Q 2547 391 2217 158 
Q 1888 -75 1581 -75 
Q 975 -75 572 641 
Q 231 1244 231 2094 
z
M 844 2016 
Q 844 1141 1059 588 
Q 1238 122 1591 122 
Q 1759 122 1940 273 
Q 2122 425 2216 781 
Q 2359 1319 2359 2297 
Q 2359 3022 2209 3506 
Q 2097 3866 1919 4016 
Q 1791 4119 1609 4119 
Q 1397 4119 1231 3928 
Q 1006 3669 925 3112 
Q 844 2556 844 2016 
z
" transform="scale(0.015625)"/>
       </defs>
       <use xlink:href="#TimesNewRomanPSMT-30"/>
      </g>
     </g>
    </g>
    <g id="xtick_2">
     <g id="line2d_2">
      <g>
       <use xlink:href="#m0ccd2cd5f6" x="100.744256" y="256.32" style="stroke: #000000; stroke-width: 0.8"/>
      </g>
     </g>
     <g id="text_2">
      <!-- 200 -->
      <g transform="translate(93.244256 270.26375)scale(0.1 -0.1)">
       <defs>
        <path id="TimesNewRomanPSMT-32" d="M 2934 816 
L 2638 0 
L 138 0 
L 138 116 
Q 1241 1122 1691 1759 
Q 2141 2397 2141 2925 
Q 2141 3328 1894 3587 
Q 1647 3847 1303 3847 
Q 991 3847 742 3664 
Q 494 3481 375 3128 
L 259 3128 
Q 338 3706 661 4015 
Q 984 4325 1469 4325 
Q 1984 4325 2329 3994 
Q 2675 3663 2675 3213 
Q 2675 2891 2525 2569 
Q 2294 2063 1775 1497 
Q 997 647 803 472 
L 1909 472 
Q 2247 472 2383 497 
Q 2519 522 2628 598 
Q 2738 675 2819 816 
L 2934 816 
z
" transform="scale(0.015625)"/>
       </defs>
       <use xlink:href="#TimesNewRomanPSMT-32"/>
       <use xlink:href="#TimesNewRomanPSMT-30" x="50"/>
       <use xlink:href="#TimesNewRomanPSMT-30" x="100"/>
      </g>
     </g>
    </g>
    <g id="xtick_3">
     <g id="line2d_3">
      <g>
       <use xlink:href="#m0ccd2cd5f6" x="156.488511" y="256.32" style="stroke: #000000; stroke-width: 0.8"/>
      </g>
     </g>
     <g id="text_3">
      <!-- 400 -->
      <g transform="translate(148.988511 270.26375)scale(0.1 -0.1)">
       <defs>
        <path id="TimesNewRomanPSMT-34" d="M 2978 1563 
L 2978 1119 
L 2409 1119 
L 2409 0 
L 1894 0 
L 1894 1119 
L 100 1119 
L 100 1519 
L 2066 4325 
L 2409 4325 
L 2409 1563 
L 2978 1563 
z
M 1894 1563 
L 1894 3666 
L 406 1563 
L 1894 1563 
z
" transform="scale(0.015625)"/>
       </defs>
       <use xlink:href="#TimesNewRomanPSMT-34"/>
       <use xlink:href="#TimesNewRomanPSMT-30" x="50"/>
       <use xlink:href="#TimesNewRomanPSMT-30" x="100"/>
      </g>
     </g>
    </g>
    <g id="xtick_4">
     <g id="line2d_4">
      <g>
       <use xlink:href="#m0ccd2cd5f6" x="212.232767" y="256.32" style="stroke: #000000; stroke-width: 0.8"/>
      </g>
     </g>
     <g id="text_4">
      <!-- 600 -->
      <g transform="translate(204.732767 270.26375)scale(0.1 -0.1)">
       <defs>
        <path id="TimesNewRomanPSMT-36" d="M 2869 4325 
L 2869 4209 
Q 2456 4169 2195 4045 
Q 1934 3922 1679 3669 
Q 1425 3416 1258 3105 
Q 1091 2794 978 2366 
Q 1428 2675 1881 2675 
Q 2316 2675 2634 2325 
Q 2953 1975 2953 1425 
Q 2953 894 2631 456 
Q 2244 -75 1606 -75 
Q 1172 -75 869 213 
Q 275 772 275 1663 
Q 275 2231 503 2743 
Q 731 3256 1154 3653 
Q 1578 4050 1965 4187 
Q 2353 4325 2688 4325 
L 2869 4325 
z
M 925 2138 
Q 869 1716 869 1456 
Q 869 1156 980 804 
Q 1091 453 1309 247 
Q 1469 100 1697 100 
Q 1969 100 2183 356 
Q 2397 613 2397 1088 
Q 2397 1622 2184 2012 
Q 1972 2403 1581 2403 
Q 1463 2403 1327 2353 
Q 1191 2303 925 2138 
z
" transform="scale(0.015625)"/>
       </defs>
       <use xlink:href="#TimesNewRomanPSMT-36"/>
       <use xlink:href="#TimesNewRomanPSMT-30" x="50"/>
       <use xlink:href="#TimesNewRomanPSMT-30" x="100"/>
      </g>
     </g>
    </g>
    <g id="xtick_5">
     <g id="line2d_5">
      <g>
       <use xlink:href="#m0ccd2cd5f6" x="267.977023" y="256.32" style="stroke: #000000; stroke-width: 0.8"/>
      </g>
     </g>
     <g id="text_5">
      <!-- 800 -->
      <g transform="translate(260.477023 270.26375)scale(0.1 -0.1)">
       <defs>
        <path id="TimesNewRomanPSMT-38" d="M 1228 2134 
Q 725 2547 579 2797 
Q 434 3047 434 3316 
Q 434 3728 753 4026 
Q 1072 4325 1600 4325 
Q 2113 4325 2425 4047 
Q 2738 3769 2738 3413 
Q 2738 3175 2569 2928 
Q 2400 2681 1866 2347 
Q 2416 1922 2594 1678 
Q 2831 1359 2831 1006 
Q 2831 559 2490 242 
Q 2150 -75 1597 -75 
Q 994 -75 656 303 
Q 388 606 388 966 
Q 388 1247 577 1523 
Q 766 1800 1228 2134 
z
M 1719 2469 
Q 2094 2806 2194 3001 
Q 2294 3197 2294 3444 
Q 2294 3772 2109 3958 
Q 1925 4144 1606 4144 
Q 1288 4144 1088 3959 
Q 888 3775 888 3528 
Q 888 3366 970 3203 
Q 1053 3041 1206 2894 
L 1719 2469 
z
M 1375 2016 
Q 1116 1797 991 1539 
Q 866 1281 866 981 
Q 866 578 1086 336 
Q 1306 94 1647 94 
Q 1984 94 2187 284 
Q 2391 475 2391 747 
Q 2391 972 2272 1150 
Q 2050 1481 1375 2016 
z
" transform="scale(0.015625)"/>
       </defs>
       <use xlink:href="#TimesNewRomanPSMT-38"/>
       <use xlink:href="#TimesNewRomanPSMT-30" x="50"/>
       <use xlink:href="#TimesNewRomanPSMT-30" x="100"/>
      </g>
     </g>
    </g>
    <g id="xtick_6">
     <g id="line2d_6">
      <g>
       <use xlink:href="#m0ccd2cd5f6" x="323.721279" y="256.32" style="stroke: #000000; stroke-width: 0.8"/>
      </g>
     </g>
     <g id="text_6">
      <!-- 1000 -->
      <g transform="translate(313.721279 270.26375)scale(0.1 -0.1)">
       <defs>
        <path id="TimesNewRomanPSMT-31" d="M 750 3822 
L 1781 4325 
L 1884 4325 
L 1884 747 
Q 1884 391 1914 303 
Q 1944 216 2037 169 
Q 2131 122 2419 116 
L 2419 0 
L 825 0 
L 825 116 
Q 1125 122 1212 167 
Q 1300 213 1334 289 
Q 1369 366 1369 747 
L 1369 3034 
Q 1369 3497 1338 3628 
Q 1316 3728 1258 3775 
Q 1200 3822 1119 3822 
Q 1003 3822 797 3725 
L 750 3822 
z
" transform="scale(0.015625)"/>
       </defs>
       <use xlink:href="#TimesNewRomanPSMT-31"/>
       <use xlink:href="#TimesNewRomanPSMT-30" x="50"/>
       <use xlink:href="#TimesNewRomanPSMT-30" x="100"/>
       <use xlink:href="#TimesNewRomanPSMT-30" x="150"/>
      </g>
     </g>
    </g>
    <g id="text_7">
     <!-- Train Step -->
     <g transform="translate(163.708594 283.346563)scale(0.1 -0.1)">
      <defs>
       <path id="TimesNewRomanPSMT-54" d="M 3703 4238 
L 3750 3244 
L 3631 3244 
Q 3597 3506 3538 3619 
Q 3441 3800 3280 3886 
Q 3119 3972 2856 3972 
L 2259 3972 
L 2259 734 
Q 2259 344 2344 247 
Q 2463 116 2709 116 
L 2856 116 
L 2856 0 
L 1059 0 
L 1059 116 
L 1209 116 
Q 1478 116 1591 278 
Q 1659 378 1659 734 
L 1659 3972 
L 1150 3972 
Q 853 3972 728 3928 
Q 566 3869 450 3700 
Q 334 3531 313 3244 
L 194 3244 
L 244 4238 
L 3703 4238 
z
" transform="scale(0.015625)"/>
       <path id="TimesNewRomanPSMT-72" d="M 1038 2947 
L 1038 2303 
Q 1397 2947 1775 2947 
Q 1947 2947 2059 2842 
Q 2172 2738 2172 2600 
Q 2172 2478 2090 2393 
Q 2009 2309 1897 2309 
Q 1788 2309 1652 2417 
Q 1516 2525 1450 2525 
Q 1394 2525 1328 2463 
Q 1188 2334 1038 2041 
L 1038 669 
Q 1038 431 1097 309 
Q 1138 225 1241 169 
Q 1344 113 1538 113 
L 1538 0 
L 72 0 
L 72 113 
Q 291 113 397 181 
Q 475 231 506 341 
Q 522 394 522 644 
L 522 1753 
Q 522 2253 501 2348 
Q 481 2444 426 2487 
Q 372 2531 291 2531 
Q 194 2531 72 2484 
L 41 2597 
L 906 2947 
L 1038 2947 
z
" transform="scale(0.015625)"/>
       <path id="TimesNewRomanPSMT-61" d="M 1822 413 
Q 1381 72 1269 19 
Q 1100 -59 909 -59 
Q 613 -59 420 144 
Q 228 347 228 678 
Q 228 888 322 1041 
Q 450 1253 767 1440 
Q 1084 1628 1822 1897 
L 1822 2009 
Q 1822 2438 1686 2597 
Q 1550 2756 1291 2756 
Q 1094 2756 978 2650 
Q 859 2544 859 2406 
L 866 2225 
Q 866 2081 792 2003 
Q 719 1925 600 1925 
Q 484 1925 411 2006 
Q 338 2088 338 2228 
Q 338 2497 613 2722 
Q 888 2947 1384 2947 
Q 1766 2947 2009 2819 
Q 2194 2722 2281 2516 
Q 2338 2381 2338 1966 
L 2338 994 
Q 2338 584 2353 492 
Q 2369 400 2405 369 
Q 2441 338 2488 338 
Q 2538 338 2575 359 
Q 2641 400 2828 588 
L 2828 413 
Q 2478 -56 2159 -56 
Q 2006 -56 1915 50 
Q 1825 156 1822 413 
z
M 1822 616 
L 1822 1706 
Q 1350 1519 1213 1441 
Q 966 1303 859 1153 
Q 753 1003 753 825 
Q 753 600 887 451 
Q 1022 303 1197 303 
Q 1434 303 1822 616 
z
" transform="scale(0.015625)"/>
       <path id="TimesNewRomanPSMT-69" d="M 928 4444 
Q 1059 4444 1151 4351 
Q 1244 4259 1244 4128 
Q 1244 3997 1151 3903 
Q 1059 3809 928 3809 
Q 797 3809 703 3903 
Q 609 3997 609 4128 
Q 609 4259 701 4351 
Q 794 4444 928 4444 
z
M 1188 2947 
L 1188 647 
Q 1188 378 1227 289 
Q 1266 200 1342 156 
Q 1419 113 1622 113 
L 1622 0 
L 231 0 
L 231 113 
Q 441 113 512 153 
Q 584 194 626 287 
Q 669 381 669 647 
L 669 1750 
Q 669 2216 641 2353 
Q 619 2453 572 2492 
Q 525 2531 444 2531 
Q 356 2531 231 2484 
L 188 2597 
L 1050 2947 
L 1188 2947 
z
" transform="scale(0.015625)"/>
       <path id="TimesNewRomanPSMT-6e" d="M 1034 2341 
Q 1538 2947 1994 2947 
Q 2228 2947 2397 2830 
Q 2566 2713 2666 2444 
Q 2734 2256 2734 1869 
L 2734 647 
Q 2734 375 2778 278 
Q 2813 200 2889 156 
Q 2966 113 3172 113 
L 3172 0 
L 1756 0 
L 1756 113 
L 1816 113 
Q 2016 113 2095 173 
Q 2175 234 2206 353 
Q 2219 400 2219 647 
L 2219 1819 
Q 2219 2209 2117 2386 
Q 2016 2563 1775 2563 
Q 1403 2563 1034 2156 
L 1034 647 
Q 1034 356 1069 288 
Q 1113 197 1189 155 
Q 1266 113 1500 113 
L 1500 0 
L 84 0 
L 84 113 
L 147 113 
Q 366 113 442 223 
Q 519 334 519 647 
L 519 1709 
Q 519 2225 495 2337 
Q 472 2450 423 2490 
Q 375 2531 294 2531 
Q 206 2531 84 2484 
L 38 2597 
L 900 2947 
L 1034 2947 
L 1034 2341 
z
" transform="scale(0.015625)"/>
       <path id="TimesNewRomanPSMT-20" transform="scale(0.015625)"/>
       <path id="TimesNewRomanPSMT-53" d="M 2934 4334 
L 2934 2869 
L 2819 2869 
Q 2763 3291 2617 3541 
Q 2472 3791 2203 3937 
Q 1934 4084 1647 4084 
Q 1322 4084 1109 3886 
Q 897 3688 897 3434 
Q 897 3241 1031 3081 
Q 1225 2847 1953 2456 
Q 2547 2138 2764 1967 
Q 2981 1797 3098 1565 
Q 3216 1334 3216 1081 
Q 3216 600 2842 251 
Q 2469 -97 1881 -97 
Q 1697 -97 1534 -69 
Q 1438 -53 1133 45 
Q 828 144 747 144 
Q 669 144 623 97 
Q 578 50 556 -97 
L 441 -97 
L 441 1356 
L 556 1356 
Q 638 900 775 673 
Q 913 447 1195 297 
Q 1478 147 1816 147 
Q 2206 147 2432 353 
Q 2659 559 2659 841 
Q 2659 997 2573 1156 
Q 2488 1316 2306 1453 
Q 2184 1547 1640 1851 
Q 1097 2156 867 2337 
Q 638 2519 519 2737 
Q 400 2956 400 3219 
Q 400 3675 750 4004 
Q 1100 4334 1641 4334 
Q 1978 4334 2356 4169 
Q 2531 4091 2603 4091 
Q 2684 4091 2736 4139 
Q 2788 4188 2819 4334 
L 2934 4334 
z
" transform="scale(0.015625)"/>
       <path id="TimesNewRomanPSMT-74" d="M 1031 3803 
L 1031 2863 
L 1700 2863 
L 1700 2644 
L 1031 2644 
L 1031 788 
Q 1031 509 1111 412 
Q 1191 316 1316 316 
Q 1419 316 1516 380 
Q 1613 444 1666 569 
L 1788 569 
Q 1678 263 1478 108 
Q 1278 -47 1066 -47 
Q 922 -47 784 33 
Q 647 113 581 261 
Q 516 409 516 719 
L 516 2644 
L 63 2644 
L 63 2747 
Q 234 2816 414 2980 
Q 594 3144 734 3369 
Q 806 3488 934 3803 
L 1031 3803 
z
" transform="scale(0.015625)"/>
       <path id="TimesNewRomanPSMT-65" d="M 681 1784 
Q 678 1147 991 784 
Q 1303 422 1725 422 
Q 2006 422 2214 576 
Q 2422 731 2563 1106 
L 2659 1044 
Q 2594 616 2278 264 
Q 1963 -88 1488 -88 
Q 972 -88 605 314 
Q 238 716 238 1394 
Q 238 2128 614 2539 
Q 991 2950 1559 2950 
Q 2041 2950 2350 2633 
Q 2659 2316 2659 1784 
L 681 1784 
z
M 681 1966 
L 2006 1966 
Q 1991 2241 1941 2353 
Q 1863 2528 1708 2628 
Q 1553 2728 1384 2728 
Q 1125 2728 920 2526 
Q 716 2325 681 1966 
z
" transform="scale(0.015625)"/>
       <path id="TimesNewRomanPSMT-70" d="M -6 2578 
L 875 2934 
L 994 2934 
L 994 2266 
Q 1216 2644 1439 2795 
Q 1663 2947 1909 2947 
Q 2341 2947 2628 2609 
Q 2981 2197 2981 1534 
Q 2981 794 2556 309 
Q 2206 -88 1675 -88 
Q 1444 -88 1275 -22 
Q 1150 25 994 166 
L 994 -706 
Q 994 -1000 1030 -1079 
Q 1066 -1159 1155 -1206 
Q 1244 -1253 1478 -1253 
L 1478 -1369 
L -22 -1369 
L -22 -1253 
L 56 -1253 
Q 228 -1256 350 -1188 
Q 409 -1153 442 -1076 
Q 475 -1000 475 -688 
L 475 2019 
Q 475 2297 450 2372 
Q 425 2447 370 2484 
Q 316 2522 222 2522 
Q 147 2522 31 2478 
L -6 2578 
z
M 994 2081 
L 994 1013 
Q 994 666 1022 556 
Q 1066 375 1236 237 
Q 1406 100 1666 100 
Q 1978 100 2172 344 
Q 2425 663 2425 1241 
Q 2425 1897 2138 2250 
Q 1938 2494 1663 2494 
Q 1513 2494 1366 2419 
Q 1253 2363 994 2081 
z
" transform="scale(0.015625)"/>
      </defs>
      <use xlink:href="#TimesNewRomanPSMT-54"/>
      <use xlink:href="#TimesNewRomanPSMT-72" x="57.583984"/>
      <use xlink:href="#TimesNewRomanPSMT-61" x="90.884766"/>
      <use xlink:href="#TimesNewRomanPSMT-69" x="135.269531"/>
      <use xlink:href="#TimesNewRomanPSMT-6e" x="163.052734"/>
      <use xlink:href="#TimesNewRomanPSMT-20" x="213.052734"/>
      <use xlink:href="#TimesNewRomanPSMT-53" x="238.052734"/>
      <use xlink:href="#TimesNewRomanPSMT-74" x="293.667969"/>
      <use xlink:href="#TimesNewRomanPSMT-65" x="321.451172"/>
      <use xlink:href="#TimesNewRomanPSMT-70" x="365.835938"/>
     </g>
    </g>
   </g>
   <g id="matplotlib.axis_2">
    <g id="ytick_1">
     <g id="line2d_7">
      <defs>
       <path id="mefb41ccbb5" d="M 0 0 
L -3.5 0 
" style="stroke: #000000; stroke-width: 0.8"/>
      </defs>
      <g>
       <use xlink:href="#mefb41ccbb5" x="45" y="256.297826" style="stroke: #000000; stroke-width: 0.8"/>
      </g>
     </g>
     <g id="text_8">
      <!-- 0 -->
      <g transform="translate(33 259.769701)scale(0.1 -0.1)">
       <use xlink:href="#TimesNewRomanPSMT-30"/>
      </g>
     </g>
    </g>
    <g id="ytick_2">
     <g id="line2d_8">
      <g>
       <use xlink:href="#mefb41ccbb5" x="45" y="211.950261" style="stroke: #000000; stroke-width: 0.8"/>
      </g>
     </g>
     <g id="text_9">
      <!-- 2000 -->
      <g transform="translate(18 215.422136)scale(0.1 -0.1)">
       <use xlink:href="#TimesNewRomanPSMT-32"/>
       <use xlink:href="#TimesNewRomanPSMT-30" x="50"/>
       <use xlink:href="#TimesNewRomanPSMT-30" x="100"/>
       <use xlink:href="#TimesNewRomanPSMT-30" x="150"/>
      </g>
     </g>
    </g>
    <g id="ytick_3">
     <g id="line2d_9">
      <g>
       <use xlink:href="#mefb41ccbb5" x="45" y="167.602696" style="stroke: #000000; stroke-width: 0.8"/>
      </g>
     </g>
     <g id="text_10">
      <!-- 4000 -->
      <g transform="translate(18 171.074571)scale(0.1 -0.1)">
       <use xlink:href="#TimesNewRomanPSMT-34"/>
       <use xlink:href="#TimesNewRomanPSMT-30" x="50"/>
       <use xlink:href="#TimesNewRomanPSMT-30" x="100"/>
       <use xlink:href="#TimesNewRomanPSMT-30" x="150"/>
      </g>
     </g>
    </g>
    <g id="ytick_4">
     <g id="line2d_10">
      <g>
       <use xlink:href="#mefb41ccbb5" x="45" y="123.25513" style="stroke: #000000; stroke-width: 0.8"/>
      </g>
     </g>
     <g id="text_11">
      <!-- 6000 -->
      <g transform="translate(18 126.727005)scale(0.1 -0.1)">
       <use xlink:href="#TimesNewRomanPSMT-36"/>
       <use xlink:href="#TimesNewRomanPSMT-30" x="50"/>
       <use xlink:href="#TimesNewRomanPSMT-30" x="100"/>
       <use xlink:href="#TimesNewRomanPSMT-30" x="150"/>
      </g>
     </g>
    </g>
    <g id="ytick_5">
     <g id="line2d_11">
      <g>
       <use xlink:href="#mefb41ccbb5" x="45" y="78.907565" style="stroke: #000000; stroke-width: 0.8"/>
      </g>
     </g>
     <g id="text_12">
      <!-- 8000 -->
      <g transform="translate(18 82.37944)scale(0.1 -0.1)">
       <use xlink:href="#TimesNewRomanPSMT-38"/>
       <use xlink:href="#TimesNewRomanPSMT-30" x="50"/>
       <use xlink:href="#TimesNewRomanPSMT-30" x="100"/>
       <use xlink:href="#TimesNewRomanPSMT-30" x="150"/>
      </g>
     </g>
    </g>
    <g id="ytick_6">
     <g id="line2d_12">
      <g>
       <use xlink:href="#mefb41ccbb5" x="45" y="34.56" style="stroke: #000000; stroke-width: 0.8"/>
      </g>
     </g>
     <g id="text_13">
      <!-- 10000 -->
      <g transform="translate(13 38.031875)scale(0.1 -0.1)">
       <use xlink:href="#TimesNewRomanPSMT-31"/>
       <use xlink:href="#TimesNewRomanPSMT-30" x="50"/>
       <use xlink:href="#TimesNewRomanPSMT-30" x="100"/>
       <use xlink:href="#TimesNewRomanPSMT-30" x="150"/>
       <use xlink:href="#TimesNewRomanPSMT-30" x="200"/>
      </g>
     </g>
    </g>
   </g>
   <g id="line2d_13">
    <path d="M 45.278721 203.179978 
L 45.557443 224.304823 
L 45.836164 234.532802 
L 46.114885 239.700593 
L 46.393606 232.113451 
L 46.672328 232.614196 
L 46.951049 235.23788 
L 47.22977 235.177168 
L 47.508492 244.040475 
L 47.787213 242.95407 
L 48.065934 248.481244 
L 48.344655 245.895593 
L 48.623377 241.959764 
L 48.902098 247.063582 
L 49.180819 244.086403 
L 49.45954 243.079303 
L 49.738262 226.052183 
L 50.016983 234.52573 
L 50.295704 233.324364 
L 50.574426 237.060603 
L 50.853147 233.714505 
L 51.131868 224.239717 
L 51.410589 240.348646 
L 51.689311 242.196834 
L 51.968032 239.475772 
L 52.246753 241.541194 
L 52.525475 240.836979 
L 52.804196 239.548734 
L 53.082917 239.640113 
L 53.361638 241.109676 
L 53.64036 240.179075 
L 53.919081 244.956018 
L 54.197802 242.204009 
L 54.476523 243.187561 
L 54.755245 242.122267 
L 55.033966 242.228288 
L 55.312687 241.197499 
L 55.591409 237.495601 
L 55.87013 245.105785 
L 56.148851 243.896992 
L 56.427572 240.458698 
L 56.985015 236.586619 
L 57.263736 239.27614 
L 57.542458 245.401688 
L 57.821179 244.454516 
L 58.0999 244.637435 
L 58.378621 246.408358 
L 58.936064 239.123463 
L 59.214785 237.537458 
L 59.493506 238.781667 
L 59.772228 241.184756 
L 60.050949 241.506397 
L 60.32967 239.764079 
L 60.608392 249.907591 
L 60.887113 246.17102 
L 61.165834 239.131054 
L 61.444555 242.859982 
L 61.723277 235.717355 
L 62.001998 249.542523 
L 62.280719 242.504689 
L 62.559441 247.677367 
L 62.838162 246.2855 
L 63.116883 239.183477 
L 63.395604 246.676495 
L 63.674326 243.233948 
L 63.953047 244.672257 
L 64.231768 242.181972 
L 64.51049 247.656193 
L 64.789211 245.68878 
L 65.067932 248.920895 
L 65.346653 241.591974 
L 65.625375 240.290886 
L 65.904096 246.930831 
L 66.182817 245.254974 
L 66.461538 248.221797 
L 66.74026 241.812701 
L 67.018981 245.732008 
L 67.297702 247.82791 
L 67.576424 239.401128 
L 68.133866 247.467196 
L 68.412587 246.309253 
L 68.691309 240.418025 
L 68.97003 248.274565 
L 69.248751 245.431779 
L 69.527473 239.490784 
L 69.806194 242.811415 
L 70.084915 239.983395 
L 70.363636 250.108338 
L 70.642358 249.98396 
L 70.921079 244.551625 
L 71.1998 243.563466 
L 71.478521 249.020216 
L 71.757243 249.565743 
L 72.035964 249.390153 
L 72.314685 245.626408 
L 72.593407 248.733486 
L 72.872128 247.701118 
L 73.150849 247.638186 
L 73.42957 242.564733 
L 74.265734 250.130798 
L 74.544456 249.547762 
L 74.823177 250.052454 
L 75.380619 246.781009 
L 75.659341 243.432821 
L 75.938062 249.185537 
L 76.495504 251.719681 
L 76.774226 251.572383 
L 77.052947 251.890585 
L 77.331668 249.134445 
L 77.61039 251.96044 
L 77.889111 247.123488 
L 78.167832 235.59426 
L 78.446553 245.66288 
L 78.725275 242.80055 
L 79.003996 251.058839 
L 79.282717 252.293081 
L 79.561439 251.606553 
L 79.84016 248.290684 
L 80.118881 248.999716 
L 80.397602 251.341652 
L 80.676324 247.272287 
L 81.233766 252.693635 
L 81.791209 242.26452 
L 82.348651 250.911421 
L 82.906094 247.421077 
L 83.184815 248.842449 
L 83.463536 246.341374 
L 83.742258 246.962808 
L 84.020979 247.877459 
L 84.2997 250.831141 
L 84.578422 243.198052 
L 85.135864 253.222292 
L 85.414585 250.711638 
L 86.250749 236.943742 
L 86.529471 251.265281 
L 86.808192 248.719929 
L 87.086913 244.229691 
L 87.365634 243.350576 
L 87.644356 250.813616 
L 87.923077 249.544643 
L 88.201798 245.868129 
L 88.480519 247.936743 
L 88.759241 248.974136 
L 89.037962 251.102226 
L 89.316683 251.172474 
L 89.595405 248.109455 
L 89.874126 247.756695 
L 90.152847 250.923654 
L 90.431568 246.615413 
L 90.71029 250.714469 
L 90.989011 243.273666 
L 91.267732 248.693059 
L 91.546454 248.773398 
L 91.825175 248.062384 
L 92.103896 250.533464 
L 92.661339 243.480386 
L 92.94006 255.747467 
L 93.218781 255.651969 
L 93.497502 236.998879 
L 93.776224 241.742865 
L 94.054945 237.532705 
L 94.333666 244.19414 
L 94.612388 240.45248 
L 94.891109 249.23663 
L 95.16983 250.180137 
L 95.448551 249.362212 
L 95.727273 247.891398 
L 96.005994 243.307531 
L 96.284715 241.205184 
L 96.563437 246.066706 
L 96.842158 243.798 
L 97.3996 249.829399 
L 97.678322 245.412185 
L 97.957043 245.413325 
L 98.235764 244.742468 
L 98.514486 247.046292 
L 98.793207 241.030638 
L 99.350649 246.27886 
L 99.629371 236.270555 
L 99.908092 246.159182 
L 100.186813 239.648767 
L 100.465534 247.83769 
L 101.022977 239.447876 
L 101.301698 238.343786 
L 101.58042 246.287537 
L 101.859141 247.192749 
L 102.137862 246.348959 
L 102.695305 236.390499 
L 103.252747 248.256057 
L 103.531469 245.707955 
L 103.81019 235.909443 
L 104.367632 245.509652 
L 104.646354 240.719612 
L 105.203796 245.205159 
L 105.482517 245.165741 
L 106.03996 239.734622 
L 106.318681 242.832269 
L 106.597403 241.173918 
L 106.876124 242.857599 
L 107.154845 249.371483 
L 107.433566 247.873903 
L 107.712288 241.346075 
L 107.991009 249.521101 
L 108.26973 247.411127 
L 108.548452 241.87929 
L 108.827173 246.146612 
L 109.384615 241.768584 
L 109.663337 245.464711 
L 109.942058 235.264838 
L 110.220779 235.851902 
L 110.4995 248.064904 
L 110.778222 238.850328 
L 111.056943 240.871248 
L 111.335664 244.602007 
L 111.614386 243.497171 
L 111.893107 246.630984 
L 112.171828 242.74251 
L 112.450549 242.085307 
L 112.729271 251.125533 
L 113.007992 242.913791 
L 113.286713 243.382342 
L 113.565435 249.562897 
L 113.844156 238.444762 
L 114.122877 239.451417 
L 114.401598 239.629754 
L 114.68032 245.132358 
L 114.959041 242.994412 
L 115.237762 246.906626 
L 115.795205 237.728961 
L 116.073926 242.403197 
L 116.352647 240.446289 
L 116.631369 244.953157 
L 116.91009 239.070044 
L 117.467532 244.316591 
L 117.746254 251.901011 
L 118.303696 235.331113 
L 118.582418 242.598041 
L 118.861139 243.186319 
L 119.13986 245.293561 
L 119.418581 245.273043 
L 119.697303 245.605107 
L 119.976024 235.931823 
L 120.254745 243.063517 
L 120.533467 242.630018 
L 120.812188 241.91197 
L 121.090909 244.31346 
L 121.36963 239.205968 
L 121.648352 248.590108 
L 121.927073 242.582546 
L 122.205794 241.48889 
L 122.484515 232.719229 
L 122.763237 238.319804 
L 123.041958 238.503035 
L 123.320679 242.097014 
L 123.599401 240.39732 
L 123.878122 242.946952 
L 124.156843 240.1434 
L 124.435564 239.208956 
L 124.714286 240.957584 
L 124.993007 245.539199 
L 125.271728 248.00245 
L 125.55045 245.262863 
L 125.829171 241.348818 
L 126.107892 244.757528 
L 126.386613 236.862316 
L 126.665335 244.499706 
L 127.222777 238.790917 
L 127.78022 248.346431 
L 128.058941 246.786287 
L 128.337662 251.941329 
L 128.616384 240.46639 
L 128.895105 244.250365 
L 129.173826 246.059754 
L 129.452547 245.631344 
L 129.731269 246.267596 
L 130.00999 245.791374 
L 130.288711 248.597352 
L 130.567433 249.571768 
L 130.846154 245.779517 
L 131.124875 246.61904 
L 131.403596 245.352216 
L 131.682318 246.876291 
L 131.961039 246.527444 
L 132.23976 239.440483 
L 132.518482 237.541022 
L 132.797203 237.877641 
L 133.075924 246.334569 
L 133.354645 251.004571 
L 133.633367 247.850732 
L 133.912088 249.843109 
L 134.190809 246.085323 
L 134.46953 249.606696 
L 134.748252 249.252985 
L 135.026973 244.171839 
L 135.305694 243.765292 
L 135.584416 244.31068 
L 135.863137 245.735885 
L 136.141858 243.315459 
L 136.420579 245.918858 
L 136.699301 239.39373 
L 136.978022 239.845373 
L 137.256743 249.478036 
L 137.535465 235.289964 
L 137.814186 239.288778 
L 138.092907 241.352691 
L 138.371628 241.552009 
L 138.65035 243.699653 
L 138.929071 241.346336 
L 139.207792 248.35564 
L 139.486513 246.672818 
L 139.765235 240.479309 
L 140.043956 248.519603 
L 140.322677 248.279 
L 140.601399 244.643752 
L 140.88012 237.333797 
L 141.158841 246.950605 
L 141.437562 244.939416 
L 141.716284 240.164399 
L 141.995005 246.860931 
L 142.273726 246.512307 
L 142.552448 238.402474 
L 142.831169 238.93543 
L 143.10989 240.888292 
L 143.388611 245.480886 
L 143.667333 244.324235 
L 143.946054 246.256875 
L 144.224775 236.336152 
L 144.503497 245.086303 
L 144.782218 244.922988 
L 145.060939 241.110504 
L 145.33966 242.460184 
L 145.618382 246.209916 
L 145.897103 240.688669 
L 146.175824 227.629207 
L 146.454545 233.9932 
L 146.733267 246.29727 
L 147.011988 239.239764 
L 147.290709 247.361689 
L 147.848152 241.345643 
L 148.126873 248.596777 
L 148.405594 240.478205 
L 148.684316 246.418509 
L 148.963037 244.22392 
L 149.241758 247.836627 
L 149.52048 244.819536 
L 150.077922 252.440399 
L 150.356643 244.009141 
L 150.635365 249.957301 
L 150.914086 252.361148 
L 151.192807 245.585204 
L 151.471528 249.384891 
L 151.75025 246.647231 
L 152.028971 245.6849 
L 152.307692 246.829499 
L 152.586414 246.378852 
L 153.143856 248.433814 
L 153.422577 244.009618 
L 153.701299 251.599241 
L 153.98002 248.767034 
L 154.258741 249.284775 
L 154.537463 244.778556 
L 154.816184 248.633804 
L 155.094905 249.418923 
L 155.652348 242.437558 
L 155.931069 249.583734 
L 156.20979 245.034124 
L 156.488511 248.680017 
L 156.767233 243.504378 
L 157.045954 249.428381 
L 157.324675 246.106435 
L 157.603397 240.418274 
L 157.882118 243.179346 
L 158.160839 250.057118 
L 158.43956 244.39209 
L 158.718282 241.236241 
L 158.997003 242.450728 
L 159.275724 246.043329 
L 159.554446 245.793875 
L 159.833167 247.775348 
L 160.111888 248.228951 
L 160.390609 244.914043 
L 160.669331 244.916744 
L 160.948052 245.304976 
L 161.226773 248.700899 
L 161.505495 249.669146 
L 161.784216 245.896377 
L 162.062937 251.035149 
L 162.341658 243.662449 
L 162.62038 246.183186 
L 162.899101 247.114555 
L 163.177822 251.401281 
L 163.456543 245.799328 
L 163.735265 248.594069 
L 164.013986 241.587584 
L 164.292707 251.886177 
L 164.85015 237.941745 
L 165.128871 245.25653 
L 165.407592 245.680879 
L 165.686314 241.202098 
L 165.965035 243.308231 
L 166.243756 248.630321 
L 166.522478 247.705554 
L 166.801199 241.018481 
L 167.07992 249.973295 
L 167.358641 246.754132 
L 167.637363 249.15045 
L 167.916084 248.393043 
L 168.194805 244.633526 
L 168.473526 247.851718 
L 168.752248 247.637314 
L 169.030969 246.794937 
L 169.30969 245.473831 
L 169.588412 251.460927 
L 169.867133 242.918223 
L 170.424575 250.535987 
L 170.703297 249.488006 
L 170.982018 243.175971 
L 171.260739 248.467185 
L 171.539461 244.95577 
L 171.818182 250.075505 
L 172.096903 249.242699 
L 172.375624 235.404757 
L 172.654346 245.872079 
L 172.933067 240.873068 
L 173.211788 247.473997 
L 173.490509 245.408677 
L 173.769231 244.405013 
L 174.047952 250.824176 
L 174.326673 247.985849 
L 174.605395 250.445053 
L 174.884116 245.491979 
L 175.162837 243.991851 
L 175.441558 244.030124 
L 175.72028 250.495356 
L 175.999001 247.818466 
L 176.277722 248.511543 
L 176.556444 247.890369 
L 176.835165 246.335951 
L 177.113886 247.07089 
L 177.392607 251.463178 
L 177.671329 243.209651 
L 177.95005 252.061259 
L 178.228771 247.185485 
L 178.507493 245.005325 
L 178.786214 247.159886 
L 179.064935 247.947621 
L 179.343656 247.653066 
L 179.622378 246.990807 
L 179.901099 249.060675 
L 180.17982 246.826883 
L 180.458541 248.665577 
L 180.737263 249.274056 
L 181.294705 242.385015 
L 181.573427 242.085972 
L 181.852148 239.191025 
L 182.130869 240.35422 
L 182.40959 246.625798 
L 182.688312 246.524485 
L 182.967033 247.037238 
L 183.245754 239.764061 
L 183.524476 242.228542 
L 183.803197 236.32896 
L 184.360639 245.412631 
L 184.639361 239.825261 
L 184.918082 239.991239 
L 185.196803 242.142949 
L 185.475524 242.624468 
L 185.754246 239.903765 
L 186.032967 242.647788 
L 186.311688 243.422367 
L 186.59041 240.484907 
L 187.147852 247.516294 
L 187.426573 244.300113 
L 187.705295 242.610223 
L 187.984016 231.013819 
L 188.262737 245.57036 
L 188.541459 233.81087 
L 188.82018 244.328466 
L 189.098901 240.615646 
L 189.377622 239.998791 
L 189.656344 227.74082 
L 189.935065 239.646826 
L 190.213786 241.679181 
L 190.492507 236.981783 
L 190.771229 240.902136 
L 191.04995 240.103233 
L 191.328671 241.365887 
L 191.607393 248.911045 
L 191.886114 235.069166 
L 192.164835 241.757662 
L 192.443556 242.512062 
L 192.722278 237.233557 
L 193.000999 245.928676 
L 193.27972 237.177068 
L 193.558442 241.133361 
L 193.837163 236.906515 
L 194.115884 241.719133 
L 194.394605 240.565879 
L 194.673327 236.245681 
L 194.952048 237.275086 
L 195.230769 239.587835 
L 195.509491 246.141973 
L 195.788212 242.850518 
L 196.066933 247.187034 
L 196.624376 242.479207 
L 196.903097 245.321629 
L 197.181818 233.303419 
L 197.460539 248.908102 
L 197.739261 240.783212 
L 198.017982 245.518063 
L 198.296703 247.378966 
L 199.132867 234.028425 
L 199.411588 245.269572 
L 199.69031 248.459932 
L 199.969031 242.068138 
L 200.247752 245.860295 
L 200.526474 246.719992 
L 200.805195 243.353933 
L 201.083916 234.454987 
L 201.362637 245.002265 
L 201.641359 241.855766 
L 201.92008 248.816755 
L 202.198801 246.654977 
L 202.477522 247.114838 
L 202.756244 241.626155 
L 203.034965 247.49059 
L 203.313686 247.593603 
L 203.592408 243.68367 
L 203.871129 244.950342 
L 204.14985 238.564674 
L 204.428571 245.326439 
L 204.707293 244.049429 
L 204.986014 247.210886 
L 205.264735 246.437866 
L 205.543457 241.365969 
L 205.822178 247.838403 
L 206.100899 247.20507 
L 206.37962 239.54346 
L 206.658342 249.785651 
L 206.937063 246.073379 
L 207.215784 250.355303 
L 207.494505 244.420079 
L 207.773227 244.010026 
L 208.051948 249.705471 
L 208.330669 246.758989 
L 208.609391 251.151079 
L 208.888112 246.939574 
L 209.166833 245.899832 
L 209.445554 243.646368 
L 209.724276 249.429539 
L 210.002997 241.901438 
L 210.281718 243.888217 
L 210.56044 244.969516 
L 210.839161 240.496792 
L 211.117882 243.00172 
L 211.396603 248.503629 
L 211.675325 247.270275 
L 212.232767 240.377471 
L 212.511489 248.603518 
L 212.79021 240.019729 
L 213.068931 245.784641 
L 213.347652 246.718559 
L 213.626374 244.739027 
L 213.905095 250.635752 
L 214.183816 251.18643 
L 214.462537 250.068646 
L 214.741259 244.088167 
L 215.01998 247.084465 
L 215.298701 238.192372 
L 215.577423 239.695192 
L 215.856144 245.191642 
L 216.134865 246.346824 
L 216.413586 241.613685 
L 216.692308 247.517912 
L 216.971029 248.425078 
L 217.528472 243.314953 
L 218.085914 249.490265 
L 218.364635 243.456697 
L 218.643357 241.70707 
L 218.922078 241.666724 
L 219.200799 246.471073 
L 219.47952 239.111518 
L 219.758242 242.606195 
L 220.036963 241.664072 
L 220.315684 241.292225 
L 220.594406 239.655829 
L 220.873127 247.081968 
L 221.151848 242.375618 
L 221.430569 246.397429 
L 221.709291 245.379461 
L 221.988012 238.887533 
L 222.266733 245.110672 
L 222.545455 240.992773 
L 222.824176 243.300792 
L 223.102897 237.820262 
L 223.66034 245.421254 
L 223.939061 241.219619 
L 224.217782 245.9688 
L 224.496503 242.3336 
L 224.775225 248.620201 
L 225.053946 240.3021 
L 225.332667 244.105326 
L 225.611389 245.497723 
L 225.89011 245.260965 
L 226.168831 235.876287 
L 226.447552 239.501903 
L 226.726274 239.208921 
L 227.004995 241.068235 
L 227.283716 247.55478 
L 227.562438 234.330412 
L 227.841159 249.286491 
L 228.11988 242.55445 
L 228.398601 242.2923 
L 228.677323 242.909853 
L 228.956044 237.784968 
L 229.234765 237.601603 
L 229.513487 243.604965 
L 229.792208 234.910704 
L 230.070929 231.600303 
L 230.34965 235.590806 
L 230.907093 238.610819 
L 231.185814 238.335647 
L 231.464535 246.54095 
L 231.743257 235.796153 
L 232.021978 239.929115 
L 232.300699 246.202433 
L 232.579421 235.625806 
L 232.858142 244.167473 
L 233.136863 248.179192 
L 233.694306 240.972657 
L 233.973027 238.075389 
L 234.251748 243.51472 
L 234.53047 244.696073 
L 234.809191 243.302072 
L 235.087912 242.696268 
L 235.366633 246.249314 
L 235.645355 244.660956 
L 235.924076 243.830059 
L 236.202797 249.087436 
L 236.481518 243.469201 
L 236.76024 250.05405 
L 237.038961 241.496913 
L 237.317682 249.641338 
L 237.596404 248.56774 
L 237.875125 248.140114 
L 238.432567 246.988236 
L 238.711289 244.809061 
L 238.99001 243.521502 
L 239.268731 246.625112 
L 239.547453 240.822524 
L 239.826174 248.012499 
L 240.104895 245.851211 
L 240.383616 244.71306 
L 240.662338 241.083068 
L 240.941059 247.407464 
L 241.21978 235.122132 
L 241.498501 245.348958 
L 241.777223 246.6895 
L 242.055944 235.565329 
L 242.334665 240.110836 
L 242.613387 242.185298 
L 242.892108 237.44826 
L 243.170829 244.716291 
L 243.44955 237.525879 
L 243.728272 249.628921 
L 244.006993 246.887508 
L 244.285714 222.319241 
L 244.564436 230.045773 
L 244.843157 230.009486 
L 245.121878 244.130835 
L 245.400599 247.209391 
L 245.679321 238.910935 
L 245.958042 250.829278 
L 246.236763 228.240577 
L 246.794206 248.778942 
L 247.072927 241.243042 
L 247.351648 241.331424 
L 247.63037 244.499809 
L 247.909091 236.198734 
L 248.466533 247.450491 
L 248.745255 238.036436 
L 249.023976 238.858474 
L 249.302697 241.288758 
L 249.581419 241.909519 
L 249.86014 244.696615 
L 250.138861 240.082613 
L 250.417582 246.279143 
L 250.696304 248.746661 
L 251.253746 239.649045 
L 251.532468 250.513729 
L 251.811189 249.694225 
L 252.08991 244.387629 
L 252.368631 250.102981 
L 252.647353 244.189999 
L 252.926074 246.071575 
L 253.204795 238.573124 
L 253.483516 245.447545 
L 253.762238 232.838235 
L 254.040959 247.139774 
L 254.31968 244.761173 
L 254.598402 247.854288 
L 254.877123 245.874125 
L 255.155844 245.154085 
L 255.434565 249.106419 
L 255.713287 245.010113 
L 255.992008 238.097725 
L 256.270729 243.35954 
L 256.549451 241.056106 
L 256.828172 243.364368 
L 257.106893 240.311322 
L 257.385614 246.067589 
L 257.664336 244.619745 
L 257.943057 238.733595 
L 258.221778 243.796612 
L 258.5005 241.321748 
L 259.057942 247.829716 
L 259.336663 240.607902 
L 259.615385 246.051136 
L 259.894106 248.529833 
L 260.172827 242.449779 
L 260.451548 247.599091 
L 260.73027 246.478583 
L 261.008991 242.793522 
L 261.287712 242.927606 
L 261.566434 246.383056 
L 261.845155 245.904561 
L 262.123876 245.967601 
L 262.402597 249.059796 
L 262.681319 239.032199 
L 262.96004 247.692109 
L 263.238761 240.898326 
L 263.517483 240.829912 
L 263.796204 247.561572 
L 264.074925 240.613847 
L 264.632368 250.449005 
L 264.911089 248.444577 
L 265.18981 248.735 
L 265.468531 243.049687 
L 265.747253 243.69156 
L 266.025974 248.351392 
L 266.304695 245.934115 
L 266.583417 248.360896 
L 266.862138 240.529893 
L 267.140859 241.66279 
L 267.41958 250.065647 
L 267.698302 240.694981 
L 267.977023 251.151462 
L 268.255744 247.229186 
L 268.534466 248.722173 
L 268.813187 237.860501 
L 269.091908 245.231956 
L 269.370629 238.623076 
L 269.649351 241.741761 
L 270.206793 250.021853 
L 270.485514 235.286976 
L 270.764236 243.195216 
L 271.042957 247.365347 
L 271.321678 236.501301 
L 271.6004 246.809026 
L 271.879121 248.614451 
L 272.157842 247.551798 
L 272.436563 241.403034 
L 272.715285 246.999851 
L 272.994006 240.961725 
L 273.551449 249.04963 
L 274.108891 241.298608 
L 274.387612 241.550878 
L 274.666334 247.788574 
L 274.945055 250.923385 
L 275.223776 246.27038 
L 275.502498 244.163956 
L 275.781219 249.29872 
L 276.05994 249.756441 
L 276.338661 246.865567 
L 276.617383 241.60126 
L 276.896104 247.650597 
L 277.174825 250.639063 
L 277.453546 248.676386 
L 277.732268 247.648401 
L 278.28971 243.774768 
L 278.568432 243.066731 
L 278.847153 249.28358 
L 279.125874 250.344348 
L 279.404595 245.935108 
L 279.683317 246.407375 
L 279.962038 247.412906 
L 280.240759 252.750394 
L 280.519481 246.395212 
L 280.798202 247.867661 
L 281.076923 247.193719 
L 281.355644 246.213185 
L 281.634366 251.541205 
L 282.191808 242.022617 
L 282.470529 247.906025 
L 283.027972 246.432818 
L 283.306693 249.330551 
L 283.585415 246.838751 
L 283.864136 233.096281 
L 284.142857 248.772895 
L 284.421578 242.252927 
L 284.7003 243.275467 
L 284.979021 248.263821 
L 285.257742 247.456775 
L 285.536464 249.99654 
L 285.815185 250.046028 
L 286.372627 241.281103 
L 286.651349 249.612461 
L 286.93007 244.544601 
L 287.208791 244.400202 
L 287.487512 245.093087 
L 287.766234 251.78751 
L 288.044955 246.639056 
L 288.323676 248.178754 
L 288.602398 247.832626 
L 288.881119 244.241284 
L 289.15984 250.956043 
L 289.438561 249.224624 
L 289.717283 251.477711 
L 289.996004 241.735362 
L 290.274725 250.482309 
L 290.553447 248.142227 
L 290.832168 248.298964 
L 291.110889 247.762432 
L 291.668332 244.300031 
L 291.947053 248.799559 
L 292.225774 250.774555 
L 292.504496 250.074961 
L 292.783217 246.596603 
L 293.061938 247.732303 
L 293.340659 250.089323 
L 293.898102 245.89937 
L 294.176823 246.971911 
L 294.734266 247.742737 
L 295.012987 249.459355 
L 295.291708 244.622886 
L 295.57043 248.031674 
L 295.849151 248.168481 
L 296.127872 246.112647 
L 296.406593 247.072682 
L 296.685315 242.937841 
L 296.964036 251.202081 
L 297.242757 244.975179 
L 297.521479 242.550809 
L 297.8002 247.096991 
L 298.078921 246.820488 
L 298.357642 249.766923 
L 298.636364 245.365322 
L 298.915085 249.576352 
L 299.193806 243.733182 
L 299.472527 246.50465 
L 299.751249 246.363262 
L 300.02997 238.189095 
L 300.308691 243.440505 
L 300.587413 245.372979 
L 300.866134 242.751312 
L 301.144855 247.471918 
L 301.423576 241.815201 
L 301.702298 244.548042 
L 301.981019 245.069713 
L 302.25974 250.148119 
L 302.538462 248.072904 
L 302.817183 242.972869 
L 303.095904 248.358703 
L 303.374625 249.524917 
L 303.653347 240.08918 
L 303.932068 243.917634 
L 304.210789 239.694095 
L 304.768232 248.981952 
L 305.604396 241.225127 
L 305.883117 246.598525 
L 306.161838 232.241865 
L 306.719281 243.131336 
L 306.998002 238.955584 
L 307.276723 247.127101 
L 307.555445 245.003335 
L 307.834166 246.255791 
L 308.112887 244.947748 
L 308.391608 246.059384 
L 308.67033 246.096737 
L 308.949051 243.832349 
L 309.227772 245.679329 
L 309.506494 240.365582 
L 309.785215 250.325051 
L 310.342657 237.600301 
L 310.621379 241.445406 
L 310.9001 248.581248 
L 311.178821 243.576896 
L 311.736264 245.411824 
L 312.293706 239.704101 
L 312.572428 241.334756 
L 312.851149 248.664868 
L 313.408591 240.988371 
L 313.687313 239.969684 
L 313.966034 242.750058 
L 314.244755 247.806322 
L 314.523477 246.937317 
L 314.802198 245.640917 
L 315.080919 241.767789 
L 315.35964 243.864043 
L 315.638362 241.075029 
L 315.917083 242.591164 
L 316.195804 245.840131 
L 316.474525 242.833425 
L 316.753247 247.981733 
L 317.031968 242.941899 
L 317.310689 244.834349 
L 317.868132 251.19889 
L 318.146853 240.519292 
L 318.425574 250.536103 
L 318.983017 242.054981 
L 319.261738 245.936245 
L 319.54046 246.382819 
L 319.819181 247.903226 
L 320.097902 248.290858 
L 320.376623 248.962574 
L 320.655345 245.473573 
L 320.934066 248.136586 
L 321.212787 244.614013 
L 321.491508 245.292221 
L 321.77023 248.369008 
L 322.327672 243.277484 
L 322.606394 244.030588 
L 322.885115 249.656527 
L 323.163836 242.537385 
L 323.442557 249.072072 
L 323.721279 242.737096 
L 323.721279 242.737096 
" clip-path="url(#p4381a4e8ef)" style="fill: none; stroke: #ff0000; stroke-opacity: 0.8; stroke-width: 0.5; stroke-linecap: square"/>
   </g>
   <g id="line2d_14">
    <path d="M 45.278721 204.996019 
L 45.557443 224.754881 
L 45.836164 234.744939 
L 46.114885 239.76186 
L 46.393606 232.317571 
L 46.672328 232.460598 
L 46.951049 235.723194 
L 47.22977 235.718787 
L 47.508492 243.955523 
L 47.787213 242.797174 
L 48.065934 248.428132 
L 48.623377 241.65237 
L 48.902098 247.486266 
L 49.180819 244.335831 
L 49.45954 242.831588 
L 49.738262 226.674145 
L 50.016983 235.170868 
L 50.295704 233.021905 
L 50.574426 236.824263 
L 50.853147 233.79542 
L 51.131868 224.279111 
L 51.410589 239.534061 
L 51.689311 241.682452 
L 51.968032 239.245067 
L 52.246753 241.128087 
L 52.804196 239.772143 
L 53.082917 242.127971 
L 53.64036 239.707644 
L 53.919081 244.522824 
L 54.197802 241.859998 
L 54.476523 243.721578 
L 54.755245 242.069345 
L 55.033966 242.109105 
L 55.591409 237.770846 
L 55.87013 243.734578 
L 56.148851 242.446269 
L 56.985015 235.478582 
L 57.542458 245.154592 
L 57.821179 244.359475 
L 58.0999 244.028645 
L 58.378621 247.681059 
L 58.657343 241.399643 
L 59.214785 237.812235 
L 59.493506 238.810973 
L 59.772228 242.520772 
L 60.050949 240.923534 
L 60.32967 238.315668 
L 60.608392 249.304572 
L 60.887113 245.659843 
L 61.165834 240.015064 
L 61.444555 244.210727 
L 61.723277 235.761937 
L 62.001998 250.302028 
L 62.280719 240.94302 
L 62.559441 247.522193 
L 62.838162 245.17192 
L 63.116883 239.699575 
L 63.395604 247.19422 
L 63.674326 243.265759 
L 63.953047 244.58431 
L 64.231768 242.505599 
L 64.51049 248.526488 
L 64.789211 244.079463 
L 65.067932 249.106947 
L 65.346653 241.872324 
L 65.625375 240.38251 
L 65.904096 246.951727 
L 66.182817 244.251997 
L 66.461538 247.984628 
L 66.74026 242.433983 
L 67.297702 247.645084 
L 67.576424 238.994775 
L 68.133866 248.17821 
L 68.412587 246.385417 
L 68.691309 240.681924 
L 68.97003 247.792391 
L 69.248751 245.593617 
L 69.527473 240.902327 
L 69.806194 244.04892 
L 70.084915 240.493587 
L 70.363636 250.633556 
L 70.642358 250.290336 
L 70.921079 244.38409 
L 71.1998 242.316636 
L 71.478521 248.021475 
L 71.757243 247.549799 
L 72.035964 249.714911 
L 72.314685 245.734516 
L 72.593407 247.998339 
L 72.872128 248.870959 
L 73.150849 248.555726 
L 73.42957 243.110711 
L 74.265734 250.116358 
L 74.544456 249.660304 
L 74.823177 250.046583 
L 75.101898 249.188449 
L 75.380619 246.863756 
L 75.659341 243.156314 
L 75.938062 249.212803 
L 76.216783 249.899511 
L 76.495504 251.699865 
L 76.774226 250.345025 
L 77.052947 251.159857 
L 77.331668 249.349469 
L 77.61039 251.844262 
L 77.889111 247.614061 
L 78.167832 236.289083 
L 78.446553 245.569169 
L 78.725275 242.848638 
L 79.003996 250.766563 
L 79.282717 252.102451 
L 79.561439 251.451765 
L 79.84016 247.798575 
L 80.118881 248.618753 
L 80.397602 251.668106 
L 80.676324 247.722693 
L 81.233766 251.970066 
L 81.512488 248.329145 
L 81.791209 241.579093 
L 82.348651 250.410178 
L 82.906094 247.539353 
L 83.184815 249.429862 
L 83.463536 247.177383 
L 83.742258 248.278963 
L 84.020979 246.452893 
L 84.2997 250.489657 
L 84.578422 242.96665 
L 84.857143 249.622794 
L 85.135864 253.087899 
L 85.414585 250.961858 
L 85.693307 244.654494 
L 86.250749 237.109885 
L 86.529471 251.517302 
L 86.808192 248.71686 
L 87.086913 244.537716 
L 87.365634 242.420185 
L 87.644356 251.341622 
L 88.201798 247.314467 
L 88.480519 248.645001 
L 88.759241 248.898802 
L 89.037962 251.215365 
L 89.316683 251.787169 
L 89.595405 247.969303 
L 89.874126 247.554973 
L 90.152847 251.530287 
L 90.431568 246.006802 
L 90.71029 251.161782 
L 90.989011 243.14301 
L 91.267732 249.169373 
L 91.546454 249.302709 
L 91.825175 247.795081 
L 92.103896 250.805825 
L 92.661339 244.319712 
L 92.94006 255.774928 
L 93.218781 255.660589 
L 93.497502 236.884188 
L 93.776224 242.702424 
L 94.054945 238.545565 
L 94.333666 245.68913 
L 94.612388 241.861696 
L 94.891109 248.419439 
L 95.16983 250.483062 
L 95.727273 247.676041 
L 96.284715 242.219171 
L 96.563437 244.766496 
L 96.842158 244.159921 
L 97.3996 249.817726 
L 97.678322 246.004088 
L 97.957043 245.150554 
L 98.514486 247.514624 
L 98.793207 242.439234 
L 99.350649 246.38256 
L 99.629371 235.698033 
L 99.908092 245.833609 
L 100.186813 240.2314 
L 100.465534 246.971754 
L 100.744256 241.4992 
L 101.022977 239.2824 
L 101.301698 238.097048 
L 101.58042 247.434572 
L 101.859141 246.332584 
L 102.416583 242.467909 
L 102.695305 234.416759 
L 102.974026 246.325059 
L 103.252747 249.027777 
L 103.531469 245.254215 
L 103.81019 232.474885 
L 104.088911 241.621364 
L 104.367632 243.398301 
L 104.646354 239.270556 
L 105.482517 247.636996 
L 105.761239 241.525656 
L 106.03996 239.04933 
L 106.318681 241.405324 
L 106.597403 241.587864 
L 106.876124 243.507281 
L 107.154845 249.263665 
L 107.433566 248.869865 
L 107.712288 240.979789 
L 107.991009 248.846528 
L 108.26973 248.571434 
L 108.548452 239.982872 
L 108.827173 247.337734 
L 109.384615 241.113557 
L 109.663337 245.210048 
L 109.942058 237.330368 
L 110.220779 238.701794 
L 110.4995 247.750586 
L 110.778222 239.364588 
L 111.056943 240.669667 
L 111.335664 244.758817 
L 111.614386 241.482326 
L 111.893107 247.097238 
L 112.450549 240.398423 
L 112.729271 250.822208 
L 113.007992 241.672798 
L 113.286713 243.843737 
L 113.565435 249.859409 
L 113.844156 236.774981 
L 114.122877 237.780385 
L 114.401598 237.884016 
L 114.68032 244.968092 
L 114.959041 244.821527 
L 115.237762 247.712807 
L 115.795205 237.111742 
L 116.073926 242.693382 
L 116.352647 241.61924 
L 116.631369 245.290152 
L 116.91009 239.316195 
L 117.467532 245.404245 
L 117.746254 252.047912 
L 118.024975 245.279442 
L 118.303696 235.437881 
L 118.582418 242.311789 
L 118.861139 241.821397 
L 119.13986 245.779024 
L 119.418581 244.12099 
L 119.697303 245.819503 
L 119.976024 236.115131 
L 120.254745 244.362485 
L 120.533467 242.3398 
L 120.812188 236.789569 
L 121.090909 244.423059 
L 121.36963 238.338717 
L 121.648352 249.358547 
L 121.927073 241.221768 
L 122.205794 239.110259 
L 122.484515 232.691832 
L 122.763237 239.579528 
L 123.041958 239.64819 
L 123.320679 240.976694 
L 123.599401 239.462397 
L 123.878122 241.74387 
L 124.156843 239.697201 
L 124.435564 238.740906 
L 124.714286 240.510711 
L 124.993007 246.645737 
L 125.271728 247.719677 
L 125.55045 241.663208 
L 125.829171 240.517114 
L 126.107892 243.23163 
L 126.386613 236.71496 
L 126.665335 244.405324 
L 126.944056 242.563071 
L 127.222777 238.058206 
L 127.501499 239.438378 
L 127.78022 247.572431 
L 128.058941 245.952439 
L 128.337662 251.268606 
L 128.616384 239.584163 
L 129.173826 247.690552 
L 129.452547 245.013444 
L 129.731269 245.472996 
L 130.00999 247.900814 
L 130.567433 249.655455 
L 130.846154 246.980007 
L 131.124875 248.025201 
L 131.403596 245.365916 
L 131.682318 247.24067 
L 131.961039 246.756981 
L 132.23976 238.981989 
L 132.518482 238.729836 
L 132.797203 233.647965 
L 133.075924 247.147305 
L 133.354645 251.06896 
L 133.633367 248.202053 
L 133.912088 249.670811 
L 134.190809 246.34882 
L 134.46953 250.616877 
L 134.748252 249.338097 
L 135.026973 244.765578 
L 135.305694 248.84669 
L 135.584416 245.365257 
L 135.863137 246.551357 
L 136.141858 244.655841 
L 136.420579 246.340721 
L 136.699301 240.109281 
L 136.978022 239.573814 
L 137.256743 249.527145 
L 137.535465 233.473073 
L 137.814186 241.293849 
L 138.092907 241.886837 
L 138.371628 241.180548 
L 138.65035 246.081564 
L 138.929071 241.55097 
L 139.207792 246.395699 
L 139.486513 245.338445 
L 139.765235 243.524133 
L 140.043956 249.016525 
L 140.322677 249.868766 
L 140.601399 246.108164 
L 140.88012 240.133748 
L 141.158841 248.843092 
L 141.437562 241.90097 
L 141.716284 238.000107 
L 141.995005 246.593611 
L 142.273726 247.5202 
L 142.552448 238.178292 
L 142.831169 241.850485 
L 143.10989 240.331246 
L 143.388611 245.790701 
L 143.667333 244.606323 
L 143.946054 246.554662 
L 144.224775 239.860756 
L 144.503497 246.236686 
L 144.782218 245.126623 
L 145.060939 239.516742 
L 145.33966 242.199945 
L 145.618382 242.962468 
L 145.897103 240.751122 
L 146.175824 229.487985 
L 146.454545 235.89432 
L 146.733267 248.184349 
L 147.011988 240.089305 
L 147.290709 247.384454 
L 147.848152 241.168131 
L 148.126873 248.601168 
L 148.405594 239.992513 
L 148.684316 244.855595 
L 148.963037 244.769558 
L 149.241758 248.173378 
L 149.52048 244.022269 
L 150.077922 251.457735 
L 150.356643 243.81524 
L 150.635365 249.240615 
L 150.914086 252.1056 
L 151.192807 244.841825 
L 151.471528 249.293197 
L 151.75025 245.954259 
L 152.307692 247.081516 
L 152.586414 247.073116 
L 152.865135 246.751528 
L 153.143856 249.297169 
L 153.422577 244.947049 
L 153.701299 250.967943 
L 153.98002 249.291682 
L 154.258741 249.269172 
L 154.537463 244.381575 
L 154.816184 249.504142 
L 155.094905 249.674551 
L 155.652348 243.230891 
L 155.931069 250.048235 
L 156.20979 245.740929 
L 156.488511 246.42731 
L 156.767233 244.044497 
L 157.045954 247.821279 
L 157.324675 246.360603 
L 157.603397 240.092388 
L 157.882118 243.834366 
L 158.160839 250.124701 
L 158.43956 242.884379 
L 158.718282 241.525169 
L 159.275724 246.436847 
L 159.554446 245.691947 
L 159.833167 248.457524 
L 160.111888 248.224827 
L 160.390609 244.986667 
L 160.669331 246.661484 
L 160.948052 243.844723 
L 161.226773 249.492754 
L 161.505495 250.183945 
L 161.784216 245.337157 
L 162.062937 251.028337 
L 162.341658 243.725056 
L 162.62038 247.005757 
L 162.899101 247.189781 
L 163.177822 251.019303 
L 163.456543 245.632047 
L 163.735265 247.779204 
L 164.013986 242.771047 
L 164.292707 250.941192 
L 164.85015 237.689408 
L 165.128871 244.290359 
L 165.407592 244.829639 
L 165.686314 240.819354 
L 165.965035 242.854569 
L 166.243756 247.699348 
L 166.522478 248.540476 
L 166.801199 239.501218 
L 167.07992 249.145042 
L 167.358641 245.754722 
L 167.637363 250.179595 
L 167.916084 248.303353 
L 168.194805 244.777771 
L 168.473526 247.998174 
L 168.752248 247.187238 
L 169.030969 244.369279 
L 169.30969 245.711248 
L 169.588412 251.710897 
L 169.867133 245.462308 
L 170.424575 248.686074 
L 170.703297 248.379775 
L 170.982018 243.491372 
L 171.260739 249.74251 
L 171.539461 245.533026 
L 171.818182 249.2966 
L 172.096903 248.701063 
L 172.375624 237.487947 
L 172.654346 246.020615 
L 172.933067 238.815677 
L 173.211788 245.813296 
L 173.490509 245.257246 
L 173.769231 244.006701 
L 174.047952 250.841228 
L 174.326673 247.581713 
L 174.605395 250.614635 
L 174.884116 245.139032 
L 175.162837 242.292067 
L 175.441558 244.717549 
L 175.72028 248.305053 
L 175.999001 247.077362 
L 176.277722 248.197685 
L 176.556444 248.032183 
L 176.835165 246.379983 
L 177.113886 246.903587 
L 177.392607 251.938177 
L 177.671329 243.33928 
L 177.95005 251.659264 
L 178.228771 248.851041 
L 178.507493 244.399708 
L 178.786214 248.717461 
L 179.064935 248.246344 
L 179.343656 246.695818 
L 179.622378 246.656307 
L 179.901099 247.573094 
L 180.17982 245.368301 
L 180.458541 250.018282 
L 180.737263 249.467887 
L 181.294705 241.936962 
L 181.573427 242.591535 
L 181.852148 237.370934 
L 182.130869 239.954598 
L 182.40959 244.967547 
L 182.688312 245.394106 
L 182.967033 246.509306 
L 183.245754 240.044977 
L 183.524476 240.193796 
L 183.803197 237.014605 
L 184.081918 242.572772 
L 184.360639 245.261336 
L 184.639361 240.730749 
L 184.918082 239.432131 
L 185.196803 242.331196 
L 185.475524 243.23837 
L 185.754246 240.347272 
L 186.032967 241.316104 
L 186.311688 243.409407 
L 186.59041 240.786486 
L 186.869131 242.952931 
L 187.147852 248.578278 
L 187.426573 243.758306 
L 187.705295 241.59748 
L 187.984016 231.71945 
L 188.262737 244.884994 
L 188.541459 233.220343 
L 188.82018 243.306095 
L 189.098901 239.095277 
L 189.377622 238.863725 
L 189.656344 229.707574 
L 189.935065 239.403328 
L 190.213786 242.327026 
L 190.492507 231.971958 
L 190.771229 240.838117 
L 191.04995 238.864132 
L 191.328671 242.359471 
L 191.607393 250.230378 
L 191.886114 234.513107 
L 192.164835 241.483156 
L 192.443556 242.691941 
L 192.722278 237.114701 
L 193.000999 244.359258 
L 193.27972 229.887844 
L 193.558442 241.915412 
L 193.837163 236.668093 
L 194.115884 243.795532 
L 194.394605 240.812274 
L 194.673327 232.227858 
L 194.952048 237.484904 
L 195.230769 239.740916 
L 195.509491 246.585732 
L 195.788212 241.176435 
L 196.066933 247.612208 
L 196.345654 245.576992 
L 196.624376 241.667156 
L 196.903097 245.678051 
L 197.181818 232.296504 
L 197.460539 247.770345 
L 197.739261 240.703681 
L 198.017982 246.256088 
L 198.296703 247.498529 
L 198.575425 242.935143 
L 198.854146 240.933666 
L 199.132867 233.26416 
L 199.411588 244.808478 
L 199.69031 248.194177 
L 199.969031 241.701851 
L 200.526474 249.550518 
L 200.805195 244.256994 
L 201.083916 233.996176 
L 201.362637 244.351077 
L 201.641359 242.054553 
L 201.92008 249.386196 
L 202.198801 247.221957 
L 202.477522 247.268463 
L 202.756244 241.090791 
L 203.034965 247.184854 
L 203.313686 247.468839 
L 203.592408 242.032529 
L 203.871129 243.61194 
L 204.14985 238.096625 
L 204.428571 245.348361 
L 204.707293 244.867517 
L 204.986014 247.384606 
L 205.543457 242.076043 
L 205.822178 246.616362 
L 206.100899 247.00118 
L 206.37962 238.986268 
L 206.658342 249.136554 
L 206.937063 246.043254 
L 207.215784 250.556484 
L 207.494505 245.380159 
L 207.773227 244.765317 
L 208.051948 248.434669 
L 208.330669 246.593584 
L 208.609391 250.311931 
L 208.888112 245.44062 
L 209.166833 245.516563 
L 209.445554 244.078226 
L 209.724276 248.607702 
L 210.002997 242.612774 
L 210.281718 242.85694 
L 210.56044 245.897866 
L 210.839161 241.759833 
L 211.117882 241.532566 
L 211.396603 248.200001 
L 211.954046 243.964749 
L 212.232767 238.983492 
L 212.511489 248.176444 
L 212.79021 238.681963 
L 213.068931 244.367192 
L 213.347652 247.67619 
L 213.626374 244.822826 
L 213.905095 250.915487 
L 214.183816 252.209902 
L 214.462537 250.148578 
L 214.741259 244.842055 
L 215.01998 247.178612 
L 215.298701 241.426101 
L 215.577423 240.211877 
L 215.856144 246.176095 
L 216.134865 246.674568 
L 216.413586 242.885933 
L 216.692308 247.304211 
L 216.971029 247.821396 
L 217.24975 244.252493 
L 217.528472 242.983347 
L 217.807193 247.572073 
L 218.085914 248.306535 
L 218.364635 243.995882 
L 218.643357 241.782224 
L 218.922078 242.691461 
L 219.200799 245.813938 
L 219.47952 238.474725 
L 219.758242 243.815672 
L 220.036963 241.543101 
L 220.315684 240.856874 
L 220.594406 238.429006 
L 220.873127 246.500464 
L 221.151848 242.597532 
L 221.430569 245.938841 
L 221.709291 245.913246 
L 221.988012 238.733999 
L 222.266733 244.471193 
L 222.545455 239.458588 
L 222.824176 243.607813 
L 223.102897 240.302685 
L 223.381618 245.785438 
L 223.66034 244.486592 
L 223.939061 240.876431 
L 224.217782 246.899459 
L 224.496503 245.596434 
L 224.775225 247.853811 
L 225.053946 238.670527 
L 225.332667 246.015414 
L 225.611389 246.925829 
L 225.89011 245.456617 
L 226.168831 235.641569 
L 226.447552 239.655535 
L 226.726274 237.725546 
L 227.004995 241.140701 
L 227.283716 246.684328 
L 227.562438 232.151562 
L 227.841159 247.380916 
L 228.11988 242.384312 
L 228.677323 239.031693 
L 228.956044 234.025942 
L 229.234765 234.967467 
L 229.513487 242.07918 
L 229.792208 233.615235 
L 230.070929 229.670562 
L 230.628372 236.423312 
L 230.907093 236.913699 
L 231.185814 235.496291 
L 231.464535 245.96729 
L 231.743257 236.368554 
L 232.021978 236.9921 
L 232.300699 245.61652 
L 232.579421 236.804773 
L 232.858142 243.684149 
L 233.136863 247.42639 
L 233.694306 240.156766 
L 233.973027 238.190415 
L 234.251748 244.49939 
L 234.53047 243.820247 
L 234.809191 242.592913 
L 235.087912 242.386788 
L 235.366633 246.699373 
L 235.924076 242.53035 
L 236.202797 249.576384 
L 236.481518 243.151956 
L 236.76024 249.569209 
L 237.038961 242.295865 
L 237.317682 249.753379 
L 237.596404 246.139932 
L 237.875125 246.561182 
L 238.153846 247.465902 
L 238.432567 246.2842 
L 238.711289 243.940346 
L 238.99001 243.730258 
L 239.268731 245.679643 
L 239.547453 241.584774 
L 239.826174 246.930737 
L 240.104895 243.740946 
L 240.383616 244.951586 
L 240.662338 240.801519 
L 240.941059 247.167367 
L 241.21978 241.090619 
L 241.498501 245.37941 
L 241.777223 244.07681 
L 242.055944 232.586084 
L 242.334665 243.702695 
L 242.613387 240.098376 
L 242.892108 238.909686 
L 243.170829 245.401924 
L 243.44955 237.485764 
L 243.728272 249.779381 
L 244.006993 246.628455 
L 244.285714 221.716946 
L 244.564436 229.0001 
L 244.843157 228.584848 
L 245.121878 242.885627 
L 245.400599 246.509301 
L 245.679321 235.784047 
L 245.958042 250.736941 
L 246.236763 228.116191 
L 246.794206 248.32995 
L 247.072927 239.996229 
L 247.351648 240.079894 
L 247.63037 244.61172 
L 247.909091 235.293835 
L 248.466533 247.25623 
L 248.745255 239.289133 
L 249.023976 238.461575 
L 249.302697 242.370038 
L 249.581419 239.980864 
L 249.86014 245.244308 
L 250.138861 243.946423 
L 250.417582 245.490956 
L 250.696304 251.725756 
L 250.975025 244.172754 
L 251.253746 241.035077 
L 251.532468 250.593554 
L 251.811189 250.444126 
L 252.08991 244.102611 
L 252.368631 249.089529 
L 252.647353 245.06073 
L 252.926074 245.955251 
L 253.204795 238.813628 
L 253.483516 245.611314 
L 253.762238 228.621527 
L 254.040959 245.80499 
L 254.31968 241.697879 
L 254.598402 248.192511 
L 254.877123 246.834925 
L 255.155844 244.720649 
L 255.434565 248.303627 
L 255.713287 245.502169 
L 255.992008 237.571938 
L 256.270729 243.699907 
L 256.549451 242.300907 
L 256.828172 245.67141 
L 257.106893 242.093172 
L 257.385614 246.174038 
L 257.664336 244.524625 
L 257.943057 238.337707 
L 258.221778 244.170464 
L 258.5005 240.985276 
L 259.057942 248.204142 
L 259.336663 240.060151 
L 259.894106 248.156237 
L 260.172827 242.937167 
L 260.451548 247.382014 
L 260.73027 247.125431 
L 261.008991 245.130851 
L 261.287712 240.506927 
L 261.566434 248.086319 
L 261.845155 245.048021 
L 262.123876 245.011746 
L 262.402597 249.442346 
L 262.681319 242.709845 
L 262.96004 247.336986 
L 263.238761 240.586487 
L 263.517483 240.793106 
L 263.796204 246.720298 
L 264.074925 239.943059 
L 264.632368 250.410815 
L 264.911089 248.433984 
L 265.18981 248.604691 
L 265.468531 242.739914 
L 266.025974 246.680087 
L 266.304695 245.539648 
L 266.583417 248.323846 
L 266.862138 239.391673 
L 267.140859 242.001883 
L 267.41958 249.548517 
L 267.698302 242.480144 
L 267.977023 251.485971 
L 268.255744 245.64157 
L 268.534466 247.523725 
L 268.813187 236.848662 
L 269.091908 245.454836 
L 269.370629 236.011265 
L 269.928072 246.111167 
L 270.206793 249.494052 
L 270.485514 236.113028 
L 271.042957 248.931693 
L 271.321678 238.804605 
L 271.879121 250.145939 
L 272.157842 247.785809 
L 272.436563 240.637673 
L 272.715285 247.615649 
L 272.994006 239.360093 
L 273.272727 247.296809 
L 273.551449 251.758647 
L 273.83017 245.136331 
L 274.387612 239.551786 
L 274.666334 247.369903 
L 274.945055 250.848698 
L 275.223776 245.290114 
L 275.502498 243.498332 
L 275.781219 248.258302 
L 276.05994 249.742708 
L 276.338661 246.775214 
L 276.617383 241.966958 
L 276.896104 247.751028 
L 277.174825 251.210213 
L 277.453546 248.515696 
L 277.732268 248.69989 
L 278.010989 246.672768 
L 278.28971 243.399292 
L 278.568432 242.278747 
L 278.847153 250.268213 
L 279.125874 250.611263 
L 279.404595 246.823724 
L 279.683317 246.691228 
L 279.962038 247.250664 
L 280.240759 252.647984 
L 280.519481 246.080244 
L 280.798202 245.907627 
L 281.076923 246.459182 
L 281.355644 245.169817 
L 281.634366 251.075853 
L 281.913087 244.867386 
L 282.191808 242.500886 
L 282.470529 249.051828 
L 282.749251 250.2349 
L 283.027972 246.622808 
L 283.306693 250.807069 
L 283.585415 247.144572 
L 283.864136 234.404377 
L 284.142857 250.417028 
L 284.421578 244.903839 
L 284.7003 245.78594 
L 284.979021 248.865897 
L 285.257742 247.329182 
L 285.536464 249.281191 
L 285.815185 248.84712 
L 286.093906 245.156965 
L 286.372627 243.261147 
L 286.651349 248.094879 
L 286.93007 243.72283 
L 287.208791 245.101379 
L 287.487512 245.723088 
L 287.766234 251.794403 
L 288.323676 246.573716 
L 288.602398 249.185652 
L 288.881119 244.426096 
L 289.15984 251.674369 
L 289.438561 249.10718 
L 289.717283 250.897987 
L 289.996004 241.77268 
L 290.274725 250.455166 
L 291.110889 246.662816 
L 291.38961 247.181148 
L 291.668332 244.001139 
L 291.947053 248.865943 
L 292.225774 249.779598 
L 292.504496 251.456347 
L 292.783217 246.361236 
L 293.061938 245.032013 
L 293.340659 250.113336 
L 293.619381 247.112472 
L 293.898102 246.607573 
L 294.176823 246.482909 
L 294.455544 245.031333 
L 295.012987 249.405932 
L 295.291708 244.340529 
L 295.57043 245.604559 
L 296.406593 247.442493 
L 296.685315 244.083832 
L 296.964036 250.035216 
L 297.242757 242.460694 
L 297.521479 242.718902 
L 297.8002 246.583131 
L 298.078921 246.970607 
L 298.357642 248.449681 
L 298.636364 243.906418 
L 298.915085 247.887675 
L 299.193806 244.583879 
L 299.472527 244.563489 
L 299.751249 246.380075 
L 300.02997 239.243987 
L 300.308691 245.178231 
L 300.587413 245.857401 
L 300.866134 243.719301 
L 301.144855 248.456422 
L 301.423576 240.550421 
L 301.981019 244.460274 
L 302.25974 250.613919 
L 302.538462 248.474258 
L 302.817183 242.345028 
L 303.095904 247.510965 
L 303.374625 249.138126 
L 303.653347 240.304207 
L 303.932068 244.105863 
L 304.210789 238.893161 
L 304.48951 240.688916 
L 304.768232 249.368323 
L 305.046953 243.247402 
L 305.325674 242.534758 
L 305.604396 240.946857 
L 305.883117 246.894338 
L 306.161838 231.361437 
L 306.440559 239.167965 
L 306.719281 240.757767 
L 306.998002 239.273905 
L 307.276723 246.268019 
L 307.555445 244.153722 
L 307.834166 246.156871 
L 308.112887 241.063657 
L 308.391608 243.845499 
L 308.67033 244.999317 
L 308.949051 242.637178 
L 309.227772 245.29669 
L 309.506494 240.083964 
L 309.785215 247.859565 
L 310.342657 238.584688 
L 310.621379 240.953221 
L 310.9001 249.465306 
L 311.178821 242.906289 
L 311.457542 243.819799 
L 311.736264 245.739321 
L 312.014985 243.511858 
L 312.293706 239.011561 
L 312.572428 240.921943 
L 312.851149 248.367412 
L 313.408591 241.05992 
L 313.687313 239.886707 
L 313.966034 242.199953 
L 314.244755 248.066994 
L 314.523477 247.209431 
L 314.802198 245.529054 
L 315.080919 241.788526 
L 315.35964 241.995412 
L 315.638362 239.258119 
L 315.917083 241.311052 
L 316.195804 246.032973 
L 316.474525 243.32854 
L 316.753247 248.617422 
L 317.031968 243.182652 
L 317.310689 245.788267 
L 317.589411 247.251234 
L 317.868132 251.077175 
L 318.146853 241.22952 
L 318.425574 251.53424 
L 318.704296 245.487384 
L 318.983017 242.16265 
L 319.261738 244.612427 
L 319.54046 248.140676 
L 319.819181 247.29404 
L 320.376623 248.62788 
L 320.655345 244.822124 
L 320.934066 248.569209 
L 321.212787 243.418108 
L 321.491508 245.815664 
L 321.77023 247.182513 
L 322.048951 247.062314 
L 322.327672 243.355765 
L 322.606394 245.760961 
L 322.885115 249.479209 
L 323.163836 241.915616 
L 323.442557 249.112608 
L 323.721279 240.940541 
L 323.721279 240.940541 
" clip-path="url(#p4381a4e8ef)" style="fill: none; stroke: #0000ff; stroke-opacity: 0.8; stroke-width: 0.5; stroke-linecap: square"/>
   </g>
   <g id="patch_3">
    <path d="M 45 256.32 
L 45 34.56 
" style="fill: none; stroke: #000000; stroke-width: 0.8; stroke-linejoin: miter; stroke-linecap: square"/>
   </g>
   <g id="patch_4">
    <path d="M 324 256.32 
L 324 34.56 
" style="fill: none; stroke: #000000; stroke-width: 0.8; stroke-linejoin: miter; stroke-linecap: square"/>
   </g>
   <g id="patch_5">
    <path d="M 45 256.32 
L 324 256.32 
" style="fill: none; stroke: #000000; stroke-width: 0.8; stroke-linejoin: miter; stroke-linecap: square"/>
   </g>
   <g id="patch_6">
    <path d="M 45 34.56 
L 324 34.56 
" style="fill: none; stroke: #000000; stroke-width: 0.8; stroke-linejoin: miter; stroke-linecap: square"/>
   </g>
   <g id="legend_1">
    <g id="patch_7">
     <path d="M 235.834375 70.838125 
L 317 70.838125 
Q 319 70.838125 319 68.838125 
L 319 41.56 
Q 319 39.56 317 39.56 
L 235.834375 39.56 
Q 233.834375 39.56 233.834375 41.56 
L 233.834375 68.838125 
Q 233.834375 70.838125 235.834375 70.838125 
z
" style="fill: #ffffff; opacity: 0.8; stroke: #cccccc; stroke-linejoin: miter"/>
    </g>
    <g id="line2d_15">
     <path d="M 237.834375 47.06 
L 247.834375 47.06 
L 257.834375 47.06 
" style="fill: none; stroke: #ff0000; stroke-opacity: 0.8; stroke-width: 0.5; stroke-linecap: square"/>
    </g>
    <g id="text_14">
     <!-- Critic1 Loss -->
     <g transform="translate(265.834375 50.56)scale(0.1 -0.1)">
      <defs>
       <path id="TimesNewRomanPSMT-43" d="M 3853 4334 
L 3950 2894 
L 3853 2894 
Q 3659 3541 3300 3825 
Q 2941 4109 2438 4109 
Q 2016 4109 1675 3895 
Q 1334 3681 1139 3212 
Q 944 2744 944 2047 
Q 944 1472 1128 1050 
Q 1313 628 1683 403 
Q 2053 178 2528 178 
Q 2941 178 3256 354 
Q 3572 531 3950 1056 
L 4047 994 
Q 3728 428 3303 165 
Q 2878 -97 2294 -97 
Q 1241 -97 663 684 
Q 231 1266 231 2053 
Q 231 2688 515 3219 
Q 800 3750 1298 4042 
Q 1797 4334 2388 4334 
Q 2847 4334 3294 4109 
Q 3425 4041 3481 4041 
Q 3566 4041 3628 4100 
Q 3709 4184 3744 4334 
L 3853 4334 
z
" transform="scale(0.015625)"/>
       <path id="TimesNewRomanPSMT-63" d="M 2631 1088 
Q 2516 522 2178 217 
Q 1841 -88 1431 -88 
Q 944 -88 581 321 
Q 219 731 219 1428 
Q 219 2103 620 2525 
Q 1022 2947 1584 2947 
Q 2006 2947 2278 2723 
Q 2550 2500 2550 2259 
Q 2550 2141 2473 2067 
Q 2397 1994 2259 1994 
Q 2075 1994 1981 2113 
Q 1928 2178 1911 2362 
Q 1894 2547 1784 2644 
Q 1675 2738 1481 2738 
Q 1169 2738 978 2506 
Q 725 2200 725 1697 
Q 725 1184 976 792 
Q 1228 400 1656 400 
Q 1963 400 2206 609 
Q 2378 753 2541 1131 
L 2631 1088 
z
" transform="scale(0.015625)"/>
       <path id="TimesNewRomanPSMT-4c" d="M 3669 1172 
L 3772 1150 
L 3409 0 
L 128 0 
L 128 116 
L 288 116 
Q 556 116 672 291 
Q 738 391 738 753 
L 738 3488 
Q 738 3884 650 3984 
Q 528 4122 288 4122 
L 128 4122 
L 128 4238 
L 2047 4238 
L 2047 4122 
Q 1709 4125 1573 4059 
Q 1438 3994 1388 3894 
Q 1338 3794 1338 3416 
L 1338 753 
Q 1338 494 1388 397 
Q 1425 331 1503 300 
Q 1581 269 1991 269 
L 2300 269 
Q 2788 269 2984 341 
Q 3181 413 3343 595 
Q 3506 778 3669 1172 
z
" transform="scale(0.015625)"/>
       <path id="TimesNewRomanPSMT-6f" d="M 1600 2947 
Q 2250 2947 2644 2453 
Q 2978 2031 2978 1484 
Q 2978 1100 2793 706 
Q 2609 313 2286 112 
Q 1963 -88 1566 -88 
Q 919 -88 538 428 
Q 216 863 216 1403 
Q 216 1797 411 2186 
Q 606 2575 925 2761 
Q 1244 2947 1600 2947 
z
M 1503 2744 
Q 1338 2744 1170 2645 
Q 1003 2547 900 2300 
Q 797 2053 797 1666 
Q 797 1041 1045 587 
Q 1294 134 1700 134 
Q 2003 134 2200 384 
Q 2397 634 2397 1244 
Q 2397 2006 2069 2444 
Q 1847 2744 1503 2744 
z
" transform="scale(0.015625)"/>
       <path id="TimesNewRomanPSMT-73" d="M 2050 2947 
L 2050 1972 
L 1947 1972 
Q 1828 2431 1642 2597 
Q 1456 2763 1169 2763 
Q 950 2763 815 2647 
Q 681 2531 681 2391 
Q 681 2216 781 2091 
Q 878 1963 1175 1819 
L 1631 1597 
Q 2266 1288 2266 781 
Q 2266 391 1970 151 
Q 1675 -88 1309 -88 
Q 1047 -88 709 6 
Q 606 38 541 38 
Q 469 38 428 -44 
L 325 -44 
L 325 978 
L 428 978 
Q 516 541 762 319 
Q 1009 97 1316 97 
Q 1531 97 1667 223 
Q 1803 350 1803 528 
Q 1803 744 1651 891 
Q 1500 1038 1047 1263 
Q 594 1488 453 1669 
Q 313 1847 313 2119 
Q 313 2472 555 2709 
Q 797 2947 1181 2947 
Q 1350 2947 1591 2875 
Q 1750 2828 1803 2828 
Q 1853 2828 1881 2850 
Q 1909 2872 1947 2947 
L 2050 2947 
z
" transform="scale(0.015625)"/>
      </defs>
      <use xlink:href="#TimesNewRomanPSMT-43"/>
      <use xlink:href="#TimesNewRomanPSMT-72" x="66.699219"/>
      <use xlink:href="#TimesNewRomanPSMT-69" x="100"/>
      <use xlink:href="#TimesNewRomanPSMT-74" x="127.783203"/>
      <use xlink:href="#TimesNewRomanPSMT-69" x="155.566406"/>
      <use xlink:href="#TimesNewRomanPSMT-63" x="183.349609"/>
      <use xlink:href="#TimesNewRomanPSMT-31" x="227.734375"/>
      <use xlink:href="#TimesNewRomanPSMT-20" x="277.734375"/>
      <use xlink:href="#TimesNewRomanPSMT-4c" x="302.734375"/>
      <use xlink:href="#TimesNewRomanPSMT-6f" x="363.818359"/>
      <use xlink:href="#TimesNewRomanPSMT-73" x="413.818359"/>
      <use xlink:href="#TimesNewRomanPSMT-73" x="452.734375"/>
     </g>
    </g>
    <g id="line2d_16">
     <path d="M 237.834375 61.199062 
L 247.834375 61.199062 
L 257.834375 61.199062 
" style="fill: none; stroke: #0000ff; stroke-opacity: 0.8; stroke-width: 0.5; stroke-linecap: square"/>
    </g>
    <g id="text_15">
     <!-- Critic2 Loss -->
     <g transform="translate(265.834375 64.699062)scale(0.1 -0.1)">
      <use xlink:href="#TimesNewRomanPSMT-43"/>
      <use xlink:href="#TimesNewRomanPSMT-72" x="66.699219"/>
      <use xlink:href="#TimesNewRomanPSMT-69" x="100"/>
      <use xlink:href="#TimesNewRomanPSMT-74" x="127.783203"/>
      <use xlink:href="#TimesNewRomanPSMT-69" x="155.566406"/>
      <use xlink:href="#TimesNewRomanPSMT-63" x="183.349609"/>
      <use xlink:href="#TimesNewRomanPSMT-32" x="227.734375"/>
      <use xlink:href="#TimesNewRomanPSMT-20" x="277.734375"/>
      <use xlink:href="#TimesNewRomanPSMT-4c" x="302.734375"/>
      <use xlink:href="#TimesNewRomanPSMT-6f" x="363.818359"/>
      <use xlink:href="#TimesNewRomanPSMT-73" x="413.818359"/>
      <use xlink:href="#TimesNewRomanPSMT-73" x="452.734375"/>
     </g>
    </g>
   </g>
  </g>
 </g>
 <defs>
  <clipPath id="p4381a4e8ef">
   <rect x="45" y="34.56" width="279" height="221.76"/>
  </clipPath>
 </defs>
</svg>
