<?xml version="1.0" encoding="utf-8" standalone="no"?>
<!DOCTYPE svg PUBLIC "-//W3C//DTD SVG 1.1//EN"
  "http://www.w3.org/Graphics/SVG/1.1/DTD/svg11.dtd">
<svg xmlns:xlink="http://www.w3.org/1999/xlink" width="360pt" height="288pt" viewBox="0 0 360 288" xmlns="http://www.w3.org/2000/svg" version="1.1">
 <metadata>
  <rdf:RDF xmlns:dc="http://purl.org/dc/elements/1.1/" xmlns:cc="http://creativecommons.org/ns#" xmlns:rdf="http://www.w3.org/1999/02/22-rdf-syntax-ns#">
   <cc:Work>
    <dc:type rdf:resource="http://purl.org/dc/dcmitype/StillImage"/>
    <dc:date>2025-06-13T17:07:34.533058</dc:date>
    <dc:format>image/svg+xml</dc:format>
    <dc:creator>
     <cc:Agent>
      <dc:title>Matplotlib v3.5.1, https://matplotlib.org/</dc:title>
     </cc:Agent>
    </dc:creator>
   </cc:Work>
  </rdf:RDF>
 </metadata>
 <defs>
  <style type="text/css">*{stroke-linejoin: round; stroke-linecap: butt}</style>
 </defs>
 <g id="figure_1">
  <g id="patch_1">
   <path d="M 0 288 
L 360 288 
L 360 0 
L 0 0 
z
" style="fill: #ffffff"/>
  </g>
  <g id="axes_1">
   <g id="patch_2">
    <path d="M 45 256.32 
L 324 256.32 
L 324 34.56 
L 45 34.56 
z
" style="fill: #ffffff"/>
   </g>
   <g id="matplotlib.axis_1">
    <g id="xtick_1">
     <g id="line2d_1">
      <defs>
       <path id="m1b0bda5b40" d="M 0 0 
L 0 3.5 
" style="stroke: #000000; stroke-width: 0.8"/>
      </defs>
      <g>
       <use xlink:href="#m1b0bda5b40" x="45" y="256.32" style="stroke: #000000; stroke-width: 0.8"/>
      </g>
     </g>
     <g id="text_1">
      <!-- 0 -->
      <g transform="translate(42.5 270.26375)scale(0.1 -0.1)">
       <defs>
        <path id="TimesNewRomanPSMT-30" d="M 231 2094 
Q 231 2819 450 3342 
Q 669 3866 1031 4122 
Q 1313 4325 1613 4325 
Q 2100 4325 2488 3828 
Q 2972 3213 2972 2159 
Q 2972 1422 2759 906 
Q 2547 391 2217 158 
Q 1888 -75 1581 -75 
Q 975 -75 572 641 
Q 231 1244 231 2094 
z
M 844 2016 
Q 844 1141 1059 588 
Q 1238 122 1591 122 
Q 1759 122 1940 273 
Q 2122 425 2216 781 
Q 2359 1319 2359 2297 
Q 2359 3022 2209 3506 
Q 2097 3866 1919 4016 
Q 1791 4119 1609 4119 
Q 1397 4119 1231 3928 
Q 1006 3669 925 3112 
Q 844 2556 844 2016 
z
" transform="scale(0.015625)"/>
       </defs>
       <use xlink:href="#TimesNewRomanPSMT-30"/>
      </g>
     </g>
    </g>
    <g id="xtick_2">
     <g id="line2d_2">
      <g>
       <use xlink:href="#m1b0bda5b40" x="100.744256" y="256.32" style="stroke: #000000; stroke-width: 0.8"/>
      </g>
     </g>
     <g id="text_2">
      <!-- 200 -->
      <g transform="translate(93.244256 270.26375)scale(0.1 -0.1)">
       <defs>
        <path id="TimesNewRomanPSMT-32" d="M 2934 816 
L 2638 0 
L 138 0 
L 138 116 
Q 1241 1122 1691 1759 
Q 2141 2397 2141 2925 
Q 2141 3328 1894 3587 
Q 1647 3847 1303 3847 
Q 991 3847 742 3664 
Q 494 3481 375 3128 
L 259 3128 
Q 338 3706 661 4015 
Q 984 4325 1469 4325 
Q 1984 4325 2329 3994 
Q 2675 3663 2675 3213 
Q 2675 2891 2525 2569 
Q 2294 2063 1775 1497 
Q 997 647 803 472 
L 1909 472 
Q 2247 472 2383 497 
Q 2519 522 2628 598 
Q 2738 675 2819 816 
L 2934 816 
z
" transform="scale(0.015625)"/>
       </defs>
       <use xlink:href="#TimesNewRomanPSMT-32"/>
       <use xlink:href="#TimesNewRomanPSMT-30" x="50"/>
       <use xlink:href="#TimesNewRomanPSMT-30" x="100"/>
      </g>
     </g>
    </g>
    <g id="xtick_3">
     <g id="line2d_3">
      <g>
       <use xlink:href="#m1b0bda5b40" x="156.488511" y="256.32" style="stroke: #000000; stroke-width: 0.8"/>
      </g>
     </g>
     <g id="text_3">
      <!-- 400 -->
      <g transform="translate(148.988511 270.26375)scale(0.1 -0.1)">
       <defs>
        <path id="TimesNewRomanPSMT-34" d="M 2978 1563 
L 2978 1119 
L 2409 1119 
L 2409 0 
L 1894 0 
L 1894 1119 
L 100 1119 
L 100 1519 
L 2066 4325 
L 2409 4325 
L 2409 1563 
L 2978 1563 
z
M 1894 1563 
L 1894 3666 
L 406 1563 
L 1894 1563 
z
" transform="scale(0.015625)"/>
       </defs>
       <use xlink:href="#TimesNewRomanPSMT-34"/>
       <use xlink:href="#TimesNewRomanPSMT-30" x="50"/>
       <use xlink:href="#TimesNewRomanPSMT-30" x="100"/>
      </g>
     </g>
    </g>
    <g id="xtick_4">
     <g id="line2d_4">
      <g>
       <use xlink:href="#m1b0bda5b40" x="212.232767" y="256.32" style="stroke: #000000; stroke-width: 0.8"/>
      </g>
     </g>
     <g id="text_4">
      <!-- 600 -->
      <g transform="translate(204.732767 270.26375)scale(0.1 -0.1)">
       <defs>
        <path id="TimesNewRomanPSMT-36" d="M 2869 4325 
L 2869 4209 
Q 2456 4169 2195 4045 
Q 1934 3922 1679 3669 
Q 1425 3416 1258 3105 
Q 1091 2794 978 2366 
Q 1428 2675 1881 2675 
Q 2316 2675 2634 2325 
Q 2953 1975 2953 1425 
Q 2953 894 2631 456 
Q 2244 -75 1606 -75 
Q 1172 -75 869 213 
Q 275 772 275 1663 
Q 275 2231 503 2743 
Q 731 3256 1154 3653 
Q 1578 4050 1965 4187 
Q 2353 4325 2688 4325 
L 2869 4325 
z
M 925 2138 
Q 869 1716 869 1456 
Q 869 1156 980 804 
Q 1091 453 1309 247 
Q 1469 100 1697 100 
Q 1969 100 2183 356 
Q 2397 613 2397 1088 
Q 2397 1622 2184 2012 
Q 1972 2403 1581 2403 
Q 1463 2403 1327 2353 
Q 1191 2303 925 2138 
z
" transform="scale(0.015625)"/>
       </defs>
       <use xlink:href="#TimesNewRomanPSMT-36"/>
       <use xlink:href="#TimesNewRomanPSMT-30" x="50"/>
       <use xlink:href="#TimesNewRomanPSMT-30" x="100"/>
      </g>
     </g>
    </g>
    <g id="xtick_5">
     <g id="line2d_5">
      <g>
       <use xlink:href="#m1b0bda5b40" x="267.977023" y="256.32" style="stroke: #000000; stroke-width: 0.8"/>
      </g>
     </g>
     <g id="text_5">
      <!-- 800 -->
      <g transform="translate(260.477023 270.26375)scale(0.1 -0.1)">
       <defs>
        <path id="TimesNewRomanPSMT-38" d="M 1228 2134 
Q 725 2547 579 2797 
Q 434 3047 434 3316 
Q 434 3728 753 4026 
Q 1072 4325 1600 4325 
Q 2113 4325 2425 4047 
Q 2738 3769 2738 3413 
Q 2738 3175 2569 2928 
Q 2400 2681 1866 2347 
Q 2416 1922 2594 1678 
Q 2831 1359 2831 1006 
Q 2831 559 2490 242 
Q 2150 -75 1597 -75 
Q 994 -75 656 303 
Q 388 606 388 966 
Q 388 1247 577 1523 
Q 766 1800 1228 2134 
z
M 1719 2469 
Q 2094 2806 2194 3001 
Q 2294 3197 2294 3444 
Q 2294 3772 2109 3958 
Q 1925 4144 1606 4144 
Q 1288 4144 1088 3959 
Q 888 3775 888 3528 
Q 888 3366 970 3203 
Q 1053 3041 1206 2894 
L 1719 2469 
z
M 1375 2016 
Q 1116 1797 991 1539 
Q 866 1281 866 981 
Q 866 578 1086 336 
Q 1306 94 1647 94 
Q 1984 94 2187 284 
Q 2391 475 2391 747 
Q 2391 972 2272 1150 
Q 2050 1481 1375 2016 
z
" transform="scale(0.015625)"/>
       </defs>
       <use xlink:href="#TimesNewRomanPSMT-38"/>
       <use xlink:href="#TimesNewRomanPSMT-30" x="50"/>
       <use xlink:href="#TimesNewRomanPSMT-30" x="100"/>
      </g>
     </g>
    </g>
    <g id="xtick_6">
     <g id="line2d_6">
      <g>
       <use xlink:href="#m1b0bda5b40" x="323.721279" y="256.32" style="stroke: #000000; stroke-width: 0.8"/>
      </g>
     </g>
     <g id="text_6">
      <!-- 1000 -->
      <g transform="translate(313.721279 270.26375)scale(0.1 -0.1)">
       <defs>
        <path id="TimesNewRomanPSMT-31" d="M 750 3822 
L 1781 4325 
L 1884 4325 
L 1884 747 
Q 1884 391 1914 303 
Q 1944 216 2037 169 
Q 2131 122 2419 116 
L 2419 0 
L 825 0 
L 825 116 
Q 1125 122 1212 167 
Q 1300 213 1334 289 
Q 1369 366 1369 747 
L 1369 3034 
Q 1369 3497 1338 3628 
Q 1316 3728 1258 3775 
Q 1200 3822 1119 3822 
Q 1003 3822 797 3725 
L 750 3822 
z
" transform="scale(0.015625)"/>
       </defs>
       <use xlink:href="#TimesNewRomanPSMT-31"/>
       <use xlink:href="#TimesNewRomanPSMT-30" x="50"/>
       <use xlink:href="#TimesNewRomanPSMT-30" x="100"/>
       <use xlink:href="#TimesNewRomanPSMT-30" x="150"/>
      </g>
     </g>
    </g>
    <g id="text_7">
     <!-- Train Step -->
     <g transform="translate(163.708594 283.346563)scale(0.1 -0.1)">
      <defs>
       <path id="TimesNewRomanPSMT-54" d="M 3703 4238 
L 3750 3244 
L 3631 3244 
Q 3597 3506 3538 3619 
Q 3441 3800 3280 3886 
Q 3119 3972 2856 3972 
L 2259 3972 
L 2259 734 
Q 2259 344 2344 247 
Q 2463 116 2709 116 
L 2856 116 
L 2856 0 
L 1059 0 
L 1059 116 
L 1209 116 
Q 1478 116 1591 278 
Q 1659 378 1659 734 
L 1659 3972 
L 1150 3972 
Q 853 3972 728 3928 
Q 566 3869 450 3700 
Q 334 3531 313 3244 
L 194 3244 
L 244 4238 
L 3703 4238 
z
" transform="scale(0.015625)"/>
       <path id="TimesNewRomanPSMT-72" d="M 1038 2947 
L 1038 2303 
Q 1397 2947 1775 2947 
Q 1947 2947 2059 2842 
Q 2172 2738 2172 2600 
Q 2172 2478 2090 2393 
Q 2009 2309 1897 2309 
Q 1788 2309 1652 2417 
Q 1516 2525 1450 2525 
Q 1394 2525 1328 2463 
Q 1188 2334 1038 2041 
L 1038 669 
Q 1038 431 1097 309 
Q 1138 225 1241 169 
Q 1344 113 1538 113 
L 1538 0 
L 72 0 
L 72 113 
Q 291 113 397 181 
Q 475 231 506 341 
Q 522 394 522 644 
L 522 1753 
Q 522 2253 501 2348 
Q 481 2444 426 2487 
Q 372 2531 291 2531 
Q 194 2531 72 2484 
L 41 2597 
L 906 2947 
L 1038 2947 
z
" transform="scale(0.015625)"/>
       <path id="TimesNewRomanPSMT-61" d="M 1822 413 
Q 1381 72 1269 19 
Q 1100 -59 909 -59 
Q 613 -59 420 144 
Q 228 347 228 678 
Q 228 888 322 1041 
Q 450 1253 767 1440 
Q 1084 1628 1822 1897 
L 1822 2009 
Q 1822 2438 1686 2597 
Q 1550 2756 1291 2756 
Q 1094 2756 978 2650 
Q 859 2544 859 2406 
L 866 2225 
Q 866 2081 792 2003 
Q 719 1925 600 1925 
Q 484 1925 411 2006 
Q 338 2088 338 2228 
Q 338 2497 613 2722 
Q 888 2947 1384 2947 
Q 1766 2947 2009 2819 
Q 2194 2722 2281 2516 
Q 2338 2381 2338 1966 
L 2338 994 
Q 2338 584 2353 492 
Q 2369 400 2405 369 
Q 2441 338 2488 338 
Q 2538 338 2575 359 
Q 2641 400 2828 588 
L 2828 413 
Q 2478 -56 2159 -56 
Q 2006 -56 1915 50 
Q 1825 156 1822 413 
z
M 1822 616 
L 1822 1706 
Q 1350 1519 1213 1441 
Q 966 1303 859 1153 
Q 753 1003 753 825 
Q 753 600 887 451 
Q 1022 303 1197 303 
Q 1434 303 1822 616 
z
" transform="scale(0.015625)"/>
       <path id="TimesNewRomanPSMT-69" d="M 928 4444 
Q 1059 4444 1151 4351 
Q 1244 4259 1244 4128 
Q 1244 3997 1151 3903 
Q 1059 3809 928 3809 
Q 797 3809 703 3903 
Q 609 3997 609 4128 
Q 609 4259 701 4351 
Q 794 4444 928 4444 
z
M 1188 2947 
L 1188 647 
Q 1188 378 1227 289 
Q 1266 200 1342 156 
Q 1419 113 1622 113 
L 1622 0 
L 231 0 
L 231 113 
Q 441 113 512 153 
Q 584 194 626 287 
Q 669 381 669 647 
L 669 1750 
Q 669 2216 641 2353 
Q 619 2453 572 2492 
Q 525 2531 444 2531 
Q 356 2531 231 2484 
L 188 2597 
L 1050 2947 
L 1188 2947 
z
" transform="scale(0.015625)"/>
       <path id="TimesNewRomanPSMT-6e" d="M 1034 2341 
Q 1538 2947 1994 2947 
Q 2228 2947 2397 2830 
Q 2566 2713 2666 2444 
Q 2734 2256 2734 1869 
L 2734 647 
Q 2734 375 2778 278 
Q 2813 200 2889 156 
Q 2966 113 3172 113 
L 3172 0 
L 1756 0 
L 1756 113 
L 1816 113 
Q 2016 113 2095 173 
Q 2175 234 2206 353 
Q 2219 400 2219 647 
L 2219 1819 
Q 2219 2209 2117 2386 
Q 2016 2563 1775 2563 
Q 1403 2563 1034 2156 
L 1034 647 
Q 1034 356 1069 288 
Q 1113 197 1189 155 
Q 1266 113 1500 113 
L 1500 0 
L 84 0 
L 84 113 
L 147 113 
Q 366 113 442 223 
Q 519 334 519 647 
L 519 1709 
Q 519 2225 495 2337 
Q 472 2450 423 2490 
Q 375 2531 294 2531 
Q 206 2531 84 2484 
L 38 2597 
L 900 2947 
L 1034 2947 
L 1034 2341 
z
" transform="scale(0.015625)"/>
       <path id="TimesNewRomanPSMT-20" transform="scale(0.015625)"/>
       <path id="TimesNewRomanPSMT-53" d="M 2934 4334 
L 2934 2869 
L 2819 2869 
Q 2763 3291 2617 3541 
Q 2472 3791 2203 3937 
Q 1934 4084 1647 4084 
Q 1322 4084 1109 3886 
Q 897 3688 897 3434 
Q 897 3241 1031 3081 
Q 1225 2847 1953 2456 
Q 2547 2138 2764 1967 
Q 2981 1797 3098 1565 
Q 3216 1334 3216 1081 
Q 3216 600 2842 251 
Q 2469 -97 1881 -97 
Q 1697 -97 1534 -69 
Q 1438 -53 1133 45 
Q 828 144 747 144 
Q 669 144 623 97 
Q 578 50 556 -97 
L 441 -97 
L 441 1356 
L 556 1356 
Q 638 900 775 673 
Q 913 447 1195 297 
Q 1478 147 1816 147 
Q 2206 147 2432 353 
Q 2659 559 2659 841 
Q 2659 997 2573 1156 
Q 2488 1316 2306 1453 
Q 2184 1547 1640 1851 
Q 1097 2156 867 2337 
Q 638 2519 519 2737 
Q 400 2956 400 3219 
Q 400 3675 750 4004 
Q 1100 4334 1641 4334 
Q 1978 4334 2356 4169 
Q 2531 4091 2603 4091 
Q 2684 4091 2736 4139 
Q 2788 4188 2819 4334 
L 2934 4334 
z
" transform="scale(0.015625)"/>
       <path id="TimesNewRomanPSMT-74" d="M 1031 3803 
L 1031 2863 
L 1700 2863 
L 1700 2644 
L 1031 2644 
L 1031 788 
Q 1031 509 1111 412 
Q 1191 316 1316 316 
Q 1419 316 1516 380 
Q 1613 444 1666 569 
L 1788 569 
Q 1678 263 1478 108 
Q 1278 -47 1066 -47 
Q 922 -47 784 33 
Q 647 113 581 261 
Q 516 409 516 719 
L 516 2644 
L 63 2644 
L 63 2747 
Q 234 2816 414 2980 
Q 594 3144 734 3369 
Q 806 3488 934 3803 
L 1031 3803 
z
" transform="scale(0.015625)"/>
       <path id="TimesNewRomanPSMT-65" d="M 681 1784 
Q 678 1147 991 784 
Q 1303 422 1725 422 
Q 2006 422 2214 576 
Q 2422 731 2563 1106 
L 2659 1044 
Q 2594 616 2278 264 
Q 1963 -88 1488 -88 
Q 972 -88 605 314 
Q 238 716 238 1394 
Q 238 2128 614 2539 
Q 991 2950 1559 2950 
Q 2041 2950 2350 2633 
Q 2659 2316 2659 1784 
L 681 1784 
z
M 681 1966 
L 2006 1966 
Q 1991 2241 1941 2353 
Q 1863 2528 1708 2628 
Q 1553 2728 1384 2728 
Q 1125 2728 920 2526 
Q 716 2325 681 1966 
z
" transform="scale(0.015625)"/>
       <path id="TimesNewRomanPSMT-70" d="M -6 2578 
L 875 2934 
L 994 2934 
L 994 2266 
Q 1216 2644 1439 2795 
Q 1663 2947 1909 2947 
Q 2341 2947 2628 2609 
Q 2981 2197 2981 1534 
Q 2981 794 2556 309 
Q 2206 -88 1675 -88 
Q 1444 -88 1275 -22 
Q 1150 25 994 166 
L 994 -706 
Q 994 -1000 1030 -1079 
Q 1066 -1159 1155 -1206 
Q 1244 -1253 1478 -1253 
L 1478 -1369 
L -22 -1369 
L -22 -1253 
L 56 -1253 
Q 228 -1256 350 -1188 
Q 409 -1153 442 -1076 
Q 475 -1000 475 -688 
L 475 2019 
Q 475 2297 450 2372 
Q 425 2447 370 2484 
Q 316 2522 222 2522 
Q 147 2522 31 2478 
L -6 2578 
z
M 994 2081 
L 994 1013 
Q 994 666 1022 556 
Q 1066 375 1236 237 
Q 1406 100 1666 100 
Q 1978 100 2172 344 
Q 2425 663 2425 1241 
Q 2425 1897 2138 2250 
Q 1938 2494 1663 2494 
Q 1513 2494 1366 2419 
Q 1253 2363 994 2081 
z
" transform="scale(0.015625)"/>
      </defs>
      <use xlink:href="#TimesNewRomanPSMT-54"/>
      <use xlink:href="#TimesNewRomanPSMT-72" x="57.583984"/>
      <use xlink:href="#TimesNewRomanPSMT-61" x="90.884766"/>
      <use xlink:href="#TimesNewRomanPSMT-69" x="135.269531"/>
      <use xlink:href="#TimesNewRomanPSMT-6e" x="163.052734"/>
      <use xlink:href="#TimesNewRomanPSMT-20" x="213.052734"/>
      <use xlink:href="#TimesNewRomanPSMT-53" x="238.052734"/>
      <use xlink:href="#TimesNewRomanPSMT-74" x="293.667969"/>
      <use xlink:href="#TimesNewRomanPSMT-65" x="321.451172"/>
      <use xlink:href="#TimesNewRomanPSMT-70" x="365.835938"/>
     </g>
    </g>
   </g>
   <g id="matplotlib.axis_2">
    <g id="ytick_1">
     <g id="line2d_7">
      <defs>
       <path id="m28faa76abc" d="M 0 0 
L -3.5 0 
" style="stroke: #000000; stroke-width: 0.8"/>
      </defs>
      <g>
       <use xlink:href="#m28faa76abc" x="45" y="256.32" style="stroke: #000000; stroke-width: 0.8"/>
      </g>
     </g>
     <g id="text_8">
      <!-- 0 -->
      <g transform="translate(33 259.791875)scale(0.1 -0.1)">
       <use xlink:href="#TimesNewRomanPSMT-30"/>
      </g>
     </g>
    </g>
    <g id="ytick_2">
     <g id="line2d_8">
      <g>
       <use xlink:href="#m28faa76abc" x="45" y="228.3744" style="stroke: #000000; stroke-width: 0.8"/>
      </g>
     </g>
     <g id="text_9">
      <!-- 100 -->
      <g transform="translate(23 231.846275)scale(0.1 -0.1)">
       <use xlink:href="#TimesNewRomanPSMT-31"/>
       <use xlink:href="#TimesNewRomanPSMT-30" x="50"/>
       <use xlink:href="#TimesNewRomanPSMT-30" x="100"/>
      </g>
     </g>
    </g>
    <g id="ytick_3">
     <g id="line2d_9">
      <g>
       <use xlink:href="#m28faa76abc" x="45" y="200.428801" style="stroke: #000000; stroke-width: 0.8"/>
      </g>
     </g>
     <g id="text_10">
      <!-- 200 -->
      <g transform="translate(23 203.900676)scale(0.1 -0.1)">
       <use xlink:href="#TimesNewRomanPSMT-32"/>
       <use xlink:href="#TimesNewRomanPSMT-30" x="50"/>
       <use xlink:href="#TimesNewRomanPSMT-30" x="100"/>
      </g>
     </g>
    </g>
    <g id="ytick_4">
     <g id="line2d_10">
      <g>
       <use xlink:href="#m28faa76abc" x="45" y="172.483201" style="stroke: #000000; stroke-width: 0.8"/>
      </g>
     </g>
     <g id="text_11">
      <!-- 300 -->
      <g transform="translate(23 175.955076)scale(0.1 -0.1)">
       <defs>
        <path id="TimesNewRomanPSMT-33" d="M 325 3431 
Q 506 3859 782 4092 
Q 1059 4325 1472 4325 
Q 1981 4325 2253 3994 
Q 2459 3747 2459 3466 
Q 2459 3003 1878 2509 
Q 2269 2356 2469 2072 
Q 2669 1788 2669 1403 
Q 2669 853 2319 450 
Q 1863 -75 997 -75 
Q 569 -75 414 31 
Q 259 138 259 259 
Q 259 350 332 419 
Q 406 488 509 488 
Q 588 488 669 463 
Q 722 447 909 348 
Q 1097 250 1169 231 
Q 1284 197 1416 197 
Q 1734 197 1970 444 
Q 2206 691 2206 1028 
Q 2206 1275 2097 1509 
Q 2016 1684 1919 1775 
Q 1784 1900 1550 2001 
Q 1316 2103 1072 2103 
L 972 2103 
L 972 2197 
Q 1219 2228 1467 2375 
Q 1716 2522 1828 2728 
Q 1941 2934 1941 3181 
Q 1941 3503 1739 3701 
Q 1538 3900 1238 3900 
Q 753 3900 428 3381 
L 325 3431 
z
" transform="scale(0.015625)"/>
       </defs>
       <use xlink:href="#TimesNewRomanPSMT-33"/>
       <use xlink:href="#TimesNewRomanPSMT-30" x="50"/>
       <use xlink:href="#TimesNewRomanPSMT-30" x="100"/>
      </g>
     </g>
    </g>
    <g id="ytick_5">
     <g id="line2d_11">
      <g>
       <use xlink:href="#m28faa76abc" x="45" y="144.537601" style="stroke: #000000; stroke-width: 0.8"/>
      </g>
     </g>
     <g id="text_12">
      <!-- 400 -->
      <g transform="translate(23 148.009476)scale(0.1 -0.1)">
       <use xlink:href="#TimesNewRomanPSMT-34"/>
       <use xlink:href="#TimesNewRomanPSMT-30" x="50"/>
       <use xlink:href="#TimesNewRomanPSMT-30" x="100"/>
      </g>
     </g>
    </g>
    <g id="ytick_6">
     <g id="line2d_12">
      <g>
       <use xlink:href="#m28faa76abc" x="45" y="116.592002" style="stroke: #000000; stroke-width: 0.8"/>
      </g>
     </g>
     <g id="text_13">
      <!-- 500 -->
      <g transform="translate(23 120.063877)scale(0.1 -0.1)">
       <defs>
        <path id="TimesNewRomanPSMT-35" d="M 2778 4238 
L 2534 3706 
L 1259 3706 
L 981 3138 
Q 1809 3016 2294 2522 
Q 2709 2097 2709 1522 
Q 2709 1188 2573 903 
Q 2438 619 2231 419 
Q 2025 219 1772 97 
Q 1413 -75 1034 -75 
Q 653 -75 479 54 
Q 306 184 306 341 
Q 306 428 378 495 
Q 450 563 559 563 
Q 641 563 702 538 
Q 763 513 909 409 
Q 1144 247 1384 247 
Q 1750 247 2026 523 
Q 2303 800 2303 1197 
Q 2303 1581 2056 1914 
Q 1809 2247 1375 2428 
Q 1034 2569 447 2591 
L 1259 4238 
L 2778 4238 
z
" transform="scale(0.015625)"/>
       </defs>
       <use xlink:href="#TimesNewRomanPSMT-35"/>
       <use xlink:href="#TimesNewRomanPSMT-30" x="50"/>
       <use xlink:href="#TimesNewRomanPSMT-30" x="100"/>
      </g>
     </g>
    </g>
    <g id="ytick_7">
     <g id="line2d_13">
      <g>
       <use xlink:href="#m28faa76abc" x="45" y="88.646402" style="stroke: #000000; stroke-width: 0.8"/>
      </g>
     </g>
     <g id="text_14">
      <!-- 600 -->
      <g transform="translate(23 92.118277)scale(0.1 -0.1)">
       <use xlink:href="#TimesNewRomanPSMT-36"/>
       <use xlink:href="#TimesNewRomanPSMT-30" x="50"/>
       <use xlink:href="#TimesNewRomanPSMT-30" x="100"/>
      </g>
     </g>
    </g>
    <g id="ytick_8">
     <g id="line2d_14">
      <g>
       <use xlink:href="#m28faa76abc" x="45" y="60.700802" style="stroke: #000000; stroke-width: 0.8"/>
      </g>
     </g>
     <g id="text_15">
      <!-- 700 -->
      <g transform="translate(23 64.172677)scale(0.1 -0.1)">
       <defs>
        <path id="TimesNewRomanPSMT-37" d="M 644 4238 
L 2916 4238 
L 2916 4119 
L 1503 -88 
L 1153 -88 
L 2419 3728 
L 1253 3728 
Q 900 3728 750 3644 
Q 488 3500 328 3200 
L 238 3234 
L 644 4238 
z
" transform="scale(0.015625)"/>
       </defs>
       <use xlink:href="#TimesNewRomanPSMT-37"/>
       <use xlink:href="#TimesNewRomanPSMT-30" x="50"/>
       <use xlink:href="#TimesNewRomanPSMT-30" x="100"/>
      </g>
     </g>
    </g>
    <g id="text_16">
     <!-- Actor Loss -->
     <g transform="translate(16.860937 167.520469)rotate(-90)scale(0.1 -0.1)">
      <defs>
       <path id="TimesNewRomanPSMT-41" d="M 2928 1419 
L 1288 1419 
L 1000 750 
Q 894 503 894 381 
Q 894 284 986 211 
Q 1078 138 1384 116 
L 1384 0 
L 50 0 
L 50 116 
Q 316 163 394 238 
Q 553 388 747 847 
L 2238 4334 
L 2347 4334 
L 3822 809 
Q 4000 384 4145 257 
Q 4291 131 4550 116 
L 4550 0 
L 2878 0 
L 2878 116 
Q 3131 128 3220 200 
Q 3309 272 3309 375 
Q 3309 513 3184 809 
L 2928 1419 
z
M 2841 1650 
L 2122 3363 
L 1384 1650 
L 2841 1650 
z
" transform="scale(0.015625)"/>
       <path id="TimesNewRomanPSMT-63" d="M 2631 1088 
Q 2516 522 2178 217 
Q 1841 -88 1431 -88 
Q 944 -88 581 321 
Q 219 731 219 1428 
Q 219 2103 620 2525 
Q 1022 2947 1584 2947 
Q 2006 2947 2278 2723 
Q 2550 2500 2550 2259 
Q 2550 2141 2473 2067 
Q 2397 1994 2259 1994 
Q 2075 1994 1981 2113 
Q 1928 2178 1911 2362 
Q 1894 2547 1784 2644 
Q 1675 2738 1481 2738 
Q 1169 2738 978 2506 
Q 725 2200 725 1697 
Q 725 1184 976 792 
Q 1228 400 1656 400 
Q 1963 400 2206 609 
Q 2378 753 2541 1131 
L 2631 1088 
z
" transform="scale(0.015625)"/>
       <path id="TimesNewRomanPSMT-6f" d="M 1600 2947 
Q 2250 2947 2644 2453 
Q 2978 2031 2978 1484 
Q 2978 1100 2793 706 
Q 2609 313 2286 112 
Q 1963 -88 1566 -88 
Q 919 -88 538 428 
Q 216 863 216 1403 
Q 216 1797 411 2186 
Q 606 2575 925 2761 
Q 1244 2947 1600 2947 
z
M 1503 2744 
Q 1338 2744 1170 2645 
Q 1003 2547 900 2300 
Q 797 2053 797 1666 
Q 797 1041 1045 587 
Q 1294 134 1700 134 
Q 2003 134 2200 384 
Q 2397 634 2397 1244 
Q 2397 2006 2069 2444 
Q 1847 2744 1503 2744 
z
" transform="scale(0.015625)"/>
       <path id="TimesNewRomanPSMT-4c" d="M 3669 1172 
L 3772 1150 
L 3409 0 
L 128 0 
L 128 116 
L 288 116 
Q 556 116 672 291 
Q 738 391 738 753 
L 738 3488 
Q 738 3884 650 3984 
Q 528 4122 288 4122 
L 128 4122 
L 128 4238 
L 2047 4238 
L 2047 4122 
Q 1709 4125 1573 4059 
Q 1438 3994 1388 3894 
Q 1338 3794 1338 3416 
L 1338 753 
Q 1338 494 1388 397 
Q 1425 331 1503 300 
Q 1581 269 1991 269 
L 2300 269 
Q 2788 269 2984 341 
Q 3181 413 3343 595 
Q 3506 778 3669 1172 
z
" transform="scale(0.015625)"/>
       <path id="TimesNewRomanPSMT-73" d="M 2050 2947 
L 2050 1972 
L 1947 1972 
Q 1828 2431 1642 2597 
Q 1456 2763 1169 2763 
Q 950 2763 815 2647 
Q 681 2531 681 2391 
Q 681 2216 781 2091 
Q 878 1963 1175 1819 
L 1631 1597 
Q 2266 1288 2266 781 
Q 2266 391 1970 151 
Q 1675 -88 1309 -88 
Q 1047 -88 709 6 
Q 606 38 541 38 
Q 469 38 428 -44 
L 325 -44 
L 325 978 
L 428 978 
Q 516 541 762 319 
Q 1009 97 1316 97 
Q 1531 97 1667 223 
Q 1803 350 1803 528 
Q 1803 744 1651 891 
Q 1500 1038 1047 1263 
Q 594 1488 453 1669 
Q 313 1847 313 2119 
Q 313 2472 555 2709 
Q 797 2947 1181 2947 
Q 1350 2947 1591 2875 
Q 1750 2828 1803 2828 
Q 1853 2828 1881 2850 
Q 1909 2872 1947 2947 
L 2050 2947 
z
" transform="scale(0.015625)"/>
      </defs>
      <use xlink:href="#TimesNewRomanPSMT-41"/>
      <use xlink:href="#TimesNewRomanPSMT-63" x="72.216797"/>
      <use xlink:href="#TimesNewRomanPSMT-74" x="116.601562"/>
      <use xlink:href="#TimesNewRomanPSMT-6f" x="144.384766"/>
      <use xlink:href="#TimesNewRomanPSMT-72" x="194.384766"/>
      <use xlink:href="#TimesNewRomanPSMT-20" x="227.685547"/>
      <use xlink:href="#TimesNewRomanPSMT-4c" x="252.685547"/>
      <use xlink:href="#TimesNewRomanPSMT-6f" x="313.769531"/>
      <use xlink:href="#TimesNewRomanPSMT-73" x="363.769531"/>
      <use xlink:href="#TimesNewRomanPSMT-73" x="402.685547"/>
     </g>
    </g>
   </g>
   <g id="line2d_15">
    <path d="M 68.243 289 
L 68.691309 234.325825 
L 68.97003 244.347916 
L 69.806194 217.148939 
L 70.084915 200.3792 
L 70.363636 208.411513 
L 70.642358 202.822875 
L 70.921079 206.806236 
L 71.1998 201.041995 
L 71.478521 185.319218 
L 71.757243 192.748485 
L 72.314685 191.272071 
L 72.593407 186.045251 
L 72.872128 195.207946 
L 73.150849 187.626961 
L 73.42957 192.887309 
L 73.708292 186.845741 
L 73.987013 202.495251 
L 74.265734 162.092961 
L 74.544456 173.907644 
L 75.101898 172.665434 
L 75.659341 182.935971 
L 75.938062 174.033667 
L 76.216783 179.487476 
L 76.495504 188.431177 
L 76.774226 184.148851 
L 77.052947 169.353922 
L 77.889111 177.233689 
L 78.167832 163.113255 
L 78.446553 166.930446 
L 78.725275 148.600476 
L 79.003996 147.979393 
L 79.282717 155.415099 
L 79.561439 151.328336 
L 79.84016 159.331286 
L 80.118881 160.43387 
L 80.397602 141.828018 
L 80.676324 146.068264 
L 80.955045 156.662127 
L 81.233766 135.467153 
L 81.512488 172.778025 
L 81.791209 166.557477 
L 82.06993 155.807052 
L 82.348651 158.450473 
L 82.627373 162.692144 
L 82.906094 175.711418 
L 83.184815 177.872451 
L 83.463536 174.325489 
L 83.742258 183.653006 
L 84.2997 176.461893 
L 84.578422 184.883029 
L 84.857143 182.472832 
L 85.135864 186.953645 
L 85.414585 181.582995 
L 85.693307 186.479053 
L 85.972028 196.351598 
L 86.250749 195.897414 
L 86.529471 188.008091 
L 87.086913 195.585235 
L 87.365634 193.776707 
L 87.644356 184.979928 
L 87.923077 201.725651 
L 88.201798 192.569271 
L 88.480519 194.804101 
L 88.759241 195.372142 
L 89.037962 198.278244 
L 89.316683 206.212153 
L 89.595405 195.116954 
L 89.874126 197.036883 
L 90.152847 190.888169 
L 90.431568 190.1356 
L 90.71029 188.742273 
L 90.989011 198.015039 
L 91.267732 185.263371 
L 91.546454 185.455672 
L 91.825175 193.235069 
L 92.103896 184.667331 
L 92.382617 184.752588 
L 92.661339 183.299226 
L 92.94006 188.180495 
L 93.218781 179.877749 
L 93.497502 186.464708 
L 93.776224 186.53221 
L 94.054945 174.958179 
L 94.333666 181.969985 
L 94.612388 185.591685 
L 94.891109 175.722718 
L 95.16983 169.864495 
L 95.448551 170.961715 
L 95.727273 184.080437 
L 96.005994 179.774284 
L 96.284715 183.458194 
L 96.563437 174.551864 
L 96.842158 173.791275 
L 97.120879 180.47306 
L 97.3996 176.386426 
L 97.678322 179.449252 
L 97.957043 171.205761 
L 98.235764 172.695761 
L 98.514486 170.44292 
L 98.793207 164.411905 
L 99.071928 163.660782 
L 99.350649 173.129059 
L 99.629371 178.754859 
L 99.908092 179.454131 
L 100.186813 183.829415 
L 100.465534 174.742993 
L 100.744256 172.579179 
L 101.022977 176.715431 
L 101.301698 169.748271 
L 101.58042 173.478064 
L 101.859141 162.752567 
L 102.137862 160.066291 
L 102.416583 166.123257 
L 102.695305 168.5267 
L 102.974026 181.209583 
L 103.531469 168.770022 
L 103.81019 167.210209 
L 104.088911 163.816543 
L 104.367632 185.084656 
L 104.646354 191.65617 
L 104.925075 169.465165 
L 105.203796 161.64345 
L 105.482517 168.7997 
L 105.761239 181.583541 
L 106.03996 167.415963 
L 106.318681 168.142491 
L 106.597403 147.050966 
L 106.876124 162.912021 
L 107.154845 165.199112 
L 107.712288 151.053357 
L 107.991009 170.739978 
L 108.26973 160.032109 
L 108.548452 165.15502 
L 108.827173 156.352745 
L 109.105894 158.346743 
L 109.384615 164.537911 
L 109.663337 167.538933 
L 109.942058 163.00121 
L 110.220779 171.208618 
L 110.4995 153.298259 
L 110.778222 172.262829 
L 111.056943 161.158376 
L 111.335664 165.006474 
L 111.614386 160.017176 
L 111.893107 183.238214 
L 112.450549 160.528952 
L 113.007992 154.539342 
L 113.286713 171.458779 
L 113.844156 156.778675 
L 114.122877 175.385508 
L 114.401598 167.408919 
L 114.68032 168.760871 
L 114.959041 166.838349 
L 115.237762 154.289411 
L 115.516484 170.04405 
L 115.795205 160.890331 
L 116.073926 169.553757 
L 116.352647 171.170872 
L 116.91009 178.272378 
L 117.188811 177.856444 
L 117.467532 171.696822 
L 117.746254 178.824579 
L 118.024975 176.773586 
L 118.303696 166.593159 
L 118.582418 160.724498 
L 118.861139 170.767337 
L 119.976024 194.324638 
L 120.254745 188.468582 
L 120.533467 172.524683 
L 120.812188 170.625298 
L 121.090909 177.945914 
L 121.36963 178.453963 
L 121.648352 175.914758 
L 121.927073 184.169166 
L 122.205794 187.690778 
L 122.484515 184.435386 
L 122.763237 177.167441 
L 123.041958 189.044542 
L 123.320679 189.075308 
L 123.599401 187.009531 
L 123.878122 191.006772 
L 124.156843 186.167002 
L 124.435564 184.498547 
L 124.714286 187.428246 
L 124.993007 186.782815 
L 125.271728 196.199214 
L 125.55045 193.369646 
L 125.829171 188.160224 
L 126.107892 194.876672 
L 126.386613 187.7588 
L 126.665335 192.566116 
L 126.944056 184.954053 
L 127.222777 187.776483 
L 127.501499 189.146302 
L 127.78022 185.950088 
L 128.058941 185.439945 
L 128.337662 181.745315 
L 128.616384 188.373363 
L 128.895105 173.991759 
L 129.173826 177.162247 
L 129.452547 174.74005 
L 129.731269 163.342087 
L 130.00999 179.171144 
L 130.288711 172.70376 
L 130.567433 179.028977 
L 130.846154 167.285599 
L 131.124875 178.722691 
L 131.403596 183.682898 
L 131.682318 179.981633 
L 131.961039 191.160529 
L 132.23976 190.579947 
L 132.518482 175.71407 
L 132.797203 177.901601 
L 133.075924 181.916879 
L 133.354645 180.753122 
L 133.633367 192.738145 
L 133.912088 184.672755 
L 134.190809 184.242006 
L 134.46953 177.572058 
L 134.748252 199.308832 
L 135.026973 197.839807 
L 135.305694 197.727391 
L 135.584416 199.448999 
L 135.863137 183.393976 
L 136.141858 174.189914 
L 136.420579 189.840337 
L 136.699301 189.537159 
L 136.978022 183.897599 
L 137.256743 200.387515 
L 137.814186 187.992753 
L 138.092907 197.623282 
L 138.371628 180.809801 
L 138.65035 188.736167 
L 138.929071 190.083556 
L 139.207792 185.924746 
L 139.486513 189.001764 
L 139.765235 196.973266 
L 140.322677 190.230627 
L 140.601399 194.001948 
L 140.88012 193.550263 
L 141.158841 185.995544 
L 141.437562 189.028867 
L 141.716284 198.971302 
L 142.273726 188.761018 
L 142.552448 188.190201 
L 142.831169 182.556648 
L 143.10989 197.218933 
L 143.388611 173.919925 
L 143.946054 192.496499 
L 144.224775 184.939047 
L 144.503497 186.973781 
L 144.782218 178.220151 
L 145.060939 186.977085 
L 145.618382 180.154809 
L 145.897103 166.10429 
L 146.175824 164.778213 
L 146.454545 166.308109 
L 146.733267 169.420528 
L 147.011988 169.909107 
L 147.290709 186.762027 
L 147.569431 182.640703 
L 147.848152 189.678039 
L 148.126873 170.559127 
L 148.405594 182.979747 
L 148.684316 170.08062 
L 148.963037 187.542897 
L 149.241758 180.271894 
L 149.52048 190.250029 
L 149.799201 191.445588 
L 150.077922 184.023434 
L 150.356643 179.563788 
L 150.635365 188.544134 
L 150.914086 173.179726 
L 151.192807 186.201755 
L 151.471528 173.123192 
L 152.028971 194.170532 
L 152.307692 192.131679 
L 152.586414 194.824236 
L 152.865135 183.544594 
L 153.143856 195.06505 
L 153.422577 198.292908 
L 153.701299 207.146942 
L 153.98002 187.725467 
L 154.258741 191.114962 
L 154.537463 198.386234 
L 154.816184 200.746476 
L 155.373626 213.617635 
L 155.652348 194.927727 
L 155.931069 192.606894 
L 156.20979 199.738493 
L 156.488511 187.195274 
L 156.767233 188.052421 
L 157.045954 192.770433 
L 157.324675 193.623056 
L 157.603397 194.050555 
L 157.882118 197.614664 
L 158.160839 205.73064 
L 158.43956 191.331032 
L 158.718282 209.772565 
L 158.997003 212.433631 
L 159.275724 190.910458 
L 159.554446 198.297202 
L 159.833167 201.629511 
L 160.111888 201.901565 
L 160.390609 207.509609 
L 160.669331 201.505676 
L 160.948052 208.239953 
L 161.226773 193.361748 
L 161.505495 218.423744 
L 161.784216 212.266037 
L 162.062937 188.986959 
L 162.341658 191.850871 
L 162.899101 184.227406 
L 163.177822 205.306454 
L 163.456543 187.535601 
L 163.735265 177.105926 
L 164.013986 194.7833 
L 164.292707 190.738795 
L 164.571429 189.773428 
L 164.85015 175.94152 
L 165.128871 182.188907 
L 165.407592 170.193961 
L 165.965035 207.689216 
L 166.243756 198.414932 
L 166.522478 195.120953 
L 166.801199 199.61873 
L 167.637363 183.338627 
L 167.916084 183.864884 
L 168.473526 191.446654 
L 168.752248 189.587122 
L 169.030969 203.263188 
L 169.30969 195.360872 
L 169.588412 201.184964 
L 169.867133 213.296462 
L 170.424575 189.091034 
L 170.703297 199.067532 
L 170.982018 213.403506 
L 171.260739 198.263908 
L 171.539461 195.805884 
L 171.818182 180.878718 
L 172.096903 185.697944 
L 172.375624 193.64019 
L 172.654346 191.835205 
L 172.933067 200.786278 
L 173.211788 228.142784 
L 173.769231 197.838106 
L 174.047952 203.605796 
L 174.326673 191.406802 
L 174.605395 196.358528 
L 174.884116 183.105104 
L 175.162837 195.278633 
L 175.441558 182.650716 
L 175.72028 176.024816 
L 175.999001 173.194275 
L 176.277722 172.701748 
L 176.556444 178.686283 
L 176.835165 177.57512 
L 177.113886 171.739617 
L 177.392607 193.293658 
L 177.671329 158.707951 
L 177.95005 165.573343 
L 178.228771 175.259655 
L 178.507493 172.471654 
L 178.786214 167.132158 
L 179.064935 156.85954 
L 179.343656 156.504958 
L 179.622378 155.582049 
L 179.901099 169.450616 
L 180.17982 156.424493 
L 180.458541 153.685333 
L 181.015984 167.096663 
L 181.294705 163.124598 
L 181.573427 161.939946 
L 181.852148 152.826105 
L 182.130869 160.673695 
L 182.40959 159.46107 
L 182.688312 138.586932 
L 182.967033 155.141015 
L 183.245754 95.702751 
L 183.524476 102.895605 
L 183.803197 116.305433 
L 184.360639 113.843631 
L 184.639361 111.942532 
L 184.918082 91.161182 
L 185.196803 88.480236 
L 185.475524 89.192146 
L 185.754246 85.54762 
L 186.032967 96.608544 
L 186.311688 119.702979 
L 186.59041 86.317318 
L 186.869131 99.359883 
L 187.147852 105.50945 
L 187.426573 122.659705 
L 187.705295 87.83877 
L 187.984016 111.593792 
L 188.262737 89.064887 
L 188.541459 112.879095 
L 188.82018 117.085945 
L 189.098901 139.863263 
L 189.377622 130.369563 
L 189.656344 137.00214 
L 189.935065 134.850214 
L 190.213786 117.248043 
L 190.492507 138.872102 
L 190.771229 137.939905 
L 191.328671 117.770573 
L 191.607393 120.961043 
L 191.886114 130.911555 
L 192.164835 158.712966 
L 192.443556 144.447901 
L 192.722278 142.079705 
L 193.000999 132.402638 
L 193.27972 153.122089 
L 193.558442 142.111772 
L 193.837163 162.186807 
L 194.115884 147.239919 
L 194.394605 152.025688 
L 194.673327 167.693458 
L 194.952048 161.992327 
L 195.230769 148.870261 
L 195.509491 148.96432 
L 195.788212 173.945032 
L 196.066933 170.266801 
L 196.345654 172.924994 
L 196.624376 163.074622 
L 196.903097 176.785312 
L 197.181818 183.154961 
L 197.460539 176.623803 
L 197.739261 177.401586 
L 198.017982 166.659979 
L 198.296703 161.763205 
L 198.575425 158.98959 
L 198.854146 148.732904 
L 199.132867 149.089754 
L 199.411588 143.894941 
L 199.69031 157.381107 
L 199.969031 142.69968 
L 200.247752 149.351113 
L 200.526474 134.819743 
L 200.805195 142.135523 
L 201.362637 139.873548 
L 201.641359 133.112569 
L 201.92008 157.039147 
L 202.198801 147.531042 
L 202.477522 162.175182 
L 202.756244 143.588118 
L 203.034965 147.579645 
L 203.313686 153.952048 
L 203.592408 157.703972 
L 203.871129 129.584915 
L 204.14985 147.882119 
L 204.428571 132.932485 
L 204.986014 179.219184 
L 205.264735 159.279954 
L 205.543457 181.555006 
L 205.822178 190.234303 
L 206.100899 194.666726 
L 206.37962 204.838859 
L 206.658342 186.09556 
L 206.937063 182.728366 
L 207.215784 191.533882 
L 207.494505 193.41201 
L 207.773227 175.425054 
L 208.051948 173.523443 
L 208.330669 170.571953 
L 208.609391 193.807566 
L 208.888112 196.968179 
L 209.166833 223.345629 
L 209.445554 228.888786 
L 209.724276 168.616478 
L 210.002997 156.378765 
L 210.281718 156.203064 
L 210.56044 173.74158 
L 210.839161 179.054391 
L 211.396603 163.47124 
L 211.675325 176.443292 
L 211.954046 178.944478 
L 212.232767 172.404945 
L 212.511489 183.711093 
L 212.79021 167.533142 
L 213.068931 177.920653 
L 213.347652 165.230948 
L 213.626374 169.05798 
L 213.905095 160.242102 
L 214.462537 180.060955 
L 214.741259 174.73936 
L 215.01998 179.547874 
L 215.298701 171.990887 
L 215.577423 156.864316 
L 215.856144 181.483973 
L 216.134865 182.484609 
L 216.413586 191.452266 
L 216.692308 195.613489 
L 217.24975 177.557645 
L 217.528472 200.56209 
L 218.085914 178.67129 
L 218.364635 199.168861 
L 218.643357 202.41642 
L 218.922078 200.016081 
L 219.200799 178.421351 
L 219.47952 175.370251 
L 219.758242 174.476918 
L 220.036963 183.779942 
L 220.315684 179.491297 
L 220.594406 189.847586 
L 220.873127 180.145982 
L 221.151848 184.908686 
L 221.430569 169.699267 
L 221.709291 164.905038 
L 221.988012 164.635492 
L 222.266733 191.438587 
L 222.545455 160.443788 
L 222.824176 168.278552 
L 223.102897 170.719186 
L 223.381618 161.431573 
L 223.66034 183.249165 
L 223.939061 165.240866 
L 224.217782 176.492757 
L 224.496503 163.875431 
L 225.053946 153.816473 
L 225.332667 151.708298 
L 225.611389 131.811403 
L 225.89011 158.130175 
L 226.168831 164.011304 
L 226.447552 164.522765 
L 226.726274 132.835279 
L 227.283716 138.760816 
L 227.562438 147.167838 
L 227.841159 148.212079 
L 228.11988 159.445958 
L 228.398601 150.126841 
L 228.677323 148.657573 
L 228.956044 123.044205 
L 229.234765 131.971736 
L 229.513487 132.004433 
L 229.792208 121.71371 
L 230.34965 130.18107 
L 230.628372 141.043659 
L 230.907093 124.788366 
L 231.185814 134.339538 
L 231.464535 106.625159 
L 231.743257 146.237321 
L 232.300699 124.899831 
L 232.579421 124.856984 
L 233.136863 134.079015 
L 233.415584 130.075242 
L 233.694306 121.557309 
L 233.973027 120.495926 
L 234.251748 136.731852 
L 234.53047 136.475968 
L 234.809191 144.992169 
L 235.087912 131.337544 
L 235.366633 126.167199 
L 235.645355 137.795563 
L 235.924076 131.284208 
L 236.202797 154.007431 
L 236.481518 140.202324 
L 236.76024 152.209781 
L 237.038961 154.711819 
L 237.317682 143.038323 
L 237.596404 141.524665 
L 237.875125 152.01229 
L 238.153846 152.082035 
L 238.432567 129.966344 
L 238.99001 153.0752 
L 239.268731 150.248523 
L 239.547453 150.096343 
L 239.826174 149.768216 
L 240.104895 146.576672 
L 240.662338 206.289309 
L 240.941059 189.384566 
L 241.498501 198.410791 
L 241.777223 195.921225 
L 242.055944 186.244993 
L 242.334665 159.091112 
L 242.892108 181.967486 
L 243.170829 184.861657 
L 243.44955 178.621391 
L 243.728272 183.709455 
L 244.006993 178.840885 
L 244.285714 171.836908 
L 245.121878 186.261828 
L 245.400599 180.745207 
L 245.958042 175.863622 
L 246.236763 152.434365 
L 246.515485 147.449153 
L 246.794206 170.094666 
L 247.072927 171.171759 
L 247.351648 167.010305 
L 247.63037 135.575599 
L 248.187812 156.964387 
L 248.466533 136.44304 
L 248.745255 164.857638 
L 249.023976 148.57119 
L 249.302697 150.13774 
L 249.581419 130.170179 
L 249.86014 147.193286 
L 250.138861 143.950631 
L 250.417582 155.80631 
L 250.696304 152.763644 
L 250.975025 137.805337 
L 251.253746 153.562005 
L 251.532468 148.584102 
L 251.811189 140.843201 
L 252.08991 147.328784 
L 252.368631 138.951424 
L 252.647353 139.962874 
L 252.926074 137.068106 
L 253.204795 120.272501 
L 253.483516 142.11497 
L 253.762238 131.36695 
L 254.040959 145.941994 
L 254.31968 138.505282 
L 254.598402 125.687413 
L 254.877123 124.608213 
L 255.155844 138.961001 
L 255.434565 128.528495 
L 255.713287 135.276562 
L 255.992008 135.427053 
L 257.106893 101.083422 
L 257.664336 92.826371 
L 258.221778 112.841502 
L 258.5005 97.484232 
L 258.779221 100.273709 
L 259.057942 94.189981 
L 259.336663 101.80311 
L 259.615385 104.820805 
L 259.894106 109.183928 
L 260.172827 89.588423 
L 260.451548 83.264128 
L 260.73027 92.883169 
L 261.008991 108.600761 
L 261.845155 74.421914 
L 262.123876 74.424166 
L 262.402597 72.644561 
L 262.681319 79.975267 
L 262.96004 71.471627 
L 263.238761 74.865507 
L 263.796204 77.939642 
L 264.353646 59.758014 
L 264.632368 71.023277 
L 264.911089 57.987023 
L 265.18981 61.537362 
L 265.747253 52.911615 
L 266.025974 53.917257 
L 266.304695 64.785032 
L 266.583417 54.153696 
L 266.862138 59.090314 
L 267.140859 54.081427 
L 267.41958 54.933816 
L 267.698302 55.012618 
L 267.977023 51.391373 
L 268.255744 43.263492 
L 268.534466 42.327526 
L 268.813187 55.492114 
L 269.091908 39.684054 
L 269.370629 37.35456 
L 269.649351 43.961143 
L 269.928072 41.366776 
L 270.206793 47.147732 
L 270.485514 49.745698 
L 270.764236 57.684472 
L 271.042957 53.896499 
L 271.321678 58.929743 
L 271.6004 49.95372 
L 271.879121 45.571733 
L 272.157842 66.338585 
L 272.436563 65.16647 
L 272.715285 71.140387 
L 272.994006 69.048953 
L 273.272727 49.251976 
L 273.551449 52.116912 
L 273.83017 70.173736 
L 274.108891 65.059525 
L 274.387612 63.383454 
L 274.666334 56.472478 
L 274.945055 55.593174 
L 275.502498 64.100532 
L 275.781219 40.690412 
L 276.05994 47.139545 
L 276.338661 60.860572 
L 276.617383 51.571509 
L 277.174825 68.461778 
L 277.732268 56.578775 
L 278.010989 59.491453 
L 278.28971 76.732543 
L 278.568432 63.172668 
L 278.847153 74.437709 
L 279.125874 78.822289 
L 279.404595 86.534159 
L 279.683317 82.046454 
L 279.962038 82.247365 
L 280.240759 90.195384 
L 280.519481 91.700155 
L 280.798202 105.80221 
L 281.076923 107.531548 
L 281.355644 119.578585 
L 281.913087 104.190613 
L 282.191808 99.94339 
L 282.470529 106.710527 
L 282.749251 93.669651 
L 283.306693 120.328182 
L 283.585415 118.677935 
L 283.864136 111.233471 
L 284.142857 134.369848 
L 284.421578 128.580952 
L 284.7003 115.287007 
L 285.257742 130.98066 
L 285.536464 120.254864 
L 286.372627 161.141925 
L 286.651349 161.828907 
L 286.93007 160.36746 
L 287.208791 155.552481 
L 287.487512 145.49366 
L 287.766234 143.934231 
L 288.044955 156.879531 
L 288.323676 150.151419 
L 288.602398 140.152595 
L 288.881119 140.48653 
L 289.15984 145.960279 
L 289.438561 128.565985 
L 289.717283 124.653746 
L 289.996004 118.266623 
L 290.274725 137.10836 
L 290.553447 125.78206 
L 290.832168 128.743818 
L 291.668332 145.837556 
L 291.947053 168.328476 
L 292.225774 178.739662 
L 292.504496 173.253547 
L 292.783217 144.031198 
L 293.061938 126.938602 
L 293.340659 141.197587 
L 293.619381 124.323265 
L 293.898102 126.507521 
L 294.176823 110.873149 
L 294.455544 104.738882 
L 294.734266 90.974037 
L 295.012987 87.972835 
L 295.291708 96.02345 
L 295.57043 87.184631 
L 295.849151 92.100201 
L 296.127872 99.709373 
L 296.406593 98.557197 
L 296.685315 101.898798 
L 297.242757 91.892315 
L 297.521479 123.623406 
L 297.8002 117.438258 
L 298.078921 123.287134 
L 298.357642 111.334258 
L 298.636364 125.56301 
L 299.193806 138.849297 
L 299.472527 132.190427 
L 299.751249 116.249453 
L 300.02997 127.628262 
L 300.308691 118.255664 
L 300.587413 116.722349 
L 301.144855 111.20154 
L 301.423576 122.722244 
L 301.702298 128.599774 
L 301.981019 130.126489 
L 302.538462 146.552255 
L 302.817183 147.807393 
L 303.095904 133.860827 
L 303.374625 143.540573 
L 303.653347 139.255979 
L 303.932068 140.556394 
L 304.210789 133.128977 
L 304.48951 136.298937 
L 304.768232 131.986319 
L 305.046953 137.736658 
L 305.325674 138.6351 
L 305.604396 136.294374 
L 305.883117 138.332754 
L 306.161838 124.435208 
L 306.440559 131.275808 
L 306.719281 124.155479 
L 306.998002 113.75434 
L 307.276723 98.266688 
L 307.555445 114.870032 
L 307.834166 115.391385 
L 308.112887 107.96054 
L 308.391608 109.377606 
L 308.67033 117.536769 
L 309.227772 106.592615 
L 309.506494 119.598115 
L 309.785215 119.172552 
L 310.063936 121.782926 
L 310.342657 105.357134 
L 310.621379 123.327703 
L 310.9001 120.308763 
L 311.178821 112.575606 
L 311.457542 131.347974 
L 311.736264 130.204855 
L 312.014985 128.005001 
L 312.293706 127.364362 
L 312.572428 127.533649 
L 312.851149 125.798315 
L 313.12987 115.167798 
L 313.408591 129.463949 
L 313.687313 119.020373 
L 314.244755 132.526759 
L 314.523477 131.148036 
L 314.802198 160.615446 
L 315.080919 147.167497 
L 315.35964 148.095446 
L 315.638362 150.965755 
L 315.917083 159.383062 
L 316.195804 176.043212 
L 316.474525 163.441391 
L 316.753247 167.588926 
L 317.031968 162.6206 
L 317.310689 163.02294 
L 317.589411 156.517265 
L 317.868132 165.202207 
L 318.146853 160.974642 
L 318.425574 166.456237 
L 318.704296 150.647836 
L 318.983017 168.681549 
L 319.261738 173.341866 
L 319.54046 163.682725 
L 319.819181 176.278781 
L 320.097902 168.870792 
L 320.376623 172.404459 
L 320.655345 165.206446 
L 320.934066 170.337186 
L 321.491508 172.866413 
L 321.77023 169.282761 
L 322.048951 176.294456 
L 322.327672 169.165855 
L 322.606394 168.468989 
L 323.163836 181.714809 
L 323.442557 183.737957 
L 323.721279 184.377427 
L 323.721279 184.377427 
" clip-path="url(#p5af1539b89)" style="fill: none; stroke: #0000ff; stroke-width: 1.5; stroke-linecap: square"/>
   </g>
   <g id="patch_3">
    <path d="M 45 256.32 
L 45 34.56 
" style="fill: none; stroke: #000000; stroke-width: 0.8; stroke-linejoin: miter; stroke-linecap: square"/>
   </g>
   <g id="patch_4">
    <path d="M 324 256.32 
L 324 34.56 
" style="fill: none; stroke: #000000; stroke-width: 0.8; stroke-linejoin: miter; stroke-linecap: square"/>
   </g>
   <g id="patch_5">
    <path d="M 45 256.32 
L 324 256.32 
" style="fill: none; stroke: #000000; stroke-width: 0.8; stroke-linejoin: miter; stroke-linecap: square"/>
   </g>
   <g id="patch_6">
    <path d="M 45 34.56 
L 324 34.56 
" style="fill: none; stroke: #000000; stroke-width: 0.8; stroke-linejoin: miter; stroke-linecap: square"/>
   </g>
  </g>
 </g>
 <defs>
  <clipPath id="p5af1539b89">
   <rect x="45" y="34.56" width="279" height="221.76"/>
  </clipPath>
 </defs>
</svg>
