<?xml version="1.0" encoding="utf-8" standalone="no"?>
<!DOCTYPE svg PUBLIC "-//W3C//DTD SVG 1.1//EN"
  "http://www.w3.org/Graphics/SVG/1.1/DTD/svg11.dtd">
<svg xmlns:xlink="http://www.w3.org/1999/xlink" width="360pt" height="288pt" viewBox="0 0 360 288" xmlns="http://www.w3.org/2000/svg" version="1.1">
 <metadata>
  <rdf:RDF xmlns:dc="http://purl.org/dc/elements/1.1/" xmlns:cc="http://creativecommons.org/ns#" xmlns:rdf="http://www.w3.org/1999/02/22-rdf-syntax-ns#">
   <cc:Work>
    <dc:type rdf:resource="http://purl.org/dc/dcmitype/StillImage"/>
    <dc:date>2025-06-13T17:07:34.605076</dc:date>
    <dc:format>image/svg+xml</dc:format>
    <dc:creator>
     <cc:Agent>
      <dc:title>Matplotlib v3.5.1, https://matplotlib.org/</dc:title>
     </cc:Agent>
    </dc:creator>
   </cc:Work>
  </rdf:RDF>
 </metadata>
 <defs>
  <style type="text/css">*{stroke-linejoin: round; stroke-linecap: butt}</style>
 </defs>
 <g id="figure_1">
  <g id="patch_1">
   <path d="M 0 288 
L 360 288 
L 360 0 
L 0 0 
z
" style="fill: #ffffff"/>
  </g>
  <g id="axes_1">
   <g id="patch_2">
    <path d="M 45 256.32 
L 324 256.32 
L 324 34.56 
L 45 34.56 
z
" style="fill: #ffffff"/>
   </g>
   <g id="matplotlib.axis_1">
    <g id="xtick_1">
     <g id="line2d_1">
      <defs>
       <path id="m1aa19f862e" d="M 0 0 
L 0 3.5 
" style="stroke: #000000; stroke-width: 0.8"/>
      </defs>
      <g>
       <use xlink:href="#m1aa19f862e" x="45" y="256.32" style="stroke: #000000; stroke-width: 0.8"/>
      </g>
     </g>
     <g id="text_1">
      <!-- 0 -->
      <g transform="translate(42.5 270.26375)scale(0.1 -0.1)">
       <defs>
        <path id="TimesNewRomanPSMT-30" d="M 231 2094 
Q 231 2819 450 3342 
Q 669 3866 1031 4122 
Q 1313 4325 1613 4325 
Q 2100 4325 2488 3828 
Q 2972 3213 2972 2159 
Q 2972 1422 2759 906 
Q 2547 391 2217 158 
Q 1888 -75 1581 -75 
Q 975 -75 572 641 
Q 231 1244 231 2094 
z
M 844 2016 
Q 844 1141 1059 588 
Q 1238 122 1591 122 
Q 1759 122 1940 273 
Q 2122 425 2216 781 
Q 2359 1319 2359 2297 
Q 2359 3022 2209 3506 
Q 2097 3866 1919 4016 
Q 1791 4119 1609 4119 
Q 1397 4119 1231 3928 
Q 1006 3669 925 3112 
Q 844 2556 844 2016 
z
" transform="scale(0.015625)"/>
       </defs>
       <use xlink:href="#TimesNewRomanPSMT-30"/>
      </g>
     </g>
    </g>
    <g id="xtick_2">
     <g id="line2d_2">
      <g>
       <use xlink:href="#m1aa19f862e" x="100.744256" y="256.32" style="stroke: #000000; stroke-width: 0.8"/>
      </g>
     </g>
     <g id="text_2">
      <!-- 200 -->
      <g transform="translate(93.244256 270.26375)scale(0.1 -0.1)">
       <defs>
        <path id="TimesNewRomanPSMT-32" d="M 2934 816 
L 2638 0 
L 138 0 
L 138 116 
Q 1241 1122 1691 1759 
Q 2141 2397 2141 2925 
Q 2141 3328 1894 3587 
Q 1647 3847 1303 3847 
Q 991 3847 742 3664 
Q 494 3481 375 3128 
L 259 3128 
Q 338 3706 661 4015 
Q 984 4325 1469 4325 
Q 1984 4325 2329 3994 
Q 2675 3663 2675 3213 
Q 2675 2891 2525 2569 
Q 2294 2063 1775 1497 
Q 997 647 803 472 
L 1909 472 
Q 2247 472 2383 497 
Q 2519 522 2628 598 
Q 2738 675 2819 816 
L 2934 816 
z
" transform="scale(0.015625)"/>
       </defs>
       <use xlink:href="#TimesNewRomanPSMT-32"/>
       <use xlink:href="#TimesNewRomanPSMT-30" x="50"/>
       <use xlink:href="#TimesNewRomanPSMT-30" x="100"/>
      </g>
     </g>
    </g>
    <g id="xtick_3">
     <g id="line2d_3">
      <g>
       <use xlink:href="#m1aa19f862e" x="156.488511" y="256.32" style="stroke: #000000; stroke-width: 0.8"/>
      </g>
     </g>
     <g id="text_3">
      <!-- 400 -->
      <g transform="translate(148.988511 270.26375)scale(0.1 -0.1)">
       <defs>
        <path id="TimesNewRomanPSMT-34" d="M 2978 1563 
L 2978 1119 
L 2409 1119 
L 2409 0 
L 1894 0 
L 1894 1119 
L 100 1119 
L 100 1519 
L 2066 4325 
L 2409 4325 
L 2409 1563 
L 2978 1563 
z
M 1894 1563 
L 1894 3666 
L 406 1563 
L 1894 1563 
z
" transform="scale(0.015625)"/>
       </defs>
       <use xlink:href="#TimesNewRomanPSMT-34"/>
       <use xlink:href="#TimesNewRomanPSMT-30" x="50"/>
       <use xlink:href="#TimesNewRomanPSMT-30" x="100"/>
      </g>
     </g>
    </g>
    <g id="xtick_4">
     <g id="line2d_4">
      <g>
       <use xlink:href="#m1aa19f862e" x="212.232767" y="256.32" style="stroke: #000000; stroke-width: 0.8"/>
      </g>
     </g>
     <g id="text_4">
      <!-- 600 -->
      <g transform="translate(204.732767 270.26375)scale(0.1 -0.1)">
       <defs>
        <path id="TimesNewRomanPSMT-36" d="M 2869 4325 
L 2869 4209 
Q 2456 4169 2195 4045 
Q 1934 3922 1679 3669 
Q 1425 3416 1258 3105 
Q 1091 2794 978 2366 
Q 1428 2675 1881 2675 
Q 2316 2675 2634 2325 
Q 2953 1975 2953 1425 
Q 2953 894 2631 456 
Q 2244 -75 1606 -75 
Q 1172 -75 869 213 
Q 275 772 275 1663 
Q 275 2231 503 2743 
Q 731 3256 1154 3653 
Q 1578 4050 1965 4187 
Q 2353 4325 2688 4325 
L 2869 4325 
z
M 925 2138 
Q 869 1716 869 1456 
Q 869 1156 980 804 
Q 1091 453 1309 247 
Q 1469 100 1697 100 
Q 1969 100 2183 356 
Q 2397 613 2397 1088 
Q 2397 1622 2184 2012 
Q 1972 2403 1581 2403 
Q 1463 2403 1327 2353 
Q 1191 2303 925 2138 
z
" transform="scale(0.015625)"/>
       </defs>
       <use xlink:href="#TimesNewRomanPSMT-36"/>
       <use xlink:href="#TimesNewRomanPSMT-30" x="50"/>
       <use xlink:href="#TimesNewRomanPSMT-30" x="100"/>
      </g>
     </g>
    </g>
    <g id="xtick_5">
     <g id="line2d_5">
      <g>
       <use xlink:href="#m1aa19f862e" x="267.977023" y="256.32" style="stroke: #000000; stroke-width: 0.8"/>
      </g>
     </g>
     <g id="text_5">
      <!-- 800 -->
      <g transform="translate(260.477023 270.26375)scale(0.1 -0.1)">
       <defs>
        <path id="TimesNewRomanPSMT-38" d="M 1228 2134 
Q 725 2547 579 2797 
Q 434 3047 434 3316 
Q 434 3728 753 4026 
Q 1072 4325 1600 4325 
Q 2113 4325 2425 4047 
Q 2738 3769 2738 3413 
Q 2738 3175 2569 2928 
Q 2400 2681 1866 2347 
Q 2416 1922 2594 1678 
Q 2831 1359 2831 1006 
Q 2831 559 2490 242 
Q 2150 -75 1597 -75 
Q 994 -75 656 303 
Q 388 606 388 966 
Q 388 1247 577 1523 
Q 766 1800 1228 2134 
z
M 1719 2469 
Q 2094 2806 2194 3001 
Q 2294 3197 2294 3444 
Q 2294 3772 2109 3958 
Q 1925 4144 1606 4144 
Q 1288 4144 1088 3959 
Q 888 3775 888 3528 
Q 888 3366 970 3203 
Q 1053 3041 1206 2894 
L 1719 2469 
z
M 1375 2016 
Q 1116 1797 991 1539 
Q 866 1281 866 981 
Q 866 578 1086 336 
Q 1306 94 1647 94 
Q 1984 94 2187 284 
Q 2391 475 2391 747 
Q 2391 972 2272 1150 
Q 2050 1481 1375 2016 
z
" transform="scale(0.015625)"/>
       </defs>
       <use xlink:href="#TimesNewRomanPSMT-38"/>
       <use xlink:href="#TimesNewRomanPSMT-30" x="50"/>
       <use xlink:href="#TimesNewRomanPSMT-30" x="100"/>
      </g>
     </g>
    </g>
    <g id="xtick_6">
     <g id="line2d_6">
      <g>
       <use xlink:href="#m1aa19f862e" x="323.721279" y="256.32" style="stroke: #000000; stroke-width: 0.8"/>
      </g>
     </g>
     <g id="text_6">
      <!-- 1000 -->
      <g transform="translate(313.721279 270.26375)scale(0.1 -0.1)">
       <defs>
        <path id="TimesNewRomanPSMT-31" d="M 750 3822 
L 1781 4325 
L 1884 4325 
L 1884 747 
Q 1884 391 1914 303 
Q 1944 216 2037 169 
Q 2131 122 2419 116 
L 2419 0 
L 825 0 
L 825 116 
Q 1125 122 1212 167 
Q 1300 213 1334 289 
Q 1369 366 1369 747 
L 1369 3034 
Q 1369 3497 1338 3628 
Q 1316 3728 1258 3775 
Q 1200 3822 1119 3822 
Q 1003 3822 797 3725 
L 750 3822 
z
" transform="scale(0.015625)"/>
       </defs>
       <use xlink:href="#TimesNewRomanPSMT-31"/>
       <use xlink:href="#TimesNewRomanPSMT-30" x="50"/>
       <use xlink:href="#TimesNewRomanPSMT-30" x="100"/>
       <use xlink:href="#TimesNewRomanPSMT-30" x="150"/>
      </g>
     </g>
    </g>
    <g id="text_7">
     <!-- Train Step -->
     <g transform="translate(163.708594 283.346563)scale(0.1 -0.1)">
      <defs>
       <path id="TimesNewRomanPSMT-54" d="M 3703 4238 
L 3750 3244 
L 3631 3244 
Q 3597 3506 3538 3619 
Q 3441 3800 3280 3886 
Q 3119 3972 2856 3972 
L 2259 3972 
L 2259 734 
Q 2259 344 2344 247 
Q 2463 116 2709 116 
L 2856 116 
L 2856 0 
L 1059 0 
L 1059 116 
L 1209 116 
Q 1478 116 1591 278 
Q 1659 378 1659 734 
L 1659 3972 
L 1150 3972 
Q 853 3972 728 3928 
Q 566 3869 450 3700 
Q 334 3531 313 3244 
L 194 3244 
L 244 4238 
L 3703 4238 
z
" transform="scale(0.015625)"/>
       <path id="TimesNewRomanPSMT-72" d="M 1038 2947 
L 1038 2303 
Q 1397 2947 1775 2947 
Q 1947 2947 2059 2842 
Q 2172 2738 2172 2600 
Q 2172 2478 2090 2393 
Q 2009 2309 1897 2309 
Q 1788 2309 1652 2417 
Q 1516 2525 1450 2525 
Q 1394 2525 1328 2463 
Q 1188 2334 1038 2041 
L 1038 669 
Q 1038 431 1097 309 
Q 1138 225 1241 169 
Q 1344 113 1538 113 
L 1538 0 
L 72 0 
L 72 113 
Q 291 113 397 181 
Q 475 231 506 341 
Q 522 394 522 644 
L 522 1753 
Q 522 2253 501 2348 
Q 481 2444 426 2487 
Q 372 2531 291 2531 
Q 194 2531 72 2484 
L 41 2597 
L 906 2947 
L 1038 2947 
z
" transform="scale(0.015625)"/>
       <path id="TimesNewRomanPSMT-61" d="M 1822 413 
Q 1381 72 1269 19 
Q 1100 -59 909 -59 
Q 613 -59 420 144 
Q 228 347 228 678 
Q 228 888 322 1041 
Q 450 1253 767 1440 
Q 1084 1628 1822 1897 
L 1822 2009 
Q 1822 2438 1686 2597 
Q 1550 2756 1291 2756 
Q 1094 2756 978 2650 
Q 859 2544 859 2406 
L 866 2225 
Q 866 2081 792 2003 
Q 719 1925 600 1925 
Q 484 1925 411 2006 
Q 338 2088 338 2228 
Q 338 2497 613 2722 
Q 888 2947 1384 2947 
Q 1766 2947 2009 2819 
Q 2194 2722 2281 2516 
Q 2338 2381 2338 1966 
L 2338 994 
Q 2338 584 2353 492 
Q 2369 400 2405 369 
Q 2441 338 2488 338 
Q 2538 338 2575 359 
Q 2641 400 2828 588 
L 2828 413 
Q 2478 -56 2159 -56 
Q 2006 -56 1915 50 
Q 1825 156 1822 413 
z
M 1822 616 
L 1822 1706 
Q 1350 1519 1213 1441 
Q 966 1303 859 1153 
Q 753 1003 753 825 
Q 753 600 887 451 
Q 1022 303 1197 303 
Q 1434 303 1822 616 
z
" transform="scale(0.015625)"/>
       <path id="TimesNewRomanPSMT-69" d="M 928 4444 
Q 1059 4444 1151 4351 
Q 1244 4259 1244 4128 
Q 1244 3997 1151 3903 
Q 1059 3809 928 3809 
Q 797 3809 703 3903 
Q 609 3997 609 4128 
Q 609 4259 701 4351 
Q 794 4444 928 4444 
z
M 1188 2947 
L 1188 647 
Q 1188 378 1227 289 
Q 1266 200 1342 156 
Q 1419 113 1622 113 
L 1622 0 
L 231 0 
L 231 113 
Q 441 113 512 153 
Q 584 194 626 287 
Q 669 381 669 647 
L 669 1750 
Q 669 2216 641 2353 
Q 619 2453 572 2492 
Q 525 2531 444 2531 
Q 356 2531 231 2484 
L 188 2597 
L 1050 2947 
L 1188 2947 
z
" transform="scale(0.015625)"/>
       <path id="TimesNewRomanPSMT-6e" d="M 1034 2341 
Q 1538 2947 1994 2947 
Q 2228 2947 2397 2830 
Q 2566 2713 2666 2444 
Q 2734 2256 2734 1869 
L 2734 647 
Q 2734 375 2778 278 
Q 2813 200 2889 156 
Q 2966 113 3172 113 
L 3172 0 
L 1756 0 
L 1756 113 
L 1816 113 
Q 2016 113 2095 173 
Q 2175 234 2206 353 
Q 2219 400 2219 647 
L 2219 1819 
Q 2219 2209 2117 2386 
Q 2016 2563 1775 2563 
Q 1403 2563 1034 2156 
L 1034 647 
Q 1034 356 1069 288 
Q 1113 197 1189 155 
Q 1266 113 1500 113 
L 1500 0 
L 84 0 
L 84 113 
L 147 113 
Q 366 113 442 223 
Q 519 334 519 647 
L 519 1709 
Q 519 2225 495 2337 
Q 472 2450 423 2490 
Q 375 2531 294 2531 
Q 206 2531 84 2484 
L 38 2597 
L 900 2947 
L 1034 2947 
L 1034 2341 
z
" transform="scale(0.015625)"/>
       <path id="TimesNewRomanPSMT-20" transform="scale(0.015625)"/>
       <path id="TimesNewRomanPSMT-53" d="M 2934 4334 
L 2934 2869 
L 2819 2869 
Q 2763 3291 2617 3541 
Q 2472 3791 2203 3937 
Q 1934 4084 1647 4084 
Q 1322 4084 1109 3886 
Q 897 3688 897 3434 
Q 897 3241 1031 3081 
Q 1225 2847 1953 2456 
Q 2547 2138 2764 1967 
Q 2981 1797 3098 1565 
Q 3216 1334 3216 1081 
Q 3216 600 2842 251 
Q 2469 -97 1881 -97 
Q 1697 -97 1534 -69 
Q 1438 -53 1133 45 
Q 828 144 747 144 
Q 669 144 623 97 
Q 578 50 556 -97 
L 441 -97 
L 441 1356 
L 556 1356 
Q 638 900 775 673 
Q 913 447 1195 297 
Q 1478 147 1816 147 
Q 2206 147 2432 353 
Q 2659 559 2659 841 
Q 2659 997 2573 1156 
Q 2488 1316 2306 1453 
Q 2184 1547 1640 1851 
Q 1097 2156 867 2337 
Q 638 2519 519 2737 
Q 400 2956 400 3219 
Q 400 3675 750 4004 
Q 1100 4334 1641 4334 
Q 1978 4334 2356 4169 
Q 2531 4091 2603 4091 
Q 2684 4091 2736 4139 
Q 2788 4188 2819 4334 
L 2934 4334 
z
" transform="scale(0.015625)"/>
       <path id="TimesNewRomanPSMT-74" d="M 1031 3803 
L 1031 2863 
L 1700 2863 
L 1700 2644 
L 1031 2644 
L 1031 788 
Q 1031 509 1111 412 
Q 1191 316 1316 316 
Q 1419 316 1516 380 
Q 1613 444 1666 569 
L 1788 569 
Q 1678 263 1478 108 
Q 1278 -47 1066 -47 
Q 922 -47 784 33 
Q 647 113 581 261 
Q 516 409 516 719 
L 516 2644 
L 63 2644 
L 63 2747 
Q 234 2816 414 2980 
Q 594 3144 734 3369 
Q 806 3488 934 3803 
L 1031 3803 
z
" transform="scale(0.015625)"/>
       <path id="TimesNewRomanPSMT-65" d="M 681 1784 
Q 678 1147 991 784 
Q 1303 422 1725 422 
Q 2006 422 2214 576 
Q 2422 731 2563 1106 
L 2659 1044 
Q 2594 616 2278 264 
Q 1963 -88 1488 -88 
Q 972 -88 605 314 
Q 238 716 238 1394 
Q 238 2128 614 2539 
Q 991 2950 1559 2950 
Q 2041 2950 2350 2633 
Q 2659 2316 2659 1784 
L 681 1784 
z
M 681 1966 
L 2006 1966 
Q 1991 2241 1941 2353 
Q 1863 2528 1708 2628 
Q 1553 2728 1384 2728 
Q 1125 2728 920 2526 
Q 716 2325 681 1966 
z
" transform="scale(0.015625)"/>
       <path id="TimesNewRomanPSMT-70" d="M -6 2578 
L 875 2934 
L 994 2934 
L 994 2266 
Q 1216 2644 1439 2795 
Q 1663 2947 1909 2947 
Q 2341 2947 2628 2609 
Q 2981 2197 2981 1534 
Q 2981 794 2556 309 
Q 2206 -88 1675 -88 
Q 1444 -88 1275 -22 
Q 1150 25 994 166 
L 994 -706 
Q 994 -1000 1030 -1079 
Q 1066 -1159 1155 -1206 
Q 1244 -1253 1478 -1253 
L 1478 -1369 
L -22 -1369 
L -22 -1253 
L 56 -1253 
Q 228 -1256 350 -1188 
Q 409 -1153 442 -1076 
Q 475 -1000 475 -688 
L 475 2019 
Q 475 2297 450 2372 
Q 425 2447 370 2484 
Q 316 2522 222 2522 
Q 147 2522 31 2478 
L -6 2578 
z
M 994 2081 
L 994 1013 
Q 994 666 1022 556 
Q 1066 375 1236 237 
Q 1406 100 1666 100 
Q 1978 100 2172 344 
Q 2425 663 2425 1241 
Q 2425 1897 2138 2250 
Q 1938 2494 1663 2494 
Q 1513 2494 1366 2419 
Q 1253 2363 994 2081 
z
" transform="scale(0.015625)"/>
      </defs>
      <use xlink:href="#TimesNewRomanPSMT-54"/>
      <use xlink:href="#TimesNewRomanPSMT-72" x="57.583984"/>
      <use xlink:href="#TimesNewRomanPSMT-61" x="90.884766"/>
      <use xlink:href="#TimesNewRomanPSMT-69" x="135.269531"/>
      <use xlink:href="#TimesNewRomanPSMT-6e" x="163.052734"/>
      <use xlink:href="#TimesNewRomanPSMT-20" x="213.052734"/>
      <use xlink:href="#TimesNewRomanPSMT-53" x="238.052734"/>
      <use xlink:href="#TimesNewRomanPSMT-74" x="293.667969"/>
      <use xlink:href="#TimesNewRomanPSMT-65" x="321.451172"/>
      <use xlink:href="#TimesNewRomanPSMT-70" x="365.835938"/>
     </g>
    </g>
   </g>
   <g id="matplotlib.axis_2">
    <g id="ytick_1">
     <g id="line2d_7">
      <defs>
       <path id="m791b1edc11" d="M 0 0 
L -3.5 0 
" style="stroke: #000000; stroke-width: 0.8"/>
      </defs>
      <g>
       <use xlink:href="#m791b1edc11" x="45" y="256.32" style="stroke: #000000; stroke-width: 0.8"/>
      </g>
     </g>
     <g id="text_8">
      <!-- 0 -->
      <g transform="translate(33 259.791875)scale(0.1 -0.1)">
       <use xlink:href="#TimesNewRomanPSMT-30"/>
      </g>
     </g>
    </g>
    <g id="ytick_2">
     <g id="line2d_8">
      <g>
       <use xlink:href="#m791b1edc11" x="45" y="211.968" style="stroke: #000000; stroke-width: 0.8"/>
      </g>
     </g>
     <g id="text_9">
      <!-- 20000 -->
      <g transform="translate(13 215.439875)scale(0.1 -0.1)">
       <use xlink:href="#TimesNewRomanPSMT-32"/>
       <use xlink:href="#TimesNewRomanPSMT-30" x="50"/>
       <use xlink:href="#TimesNewRomanPSMT-30" x="100"/>
       <use xlink:href="#TimesNewRomanPSMT-30" x="150"/>
       <use xlink:href="#TimesNewRomanPSMT-30" x="200"/>
      </g>
     </g>
    </g>
    <g id="ytick_3">
     <g id="line2d_9">
      <g>
       <use xlink:href="#m791b1edc11" x="45" y="167.616" style="stroke: #000000; stroke-width: 0.8"/>
      </g>
     </g>
     <g id="text_10">
      <!-- 40000 -->
      <g transform="translate(13 171.087875)scale(0.1 -0.1)">
       <use xlink:href="#TimesNewRomanPSMT-34"/>
       <use xlink:href="#TimesNewRomanPSMT-30" x="50"/>
       <use xlink:href="#TimesNewRomanPSMT-30" x="100"/>
       <use xlink:href="#TimesNewRomanPSMT-30" x="150"/>
       <use xlink:href="#TimesNewRomanPSMT-30" x="200"/>
      </g>
     </g>
    </g>
    <g id="ytick_4">
     <g id="line2d_10">
      <g>
       <use xlink:href="#m791b1edc11" x="45" y="123.264" style="stroke: #000000; stroke-width: 0.8"/>
      </g>
     </g>
     <g id="text_11">
      <!-- 60000 -->
      <g transform="translate(13 126.735875)scale(0.1 -0.1)">
       <use xlink:href="#TimesNewRomanPSMT-36"/>
       <use xlink:href="#TimesNewRomanPSMT-30" x="50"/>
       <use xlink:href="#TimesNewRomanPSMT-30" x="100"/>
       <use xlink:href="#TimesNewRomanPSMT-30" x="150"/>
       <use xlink:href="#TimesNewRomanPSMT-30" x="200"/>
      </g>
     </g>
    </g>
    <g id="ytick_5">
     <g id="line2d_11">
      <g>
       <use xlink:href="#m791b1edc11" x="45" y="78.912" style="stroke: #000000; stroke-width: 0.8"/>
      </g>
     </g>
     <g id="text_12">
      <!-- 80000 -->
      <g transform="translate(13 82.383875)scale(0.1 -0.1)">
       <use xlink:href="#TimesNewRomanPSMT-38"/>
       <use xlink:href="#TimesNewRomanPSMT-30" x="50"/>
       <use xlink:href="#TimesNewRomanPSMT-30" x="100"/>
       <use xlink:href="#TimesNewRomanPSMT-30" x="150"/>
       <use xlink:href="#TimesNewRomanPSMT-30" x="200"/>
      </g>
     </g>
    </g>
    <g id="ytick_6">
     <g id="line2d_12">
      <g>
       <use xlink:href="#m791b1edc11" x="45" y="34.56" style="stroke: #000000; stroke-width: 0.8"/>
      </g>
     </g>
     <g id="text_13">
      <!-- 100000 -->
      <g transform="translate(8 38.031875)scale(0.1 -0.1)">
       <use xlink:href="#TimesNewRomanPSMT-31"/>
       <use xlink:href="#TimesNewRomanPSMT-30" x="50"/>
       <use xlink:href="#TimesNewRomanPSMT-30" x="100"/>
       <use xlink:href="#TimesNewRomanPSMT-30" x="150"/>
       <use xlink:href="#TimesNewRomanPSMT-30" x="200"/>
       <use xlink:href="#TimesNewRomanPSMT-30" x="250"/>
      </g>
     </g>
    </g>
    <g id="text_14">
     <!-- Critic Loss -->
     <g transform="translate(1.860937 167.522812)rotate(-90)scale(0.1 -0.1)">
      <defs>
       <path id="TimesNewRomanPSMT-43" d="M 3853 4334 
L 3950 2894 
L 3853 2894 
Q 3659 3541 3300 3825 
Q 2941 4109 2438 4109 
Q 2016 4109 1675 3895 
Q 1334 3681 1139 3212 
Q 944 2744 944 2047 
Q 944 1472 1128 1050 
Q 1313 628 1683 403 
Q 2053 178 2528 178 
Q 2941 178 3256 354 
Q 3572 531 3950 1056 
L 4047 994 
Q 3728 428 3303 165 
Q 2878 -97 2294 -97 
Q 1241 -97 663 684 
Q 231 1266 231 2053 
Q 231 2688 515 3219 
Q 800 3750 1298 4042 
Q 1797 4334 2388 4334 
Q 2847 4334 3294 4109 
Q 3425 4041 3481 4041 
Q 3566 4041 3628 4100 
Q 3709 4184 3744 4334 
L 3853 4334 
z
" transform="scale(0.015625)"/>
       <path id="TimesNewRomanPSMT-63" d="M 2631 1088 
Q 2516 522 2178 217 
Q 1841 -88 1431 -88 
Q 944 -88 581 321 
Q 219 731 219 1428 
Q 219 2103 620 2525 
Q 1022 2947 1584 2947 
Q 2006 2947 2278 2723 
Q 2550 2500 2550 2259 
Q 2550 2141 2473 2067 
Q 2397 1994 2259 1994 
Q 2075 1994 1981 2113 
Q 1928 2178 1911 2362 
Q 1894 2547 1784 2644 
Q 1675 2738 1481 2738 
Q 1169 2738 978 2506 
Q 725 2200 725 1697 
Q 725 1184 976 792 
Q 1228 400 1656 400 
Q 1963 400 2206 609 
Q 2378 753 2541 1131 
L 2631 1088 
z
" transform="scale(0.015625)"/>
       <path id="TimesNewRomanPSMT-4c" d="M 3669 1172 
L 3772 1150 
L 3409 0 
L 128 0 
L 128 116 
L 288 116 
Q 556 116 672 291 
Q 738 391 738 753 
L 738 3488 
Q 738 3884 650 3984 
Q 528 4122 288 4122 
L 128 4122 
L 128 4238 
L 2047 4238 
L 2047 4122 
Q 1709 4125 1573 4059 
Q 1438 3994 1388 3894 
Q 1338 3794 1338 3416 
L 1338 753 
Q 1338 494 1388 397 
Q 1425 331 1503 300 
Q 1581 269 1991 269 
L 2300 269 
Q 2788 269 2984 341 
Q 3181 413 3343 595 
Q 3506 778 3669 1172 
z
" transform="scale(0.015625)"/>
       <path id="TimesNewRomanPSMT-6f" d="M 1600 2947 
Q 2250 2947 2644 2453 
Q 2978 2031 2978 1484 
Q 2978 1100 2793 706 
Q 2609 313 2286 112 
Q 1963 -88 1566 -88 
Q 919 -88 538 428 
Q 216 863 216 1403 
Q 216 1797 411 2186 
Q 606 2575 925 2761 
Q 1244 2947 1600 2947 
z
M 1503 2744 
Q 1338 2744 1170 2645 
Q 1003 2547 900 2300 
Q 797 2053 797 1666 
Q 797 1041 1045 587 
Q 1294 134 1700 134 
Q 2003 134 2200 384 
Q 2397 634 2397 1244 
Q 2397 2006 2069 2444 
Q 1847 2744 1503 2744 
z
" transform="scale(0.015625)"/>
       <path id="TimesNewRomanPSMT-73" d="M 2050 2947 
L 2050 1972 
L 1947 1972 
Q 1828 2431 1642 2597 
Q 1456 2763 1169 2763 
Q 950 2763 815 2647 
Q 681 2531 681 2391 
Q 681 2216 781 2091 
Q 878 1963 1175 1819 
L 1631 1597 
Q 2266 1288 2266 781 
Q 2266 391 1970 151 
Q 1675 -88 1309 -88 
Q 1047 -88 709 6 
Q 606 38 541 38 
Q 469 38 428 -44 
L 325 -44 
L 325 978 
L 428 978 
Q 516 541 762 319 
Q 1009 97 1316 97 
Q 1531 97 1667 223 
Q 1803 350 1803 528 
Q 1803 744 1651 891 
Q 1500 1038 1047 1263 
Q 594 1488 453 1669 
Q 313 1847 313 2119 
Q 313 2472 555 2709 
Q 797 2947 1181 2947 
Q 1350 2947 1591 2875 
Q 1750 2828 1803 2828 
Q 1853 2828 1881 2850 
Q 1909 2872 1947 2947 
L 2050 2947 
z
" transform="scale(0.015625)"/>
      </defs>
      <use xlink:href="#TimesNewRomanPSMT-43"/>
      <use xlink:href="#TimesNewRomanPSMT-72" x="66.699219"/>
      <use xlink:href="#TimesNewRomanPSMT-69" x="100"/>
      <use xlink:href="#TimesNewRomanPSMT-74" x="127.783203"/>
      <use xlink:href="#TimesNewRomanPSMT-69" x="155.566406"/>
      <use xlink:href="#TimesNewRomanPSMT-63" x="183.349609"/>
      <use xlink:href="#TimesNewRomanPSMT-20" x="227.734375"/>
      <use xlink:href="#TimesNewRomanPSMT-4c" x="252.734375"/>
      <use xlink:href="#TimesNewRomanPSMT-6f" x="313.818359"/>
      <use xlink:href="#TimesNewRomanPSMT-73" x="363.818359"/>
      <use xlink:href="#TimesNewRomanPSMT-73" x="402.734375"/>
     </g>
    </g>
   </g>
   <g id="line2d_13">
    <path d="M 58.446416 -1 
L 58.657343 21.471413 
L 58.710917 -1 
M 63.65601 -1 
L 63.674326 25.644763 
L 63.953047 113.813169 
L 64.117124 -1 
M 64.365702 -1 
L 64.51049 85.724086 
L 64.789211 75.756459 
L 65.067932 179.154233 
L 65.346653 140.231412 
L 65.904096 196.622173 
L 66.182817 173.339704 
L 66.461538 227.539745 
L 66.74026 229.043607 
L 67.018981 238.370152 
L 67.297702 241.195833 
L 67.576424 238.361438 
L 67.855145 233.802126 
L 68.133866 240.01363 
L 68.691309 247.237827 
L 68.97003 242.70528 
L 69.248751 242.861867 
L 69.527473 244.270166 
L 69.806194 243.172367 
L 70.084915 239.005154 
L 70.363636 239.685921 
L 70.642358 241.802687 
L 70.921079 236.141048 
L 71.1998 239.057286 
L 71.478521 246.339776 
L 72.035964 243.63199 
L 72.314685 244.834424 
L 72.593407 242.555578 
L 72.872128 241.635949 
L 73.150849 242.407915 
L 73.42957 240.283087 
L 73.708292 244.423744 
L 73.987013 242.42966 
L 74.265734 245.047952 
L 74.823177 247.330252 
L 75.101898 245.755266 
L 75.380619 246.097555 
L 75.659341 245.258969 
L 75.938062 246.859922 
L 76.216783 243.754052 
L 76.495504 250.418548 
L 77.052947 243.778874 
L 77.331668 247.835718 
L 77.61039 247.675483 
L 77.889111 247.736567 
L 78.167832 246.947739 
L 78.446553 247.685882 
L 78.725275 247.49523 
L 79.003996 246.022914 
L 79.282717 249.268465 
L 79.561439 246.402642 
L 79.84016 248.137831 
L 80.118881 248.444843 
L 80.397602 243.636166 
L 80.676324 247.610342 
L 80.955045 244.815876 
L 81.233766 246.01472 
L 81.512488 246.472162 
L 81.791209 249.577803 
L 82.06993 250.467605 
L 82.348651 247.134055 
L 82.627373 250.20906 
L 82.906094 248.044072 
L 83.184815 247.722743 
L 83.463536 248.948693 
L 83.742258 251.871548 
L 84.020979 250.89168 
L 84.2997 248.69334 
L 84.578422 251.372481 
L 84.857143 252.784672 
L 85.414585 251.87557 
L 85.693307 252.490661 
L 85.972028 253.49071 
L 86.250749 253.022832 
L 86.808192 254.505214 
L 87.086913 253.883429 
L 87.365634 252.178362 
L 87.644356 253.02563 
L 88.480519 252.704482 
L 88.759241 253.662527 
L 89.037962 253.350516 
L 89.316683 253.372599 
L 89.595405 252.804702 
L 89.874126 252.864926 
L 90.152847 253.373294 
L 90.431568 253.419678 
L 90.71029 252.8273 
L 90.989011 250.970719 
L 91.267732 252.036538 
L 91.546454 250.922389 
L 91.825175 253.34663 
L 92.103896 253.241504 
L 92.382617 252.979923 
L 92.661339 253.2454 
L 92.94006 253.688639 
L 93.218781 252.340835 
L 93.497502 253.406957 
L 93.776224 252.024517 
L 94.054945 252.63143 
L 94.333666 252.266649 
L 94.612388 253.008861 
L 94.891109 252.404497 
L 95.16983 250.878362 
L 95.448551 251.405507 
L 95.727273 251.454971 
L 96.005994 253.2428 
L 96.284715 252.28422 
L 96.563437 253.013225 
L 96.842158 252.701531 
L 97.3996 253.182337 
L 97.678322 252.515622 
L 97.957043 253.676358 
L 98.514486 252.74672 
L 98.793207 253.506522 
L 99.071928 253.100364 
L 99.350649 253.092184 
L 99.629371 252.014303 
L 99.908092 252.928031 
L 100.186813 253.188713 
L 100.465534 253.165042 
L 100.744256 252.468332 
L 101.022977 251.133454 
L 101.301698 253.037748 
L 101.58042 253.452626 
L 101.859141 251.96901 
L 102.137862 253.505447 
L 102.695305 251.687155 
L 102.974026 253.989961 
L 103.531469 252.596316 
L 103.81019 253.565355 
L 104.088911 252.868541 
L 104.367632 254.192477 
L 104.646354 252.606594 
L 104.925075 253.44662 
L 105.203796 252.690173 
L 105.482517 252.42814 
L 105.761239 253.741724 
L 106.03996 253.513008 
L 106.318681 253.500064 
L 106.597403 252.369405 
L 106.876124 252.375217 
L 107.154845 252.626132 
L 107.433566 252.408881 
L 107.712288 252.43363 
L 107.991009 253.901634 
L 108.26973 250.437371 
L 108.548452 250.928141 
L 108.827173 250.395189 
L 109.105894 249.409049 
L 109.384615 251.500419 
L 109.663337 250.554589 
L 109.942058 251.310965 
L 110.220779 252.759516 
L 110.4995 250.63088 
L 110.778222 252.218848 
L 111.056943 252.013932 
L 111.614386 250.408599 
L 111.893107 250.465627 
L 112.171828 250.066841 
L 112.450549 251.462367 
L 112.729271 251.448741 
L 113.007992 251.079726 
L 113.286713 252.694503 
L 113.565435 252.722502 
L 113.844156 251.611113 
L 114.122877 252.89635 
L 114.401598 252.460077 
L 114.68032 252.604389 
L 114.959041 253.088801 
L 115.237762 252.918232 
L 115.516484 250.702682 
L 116.073926 253.348504 
L 116.352647 253.541549 
L 116.631369 253.883508 
L 116.91009 253.357259 
L 117.188811 253.579009 
L 117.467532 252.628481 
L 117.746254 254.036241 
L 118.024975 254.349952 
L 118.303696 253.861332 
L 118.582418 252.67831 
L 118.861139 253.785771 
L 119.13986 254.301662 
L 119.418581 254.148108 
L 119.697303 252.304906 
L 119.976024 253.276301 
L 120.254745 252.930116 
L 120.533467 253.60573 
L 120.812188 253.94508 
L 121.090909 252.514087 
L 121.648352 253.316692 
L 121.927073 251.928552 
L 122.205794 252.44602 
L 122.484515 252.492007 
L 122.763237 252.839173 
L 123.041958 253.930999 
L 123.320679 253.245016 
L 123.599401 252.977704 
L 123.878122 253.520181 
L 124.156843 254.508653 
L 124.714286 253.575651 
L 124.993007 254.086382 
L 125.55045 253.544654 
L 125.829171 253.720263 
L 126.386613 254.703516 
L 126.665335 253.859756 
L 126.944056 254.31397 
L 127.222777 253.698427 
L 127.501499 253.879867 
L 127.78022 254.572167 
L 128.058941 253.274928 
L 128.337662 252.608711 
L 128.616384 253.552584 
L 128.895105 253.386676 
L 129.173826 253.832909 
L 129.731269 252.923187 
L 130.00999 253.515487 
L 130.288711 252.675119 
L 130.567433 253.417803 
L 130.846154 253.578119 
L 131.124875 252.297176 
L 131.403596 253.820113 
L 131.682318 253.219141 
L 131.961039 253.345846 
L 132.23976 253.802806 
L 132.518482 252.962606 
L 132.797203 254.139272 
L 133.075924 254.26382 
L 133.354645 253.518453 
L 133.912088 253.992384 
L 134.190809 254.002801 
L 134.46953 253.539908 
L 134.748252 254.331461 
L 135.026973 254.272799 
L 135.305694 253.688306 
L 135.584416 254.762805 
L 135.863137 253.987362 
L 136.141858 253.551359 
L 136.420579 253.862397 
L 136.699301 253.687374 
L 137.256743 255.225358 
L 137.535465 254.197618 
L 137.814186 253.722671 
L 138.092907 253.744656 
L 138.65035 254.21728 
L 138.929071 254.14476 
L 139.207792 254.475517 
L 139.486513 253.870966 
L 139.765235 254.103296 
L 140.043956 253.800261 
L 140.322677 254.465066 
L 140.601399 254.464132 
L 140.88012 254.736732 
L 141.158841 253.764077 
L 141.437562 254.472887 
L 141.716284 253.749618 
L 141.995005 255.133385 
L 142.273726 254.187502 
L 142.552448 254.717365 
L 142.831169 254.955761 
L 143.10989 254.477896 
L 143.388611 254.394084 
L 143.946054 254.654595 
L 144.224775 254.153925 
L 144.503497 254.972141 
L 145.060939 252.938663 
L 145.33966 254.423226 
L 145.618382 253.652379 
L 146.454545 254.631203 
L 146.733267 253.897254 
L 147.290709 254.483278 
L 147.569431 254.017116 
L 148.126873 253.97999 
L 148.684316 253.838154 
L 148.963037 254.83843 
L 149.241758 254.479891 
L 149.52048 253.894255 
L 150.077922 254.660081 
L 150.356643 254.189649 
L 150.635365 254.380486 
L 150.914086 253.722889 
L 151.192807 254.370521 
L 151.471528 253.714744 
L 151.75025 254.956315 
L 152.028971 254.600676 
L 152.307692 255.04976 
L 152.586414 254.553181 
L 152.865135 254.419216 
L 153.143856 255.127194 
L 153.422577 254.574381 
L 153.701299 254.60654 
L 153.98002 254.106107 
L 154.258741 255.220788 
L 154.816184 253.797298 
L 155.094905 254.231191 
L 155.652348 254.756 
L 155.931069 254.155491 
L 156.20979 254.772532 
L 156.488511 254.322534 
L 156.767233 254.739424 
L 157.324675 254.363007 
L 157.882118 254.791155 
L 158.43956 255.382257 
L 158.718282 255.020781 
L 158.997003 253.76601 
L 159.275724 254.599136 
L 159.833167 254.178247 
L 160.111888 254.508707 
L 160.390609 253.864568 
L 160.669331 254.275906 
L 160.948052 254.151576 
L 161.226773 253.676224 
L 161.505495 253.490915 
L 161.784216 253.823965 
L 162.062937 252.721984 
L 162.62038 253.454944 
L 162.899101 253.11011 
L 163.177822 253.541738 
L 163.456543 254.290982 
L 163.735265 254.471355 
L 164.013986 253.522032 
L 164.292707 253.746027 
L 164.571429 254.616048 
L 164.85015 254.210654 
L 165.128871 254.335185 
L 165.407592 253.419528 
L 165.686314 254.549877 
L 165.965035 253.92997 
L 166.243756 254.555161 
L 166.522478 254.396624 
L 166.801199 254.611394 
L 167.07992 253.804025 
L 167.358641 254.339217 
L 167.637363 254.36566 
L 167.916084 254.088507 
L 168.194805 253.50409 
L 168.473526 253.43078 
L 169.030969 254.503376 
L 169.30969 254.363014 
L 169.588412 254.089331 
L 170.145854 254.395616 
L 170.703297 252.361177 
L 170.982018 253.967216 
L 171.539461 253.867833 
L 172.375624 252.91944 
L 172.654346 253.666392 
L 172.933067 253.722958 
L 173.211788 253.971949 
L 173.490509 253.459622 
L 173.769231 253.245542 
L 174.047952 254.934441 
L 174.326673 254.942941 
L 174.605395 254.528018 
L 174.884116 253.730176 
L 175.162837 254.230592 
L 175.441558 253.537352 
L 175.72028 254.505192 
L 176.277722 254.760655 
L 176.556444 254.456505 
L 176.835165 254.476449 
L 177.113886 253.67667 
L 177.392607 252.262404 
L 177.671329 254.104518 
L 177.95005 253.283776 
L 178.228771 253.856622 
L 178.507493 253.313967 
L 178.786214 253.153833 
L 179.064935 252.105058 
L 179.343656 253.768723 
L 179.622378 252.812257 
L 180.17982 251.659677 
L 180.458541 253.892571 
L 180.737263 253.620952 
L 181.015984 252.914168 
L 181.294705 254.080994 
L 181.573427 253.582411 
L 181.852148 253.506422 
L 182.130869 252.788283 
L 182.40959 254.211033 
L 182.688312 252.436418 
L 182.967033 252.435347 
L 183.245754 253.352093 
L 183.524476 252.169572 
L 183.803197 253.578992 
L 184.081918 254.072256 
L 184.639361 252.788434 
L 184.918082 253.691216 
L 185.196803 252.346984 
L 185.475524 252.634605 
L 185.754246 253.376926 
L 186.032967 253.484167 
L 186.311688 253.401682 
L 186.59041 252.964196 
L 186.869131 251.692008 
L 187.147852 253.904652 
L 187.426573 253.582199 
L 187.705295 252.07347 
L 187.984016 253.743234 
L 188.262737 254.133394 
L 188.541459 253.482336 
L 188.82018 251.121649 
L 189.098901 254.516898 
L 189.377622 252.703271 
L 189.656344 254.165928 
L 189.935065 254.586 
L 190.213786 253.805269 
L 190.771229 254.919907 
L 191.04995 254.582197 
L 191.328671 253.753865 
L 191.607393 253.618689 
L 191.886114 255.242628 
L 192.164835 254.687428 
L 192.443556 255.392267 
L 192.722278 254.701599 
L 193.27972 255.435331 
L 193.558442 255.449495 
L 194.115884 252.680583 
L 194.394605 253.694293 
L 194.673327 253.474743 
L 194.952048 252.696811 
L 195.230769 254.312127 
L 195.509491 255.167196 
L 195.788212 253.923993 
L 196.066933 254.503844 
L 196.624376 254.299159 
L 196.903097 254.846911 
L 197.739261 255.473092 
L 198.017982 254.207554 
L 198.296703 254.730304 
L 198.575425 254.759677 
L 198.854146 254.601844 
L 199.132867 254.183684 
L 199.411588 255.225214 
L 199.69031 254.961453 
L 199.969031 254.529432 
L 200.247752 254.6712 
L 200.526474 254.638169 
L 200.805195 255.218746 
L 201.083916 254.992672 
L 201.362637 255.38286 
L 201.641359 254.626046 
L 201.92008 254.888461 
L 202.198801 254.683007 
L 202.477522 255.265645 
L 202.756244 255.201606 
L 203.034965 254.985758 
L 203.313686 255.395861 
L 204.14985 254.70547 
L 204.428571 255.298084 
L 204.707293 255.329213 
L 204.986014 255.495482 
L 205.543457 255.463182 
L 205.822178 255.825103 
L 206.37962 255.504815 
L 206.658342 254.914267 
L 207.215784 254.912041 
L 207.773227 255.251677 
L 208.051948 254.897728 
L 208.330669 255.259668 
L 208.609391 255.889892 
L 209.724276 255.658841 
L 210.002997 255.266392 
L 210.281718 254.451258 
L 210.56044 255.146221 
L 211.117882 255.223802 
L 211.396603 255.134848 
L 211.675325 254.573727 
L 211.954046 255.070019 
L 212.232767 254.902319 
L 212.511489 254.309538 
L 212.79021 255.294201 
L 213.626374 255.560324 
L 214.183816 255.215884 
L 214.462537 255.53834 
L 215.298701 254.830851 
L 215.577423 255.262779 
L 215.856144 255.29852 
L 216.134865 255.619577 
L 216.413586 255.450514 
L 216.692308 255.4349 
L 216.971029 255.575269 
L 217.528472 255.048713 
L 217.807193 255.356236 
L 218.085914 254.809433 
L 218.364635 254.946146 
L 218.643357 255.349619 
L 219.200799 254.762204 
L 219.47952 255.090354 
L 219.758242 254.706442 
L 220.036963 255.084012 
L 220.873127 254.73629 
L 221.151848 255.243516 
L 221.430569 255.370067 
L 222.266733 255.259848 
L 222.545455 255.254855 
L 222.824176 255.074825 
L 223.102897 255.094914 
L 223.381618 254.985632 
L 223.66034 254.585394 
L 224.217782 255.177976 
L 224.496503 255.01907 
L 224.775225 255.09343 
L 225.332667 255.10803 
L 225.611389 254.792694 
L 226.168831 255.290469 
L 226.447552 255.099984 
L 227.004995 255.294572 
L 227.283716 255.215507 
L 227.562438 255.624127 
L 228.11988 255.46809 
L 228.956044 255.746361 
L 229.234765 255.691121 
L 229.513487 255.43211 
L 230.070929 255.679299 
L 231.464535 255.52955 
L 231.743257 255.849817 
L 232.021978 255.751682 
L 232.300699 255.405281 
L 232.579421 255.746334 
L 232.858142 255.309434 
L 233.136863 255.639541 
L 233.415584 255.752919 
L 234.809191 255.780279 
L 235.087912 256.023328 
L 235.366633 255.863433 
L 235.645355 256.045087 
L 235.924076 255.74331 
L 236.202797 255.861452 
L 236.481518 255.847459 
L 236.76024 255.964843 
L 237.038961 255.591946 
L 237.317682 255.878526 
L 237.875125 255.86053 
L 238.432567 255.64614 
L 238.711289 255.818551 
L 239.547453 255.824818 
L 239.826174 255.885979 
L 240.104895 255.766484 
L 240.383616 256.008315 
L 240.662338 255.764607 
L 240.941059 255.679853 
L 241.21978 255.895544 
L 241.498501 255.73369 
L 241.777223 255.809164 
L 242.055944 255.277361 
L 242.334665 255.848987 
L 242.892108 255.929003 
L 243.44955 255.795466 
L 244.006993 255.872965 
L 244.285714 255.511035 
L 244.564436 255.917089 
L 244.843157 256.07766 
L 245.679321 255.879958 
L 245.958042 255.946658 
L 246.236763 255.788242 
L 246.515485 255.935226 
L 246.794206 255.9477 
L 247.072927 255.757789 
L 247.351648 255.91504 
L 247.63037 255.858257 
L 247.909091 256.035494 
L 248.466533 255.881539 
L 248.745255 256.061388 
L 249.023976 256.034552 
L 249.302697 255.736297 
L 249.581419 255.885871 
L 250.138861 255.834758 
L 250.417582 256.031005 
L 250.696304 255.801361 
L 251.253746 256.005064 
L 251.532468 255.783051 
L 251.811189 255.890607 
L 252.647353 255.678183 
L 252.926074 255.935264 
L 253.204795 255.688571 
L 253.483516 255.696541 
L 253.762238 255.524233 
L 254.040959 256.046865 
L 254.598402 255.917523 
L 255.992008 255.577154 
L 256.270729 255.791479 
L 256.549451 255.67308 
L 256.828172 255.971207 
L 257.106893 255.894834 
L 257.385614 256.008011 
L 257.943057 256.003342 
L 258.5005 256.058858 
L 259.057942 256.029001 
L 259.894106 255.925034 
L 260.172827 256.080267 
L 260.451548 255.910229 
L 262.123876 256.04223 
L 262.402597 255.858443 
L 262.681319 255.820642 
L 262.96004 256.044924 
L 263.238761 255.769542 
L 263.796204 256.016592 
L 264.074925 256.011556 
L 264.353646 255.887317 
L 264.632368 256.081106 
L 264.911089 255.908889 
L 265.747253 256.1414 
L 266.025974 255.875284 
L 266.304695 256.056841 
L 266.583417 255.907809 
L 268.255744 255.986495 
L 268.534466 255.778117 
L 269.091908 256.068362 
L 269.370629 255.950298 
L 269.649351 256.020347 
L 270.206793 255.984548 
L 270.485514 255.239941 
L 271.321678 255.761743 
L 271.6004 255.653924 
L 271.879121 255.68837 
L 272.157842 255.926856 
L 272.436563 255.957756 
L 272.715285 256.129686 
L 273.272727 256.065846 
L 273.551449 256.008849 
L 273.83017 256.130639 
L 276.617383 255.995252 
L 277.174825 256.129383 
L 277.453546 256.044943 
L 278.568432 256.115578 
L 278.847153 256.092533 
L 279.125874 256.215159 
L 279.404595 256.139849 
L 280.240759 256.174394 
L 280.519481 256.141659 
L 280.798202 255.849243 
L 281.634366 255.601792 
L 281.913087 255.878815 
L 282.470529 255.682766 
L 283.306693 255.890174 
L 283.585415 255.732311 
L 283.864136 255.713702 
L 284.142857 256.072704 
L 284.7003 256.165431 
L 284.979021 256.015336 
L 286.093906 256.083889 
L 286.372627 255.711601 
L 286.651349 255.903822 
L 287.208791 255.903432 
L 287.487512 255.976675 
L 287.766234 255.846737 
L 288.044955 255.979725 
L 288.323676 255.795118 
L 289.996004 255.847815 
L 290.274725 255.540982 
L 291.110889 255.956217 
L 291.668332 255.874741 
L 291.947053 255.988571 
L 292.225774 255.93363 
L 292.504496 256.009943 
L 293.061938 255.892452 
L 293.340659 255.678216 
L 294.176823 255.987493 
L 294.455544 255.82162 
L 294.734266 255.836971 
L 295.012987 255.982692 
L 295.57043 255.77062 
L 295.849151 255.934548 
L 296.127872 255.677629 
L 296.685315 255.694476 
L 297.242757 255.921251 
L 298.357642 255.700874 
L 298.636364 255.967299 
L 300.587413 255.776736 
L 301.423576 255.617972 
L 301.981019 255.818214 
L 302.25974 255.677401 
L 302.817183 255.822331 
L 303.095904 255.746278 
L 303.653347 255.913951 
L 303.932068 255.584295 
L 304.210789 255.663344 
L 304.48951 255.530459 
L 304.768232 255.731736 
L 305.604396 255.839945 
L 305.883117 255.720918 
L 306.440559 255.859118 
L 306.719281 255.631263 
L 307.555445 255.741667 
L 307.834166 255.631604 
L 308.391608 255.824037 
L 308.67033 255.921645 
L 308.949051 255.733694 
L 309.227772 255.839312 
L 309.785215 255.764159 
L 310.063936 255.919095 
L 310.342657 255.882373 
L 310.621379 256.061803 
L 310.9001 255.863438 
L 311.736264 256.124521 
L 312.851149 255.836587 
L 313.12987 255.981642 
L 313.687313 255.878859 
L 313.966034 256.007657 
L 314.523477 255.961872 
L 314.802198 256.081809 
L 315.080919 255.927932 
L 315.638362 256.007229 
L 316.195804 256.012373 
L 316.474525 256.067505 
L 316.753247 255.968071 
L 317.310689 256.001462 
L 317.589411 255.90155 
L 318.146853 256.006008 
L 318.704296 255.991817 
L 319.819181 256.095456 
L 320.376623 256.017049 
L 320.655345 256.072946 
L 320.934066 255.985726 
L 321.491508 255.988417 
L 321.77023 256.019654 
L 322.048951 256.171564 
L 322.327672 256.017958 
L 322.885115 256.128238 
L 323.721279 256.049011 
L 323.721279 256.049011 
" clip-path="url(#pff06bf9362)" style="fill: none; stroke: #0000ff; stroke-width: 1.5; stroke-linecap: square"/>
   </g>
   <g id="patch_3">
    <path d="M 45 256.32 
L 45 34.56 
" style="fill: none; stroke: #000000; stroke-width: 0.8; stroke-linejoin: miter; stroke-linecap: square"/>
   </g>
   <g id="patch_4">
    <path d="M 324 256.32 
L 324 34.56 
" style="fill: none; stroke: #000000; stroke-width: 0.8; stroke-linejoin: miter; stroke-linecap: square"/>
   </g>
   <g id="patch_5">
    <path d="M 45 256.32 
L 324 256.32 
" style="fill: none; stroke: #000000; stroke-width: 0.8; stroke-linejoin: miter; stroke-linecap: square"/>
   </g>
   <g id="patch_6">
    <path d="M 45 34.56 
L 324 34.56 
" style="fill: none; stroke: #000000; stroke-width: 0.8; stroke-linejoin: miter; stroke-linecap: square"/>
   </g>
  </g>
 </g>
 <defs>
  <clipPath id="pff06bf9362">
   <rect x="45" y="34.56" width="279" height="221.76"/>
  </clipPath>
 </defs>
</svg>
