<?xml version="1.0" encoding="utf-8" standalone="no"?>
<!DOCTYPE svg PUBLIC "-//W3C//DTD SVG 1.1//EN"
  "http://www.w3.org/Graphics/SVG/1.1/DTD/svg11.dtd">
<svg xmlns:xlink="http://www.w3.org/1999/xlink" width="360pt" height="288pt" viewBox="0 0 360 288" xmlns="http://www.w3.org/2000/svg" version="1.1">
 <metadata>
  <rdf:RDF xmlns:dc="http://purl.org/dc/elements/1.1/" xmlns:cc="http://creativecommons.org/ns#" xmlns:rdf="http://www.w3.org/1999/02/22-rdf-syntax-ns#">
   <cc:Work>
    <dc:type rdf:resource="http://purl.org/dc/dcmitype/StillImage"/>
    <dc:date>2025-06-13T17:40:22.655533</dc:date>
    <dc:format>image/svg+xml</dc:format>
    <dc:creator>
     <cc:Agent>
      <dc:title>Matplotlib v3.5.1, https://matplotlib.org/</dc:title>
     </cc:Agent>
    </dc:creator>
   </cc:Work>
  </rdf:RDF>
 </metadata>
 <defs>
  <style type="text/css">*{stroke-linejoin: round; stroke-linecap: butt}</style>
 </defs>
 <g id="figure_1">
  <g id="patch_1">
   <path d="M 0 288 
L 360 288 
L 360 0 
L 0 0 
z
" style="fill: #ffffff"/>
  </g>
  <g id="axes_1">
   <g id="patch_2">
    <path d="M 45 256.32 
L 324 256.32 
L 324 34.56 
L 45 34.56 
z
" style="fill: #ffffff"/>
   </g>
   <g id="matplotlib.axis_1">
    <g id="xtick_1">
     <g id="line2d_1">
      <defs>
       <path id="mcb6184ba4d" d="M 0 0 
L 0 3.5 
" style="stroke: #000000; stroke-width: 0.8"/>
      </defs>
      <g>
       <use xlink:href="#mcb6184ba4d" x="45" y="256.32" style="stroke: #000000; stroke-width: 0.8"/>
      </g>
     </g>
     <g id="text_1">
      <!-- 0 -->
      <g transform="translate(42.5 270.26375)scale(0.1 -0.1)">
       <defs>
        <path id="TimesNewRomanPSMT-30" d="M 231 2094 
Q 231 2819 450 3342 
Q 669 3866 1031 4122 
Q 1313 4325 1613 4325 
Q 2100 4325 2488 3828 
Q 2972 3213 2972 2159 
Q 2972 1422 2759 906 
Q 2547 391 2217 158 
Q 1888 -75 1581 -75 
Q 975 -75 572 641 
Q 231 1244 231 2094 
z
M 844 2016 
Q 844 1141 1059 588 
Q 1238 122 1591 122 
Q 1759 122 1940 273 
Q 2122 425 2216 781 
Q 2359 1319 2359 2297 
Q 2359 3022 2209 3506 
Q 2097 3866 1919 4016 
Q 1791 4119 1609 4119 
Q 1397 4119 1231 3928 
Q 1006 3669 925 3112 
Q 844 2556 844 2016 
z
" transform="scale(0.015625)"/>
       </defs>
       <use xlink:href="#TimesNewRomanPSMT-30"/>
      </g>
     </g>
    </g>
    <g id="xtick_2">
     <g id="line2d_2">
      <g>
       <use xlink:href="#mcb6184ba4d" x="100.744256" y="256.32" style="stroke: #000000; stroke-width: 0.8"/>
      </g>
     </g>
     <g id="text_2">
      <!-- 200 -->
      <g transform="translate(93.244256 270.26375)scale(0.1 -0.1)">
       <defs>
        <path id="TimesNewRomanPSMT-32" d="M 2934 816 
L 2638 0 
L 138 0 
L 138 116 
Q 1241 1122 1691 1759 
Q 2141 2397 2141 2925 
Q 2141 3328 1894 3587 
Q 1647 3847 1303 3847 
Q 991 3847 742 3664 
Q 494 3481 375 3128 
L 259 3128 
Q 338 3706 661 4015 
Q 984 4325 1469 4325 
Q 1984 4325 2329 3994 
Q 2675 3663 2675 3213 
Q 2675 2891 2525 2569 
Q 2294 2063 1775 1497 
Q 997 647 803 472 
L 1909 472 
Q 2247 472 2383 497 
Q 2519 522 2628 598 
Q 2738 675 2819 816 
L 2934 816 
z
" transform="scale(0.015625)"/>
       </defs>
       <use xlink:href="#TimesNewRomanPSMT-32"/>
       <use xlink:href="#TimesNewRomanPSMT-30" x="50"/>
       <use xlink:href="#TimesNewRomanPSMT-30" x="100"/>
      </g>
     </g>
    </g>
    <g id="xtick_3">
     <g id="line2d_3">
      <g>
       <use xlink:href="#mcb6184ba4d" x="156.488511" y="256.32" style="stroke: #000000; stroke-width: 0.8"/>
      </g>
     </g>
     <g id="text_3">
      <!-- 400 -->
      <g transform="translate(148.988511 270.26375)scale(0.1 -0.1)">
       <defs>
        <path id="TimesNewRomanPSMT-34" d="M 2978 1563 
L 2978 1119 
L 2409 1119 
L 2409 0 
L 1894 0 
L 1894 1119 
L 100 1119 
L 100 1519 
L 2066 4325 
L 2409 4325 
L 2409 1563 
L 2978 1563 
z
M 1894 1563 
L 1894 3666 
L 406 1563 
L 1894 1563 
z
" transform="scale(0.015625)"/>
       </defs>
       <use xlink:href="#TimesNewRomanPSMT-34"/>
       <use xlink:href="#TimesNewRomanPSMT-30" x="50"/>
       <use xlink:href="#TimesNewRomanPSMT-30" x="100"/>
      </g>
     </g>
    </g>
    <g id="xtick_4">
     <g id="line2d_4">
      <g>
       <use xlink:href="#mcb6184ba4d" x="212.232767" y="256.32" style="stroke: #000000; stroke-width: 0.8"/>
      </g>
     </g>
     <g id="text_4">
      <!-- 600 -->
      <g transform="translate(204.732767 270.26375)scale(0.1 -0.1)">
       <defs>
        <path id="TimesNewRomanPSMT-36" d="M 2869 4325 
L 2869 4209 
Q 2456 4169 2195 4045 
Q 1934 3922 1679 3669 
Q 1425 3416 1258 3105 
Q 1091 2794 978 2366 
Q 1428 2675 1881 2675 
Q 2316 2675 2634 2325 
Q 2953 1975 2953 1425 
Q 2953 894 2631 456 
Q 2244 -75 1606 -75 
Q 1172 -75 869 213 
Q 275 772 275 1663 
Q 275 2231 503 2743 
Q 731 3256 1154 3653 
Q 1578 4050 1965 4187 
Q 2353 4325 2688 4325 
L 2869 4325 
z
M 925 2138 
Q 869 1716 869 1456 
Q 869 1156 980 804 
Q 1091 453 1309 247 
Q 1469 100 1697 100 
Q 1969 100 2183 356 
Q 2397 613 2397 1088 
Q 2397 1622 2184 2012 
Q 1972 2403 1581 2403 
Q 1463 2403 1327 2353 
Q 1191 2303 925 2138 
z
" transform="scale(0.015625)"/>
       </defs>
       <use xlink:href="#TimesNewRomanPSMT-36"/>
       <use xlink:href="#TimesNewRomanPSMT-30" x="50"/>
       <use xlink:href="#TimesNewRomanPSMT-30" x="100"/>
      </g>
     </g>
    </g>
    <g id="xtick_5">
     <g id="line2d_5">
      <g>
       <use xlink:href="#mcb6184ba4d" x="267.977023" y="256.32" style="stroke: #000000; stroke-width: 0.8"/>
      </g>
     </g>
     <g id="text_5">
      <!-- 800 -->
      <g transform="translate(260.477023 270.26375)scale(0.1 -0.1)">
       <defs>
        <path id="TimesNewRomanPSMT-38" d="M 1228 2134 
Q 725 2547 579 2797 
Q 434 3047 434 3316 
Q 434 3728 753 4026 
Q 1072 4325 1600 4325 
Q 2113 4325 2425 4047 
Q 2738 3769 2738 3413 
Q 2738 3175 2569 2928 
Q 2400 2681 1866 2347 
Q 2416 1922 2594 1678 
Q 2831 1359 2831 1006 
Q 2831 559 2490 242 
Q 2150 -75 1597 -75 
Q 994 -75 656 303 
Q 388 606 388 966 
Q 388 1247 577 1523 
Q 766 1800 1228 2134 
z
M 1719 2469 
Q 2094 2806 2194 3001 
Q 2294 3197 2294 3444 
Q 2294 3772 2109 3958 
Q 1925 4144 1606 4144 
Q 1288 4144 1088 3959 
Q 888 3775 888 3528 
Q 888 3366 970 3203 
Q 1053 3041 1206 2894 
L 1719 2469 
z
M 1375 2016 
Q 1116 1797 991 1539 
Q 866 1281 866 981 
Q 866 578 1086 336 
Q 1306 94 1647 94 
Q 1984 94 2187 284 
Q 2391 475 2391 747 
Q 2391 972 2272 1150 
Q 2050 1481 1375 2016 
z
" transform="scale(0.015625)"/>
       </defs>
       <use xlink:href="#TimesNewRomanPSMT-38"/>
       <use xlink:href="#TimesNewRomanPSMT-30" x="50"/>
       <use xlink:href="#TimesNewRomanPSMT-30" x="100"/>
      </g>
     </g>
    </g>
    <g id="xtick_6">
     <g id="line2d_6">
      <g>
       <use xlink:href="#mcb6184ba4d" x="323.721279" y="256.32" style="stroke: #000000; stroke-width: 0.8"/>
      </g>
     </g>
     <g id="text_6">
      <!-- 1000 -->
      <g transform="translate(313.721279 270.26375)scale(0.1 -0.1)">
       <defs>
        <path id="TimesNewRomanPSMT-31" d="M 750 3822 
L 1781 4325 
L 1884 4325 
L 1884 747 
Q 1884 391 1914 303 
Q 1944 216 2037 169 
Q 2131 122 2419 116 
L 2419 0 
L 825 0 
L 825 116 
Q 1125 122 1212 167 
Q 1300 213 1334 289 
Q 1369 366 1369 747 
L 1369 3034 
Q 1369 3497 1338 3628 
Q 1316 3728 1258 3775 
Q 1200 3822 1119 3822 
Q 1003 3822 797 3725 
L 750 3822 
z
" transform="scale(0.015625)"/>
       </defs>
       <use xlink:href="#TimesNewRomanPSMT-31"/>
       <use xlink:href="#TimesNewRomanPSMT-30" x="50"/>
       <use xlink:href="#TimesNewRomanPSMT-30" x="100"/>
       <use xlink:href="#TimesNewRomanPSMT-30" x="150"/>
      </g>
     </g>
    </g>
    <g id="text_7">
     <!-- Train Step -->
     <g transform="translate(163.708594 283.346563)scale(0.1 -0.1)">
      <defs>
       <path id="TimesNewRomanPSMT-54" d="M 3703 4238 
L 3750 3244 
L 3631 3244 
Q 3597 3506 3538 3619 
Q 3441 3800 3280 3886 
Q 3119 3972 2856 3972 
L 2259 3972 
L 2259 734 
Q 2259 344 2344 247 
Q 2463 116 2709 116 
L 2856 116 
L 2856 0 
L 1059 0 
L 1059 116 
L 1209 116 
Q 1478 116 1591 278 
Q 1659 378 1659 734 
L 1659 3972 
L 1150 3972 
Q 853 3972 728 3928 
Q 566 3869 450 3700 
Q 334 3531 313 3244 
L 194 3244 
L 244 4238 
L 3703 4238 
z
" transform="scale(0.015625)"/>
       <path id="TimesNewRomanPSMT-72" d="M 1038 2947 
L 1038 2303 
Q 1397 2947 1775 2947 
Q 1947 2947 2059 2842 
Q 2172 2738 2172 2600 
Q 2172 2478 2090 2393 
Q 2009 2309 1897 2309 
Q 1788 2309 1652 2417 
Q 1516 2525 1450 2525 
Q 1394 2525 1328 2463 
Q 1188 2334 1038 2041 
L 1038 669 
Q 1038 431 1097 309 
Q 1138 225 1241 169 
Q 1344 113 1538 113 
L 1538 0 
L 72 0 
L 72 113 
Q 291 113 397 181 
Q 475 231 506 341 
Q 522 394 522 644 
L 522 1753 
Q 522 2253 501 2348 
Q 481 2444 426 2487 
Q 372 2531 291 2531 
Q 194 2531 72 2484 
L 41 2597 
L 906 2947 
L 1038 2947 
z
" transform="scale(0.015625)"/>
       <path id="TimesNewRomanPSMT-61" d="M 1822 413 
Q 1381 72 1269 19 
Q 1100 -59 909 -59 
Q 613 -59 420 144 
Q 228 347 228 678 
Q 228 888 322 1041 
Q 450 1253 767 1440 
Q 1084 1628 1822 1897 
L 1822 2009 
Q 1822 2438 1686 2597 
Q 1550 2756 1291 2756 
Q 1094 2756 978 2650 
Q 859 2544 859 2406 
L 866 2225 
Q 866 2081 792 2003 
Q 719 1925 600 1925 
Q 484 1925 411 2006 
Q 338 2088 338 2228 
Q 338 2497 613 2722 
Q 888 2947 1384 2947 
Q 1766 2947 2009 2819 
Q 2194 2722 2281 2516 
Q 2338 2381 2338 1966 
L 2338 994 
Q 2338 584 2353 492 
Q 2369 400 2405 369 
Q 2441 338 2488 338 
Q 2538 338 2575 359 
Q 2641 400 2828 588 
L 2828 413 
Q 2478 -56 2159 -56 
Q 2006 -56 1915 50 
Q 1825 156 1822 413 
z
M 1822 616 
L 1822 1706 
Q 1350 1519 1213 1441 
Q 966 1303 859 1153 
Q 753 1003 753 825 
Q 753 600 887 451 
Q 1022 303 1197 303 
Q 1434 303 1822 616 
z
" transform="scale(0.015625)"/>
       <path id="TimesNewRomanPSMT-69" d="M 928 4444 
Q 1059 4444 1151 4351 
Q 1244 4259 1244 4128 
Q 1244 3997 1151 3903 
Q 1059 3809 928 3809 
Q 797 3809 703 3903 
Q 609 3997 609 4128 
Q 609 4259 701 4351 
Q 794 4444 928 4444 
z
M 1188 2947 
L 1188 647 
Q 1188 378 1227 289 
Q 1266 200 1342 156 
Q 1419 113 1622 113 
L 1622 0 
L 231 0 
L 231 113 
Q 441 113 512 153 
Q 584 194 626 287 
Q 669 381 669 647 
L 669 1750 
Q 669 2216 641 2353 
Q 619 2453 572 2492 
Q 525 2531 444 2531 
Q 356 2531 231 2484 
L 188 2597 
L 1050 2947 
L 1188 2947 
z
" transform="scale(0.015625)"/>
       <path id="TimesNewRomanPSMT-6e" d="M 1034 2341 
Q 1538 2947 1994 2947 
Q 2228 2947 2397 2830 
Q 2566 2713 2666 2444 
Q 2734 2256 2734 1869 
L 2734 647 
Q 2734 375 2778 278 
Q 2813 200 2889 156 
Q 2966 113 3172 113 
L 3172 0 
L 1756 0 
L 1756 113 
L 1816 113 
Q 2016 113 2095 173 
Q 2175 234 2206 353 
Q 2219 400 2219 647 
L 2219 1819 
Q 2219 2209 2117 2386 
Q 2016 2563 1775 2563 
Q 1403 2563 1034 2156 
L 1034 647 
Q 1034 356 1069 288 
Q 1113 197 1189 155 
Q 1266 113 1500 113 
L 1500 0 
L 84 0 
L 84 113 
L 147 113 
Q 366 113 442 223 
Q 519 334 519 647 
L 519 1709 
Q 519 2225 495 2337 
Q 472 2450 423 2490 
Q 375 2531 294 2531 
Q 206 2531 84 2484 
L 38 2597 
L 900 2947 
L 1034 2947 
L 1034 2341 
z
" transform="scale(0.015625)"/>
       <path id="TimesNewRomanPSMT-20" transform="scale(0.015625)"/>
       <path id="TimesNewRomanPSMT-53" d="M 2934 4334 
L 2934 2869 
L 2819 2869 
Q 2763 3291 2617 3541 
Q 2472 3791 2203 3937 
Q 1934 4084 1647 4084 
Q 1322 4084 1109 3886 
Q 897 3688 897 3434 
Q 897 3241 1031 3081 
Q 1225 2847 1953 2456 
Q 2547 2138 2764 1967 
Q 2981 1797 3098 1565 
Q 3216 1334 3216 1081 
Q 3216 600 2842 251 
Q 2469 -97 1881 -97 
Q 1697 -97 1534 -69 
Q 1438 -53 1133 45 
Q 828 144 747 144 
Q 669 144 623 97 
Q 578 50 556 -97 
L 441 -97 
L 441 1356 
L 556 1356 
Q 638 900 775 673 
Q 913 447 1195 297 
Q 1478 147 1816 147 
Q 2206 147 2432 353 
Q 2659 559 2659 841 
Q 2659 997 2573 1156 
Q 2488 1316 2306 1453 
Q 2184 1547 1640 1851 
Q 1097 2156 867 2337 
Q 638 2519 519 2737 
Q 400 2956 400 3219 
Q 400 3675 750 4004 
Q 1100 4334 1641 4334 
Q 1978 4334 2356 4169 
Q 2531 4091 2603 4091 
Q 2684 4091 2736 4139 
Q 2788 4188 2819 4334 
L 2934 4334 
z
" transform="scale(0.015625)"/>
       <path id="TimesNewRomanPSMT-74" d="M 1031 3803 
L 1031 2863 
L 1700 2863 
L 1700 2644 
L 1031 2644 
L 1031 788 
Q 1031 509 1111 412 
Q 1191 316 1316 316 
Q 1419 316 1516 380 
Q 1613 444 1666 569 
L 1788 569 
Q 1678 263 1478 108 
Q 1278 -47 1066 -47 
Q 922 -47 784 33 
Q 647 113 581 261 
Q 516 409 516 719 
L 516 2644 
L 63 2644 
L 63 2747 
Q 234 2816 414 2980 
Q 594 3144 734 3369 
Q 806 3488 934 3803 
L 1031 3803 
z
" transform="scale(0.015625)"/>
       <path id="TimesNewRomanPSMT-65" d="M 681 1784 
Q 678 1147 991 784 
Q 1303 422 1725 422 
Q 2006 422 2214 576 
Q 2422 731 2563 1106 
L 2659 1044 
Q 2594 616 2278 264 
Q 1963 -88 1488 -88 
Q 972 -88 605 314 
Q 238 716 238 1394 
Q 238 2128 614 2539 
Q 991 2950 1559 2950 
Q 2041 2950 2350 2633 
Q 2659 2316 2659 1784 
L 681 1784 
z
M 681 1966 
L 2006 1966 
Q 1991 2241 1941 2353 
Q 1863 2528 1708 2628 
Q 1553 2728 1384 2728 
Q 1125 2728 920 2526 
Q 716 2325 681 1966 
z
" transform="scale(0.015625)"/>
       <path id="TimesNewRomanPSMT-70" d="M -6 2578 
L 875 2934 
L 994 2934 
L 994 2266 
Q 1216 2644 1439 2795 
Q 1663 2947 1909 2947 
Q 2341 2947 2628 2609 
Q 2981 2197 2981 1534 
Q 2981 794 2556 309 
Q 2206 -88 1675 -88 
Q 1444 -88 1275 -22 
Q 1150 25 994 166 
L 994 -706 
Q 994 -1000 1030 -1079 
Q 1066 -1159 1155 -1206 
Q 1244 -1253 1478 -1253 
L 1478 -1369 
L -22 -1369 
L -22 -1253 
L 56 -1253 
Q 228 -1256 350 -1188 
Q 409 -1153 442 -1076 
Q 475 -1000 475 -688 
L 475 2019 
Q 475 2297 450 2372 
Q 425 2447 370 2484 
Q 316 2522 222 2522 
Q 147 2522 31 2478 
L -6 2578 
z
M 994 2081 
L 994 1013 
Q 994 666 1022 556 
Q 1066 375 1236 237 
Q 1406 100 1666 100 
Q 1978 100 2172 344 
Q 2425 663 2425 1241 
Q 2425 1897 2138 2250 
Q 1938 2494 1663 2494 
Q 1513 2494 1366 2419 
Q 1253 2363 994 2081 
z
" transform="scale(0.015625)"/>
      </defs>
      <use xlink:href="#TimesNewRomanPSMT-54"/>
      <use xlink:href="#TimesNewRomanPSMT-72" x="57.583984"/>
      <use xlink:href="#TimesNewRomanPSMT-61" x="90.884766"/>
      <use xlink:href="#TimesNewRomanPSMT-69" x="135.269531"/>
      <use xlink:href="#TimesNewRomanPSMT-6e" x="163.052734"/>
      <use xlink:href="#TimesNewRomanPSMT-20" x="213.052734"/>
      <use xlink:href="#TimesNewRomanPSMT-53" x="238.052734"/>
      <use xlink:href="#TimesNewRomanPSMT-74" x="293.667969"/>
      <use xlink:href="#TimesNewRomanPSMT-65" x="321.451172"/>
      <use xlink:href="#TimesNewRomanPSMT-70" x="365.835938"/>
     </g>
    </g>
   </g>
   <g id="matplotlib.axis_2">
    <g id="ytick_1">
     <g id="line2d_7">
      <defs>
       <path id="ma33a3f1b99" d="M 0 0 
L -3.5 0 
" style="stroke: #000000; stroke-width: 0.8"/>
      </defs>
      <g>
       <use xlink:href="#ma33a3f1b99" x="45" y="256.32" style="stroke: #000000; stroke-width: 0.8"/>
      </g>
     </g>
     <g id="text_8">
      <!-- 0 -->
      <g transform="translate(33 259.791875)scale(0.1 -0.1)">
       <use xlink:href="#TimesNewRomanPSMT-30"/>
      </g>
     </g>
    </g>
    <g id="ytick_2">
     <g id="line2d_8">
      <g>
       <use xlink:href="#ma33a3f1b99" x="45" y="208.111304" style="stroke: #000000; stroke-width: 0.8"/>
      </g>
     </g>
     <g id="text_9">
      <!-- 50 -->
      <g transform="translate(28 211.583179)scale(0.1 -0.1)">
       <defs>
        <path id="TimesNewRomanPSMT-35" d="M 2778 4238 
L 2534 3706 
L 1259 3706 
L 981 3138 
Q 1809 3016 2294 2522 
Q 2709 2097 2709 1522 
Q 2709 1188 2573 903 
Q 2438 619 2231 419 
Q 2025 219 1772 97 
Q 1413 -75 1034 -75 
Q 653 -75 479 54 
Q 306 184 306 341 
Q 306 428 378 495 
Q 450 563 559 563 
Q 641 563 702 538 
Q 763 513 909 409 
Q 1144 247 1384 247 
Q 1750 247 2026 523 
Q 2303 800 2303 1197 
Q 2303 1581 2056 1914 
Q 1809 2247 1375 2428 
Q 1034 2569 447 2591 
L 1259 4238 
L 2778 4238 
z
" transform="scale(0.015625)"/>
       </defs>
       <use xlink:href="#TimesNewRomanPSMT-35"/>
       <use xlink:href="#TimesNewRomanPSMT-30" x="50"/>
      </g>
     </g>
    </g>
    <g id="ytick_3">
     <g id="line2d_9">
      <g>
       <use xlink:href="#ma33a3f1b99" x="45" y="159.902609" style="stroke: #000000; stroke-width: 0.8"/>
      </g>
     </g>
     <g id="text_10">
      <!-- 100 -->
      <g transform="translate(23 163.374484)scale(0.1 -0.1)">
       <use xlink:href="#TimesNewRomanPSMT-31"/>
       <use xlink:href="#TimesNewRomanPSMT-30" x="50"/>
       <use xlink:href="#TimesNewRomanPSMT-30" x="100"/>
      </g>
     </g>
    </g>
    <g id="ytick_4">
     <g id="line2d_10">
      <g>
       <use xlink:href="#ma33a3f1b99" x="45" y="111.693913" style="stroke: #000000; stroke-width: 0.8"/>
      </g>
     </g>
     <g id="text_11">
      <!-- 150 -->
      <g transform="translate(23 115.165788)scale(0.1 -0.1)">
       <use xlink:href="#TimesNewRomanPSMT-31"/>
       <use xlink:href="#TimesNewRomanPSMT-35" x="50"/>
       <use xlink:href="#TimesNewRomanPSMT-30" x="100"/>
      </g>
     </g>
    </g>
    <g id="ytick_5">
     <g id="line2d_11">
      <g>
       <use xlink:href="#ma33a3f1b99" x="45" y="63.485217" style="stroke: #000000; stroke-width: 0.8"/>
      </g>
     </g>
     <g id="text_12">
      <!-- 200 -->
      <g transform="translate(23 66.957092)scale(0.1 -0.1)">
       <use xlink:href="#TimesNewRomanPSMT-32"/>
       <use xlink:href="#TimesNewRomanPSMT-30" x="50"/>
       <use xlink:href="#TimesNewRomanPSMT-30" x="100"/>
      </g>
     </g>
    </g>
    <g id="text_13">
     <!-- Actor Loss -->
     <g transform="translate(16.860937 167.520469)rotate(-90)scale(0.1 -0.1)">
      <defs>
       <path id="TimesNewRomanPSMT-41" d="M 2928 1419 
L 1288 1419 
L 1000 750 
Q 894 503 894 381 
Q 894 284 986 211 
Q 1078 138 1384 116 
L 1384 0 
L 50 0 
L 50 116 
Q 316 163 394 238 
Q 553 388 747 847 
L 2238 4334 
L 2347 4334 
L 3822 809 
Q 4000 384 4145 257 
Q 4291 131 4550 116 
L 4550 0 
L 2878 0 
L 2878 116 
Q 3131 128 3220 200 
Q 3309 272 3309 375 
Q 3309 513 3184 809 
L 2928 1419 
z
M 2841 1650 
L 2122 3363 
L 1384 1650 
L 2841 1650 
z
" transform="scale(0.015625)"/>
       <path id="TimesNewRomanPSMT-63" d="M 2631 1088 
Q 2516 522 2178 217 
Q 1841 -88 1431 -88 
Q 944 -88 581 321 
Q 219 731 219 1428 
Q 219 2103 620 2525 
Q 1022 2947 1584 2947 
Q 2006 2947 2278 2723 
Q 2550 2500 2550 2259 
Q 2550 2141 2473 2067 
Q 2397 1994 2259 1994 
Q 2075 1994 1981 2113 
Q 1928 2178 1911 2362 
Q 1894 2547 1784 2644 
Q 1675 2738 1481 2738 
Q 1169 2738 978 2506 
Q 725 2200 725 1697 
Q 725 1184 976 792 
Q 1228 400 1656 400 
Q 1963 400 2206 609 
Q 2378 753 2541 1131 
L 2631 1088 
z
" transform="scale(0.015625)"/>
       <path id="TimesNewRomanPSMT-6f" d="M 1600 2947 
Q 2250 2947 2644 2453 
Q 2978 2031 2978 1484 
Q 2978 1100 2793 706 
Q 2609 313 2286 112 
Q 1963 -88 1566 -88 
Q 919 -88 538 428 
Q 216 863 216 1403 
Q 216 1797 411 2186 
Q 606 2575 925 2761 
Q 1244 2947 1600 2947 
z
M 1503 2744 
Q 1338 2744 1170 2645 
Q 1003 2547 900 2300 
Q 797 2053 797 1666 
Q 797 1041 1045 587 
Q 1294 134 1700 134 
Q 2003 134 2200 384 
Q 2397 634 2397 1244 
Q 2397 2006 2069 2444 
Q 1847 2744 1503 2744 
z
" transform="scale(0.015625)"/>
       <path id="TimesNewRomanPSMT-4c" d="M 3669 1172 
L 3772 1150 
L 3409 0 
L 128 0 
L 128 116 
L 288 116 
Q 556 116 672 291 
Q 738 391 738 753 
L 738 3488 
Q 738 3884 650 3984 
Q 528 4122 288 4122 
L 128 4122 
L 128 4238 
L 2047 4238 
L 2047 4122 
Q 1709 4125 1573 4059 
Q 1438 3994 1388 3894 
Q 1338 3794 1338 3416 
L 1338 753 
Q 1338 494 1388 397 
Q 1425 331 1503 300 
Q 1581 269 1991 269 
L 2300 269 
Q 2788 269 2984 341 
Q 3181 413 3343 595 
Q 3506 778 3669 1172 
z
" transform="scale(0.015625)"/>
       <path id="TimesNewRomanPSMT-73" d="M 2050 2947 
L 2050 1972 
L 1947 1972 
Q 1828 2431 1642 2597 
Q 1456 2763 1169 2763 
Q 950 2763 815 2647 
Q 681 2531 681 2391 
Q 681 2216 781 2091 
Q 878 1963 1175 1819 
L 1631 1597 
Q 2266 1288 2266 781 
Q 2266 391 1970 151 
Q 1675 -88 1309 -88 
Q 1047 -88 709 6 
Q 606 38 541 38 
Q 469 38 428 -44 
L 325 -44 
L 325 978 
L 428 978 
Q 516 541 762 319 
Q 1009 97 1316 97 
Q 1531 97 1667 223 
Q 1803 350 1803 528 
Q 1803 744 1651 891 
Q 1500 1038 1047 1263 
Q 594 1488 453 1669 
Q 313 1847 313 2119 
Q 313 2472 555 2709 
Q 797 2947 1181 2947 
Q 1350 2947 1591 2875 
Q 1750 2828 1803 2828 
Q 1853 2828 1881 2850 
Q 1909 2872 1947 2947 
L 2050 2947 
z
" transform="scale(0.015625)"/>
      </defs>
      <use xlink:href="#TimesNewRomanPSMT-41"/>
      <use xlink:href="#TimesNewRomanPSMT-63" x="72.216797"/>
      <use xlink:href="#TimesNewRomanPSMT-74" x="116.601562"/>
      <use xlink:href="#TimesNewRomanPSMT-6f" x="144.384766"/>
      <use xlink:href="#TimesNewRomanPSMT-72" x="194.384766"/>
      <use xlink:href="#TimesNewRomanPSMT-20" x="227.685547"/>
      <use xlink:href="#TimesNewRomanPSMT-4c" x="252.685547"/>
      <use xlink:href="#TimesNewRomanPSMT-6f" x="313.769531"/>
      <use xlink:href="#TimesNewRomanPSMT-73" x="363.769531"/>
      <use xlink:href="#TimesNewRomanPSMT-73" x="402.685547"/>
     </g>
    </g>
   </g>
   <g id="line2d_12">
    <path d="M 45.278721 258.712845 
L 45.557443 257.853837 
L 45.836164 252.921364 
L 46.114885 250.326187 
L 46.393606 238.8247 
L 46.672328 236.41531 
L 46.951049 235.602915 
L 47.787213 222.2622 
L 48.065934 221.468768 
L 48.344655 219.881682 
L 48.902098 186.049044 
L 49.180819 181.469703 
L 49.45954 181.821043 
L 49.738262 180.601541 
L 50.295704 175.046345 
L 50.574426 174.781122 
L 50.853147 166.229794 
L 51.131868 164.226083 
L 51.410589 164.785836 
L 51.689311 160.541748 
L 51.968032 151.136351 
L 52.246753 137.526538 
L 52.525475 130.447225 
L 52.804196 129.53881 
L 53.082917 130.46126 
L 53.361638 126.622778 
L 53.64036 119.745154 
L 53.919081 117.138047 
L 54.476523 121.039762 
L 54.755245 120.317794 
L 55.033966 120.071557 
L 55.312687 118.687146 
L 55.591409 122.895564 
L 55.87013 108.590846 
L 56.148851 112.576391 
L 56.427572 131.270854 
L 56.706294 114.63269 
L 56.985015 116.641263 
L 57.263736 113.467519 
L 57.542458 102.367337 
L 57.821179 113.653568 
L 58.0999 113.022727 
L 58.378621 107.264415 
L 58.657343 108.888575 
L 58.936064 128.273464 
L 59.214785 123.743395 
L 59.493506 117.11339 
L 59.772228 102.424626 
L 60.32967 148.328675 
L 60.608392 134.431593 
L 60.887113 139.025329 
L 61.165834 135.484017 
L 61.444555 139.501744 
L 61.723277 158.462166 
L 62.001998 159.330631 
L 62.280719 153.185375 
L 62.559441 159.804839 
L 62.838162 141.190373 
L 63.116883 142.596837 
L 63.395604 131.818278 
L 63.674326 143.427263 
L 63.953047 163.905734 
L 64.231768 155.709829 
L 64.789211 147.233548 
L 65.067932 138.477538 
L 65.346653 141.618761 
L 65.625375 166.348021 
L 65.904096 161.080373 
L 66.461538 129.241949 
L 66.74026 163.350057 
L 67.018981 218.323771 
L 67.297702 218.042821 
L 67.576424 219.079121 
L 67.855145 182.231291 
L 68.412587 151.418832 
L 68.691309 145.572291 
L 68.97003 156.500172 
L 69.248751 138.30659 
L 69.527473 178.81949 
L 70.084915 153.404998 
L 70.363636 154.95829 
L 70.642358 151.760587 
L 70.921079 150.312656 
L 71.1998 150.353578 
L 71.478521 127.006176 
L 71.757243 145.693313 
L 72.035964 142.523703 
L 72.314685 144.053868 
L 72.593407 186.189692 
L 72.872128 176.954574 
L 73.42957 243.149864 
L 73.708292 237.877669 
L 73.987013 180.564731 
L 74.265734 221.099791 
L 74.544456 214.234896 
L 75.101898 156.147736 
L 75.380619 214.071106 
L 75.938062 179.304983 
L 76.216783 201.751767 
L 76.495504 202.344978 
L 76.774226 237.738033 
L 77.052947 161.805438 
L 77.331668 174.472255 
L 77.61039 143.014176 
L 77.889111 176.212913 
L 78.167832 173.662522 
L 78.725275 161.968662 
L 79.003996 170.978574 
L 79.282717 189.026381 
L 79.84016 125.98133 
L 80.118881 130.48124 
L 80.676324 186.718843 
L 80.955045 182.368644 
L 81.233766 132.713643 
L 81.512488 163.857876 
L 81.791209 125.043829 
L 82.06993 103.564698 
L 82.348651 118.65369 
L 82.627373 155.537712 
L 82.906094 131.552738 
L 83.184815 143.857269 
L 83.463536 111.99688 
L 83.742258 116.876142 
L 84.020979 147.872135 
L 84.2997 158.504795 
L 84.857143 92.955195 
L 85.414585 121.999728 
L 85.972028 87.846674 
L 86.250749 100.733129 
L 86.529471 99.625262 
L 86.808192 85.841 
L 87.086913 82.616631 
L 87.365634 103.874815 
L 87.644356 86.784577 
L 87.923077 94.700833 
L 88.201798 83.737342 
L 88.480519 85.958314 
L 88.759241 98.30426 
L 89.037962 103.041417 
L 89.316683 41.524014 
L 89.595405 34.257401 
L 89.874126 41.659513 
L 90.152847 53.12051 
L 90.431568 50.463338 
L 90.71029 60.571348 
L 90.989011 80.111833 
L 91.267732 43.746016 
L 91.546454 60.333115 
L 91.825175 40.792351 
L 92.103896 43.227679 
L 92.382617 48.712153 
L 92.661339 47.20544 
L 93.218781 39.035223 
L 93.497502 57.968847 
L 93.776224 66.357981 
L 94.054945 35.944352 
L 94.333666 56.214014 
L 94.612388 25.845331 
L 94.891109 40.644288 
L 95.16983 48.421251 
L 95.448551 48.574801 
L 95.727273 44.598496 
L 96.005994 52.599259 
L 96.284715 75.228907 
L 96.563437 72.144069 
L 96.842158 56.042544 
L 97.120879 59.021941 
L 97.3996 60.73558 
L 97.678322 47.835855 
L 97.957043 49.192872 
L 98.235764 53.180815 
L 98.514486 70.535813 
L 98.793207 64.91581 
L 99.071928 45.799623 
L 99.350649 62.375599 
L 99.629371 71.39887 
L 99.908092 65.156706 
L 100.186813 62.713596 
L 100.465534 63.247587 
L 100.744256 41.209793 
L 101.022977 60.046376 
L 101.301698 59.88182 
L 101.58042 81.592608 
L 101.859141 38.329247 
L 102.137862 38.868181 
L 102.416583 55.423369 
L 102.695305 60.566037 
L 102.974026 58.37115 
L 103.252747 61.408704 
L 103.531469 70.191284 
L 103.81019 63.152753 
L 104.088911 62.952756 
L 104.367632 59.221614 
L 104.646354 60.616882 
L 104.925075 57.682593 
L 105.203796 67.886291 
L 105.482517 41.902057 
L 105.761239 56.373567 
L 106.03996 60.359244 
L 106.597403 81.374074 
L 106.876124 47.171323 
L 107.154845 78.834055 
L 107.433566 47.524855 
L 107.712288 40.740991 
L 108.26973 73.306194 
L 108.548452 67.981773 
L 108.827173 47.995732 
L 109.105894 57.443109 
L 109.384615 48.36021 
L 109.663337 55.641697 
L 109.942058 71.376346 
L 110.220779 62.400919 
L 110.4995 73.827945 
L 110.778222 59.298764 
L 111.335664 74.3809 
L 111.614386 76.164157 
L 111.893107 67.003681 
L 112.171828 69.415999 
L 112.450549 97.537317 
L 113.007992 60.735639 
L 113.565435 74.240841 
L 114.122877 101.472737 
L 114.401598 101.996135 
L 114.68032 78.740663 
L 114.959041 76.03728 
L 115.237762 104.785172 
L 115.516484 109.547208 
L 115.795205 151.506788 
L 116.352647 82.727737 
L 116.631369 93.182262 
L 116.91009 68.685542 
L 117.188811 128.580109 
L 117.467532 75.85688 
L 117.746254 119.905928 
L 118.024975 112.872178 
L 118.582418 72.854738 
L 118.861139 95.799123 
L 119.418581 78.607032 
L 119.697303 82.966309 
L 120.254745 53.568921 
L 120.533467 58.782221 
L 120.812188 101.483168 
L 121.090909 60.771124 
L 121.36963 96.226731 
L 121.648352 101.392041 
L 121.927073 97.419325 
L 122.205794 51.196384 
L 122.484515 47.595326 
L 122.763237 74.068356 
L 123.041958 88.702037 
L 123.320679 86.301254 
L 123.599401 146.854711 
L 124.156843 80.711117 
L 124.435564 101.326954 
L 124.714286 55.77521 
L 124.993007 59.418462 
L 125.271728 65.518404 
L 125.55045 59.86474 
L 125.829171 82.455725 
L 126.107892 49.482157 
L 126.386613 49.482672 
L 126.944056 70.934232 
L 127.222777 97.783009 
L 127.501499 80.549548 
L 128.058941 86.690095 
L 128.337662 73.863681 
L 128.616384 69.531401 
L 128.895105 60.307942 
L 129.173826 65.269798 
L 129.452547 50.204552 
L 129.731269 49.641371 
L 130.00999 130.670864 
L 130.288711 131.690076 
L 130.567433 133.535006 
L 130.846154 106.561794 
L 131.124875 114.858227 
L 131.403596 108.880219 
L 131.682318 198.709597 
L 131.961039 178.965552 
L 132.23976 144.959075 
L 132.518482 192.007058 
L 132.797203 176.378381 
L 133.075924 167.418659 
L 133.354645 195.023735 
L 133.633367 207.552148 
L 133.894596 289 
M 134.192982 289 
L 134.46953 237.657969 
L 134.748252 216.383319 
L 135.026973 230.391966 
L 135.305694 231.046388 
L 135.584416 197.361422 
L 135.863137 200.278767 
L 136.141858 257.127652 
L 136.420579 177.964193 
L 136.699301 214.069153 
L 136.978022 203.903688 
L 137.256743 222.534352 
L 137.535465 186.187507 
L 137.814186 227.931612 
L 138.092907 187.704614 
L 138.371628 179.777044 
L 138.65035 202.223655 
L 138.929071 182.917045 
L 139.207792 175.459079 
L 139.486513 176.55731 
L 139.765235 187.414138 
L 140.043956 180.435823 
L 140.322677 161.051162 
L 140.601399 217.976789 
L 140.88012 178.842529 
L 141.158841 209.272687 
L 141.437562 168.994085 
L 141.716284 148.303863 
L 141.995005 176.037125 
L 142.273726 187.784192 
L 142.552448 155.07414 
L 142.831169 178.078896 
L 143.388611 193.430331 
L 143.667333 160.281784 
L 143.946054 165.621256 
L 144.224775 176.661766 
L 144.503497 146.596373 
L 144.782218 138.779806 
L 145.33966 77.757598 
L 145.897103 125.390447 
L 146.175824 128.115853 
L 146.454545 90.803017 
L 146.733267 89.793736 
L 147.011988 110.521327 
L 147.290709 75.328023 
L 147.569431 93.195503 
L 147.848152 95.22101 
L 148.126873 74.19335 
L 148.405594 116.481107 
L 148.684316 106.611786 
L 148.963037 119.993833 
L 149.241758 82.636669 
L 149.52048 73.492847 
L 149.799201 77.655761 
L 150.077922 75.871989 
L 150.635365 105.60221 
L 150.914086 80.124573 
L 151.192807 77.882092 
L 151.75025 63.545993 
L 152.307692 115.032668 
L 152.586414 84.855567 
L 152.865135 88.818484 
L 153.143856 79.816869 
L 153.422577 54.842888 
L 153.701299 75.697165 
L 153.98002 52.202988 
L 154.537463 77.889625 
L 154.816184 82.275045 
L 155.094905 63.399048 
L 155.373626 73.194632 
L 155.652348 75.583646 
L 155.931069 46.323463 
L 156.488511 76.670284 
L 156.767233 101.805731 
L 157.045954 77.55922 
L 157.324675 67.396569 
L 157.603397 84.574962 
L 157.882118 70.722877 
L 158.160839 86.815781 
L 158.43956 57.41829 
L 158.718282 41.862835 
L 158.997003 84.064819 
L 159.275724 50.294722 
L 159.554446 51.984719 
L 159.833167 41.650656 
L 160.111888 76.797661 
L 160.390609 64.770734 
L 160.669331 62.704533 
L 160.948052 84.057316 
L 161.505495 56.069982 
L 161.784216 80.815528 
L 162.062937 83.739667 
L 162.62038 49.522233 
L 162.899101 50.936759 
L 163.177822 53.559343 
L 163.456543 89.250535 
L 164.013986 77.499901 
L 164.292707 58.881602 
L 164.571429 77.049533 
L 164.85015 64.692553 
L 165.128871 72.89755 
L 165.407592 48.798219 
L 165.686314 86.139891 
L 165.965035 43.759345 
L 166.243756 72.425571 
L 166.522478 62.117902 
L 166.801199 78.671604 
L 167.07992 60.099957 
L 167.358641 51.226662 
L 167.637363 64.73591 
L 168.194805 77.974602 
L 168.473526 46.94199 
L 168.752248 64.911779 
L 169.030969 69.657072 
L 169.30969 57.238743 
L 169.588412 74.662873 
L 169.867133 73.247346 
L 170.145854 71.224031 
L 170.424575 83.555706 
L 170.703297 42.791111 
L 171.260739 86.313788 
L 171.539461 69.473847 
L 171.818182 67.037519 
L 172.096903 71.477286 
L 172.375624 63.482246 
L 172.654346 93.976894 
L 172.933067 90.093554 
L 173.211788 101.83464 
L 173.490509 86.280201 
L 173.769231 81.896737 
L 174.326673 128.018047 
L 174.605395 106.15849 
L 175.162837 112.728911 
L 175.441558 118.266761 
L 175.72028 119.06204 
L 175.999001 112.074457 
L 176.277722 142.216926 
L 176.556444 117.616868 
L 176.835165 138.636841 
L 177.392607 110.540497 
L 177.671329 125.325301 
L 177.95005 99.55607 
L 178.228771 107.801408 
L 178.507493 91.396034 
L 178.786214 119.509348 
L 179.064935 108.65786 
L 179.343656 82.507585 
L 179.622378 101.199959 
L 179.901099 93.512182 
L 180.17982 94.495526 
L 180.458541 106.176836 
L 180.737263 55.473435 
L 181.015984 86.852105 
L 181.294705 87.299221 
L 181.573427 92.63759 
L 182.130869 97.410498 
L 182.40959 75.207899 
L 182.688312 100.905834 
L 182.967033 69.235099 
L 183.245754 111.266732 
L 183.524476 98.499019 
L 183.803197 72.585035 
L 184.081918 122.209891 
L 184.360639 79.871731 
L 184.639361 108.843512 
L 184.918082 150.984132 
L 185.196803 102.781675 
L 185.475524 130.55149 
L 185.754246 139.758648 
L 186.032967 182.287138 
L 186.311688 179.188161 
L 186.59041 108.071464 
L 186.869131 125.390285 
L 187.147852 101.566262 
L 187.426573 167.146845 
L 187.705295 127.477053 
L 187.984016 163.804559 
L 188.541459 80.457318 
L 188.82018 163.54294 
L 189.377622 93.508636 
L 189.656344 120.78686 
L 189.935065 85.295033 
L 190.213786 96.362848 
L 190.492507 96.477985 
L 190.771229 80.823429 
L 191.04995 149.422234 
L 191.328671 129.094004 
L 191.607393 128.505018 
L 191.886114 121.099493 
L 192.164835 89.284314 
L 192.443556 175.448846 
L 192.722278 129.577312 
L 193.000999 133.21295 
L 193.27972 85.832687 
L 193.558442 136.974745 
L 193.837163 100.11138 
L 194.115884 209.495958 
L 194.394605 148.614847 
L 194.673327 144.132143 
L 194.952048 159.176536 
L 195.230769 165.526084 
L 195.509491 133.308793 
L 195.788212 136.605795 
L 196.066933 132.947742 
L 196.345654 124.627667 
L 196.624376 131.616574 
L 196.903097 130.382668 
L 197.181818 90.134925 
L 197.460539 139.289934 
L 197.739261 129.678693 
L 198.017982 132.371115 
L 198.296703 129.960401 
L 198.575425 150.124709 
L 199.132867 85.466193 
L 199.411588 157.830612 
L 199.69031 96.450855 
L 200.247752 116.522874 
L 200.526474 114.493645 
L 201.083916 63.554968 
L 201.362637 79.369988 
L 201.641359 80.300678 
L 201.92008 95.498363 
L 202.198801 94.639999 
L 202.477522 99.719596 
L 202.756244 132.791352 
L 203.034965 109.019572 
L 203.313686 110.116773 
L 203.592408 70.196919 
L 203.871129 95.817116 
L 204.14985 91.70643 
L 204.428571 85.491793 
L 204.707293 92.569193 
L 204.986014 78.539548 
L 205.264735 101.806658 
L 205.543457 94.381124 
L 206.100899 87.72118 
L 206.37962 74.157394 
L 206.658342 86.483463 
L 206.937063 66.364145 
L 207.215784 77.791083 
L 207.494505 75.511822 
L 207.773227 97.835723 
L 208.051948 97.31406 
L 208.330669 68.591458 
L 208.609391 63.004896 
L 208.888112 68.238735 
L 209.166833 57.679665 
L 209.445554 60.608526 
L 209.724276 71.893639 
L 210.281718 67.403277 
L 210.56044 98.286429 
L 210.839161 90.545423 
L 211.117882 72.823784 
L 211.396603 81.189584 
L 211.675325 79.080851 
L 211.954046 85.195049 
L 212.232767 84.416851 
L 212.511489 84.593941 
L 212.79021 71.012795 
L 213.068931 101.03614 
L 213.347652 88.315873 
L 213.626374 81.951878 
L 213.905095 93.269123 
L 214.183816 85.642298 
L 214.462537 104.311662 
L 214.741259 88.500187 
L 215.01998 118.593606 
L 215.298701 102.354876 
L 215.577423 102.510486 
L 215.856144 118.419635 
L 216.134865 101.834994 
L 216.413586 103.573408 
L 216.692308 123.724813 
L 216.971029 113.78458 
L 217.24975 137.052977 
L 217.528472 94.36753 
L 217.807193 89.487944 
L 218.085914 139.835268 
L 218.643357 88.953644 
L 218.922078 103.620663 
L 219.200799 108.184159 
L 219.47952 98.249531 
L 219.758242 131.35336 
L 220.036963 112.840915 
L 220.315684 135.197418 
L 220.594406 114.853725 
L 220.873127 125.761604 
L 221.151848 129.454451 
L 221.430569 126.105235 
L 221.988012 97.849464 
L 222.266733 112.840164 
L 222.545455 86.565336 
L 222.824176 110.810008 
L 223.102897 97.146415 
L 223.381618 145.642262 
L 223.66034 96.307589 
L 223.939061 121.374051 
L 224.217782 94.067991 
L 224.496503 120.360959 
L 224.775225 62.44407 
L 225.053946 96.380443 
L 225.332667 97.224066 
L 225.611389 100.031022 
L 225.89011 106.106836 
L 226.168831 109.084511 
L 226.726274 95.847953 
L 227.004995 93.758978 
L 227.283716 67.018364 
L 227.562438 83.770768 
L 227.841159 77.75701 
L 228.11988 89.623502 
L 228.398601 84.47289 
L 228.677323 113.85639 
L 228.956044 118.808315 
L 229.234765 74.726621 
L 229.513487 70.828658 
L 229.792208 86.360485 
L 230.070929 75.962013 
L 230.34965 98.180487 
L 230.628372 56.472064 
L 230.907093 69.506567 
L 231.185814 91.819154 
L 231.464535 69.676757 
L 232.021978 98.093759 
L 232.300699 67.117789 
L 232.579421 79.957355 
L 232.858142 64.048824 
L 233.415584 89.527417 
L 233.694306 78.8568 
L 233.973027 54.802827 
L 234.53047 73.25223 
L 234.809191 74.220421 
L 235.087912 132.106915 
L 235.366633 72.058797 
L 235.645355 67.63361 
L 235.924076 91.160345 
L 236.202797 85.125578 
L 236.481518 89.255831 
L 237.038961 80.815779 
L 237.317682 92.310275 
L 237.596404 82.145284 
L 237.875125 98.940059 
L 238.153846 108.350641 
L 238.432567 103.105415 
L 238.711289 66.092721 
L 239.268731 101.174242 
L 239.547453 77.502108 
L 239.826174 68.04327 
L 240.104895 77.924699 
L 240.383616 68.101206 
L 240.662338 85.853417 
L 240.941059 49.434328 
L 241.498501 62.110708 
L 241.777223 74.592137 
L 242.055944 76.902088 
L 242.334665 89.477778 
L 242.613387 59.4804 
L 242.892108 71.858918 
L 243.170829 67.177579 
L 243.44955 47.386885 
L 243.728272 61.516823 
L 244.006993 93.998785 
L 244.285714 41.142706 
L 244.564436 116.089529 
L 244.843157 82.43682 
L 245.121878 71.950854 
L 245.400599 85.10579 
L 245.679321 72.677383 
L 245.958042 84.426693 
L 246.236763 108.305092 
L 246.515485 85.07491 
L 247.072927 72.120721 
L 247.351648 52.033681 
L 247.63037 111.6624 
L 247.909091 85.122871 
L 248.187812 80.445062 
L 248.466533 89.049817 
L 249.023976 92.357427 
L 249.302697 80.578192 
L 249.581419 116.935093 
L 249.86014 123.039758 
L 250.138861 79.763656 
L 250.417582 100.447728 
L 250.696304 74.774303 
L 250.975025 90.346986 
L 251.532468 74.005182 
L 251.811189 82.221199 
L 252.08991 97.743845 
L 252.368631 89.868532 
L 252.647353 119.247442 
L 252.926074 72.585227 
L 253.204795 128.820505 
L 253.483516 121.426485 
L 253.762238 85.913324 
L 254.040959 99.071556 
L 254.31968 99.75133 
L 254.598402 58.491127 
L 254.877123 50.647298 
L 255.155844 62.175456 
L 255.434565 94.254776 
L 255.713287 93.26134 
L 255.992008 56.181088 
L 256.270729 89.116919 
L 256.549451 74.883584 
L 256.828172 129.3132 
L 257.106893 110.203736 
L 257.385614 136.54599 
L 257.664336 84.678697 
L 257.943057 85.245423 
L 258.221778 98.705901 
L 258.5005 82.454312 
L 258.779221 98.008075 
L 259.057942 103.152582 
L 259.336663 104.524664 
L 259.615385 137.100917 
L 259.894106 117.876405 
L 260.172827 115.968404 
L 260.73027 76.232686 
L 261.008991 82.707729 
L 261.287712 76.25933 
L 261.566434 93.625892 
L 261.845155 98.01218 
L 262.123876 93.798597 
L 262.402597 113.381306 
L 262.681319 104.796162 
L 262.96004 64.519053 
L 263.238761 94.83951 
L 263.517483 89.944653 
L 263.796204 144.906104 
L 264.074925 85.289854 
L 264.353646 88.220377 
L 264.632368 165.959039 
L 264.911089 129.617093 
L 265.18981 58.220512 
L 265.468531 66.331367 
L 265.747253 84.516379 
L 266.025974 94.988911 
L 266.304695 129.364339 
L 266.583417 111.378176 
L 266.862138 79.054384 
L 267.140859 113.116178 
L 267.41958 75.576408 
L 267.698302 109.73361 
L 267.977023 81.825854 
L 268.255744 83.55119 
L 268.534466 69.872487 
L 268.813187 66.853573 
L 269.370629 102.068298 
L 269.649351 76.120168 
L 269.928072 90.69656 
L 270.206793 87.857914 
L 270.485514 82.051038 
L 270.764236 88.622945 
L 271.321678 84.267464 
L 271.6004 85.850504 
L 271.879121 81.86596 
L 272.157842 87.983232 
L 272.436563 72.703336 
L 272.715285 93.644517 
L 272.994006 102.861532 
L 273.551449 79.946836 
L 273.83017 122.526422 
L 274.108891 136.146821 
L 274.387612 128.220662 
L 274.666334 165.51338 
L 274.945055 129.259868 
L 275.223776 121.203317 
L 275.502498 97.10631 
L 275.781219 129.363206 
L 276.338661 83.337496 
L 276.617383 112.632032 
L 276.896104 75.216755 
L 277.453546 113.513009 
L 277.732268 59.652503 
L 278.010989 101.89702 
L 278.28971 66.61278 
L 278.568432 90.143958 
L 278.847153 99.554408 
L 279.125874 103.704787 
L 279.404595 88.650368 
L 279.683317 90.698164 
L 279.962038 86.183689 
L 280.240759 131.264484 
L 280.519481 120.504152 
L 280.798202 75.985228 
L 281.076923 73.742585 
L 281.634366 95.624475 
L 281.913087 57.035936 
L 282.191808 117.283521 
L 282.749251 66.514738 
L 283.027972 102.688929 
L 283.306693 67.298395 
L 283.585415 77.689393 
L 283.864136 95.144124 
L 284.142857 76.637623 
L 284.421578 84.240879 
L 284.7003 56.302772 
L 284.979021 107.880162 
L 285.257742 106.640121 
L 285.536464 101.27021 
L 285.815185 114.658348 
L 286.372627 86.767481 
L 286.651349 145.396496 
L 286.93007 83.613437 
L 287.208791 128.240215 
L 287.487512 89.73221 
L 287.766234 94.664009 
L 288.044955 143.924872 
L 288.323676 41.678992 
L 288.602398 77.116179 
L 288.881119 62.272717 
L 289.15984 84.553777 
L 289.438561 121.86626 
L 289.717283 142.467915 
L 289.996004 118.613673 
L 290.274725 115.165798 
L 290.553447 107.776662 
L 291.110889 51.042304 
L 291.38961 85.69379 
L 291.668332 81.12847 
L 291.947053 63.320294 
L 292.504496 77.174204 
L 292.783217 73.521109 
L 293.061938 98.23832 
L 293.340659 68.898883 
L 293.619381 76.093098 
L 293.898102 64.027948 
L 294.176823 86.266312 
L 294.455544 76.283443 
L 294.734266 41.67321 
L 295.012987 64.242024 
L 295.291708 67.012023 
L 295.57043 79.357866 
L 295.849151 63.406655 
L 296.127872 64.136494 
L 296.406593 69.753642 
L 296.685315 58.968315 
L 296.964036 66.636467 
L 297.242757 78.556423 
L 297.521479 119.491634 
L 297.8002 61.795074 
L 298.357642 111.739756 
L 298.636364 67.115802 
L 298.915085 75.339042 
L 299.193806 62.738106 
L 299.472527 56.912531 
L 299.751249 70.705164 
L 300.02997 55.599429 
L 300.308691 73.143258 
L 300.587413 73.242873 
L 300.866134 61.366068 
L 301.144855 66.53713 
L 301.423576 50.201594 
L 301.702298 79.767746 
L 301.981019 50.178099 
L 302.25974 70.807796 
L 302.538462 49.085724 
L 302.817183 49.854756 
L 303.095904 70.821537 
L 303.374625 72.161459 
L 303.653347 97.147651 
L 303.932068 74.741789 
L 304.210789 74.53985 
L 304.48951 59.893399 
L 304.768232 66.989116 
L 305.046953 90.91992 
L 305.325674 49.623069 
L 305.604396 88.267162 
L 305.883117 79.736041 
L 306.161838 89.377589 
L 306.440559 45.332925 
L 306.719281 48.759541 
L 306.998002 90.728559 
L 307.276723 87.522919 
L 307.555445 78.10707 
L 307.834166 64.032523 
L 308.112887 66.748073 
L 308.391608 78.503003 
L 308.67033 53.518635 
L 308.949051 57.815223 
L 309.227772 99.955137 
L 309.506494 66.972315 
L 309.785215 51.449918 
L 310.063936 71.575048 
L 310.342657 61.287726 
L 310.621379 104.5663 
L 310.9001 62.816978 
L 311.178821 68.968103 
L 311.457542 86.83498 
L 311.736264 76.060731 
L 312.014985 85.722037 
L 312.293706 72.824666 
L 312.572428 53.17031 
L 312.851149 73.841245 
L 313.12987 70.025228 
L 313.408591 64.051281 
L 313.687313 72.898124 
L 313.966034 74.764519 
L 314.244755 60.305515 
L 314.523477 76.524619 
L 314.802198 53.746805 
L 315.080919 55.617525 
L 315.35964 69.184077 
L 315.917083 46.784453 
L 316.195804 78.026521 
L 316.474525 50.587685 
L 317.031968 57.00813 
L 317.310689 66.531716 
L 317.589411 60.043168 
L 317.868132 56.847724 
L 318.146853 74.606143 
L 318.704296 34.860525 
L 318.983017 40.549733 
L 319.261738 86.547594 
L 319.54046 73.845173 
L 319.819181 89.976475 
L 320.097902 62.36458 
L 320.376623 59.560669 
L 320.934066 89.792897 
L 321.212787 80.935285 
L 321.77023 85.128727 
L 322.048951 84.623748 
L 322.327672 64.438166 
L 322.606394 89.848995 
L 322.885115 41.514363 
L 323.163836 60.42639 
L 323.442557 95.161411 
L 323.721279 71.166154 
L 323.721279 71.166154 
" clip-path="url(#p72c461b477)" style="fill: none; stroke: #0000ff; stroke-width: 1.5; stroke-linecap: square"/>
   </g>
   <g id="patch_3">
    <path d="M 45 256.32 
L 45 34.56 
" style="fill: none; stroke: #000000; stroke-width: 0.8; stroke-linejoin: miter; stroke-linecap: square"/>
   </g>
   <g id="patch_4">
    <path d="M 324 256.32 
L 324 34.56 
" style="fill: none; stroke: #000000; stroke-width: 0.8; stroke-linejoin: miter; stroke-linecap: square"/>
   </g>
   <g id="patch_5">
    <path d="M 45 256.32 
L 324 256.32 
" style="fill: none; stroke: #000000; stroke-width: 0.8; stroke-linejoin: miter; stroke-linecap: square"/>
   </g>
   <g id="patch_6">
    <path d="M 45 34.56 
L 324 34.56 
" style="fill: none; stroke: #000000; stroke-width: 0.8; stroke-linejoin: miter; stroke-linecap: square"/>
   </g>
  </g>
 </g>
 <defs>
  <clipPath id="p72c461b477">
   <rect x="45" y="34.56" width="279" height="221.76"/>
  </clipPath>
 </defs>
</svg>
