<?xml version="1.0" encoding="utf-8" standalone="no"?>
<!DOCTYPE svg PUBLIC "-//W3C//DTD SVG 1.1//EN"
  "http://www.w3.org/Graphics/SVG/1.1/DTD/svg11.dtd">
<svg xmlns:xlink="http://www.w3.org/1999/xlink" width="360pt" height="288pt" viewBox="0 0 360 288" xmlns="http://www.w3.org/2000/svg" version="1.1">
 <metadata>
  <rdf:RDF xmlns:dc="http://purl.org/dc/elements/1.1/" xmlns:cc="http://creativecommons.org/ns#" xmlns:rdf="http://www.w3.org/1999/02/22-rdf-syntax-ns#">
   <cc:Work>
    <dc:type rdf:resource="http://purl.org/dc/dcmitype/StillImage"/>
    <dc:date>2025-06-13T17:40:22.732527</dc:date>
    <dc:format>image/svg+xml</dc:format>
    <dc:creator>
     <cc:Agent>
      <dc:title>Matplotlib v3.5.1, https://matplotlib.org/</dc:title>
     </cc:Agent>
    </dc:creator>
   </cc:Work>
  </rdf:RDF>
 </metadata>
 <defs>
  <style type="text/css">*{stroke-linejoin: round; stroke-linecap: butt}</style>
 </defs>
 <g id="figure_1">
  <g id="patch_1">
   <path d="M 0 288 
L 360 288 
L 360 0 
L 0 0 
z
" style="fill: #ffffff"/>
  </g>
  <g id="axes_1">
   <g id="patch_2">
    <path d="M 45 256.32 
L 324 256.32 
L 324 34.56 
L 45 34.56 
z
" style="fill: #ffffff"/>
   </g>
   <g id="matplotlib.axis_1">
    <g id="xtick_1">
     <g id="line2d_1">
      <defs>
       <path id="mc04730524a" d="M 0 0 
L 0 3.5 
" style="stroke: #000000; stroke-width: 0.8"/>
      </defs>
      <g>
       <use xlink:href="#mc04730524a" x="45" y="256.32" style="stroke: #000000; stroke-width: 0.8"/>
      </g>
     </g>
     <g id="text_1">
      <!-- 0 -->
      <g transform="translate(42.5 270.26375)scale(0.1 -0.1)">
       <defs>
        <path id="TimesNewRomanPSMT-30" d="M 231 2094 
Q 231 2819 450 3342 
Q 669 3866 1031 4122 
Q 1313 4325 1613 4325 
Q 2100 4325 2488 3828 
Q 2972 3213 2972 2159 
Q 2972 1422 2759 906 
Q 2547 391 2217 158 
Q 1888 -75 1581 -75 
Q 975 -75 572 641 
Q 231 1244 231 2094 
z
M 844 2016 
Q 844 1141 1059 588 
Q 1238 122 1591 122 
Q 1759 122 1940 273 
Q 2122 425 2216 781 
Q 2359 1319 2359 2297 
Q 2359 3022 2209 3506 
Q 2097 3866 1919 4016 
Q 1791 4119 1609 4119 
Q 1397 4119 1231 3928 
Q 1006 3669 925 3112 
Q 844 2556 844 2016 
z
" transform="scale(0.015625)"/>
       </defs>
       <use xlink:href="#TimesNewRomanPSMT-30"/>
      </g>
     </g>
    </g>
    <g id="xtick_2">
     <g id="line2d_2">
      <g>
       <use xlink:href="#mc04730524a" x="100.744256" y="256.32" style="stroke: #000000; stroke-width: 0.8"/>
      </g>
     </g>
     <g id="text_2">
      <!-- 200 -->
      <g transform="translate(93.244256 270.26375)scale(0.1 -0.1)">
       <defs>
        <path id="TimesNewRomanPSMT-32" d="M 2934 816 
L 2638 0 
L 138 0 
L 138 116 
Q 1241 1122 1691 1759 
Q 2141 2397 2141 2925 
Q 2141 3328 1894 3587 
Q 1647 3847 1303 3847 
Q 991 3847 742 3664 
Q 494 3481 375 3128 
L 259 3128 
Q 338 3706 661 4015 
Q 984 4325 1469 4325 
Q 1984 4325 2329 3994 
Q 2675 3663 2675 3213 
Q 2675 2891 2525 2569 
Q 2294 2063 1775 1497 
Q 997 647 803 472 
L 1909 472 
Q 2247 472 2383 497 
Q 2519 522 2628 598 
Q 2738 675 2819 816 
L 2934 816 
z
" transform="scale(0.015625)"/>
       </defs>
       <use xlink:href="#TimesNewRomanPSMT-32"/>
       <use xlink:href="#TimesNewRomanPSMT-30" x="50"/>
       <use xlink:href="#TimesNewRomanPSMT-30" x="100"/>
      </g>
     </g>
    </g>
    <g id="xtick_3">
     <g id="line2d_3">
      <g>
       <use xlink:href="#mc04730524a" x="156.488511" y="256.32" style="stroke: #000000; stroke-width: 0.8"/>
      </g>
     </g>
     <g id="text_3">
      <!-- 400 -->
      <g transform="translate(148.988511 270.26375)scale(0.1 -0.1)">
       <defs>
        <path id="TimesNewRomanPSMT-34" d="M 2978 1563 
L 2978 1119 
L 2409 1119 
L 2409 0 
L 1894 0 
L 1894 1119 
L 100 1119 
L 100 1519 
L 2066 4325 
L 2409 4325 
L 2409 1563 
L 2978 1563 
z
M 1894 1563 
L 1894 3666 
L 406 1563 
L 1894 1563 
z
" transform="scale(0.015625)"/>
       </defs>
       <use xlink:href="#TimesNewRomanPSMT-34"/>
       <use xlink:href="#TimesNewRomanPSMT-30" x="50"/>
       <use xlink:href="#TimesNewRomanPSMT-30" x="100"/>
      </g>
     </g>
    </g>
    <g id="xtick_4">
     <g id="line2d_4">
      <g>
       <use xlink:href="#mc04730524a" x="212.232767" y="256.32" style="stroke: #000000; stroke-width: 0.8"/>
      </g>
     </g>
     <g id="text_4">
      <!-- 600 -->
      <g transform="translate(204.732767 270.26375)scale(0.1 -0.1)">
       <defs>
        <path id="TimesNewRomanPSMT-36" d="M 2869 4325 
L 2869 4209 
Q 2456 4169 2195 4045 
Q 1934 3922 1679 3669 
Q 1425 3416 1258 3105 
Q 1091 2794 978 2366 
Q 1428 2675 1881 2675 
Q 2316 2675 2634 2325 
Q 2953 1975 2953 1425 
Q 2953 894 2631 456 
Q 2244 -75 1606 -75 
Q 1172 -75 869 213 
Q 275 772 275 1663 
Q 275 2231 503 2743 
Q 731 3256 1154 3653 
Q 1578 4050 1965 4187 
Q 2353 4325 2688 4325 
L 2869 4325 
z
M 925 2138 
Q 869 1716 869 1456 
Q 869 1156 980 804 
Q 1091 453 1309 247 
Q 1469 100 1697 100 
Q 1969 100 2183 356 
Q 2397 613 2397 1088 
Q 2397 1622 2184 2012 
Q 1972 2403 1581 2403 
Q 1463 2403 1327 2353 
Q 1191 2303 925 2138 
z
" transform="scale(0.015625)"/>
       </defs>
       <use xlink:href="#TimesNewRomanPSMT-36"/>
       <use xlink:href="#TimesNewRomanPSMT-30" x="50"/>
       <use xlink:href="#TimesNewRomanPSMT-30" x="100"/>
      </g>
     </g>
    </g>
    <g id="xtick_5">
     <g id="line2d_5">
      <g>
       <use xlink:href="#mc04730524a" x="267.977023" y="256.32" style="stroke: #000000; stroke-width: 0.8"/>
      </g>
     </g>
     <g id="text_5">
      <!-- 800 -->
      <g transform="translate(260.477023 270.26375)scale(0.1 -0.1)">
       <defs>
        <path id="TimesNewRomanPSMT-38" d="M 1228 2134 
Q 725 2547 579 2797 
Q 434 3047 434 3316 
Q 434 3728 753 4026 
Q 1072 4325 1600 4325 
Q 2113 4325 2425 4047 
Q 2738 3769 2738 3413 
Q 2738 3175 2569 2928 
Q 2400 2681 1866 2347 
Q 2416 1922 2594 1678 
Q 2831 1359 2831 1006 
Q 2831 559 2490 242 
Q 2150 -75 1597 -75 
Q 994 -75 656 303 
Q 388 606 388 966 
Q 388 1247 577 1523 
Q 766 1800 1228 2134 
z
M 1719 2469 
Q 2094 2806 2194 3001 
Q 2294 3197 2294 3444 
Q 2294 3772 2109 3958 
Q 1925 4144 1606 4144 
Q 1288 4144 1088 3959 
Q 888 3775 888 3528 
Q 888 3366 970 3203 
Q 1053 3041 1206 2894 
L 1719 2469 
z
M 1375 2016 
Q 1116 1797 991 1539 
Q 866 1281 866 981 
Q 866 578 1086 336 
Q 1306 94 1647 94 
Q 1984 94 2187 284 
Q 2391 475 2391 747 
Q 2391 972 2272 1150 
Q 2050 1481 1375 2016 
z
" transform="scale(0.015625)"/>
       </defs>
       <use xlink:href="#TimesNewRomanPSMT-38"/>
       <use xlink:href="#TimesNewRomanPSMT-30" x="50"/>
       <use xlink:href="#TimesNewRomanPSMT-30" x="100"/>
      </g>
     </g>
    </g>
    <g id="xtick_6">
     <g id="line2d_6">
      <g>
       <use xlink:href="#mc04730524a" x="323.721279" y="256.32" style="stroke: #000000; stroke-width: 0.8"/>
      </g>
     </g>
     <g id="text_6">
      <!-- 1000 -->
      <g transform="translate(313.721279 270.26375)scale(0.1 -0.1)">
       <defs>
        <path id="TimesNewRomanPSMT-31" d="M 750 3822 
L 1781 4325 
L 1884 4325 
L 1884 747 
Q 1884 391 1914 303 
Q 1944 216 2037 169 
Q 2131 122 2419 116 
L 2419 0 
L 825 0 
L 825 116 
Q 1125 122 1212 167 
Q 1300 213 1334 289 
Q 1369 366 1369 747 
L 1369 3034 
Q 1369 3497 1338 3628 
Q 1316 3728 1258 3775 
Q 1200 3822 1119 3822 
Q 1003 3822 797 3725 
L 750 3822 
z
" transform="scale(0.015625)"/>
       </defs>
       <use xlink:href="#TimesNewRomanPSMT-31"/>
       <use xlink:href="#TimesNewRomanPSMT-30" x="50"/>
       <use xlink:href="#TimesNewRomanPSMT-30" x="100"/>
       <use xlink:href="#TimesNewRomanPSMT-30" x="150"/>
      </g>
     </g>
    </g>
    <g id="text_7">
     <!-- Train Step -->
     <g transform="translate(163.708594 283.346563)scale(0.1 -0.1)">
      <defs>
       <path id="TimesNewRomanPSMT-54" d="M 3703 4238 
L 3750 3244 
L 3631 3244 
Q 3597 3506 3538 3619 
Q 3441 3800 3280 3886 
Q 3119 3972 2856 3972 
L 2259 3972 
L 2259 734 
Q 2259 344 2344 247 
Q 2463 116 2709 116 
L 2856 116 
L 2856 0 
L 1059 0 
L 1059 116 
L 1209 116 
Q 1478 116 1591 278 
Q 1659 378 1659 734 
L 1659 3972 
L 1150 3972 
Q 853 3972 728 3928 
Q 566 3869 450 3700 
Q 334 3531 313 3244 
L 194 3244 
L 244 4238 
L 3703 4238 
z
" transform="scale(0.015625)"/>
       <path id="TimesNewRomanPSMT-72" d="M 1038 2947 
L 1038 2303 
Q 1397 2947 1775 2947 
Q 1947 2947 2059 2842 
Q 2172 2738 2172 2600 
Q 2172 2478 2090 2393 
Q 2009 2309 1897 2309 
Q 1788 2309 1652 2417 
Q 1516 2525 1450 2525 
Q 1394 2525 1328 2463 
Q 1188 2334 1038 2041 
L 1038 669 
Q 1038 431 1097 309 
Q 1138 225 1241 169 
Q 1344 113 1538 113 
L 1538 0 
L 72 0 
L 72 113 
Q 291 113 397 181 
Q 475 231 506 341 
Q 522 394 522 644 
L 522 1753 
Q 522 2253 501 2348 
Q 481 2444 426 2487 
Q 372 2531 291 2531 
Q 194 2531 72 2484 
L 41 2597 
L 906 2947 
L 1038 2947 
z
" transform="scale(0.015625)"/>
       <path id="TimesNewRomanPSMT-61" d="M 1822 413 
Q 1381 72 1269 19 
Q 1100 -59 909 -59 
Q 613 -59 420 144 
Q 228 347 228 678 
Q 228 888 322 1041 
Q 450 1253 767 1440 
Q 1084 1628 1822 1897 
L 1822 2009 
Q 1822 2438 1686 2597 
Q 1550 2756 1291 2756 
Q 1094 2756 978 2650 
Q 859 2544 859 2406 
L 866 2225 
Q 866 2081 792 2003 
Q 719 1925 600 1925 
Q 484 1925 411 2006 
Q 338 2088 338 2228 
Q 338 2497 613 2722 
Q 888 2947 1384 2947 
Q 1766 2947 2009 2819 
Q 2194 2722 2281 2516 
Q 2338 2381 2338 1966 
L 2338 994 
Q 2338 584 2353 492 
Q 2369 400 2405 369 
Q 2441 338 2488 338 
Q 2538 338 2575 359 
Q 2641 400 2828 588 
L 2828 413 
Q 2478 -56 2159 -56 
Q 2006 -56 1915 50 
Q 1825 156 1822 413 
z
M 1822 616 
L 1822 1706 
Q 1350 1519 1213 1441 
Q 966 1303 859 1153 
Q 753 1003 753 825 
Q 753 600 887 451 
Q 1022 303 1197 303 
Q 1434 303 1822 616 
z
" transform="scale(0.015625)"/>
       <path id="TimesNewRomanPSMT-69" d="M 928 4444 
Q 1059 4444 1151 4351 
Q 1244 4259 1244 4128 
Q 1244 3997 1151 3903 
Q 1059 3809 928 3809 
Q 797 3809 703 3903 
Q 609 3997 609 4128 
Q 609 4259 701 4351 
Q 794 4444 928 4444 
z
M 1188 2947 
L 1188 647 
Q 1188 378 1227 289 
Q 1266 200 1342 156 
Q 1419 113 1622 113 
L 1622 0 
L 231 0 
L 231 113 
Q 441 113 512 153 
Q 584 194 626 287 
Q 669 381 669 647 
L 669 1750 
Q 669 2216 641 2353 
Q 619 2453 572 2492 
Q 525 2531 444 2531 
Q 356 2531 231 2484 
L 188 2597 
L 1050 2947 
L 1188 2947 
z
" transform="scale(0.015625)"/>
       <path id="TimesNewRomanPSMT-6e" d="M 1034 2341 
Q 1538 2947 1994 2947 
Q 2228 2947 2397 2830 
Q 2566 2713 2666 2444 
Q 2734 2256 2734 1869 
L 2734 647 
Q 2734 375 2778 278 
Q 2813 200 2889 156 
Q 2966 113 3172 113 
L 3172 0 
L 1756 0 
L 1756 113 
L 1816 113 
Q 2016 113 2095 173 
Q 2175 234 2206 353 
Q 2219 400 2219 647 
L 2219 1819 
Q 2219 2209 2117 2386 
Q 2016 2563 1775 2563 
Q 1403 2563 1034 2156 
L 1034 647 
Q 1034 356 1069 288 
Q 1113 197 1189 155 
Q 1266 113 1500 113 
L 1500 0 
L 84 0 
L 84 113 
L 147 113 
Q 366 113 442 223 
Q 519 334 519 647 
L 519 1709 
Q 519 2225 495 2337 
Q 472 2450 423 2490 
Q 375 2531 294 2531 
Q 206 2531 84 2484 
L 38 2597 
L 900 2947 
L 1034 2947 
L 1034 2341 
z
" transform="scale(0.015625)"/>
       <path id="TimesNewRomanPSMT-20" transform="scale(0.015625)"/>
       <path id="TimesNewRomanPSMT-53" d="M 2934 4334 
L 2934 2869 
L 2819 2869 
Q 2763 3291 2617 3541 
Q 2472 3791 2203 3937 
Q 1934 4084 1647 4084 
Q 1322 4084 1109 3886 
Q 897 3688 897 3434 
Q 897 3241 1031 3081 
Q 1225 2847 1953 2456 
Q 2547 2138 2764 1967 
Q 2981 1797 3098 1565 
Q 3216 1334 3216 1081 
Q 3216 600 2842 251 
Q 2469 -97 1881 -97 
Q 1697 -97 1534 -69 
Q 1438 -53 1133 45 
Q 828 144 747 144 
Q 669 144 623 97 
Q 578 50 556 -97 
L 441 -97 
L 441 1356 
L 556 1356 
Q 638 900 775 673 
Q 913 447 1195 297 
Q 1478 147 1816 147 
Q 2206 147 2432 353 
Q 2659 559 2659 841 
Q 2659 997 2573 1156 
Q 2488 1316 2306 1453 
Q 2184 1547 1640 1851 
Q 1097 2156 867 2337 
Q 638 2519 519 2737 
Q 400 2956 400 3219 
Q 400 3675 750 4004 
Q 1100 4334 1641 4334 
Q 1978 4334 2356 4169 
Q 2531 4091 2603 4091 
Q 2684 4091 2736 4139 
Q 2788 4188 2819 4334 
L 2934 4334 
z
" transform="scale(0.015625)"/>
       <path id="TimesNewRomanPSMT-74" d="M 1031 3803 
L 1031 2863 
L 1700 2863 
L 1700 2644 
L 1031 2644 
L 1031 788 
Q 1031 509 1111 412 
Q 1191 316 1316 316 
Q 1419 316 1516 380 
Q 1613 444 1666 569 
L 1788 569 
Q 1678 263 1478 108 
Q 1278 -47 1066 -47 
Q 922 -47 784 33 
Q 647 113 581 261 
Q 516 409 516 719 
L 516 2644 
L 63 2644 
L 63 2747 
Q 234 2816 414 2980 
Q 594 3144 734 3369 
Q 806 3488 934 3803 
L 1031 3803 
z
" transform="scale(0.015625)"/>
       <path id="TimesNewRomanPSMT-65" d="M 681 1784 
Q 678 1147 991 784 
Q 1303 422 1725 422 
Q 2006 422 2214 576 
Q 2422 731 2563 1106 
L 2659 1044 
Q 2594 616 2278 264 
Q 1963 -88 1488 -88 
Q 972 -88 605 314 
Q 238 716 238 1394 
Q 238 2128 614 2539 
Q 991 2950 1559 2950 
Q 2041 2950 2350 2633 
Q 2659 2316 2659 1784 
L 681 1784 
z
M 681 1966 
L 2006 1966 
Q 1991 2241 1941 2353 
Q 1863 2528 1708 2628 
Q 1553 2728 1384 2728 
Q 1125 2728 920 2526 
Q 716 2325 681 1966 
z
" transform="scale(0.015625)"/>
       <path id="TimesNewRomanPSMT-70" d="M -6 2578 
L 875 2934 
L 994 2934 
L 994 2266 
Q 1216 2644 1439 2795 
Q 1663 2947 1909 2947 
Q 2341 2947 2628 2609 
Q 2981 2197 2981 1534 
Q 2981 794 2556 309 
Q 2206 -88 1675 -88 
Q 1444 -88 1275 -22 
Q 1150 25 994 166 
L 994 -706 
Q 994 -1000 1030 -1079 
Q 1066 -1159 1155 -1206 
Q 1244 -1253 1478 -1253 
L 1478 -1369 
L -22 -1369 
L -22 -1253 
L 56 -1253 
Q 228 -1256 350 -1188 
Q 409 -1153 442 -1076 
Q 475 -1000 475 -688 
L 475 2019 
Q 475 2297 450 2372 
Q 425 2447 370 2484 
Q 316 2522 222 2522 
Q 147 2522 31 2478 
L -6 2578 
z
M 994 2081 
L 994 1013 
Q 994 666 1022 556 
Q 1066 375 1236 237 
Q 1406 100 1666 100 
Q 1978 100 2172 344 
Q 2425 663 2425 1241 
Q 2425 1897 2138 2250 
Q 1938 2494 1663 2494 
Q 1513 2494 1366 2419 
Q 1253 2363 994 2081 
z
" transform="scale(0.015625)"/>
      </defs>
      <use xlink:href="#TimesNewRomanPSMT-54"/>
      <use xlink:href="#TimesNewRomanPSMT-72" x="57.583984"/>
      <use xlink:href="#TimesNewRomanPSMT-61" x="90.884766"/>
      <use xlink:href="#TimesNewRomanPSMT-69" x="135.269531"/>
      <use xlink:href="#TimesNewRomanPSMT-6e" x="163.052734"/>
      <use xlink:href="#TimesNewRomanPSMT-20" x="213.052734"/>
      <use xlink:href="#TimesNewRomanPSMT-53" x="238.052734"/>
      <use xlink:href="#TimesNewRomanPSMT-74" x="293.667969"/>
      <use xlink:href="#TimesNewRomanPSMT-65" x="321.451172"/>
      <use xlink:href="#TimesNewRomanPSMT-70" x="365.835938"/>
     </g>
    </g>
   </g>
   <g id="matplotlib.axis_2">
    <g id="ytick_1">
     <g id="line2d_7">
      <defs>
       <path id="m1fbf9be8a6" d="M 0 0 
L -3.5 0 
" style="stroke: #000000; stroke-width: 0.8"/>
      </defs>
      <g>
       <use xlink:href="#m1fbf9be8a6" x="45" y="256.317782" style="stroke: #000000; stroke-width: 0.8"/>
      </g>
     </g>
     <g id="text_8">
      <!-- 0 -->
      <g transform="translate(33 259.789657)scale(0.1 -0.1)">
       <use xlink:href="#TimesNewRomanPSMT-30"/>
      </g>
     </g>
    </g>
    <g id="ytick_2">
     <g id="line2d_8">
      <g>
       <use xlink:href="#m1fbf9be8a6" x="45" y="211.966226" style="stroke: #000000; stroke-width: 0.8"/>
      </g>
     </g>
     <g id="text_9">
      <!-- 20000 -->
      <g transform="translate(13 215.438101)scale(0.1 -0.1)">
       <use xlink:href="#TimesNewRomanPSMT-32"/>
       <use xlink:href="#TimesNewRomanPSMT-30" x="50"/>
       <use xlink:href="#TimesNewRomanPSMT-30" x="100"/>
       <use xlink:href="#TimesNewRomanPSMT-30" x="150"/>
       <use xlink:href="#TimesNewRomanPSMT-30" x="200"/>
      </g>
     </g>
    </g>
    <g id="ytick_3">
     <g id="line2d_9">
      <g>
       <use xlink:href="#m1fbf9be8a6" x="45" y="167.614669" style="stroke: #000000; stroke-width: 0.8"/>
      </g>
     </g>
     <g id="text_10">
      <!-- 40000 -->
      <g transform="translate(13 171.086544)scale(0.1 -0.1)">
       <use xlink:href="#TimesNewRomanPSMT-34"/>
       <use xlink:href="#TimesNewRomanPSMT-30" x="50"/>
       <use xlink:href="#TimesNewRomanPSMT-30" x="100"/>
       <use xlink:href="#TimesNewRomanPSMT-30" x="150"/>
       <use xlink:href="#TimesNewRomanPSMT-30" x="200"/>
      </g>
     </g>
    </g>
    <g id="ytick_4">
     <g id="line2d_10">
      <g>
       <use xlink:href="#m1fbf9be8a6" x="45" y="123.263113" style="stroke: #000000; stroke-width: 0.8"/>
      </g>
     </g>
     <g id="text_11">
      <!-- 60000 -->
      <g transform="translate(13 126.734988)scale(0.1 -0.1)">
       <use xlink:href="#TimesNewRomanPSMT-36"/>
       <use xlink:href="#TimesNewRomanPSMT-30" x="50"/>
       <use xlink:href="#TimesNewRomanPSMT-30" x="100"/>
       <use xlink:href="#TimesNewRomanPSMT-30" x="150"/>
       <use xlink:href="#TimesNewRomanPSMT-30" x="200"/>
      </g>
     </g>
    </g>
    <g id="ytick_5">
     <g id="line2d_11">
      <g>
       <use xlink:href="#m1fbf9be8a6" x="45" y="78.911556" style="stroke: #000000; stroke-width: 0.8"/>
      </g>
     </g>
     <g id="text_12">
      <!-- 80000 -->
      <g transform="translate(13 82.383431)scale(0.1 -0.1)">
       <use xlink:href="#TimesNewRomanPSMT-38"/>
       <use xlink:href="#TimesNewRomanPSMT-30" x="50"/>
       <use xlink:href="#TimesNewRomanPSMT-30" x="100"/>
       <use xlink:href="#TimesNewRomanPSMT-30" x="150"/>
       <use xlink:href="#TimesNewRomanPSMT-30" x="200"/>
      </g>
     </g>
    </g>
    <g id="ytick_6">
     <g id="line2d_12">
      <g>
       <use xlink:href="#m1fbf9be8a6" x="45" y="34.56" style="stroke: #000000; stroke-width: 0.8"/>
      </g>
     </g>
     <g id="text_13">
      <!-- 100000 -->
      <g transform="translate(8 38.031875)scale(0.1 -0.1)">
       <use xlink:href="#TimesNewRomanPSMT-31"/>
       <use xlink:href="#TimesNewRomanPSMT-30" x="50"/>
       <use xlink:href="#TimesNewRomanPSMT-30" x="100"/>
       <use xlink:href="#TimesNewRomanPSMT-30" x="150"/>
       <use xlink:href="#TimesNewRomanPSMT-30" x="200"/>
       <use xlink:href="#TimesNewRomanPSMT-30" x="250"/>
      </g>
     </g>
    </g>
    <g id="text_14">
     <!-- Critic Loss -->
     <g transform="translate(1.860937 167.522812)rotate(-90)scale(0.1 -0.1)">
      <defs>
       <path id="TimesNewRomanPSMT-43" d="M 3853 4334 
L 3950 2894 
L 3853 2894 
Q 3659 3541 3300 3825 
Q 2941 4109 2438 4109 
Q 2016 4109 1675 3895 
Q 1334 3681 1139 3212 
Q 944 2744 944 2047 
Q 944 1472 1128 1050 
Q 1313 628 1683 403 
Q 2053 178 2528 178 
Q 2941 178 3256 354 
Q 3572 531 3950 1056 
L 4047 994 
Q 3728 428 3303 165 
Q 2878 -97 2294 -97 
Q 1241 -97 663 684 
Q 231 1266 231 2053 
Q 231 2688 515 3219 
Q 800 3750 1298 4042 
Q 1797 4334 2388 4334 
Q 2847 4334 3294 4109 
Q 3425 4041 3481 4041 
Q 3566 4041 3628 4100 
Q 3709 4184 3744 4334 
L 3853 4334 
z
" transform="scale(0.015625)"/>
       <path id="TimesNewRomanPSMT-63" d="M 2631 1088 
Q 2516 522 2178 217 
Q 1841 -88 1431 -88 
Q 944 -88 581 321 
Q 219 731 219 1428 
Q 219 2103 620 2525 
Q 1022 2947 1584 2947 
Q 2006 2947 2278 2723 
Q 2550 2500 2550 2259 
Q 2550 2141 2473 2067 
Q 2397 1994 2259 1994 
Q 2075 1994 1981 2113 
Q 1928 2178 1911 2362 
Q 1894 2547 1784 2644 
Q 1675 2738 1481 2738 
Q 1169 2738 978 2506 
Q 725 2200 725 1697 
Q 725 1184 976 792 
Q 1228 400 1656 400 
Q 1963 400 2206 609 
Q 2378 753 2541 1131 
L 2631 1088 
z
" transform="scale(0.015625)"/>
       <path id="TimesNewRomanPSMT-4c" d="M 3669 1172 
L 3772 1150 
L 3409 0 
L 128 0 
L 128 116 
L 288 116 
Q 556 116 672 291 
Q 738 391 738 753 
L 738 3488 
Q 738 3884 650 3984 
Q 528 4122 288 4122 
L 128 4122 
L 128 4238 
L 2047 4238 
L 2047 4122 
Q 1709 4125 1573 4059 
Q 1438 3994 1388 3894 
Q 1338 3794 1338 3416 
L 1338 753 
Q 1338 494 1388 397 
Q 1425 331 1503 300 
Q 1581 269 1991 269 
L 2300 269 
Q 2788 269 2984 341 
Q 3181 413 3343 595 
Q 3506 778 3669 1172 
z
" transform="scale(0.015625)"/>
       <path id="TimesNewRomanPSMT-6f" d="M 1600 2947 
Q 2250 2947 2644 2453 
Q 2978 2031 2978 1484 
Q 2978 1100 2793 706 
Q 2609 313 2286 112 
Q 1963 -88 1566 -88 
Q 919 -88 538 428 
Q 216 863 216 1403 
Q 216 1797 411 2186 
Q 606 2575 925 2761 
Q 1244 2947 1600 2947 
z
M 1503 2744 
Q 1338 2744 1170 2645 
Q 1003 2547 900 2300 
Q 797 2053 797 1666 
Q 797 1041 1045 587 
Q 1294 134 1700 134 
Q 2003 134 2200 384 
Q 2397 634 2397 1244 
Q 2397 2006 2069 2444 
Q 1847 2744 1503 2744 
z
" transform="scale(0.015625)"/>
       <path id="TimesNewRomanPSMT-73" d="M 2050 2947 
L 2050 1972 
L 1947 1972 
Q 1828 2431 1642 2597 
Q 1456 2763 1169 2763 
Q 950 2763 815 2647 
Q 681 2531 681 2391 
Q 681 2216 781 2091 
Q 878 1963 1175 1819 
L 1631 1597 
Q 2266 1288 2266 781 
Q 2266 391 1970 151 
Q 1675 -88 1309 -88 
Q 1047 -88 709 6 
Q 606 38 541 38 
Q 469 38 428 -44 
L 325 -44 
L 325 978 
L 428 978 
Q 516 541 762 319 
Q 1009 97 1316 97 
Q 1531 97 1667 223 
Q 1803 350 1803 528 
Q 1803 744 1651 891 
Q 1500 1038 1047 1263 
Q 594 1488 453 1669 
Q 313 1847 313 2119 
Q 313 2472 555 2709 
Q 797 2947 1181 2947 
Q 1350 2947 1591 2875 
Q 1750 2828 1803 2828 
Q 1853 2828 1881 2850 
Q 1909 2872 1947 2947 
L 2050 2947 
z
" transform="scale(0.015625)"/>
      </defs>
      <use xlink:href="#TimesNewRomanPSMT-43"/>
      <use xlink:href="#TimesNewRomanPSMT-72" x="66.699219"/>
      <use xlink:href="#TimesNewRomanPSMT-69" x="100"/>
      <use xlink:href="#TimesNewRomanPSMT-74" x="127.783203"/>
      <use xlink:href="#TimesNewRomanPSMT-69" x="155.566406"/>
      <use xlink:href="#TimesNewRomanPSMT-63" x="183.349609"/>
      <use xlink:href="#TimesNewRomanPSMT-20" x="227.734375"/>
      <use xlink:href="#TimesNewRomanPSMT-4c" x="252.734375"/>
      <use xlink:href="#TimesNewRomanPSMT-6f" x="313.818359"/>
      <use xlink:href="#TimesNewRomanPSMT-73" x="363.818359"/>
      <use xlink:href="#TimesNewRomanPSMT-73" x="402.734375"/>
     </g>
    </g>
   </g>
   <g id="line2d_13">
    <path d="M 45.278721 254.391381 
L 45.836164 254.633817 
L 46.114885 255.186418 
L 46.393606 253.666038 
L 46.672328 255.496392 
L 46.951049 255.777183 
L 47.22977 254.871284 
L 47.508492 255.243062 
L 47.787213 255.077521 
L 48.065934 254.677884 
L 48.344655 252.717033 
L 48.623377 253.855469 
L 48.902098 255.573924 
L 49.45954 255.181899 
L 49.738262 255.183049 
L 50.016983 255.601573 
L 50.295704 255.49809 
L 50.574426 254.84867 
L 50.853147 255.789916 
L 51.131868 255.824185 
L 51.410589 255.441732 
L 51.689311 255.735584 
L 51.968032 251.624083 
L 52.525475 249.301912 
L 52.804196 247.495451 
L 53.082917 251.257679 
L 53.361638 248.184083 
L 53.64036 137.241208 
L 53.919081 252.401983 
L 54.197802 251.743643 
L 54.476523 252.350943 
L 54.755245 251.745123 
L 55.033966 138.987637 
L 55.312687 248.534039 
L 55.591409 137.304227 
L 55.87013 250.511815 
L 56.148851 253.50796 
L 56.706294 250.721515 
L 56.985015 252.922951 
L 57.263736 248.95802 
L 57.542458 239.898348 
L 57.821179 117.678247 
L 58.0999 90.455019 
L 58.378621 242.775187 
L 58.657343 237.018449 
L 59.214785 161.936501 
L 59.493506 79.013669 
L 59.772228 196.715216 
L 60.050949 223.758906 
L 60.32967 205.497222 
L 60.608392 202.724618 
L 60.887113 154.055844 
L 61.165834 182.767994 
L 61.444555 117.810643 
L 61.723277 142.817662 
L 62.001998 66.831059 
L 62.280719 112.65053 
L 62.559441 46.288319 
L 62.838162 165.873386 
L 63.116883 168.133132 
L 63.395604 115.518578 
L 63.674326 197.82824 
L 63.953047 128.611062 
L 64.231768 116.610813 
L 64.51049 233.331575 
L 64.789211 46.495108 
L 65.067932 189.863706 
L 65.346653 147.895656 
L 65.625375 134.201168 
L 65.904096 176.458604 
L 66.182817 92.163472 
L 66.461538 205.082267 
L 66.74026 173.806615 
L 67.018981 211.085371 
L 67.297702 100.028459 
L 67.576424 255.10077 
L 67.855145 246.344663 
L 68.133866 226.010462 
L 68.412587 142.022167 
L 68.691309 162.650154 
L 68.97003 230.848065 
L 69.248751 186.886642 
L 69.527473 178.574771 
L 69.806194 249.214472 
L 70.084915 194.140894 
L 70.363636 245.683494 
L 70.642358 224.928661 
L 70.921079 234.750374 
L 71.1998 151.029024 
L 71.478521 253.884406 
L 71.757243 135.950188 
L 72.035964 205.388206 
L 72.314685 237.315821 
L 72.593407 247.662687 
L 72.872128 247.37545 
L 73.150849 245.615821 
L 73.42957 191.505181 
L 73.708292 83.887403 
L 73.987013 201.224097 
L 74.265734 249.326102 
L 74.544456 168.803248 
L 74.823177 222.025555 
L 75.101898 247.581706 
L 75.380619 153.21391 
L 75.659341 226.191416 
L 75.938062 219.469695 
L 76.216783 189.034332 
L 76.495504 240.602814 
L 76.774226 235.683743 
L 77.052947 212.265556 
L 77.331668 248.99943 
L 77.61039 169.075551 
L 77.889111 190.519312 
L 78.167832 223.893607 
L 78.446553 235.150047 
L 78.725275 240.443352 
L 79.003996 151.696359 
L 79.282717 246.260614 
L 79.561439 245.986943 
L 79.84016 225.770089 
L 80.118881 250.96853 
L 80.397602 114.487248 
L 80.676324 218.496884 
L 81.233766 241.371156 
L 81.512488 247.864275 
L 81.791209 226.459485 
L 82.06993 251.705832 
L 82.348651 69.041464 
L 82.627373 239.088814 
L 82.906094 249.135451 
L 83.184815 169.24005 
L 83.463536 170.020819 
L 83.742258 244.536026 
L 84.020979 231.77014 
L 84.2997 226.433037 
L 84.578422 174.387845 
L 84.857143 250.49461 
L 85.135864 221.508277 
L 85.693307 253.249556 
L 85.972028 239.438494 
L 86.250749 216.534939 
L 86.529471 227.259041 
L 86.808192 247.357622 
L 87.086913 252.231115 
L 87.365634 179.657555 
L 87.644356 251.677343 
L 87.923077 224.137943 
L 88.480519 227.795927 
L 89.037962 249.650538 
L 89.316683 253.706948 
L 89.595405 254.500303 
L 89.874126 254.780472 
L 90.152847 254.887609 
L 90.431568 255.173117 
L 90.71029 254.431927 
L 90.989011 218.623408 
L 91.267732 226.009261 
L 91.546454 254.051483 
L 91.825175 223.106336 
L 92.103896 240.599027 
L 92.382617 238.198656 
L 92.661339 233.821562 
L 92.94006 251.849302 
L 93.218781 253.05258 
L 93.497502 223.593203 
L 93.776224 247.083888 
L 94.054945 254.135035 
L 94.612388 234.205773 
L 94.891109 237.214532 
L 95.16983 245.819384 
L 95.448551 227.779145 
L 95.727273 251.229586 
L 96.005994 176.150369 
L 96.284715 226.363558 
L 96.563437 191.5852 
L 96.842158 241.836345 
L 97.120879 253.548173 
L 97.3996 253.126156 
L 97.678322 255.131321 
L 97.957043 252.207208 
L 98.235764 188.177926 
L 98.514486 246.299828 
L 98.793207 253.149962 
L 99.071928 253.171625 
L 99.350649 254.515982 
L 99.629371 254.287169 
L 99.908092 252.486387 
L 100.186813 249.068478 
L 100.465534 255.195147 
L 100.744256 254.792191 
L 101.301698 251.967978 
L 101.58042 252.918398 
L 101.859141 254.301557 
L 102.137862 248.713839 
L 102.416583 253.081753 
L 102.695305 254.808216 
L 102.974026 253.653513 
L 103.252747 255.146217 
L 103.531469 254.46831 
L 103.81019 243.198968 
L 104.088911 189.261109 
L 104.367632 239.367932 
L 104.646354 254.810169 
L 104.925075 254.577627 
L 105.203796 254.190352 
L 105.482517 255.371621 
L 105.761239 253.736118 
L 106.03996 255.144437 
L 106.318681 254.958907 
L 106.597403 250.724663 
L 106.876124 254.629343 
L 107.154845 252.793135 
L 107.433566 253.657835 
L 107.712288 255.483431 
L 107.991009 255.024236 
L 108.548452 242.018724 
L 108.827173 255.664496 
L 109.105894 253.745214 
L 109.384615 255.051966 
L 109.663337 255.40346 
L 109.942058 255.471807 
L 110.220779 255.036707 
L 110.4995 255.254165 
L 110.778222 253.065275 
L 111.056943 253.905026 
L 111.335664 252.471109 
L 111.614386 254.534763 
L 111.893107 255.717142 
L 112.171828 254.899751 
L 112.450549 253.375095 
L 112.729271 254.710255 
L 113.007992 254.639862 
L 113.286713 245.849117 
L 113.565435 252.880294 
L 113.844156 248.24673 
L 114.122877 252.766833 
L 114.401598 250.619897 
L 114.68032 250.541891 
L 114.959041 251.736395 
L 115.237762 250.041535 
L 115.516484 250.807326 
L 115.795205 203.006172 
L 116.073926 239.393198 
L 116.352647 254.456036 
L 116.631369 251.70954 
L 116.91009 250.365378 
L 117.467532 251.97663 
L 117.746254 249.524051 
L 118.024975 235.937688 
L 118.303696 250.060579 
L 118.582418 253.494583 
L 118.861139 253.739694 
L 119.13986 253.721199 
L 119.418581 251.857706 
L 119.697303 252.270644 
L 119.976024 254.212715 
L 120.254745 250.869906 
L 120.533467 209.350545 
L 120.812188 250.727398 
L 121.090909 255.253303 
L 121.36963 254.010743 
L 121.648352 253.556883 
L 121.927073 252.386025 
L 122.205794 211.253777 
L 122.484515 252.528901 
L 123.041958 250.873372 
L 123.320679 253.351892 
L 123.878122 243.027979 
L 124.156843 209.089486 
L 124.435564 254.848853 
L 124.714286 254.646805 
L 124.993007 241.342973 
L 125.271728 252.615295 
L 125.55045 198.976058 
L 125.829171 248.484443 
L 126.107892 254.60681 
L 126.386613 254.514906 
L 126.665335 253.12408 
L 126.944056 253.055264 
L 127.222777 251.720581 
L 127.501499 254.815195 
L 127.78022 255.10934 
L 128.058941 209.053914 
L 128.337662 255.550286 
L 128.616384 255.479769 
L 128.895105 255.084535 
L 129.173826 242.705428 
L 129.452547 249.894528 
L 129.731269 249.922429 
L 130.288711 255.563818 
L 130.567433 245.723397 
L 130.846154 253.821972 
L 131.124875 254.081538 
L 131.403596 252.707163 
L 131.682318 254.644824 
L 131.961039 175.680884 
L 132.518482 255.31316 
L 132.797203 254.64156 
L 133.075924 255.034081 
L 133.354645 254.985755 
L 133.633367 254.801571 
L 133.912088 254.913751 
L 134.190809 254.445685 
L 134.46953 255.383893 
L 134.748252 255.067629 
L 135.026973 253.683869 
L 135.305694 255.558204 
L 135.584416 255.244873 
L 135.863137 255.198218 
L 136.141858 254.105638 
L 136.420579 241.906446 
L 136.699301 253.324806 
L 136.978022 252.330991 
L 137.256743 254.530969 
L 137.535465 233.147416 
L 137.814186 253.020832 
L 138.092907 255.113867 
L 138.371628 254.681006 
L 138.65035 248.912848 
L 138.929071 236.679355 
L 139.207792 254.724733 
L 139.486513 251.396635 
L 139.765235 243.322808 
L 140.043956 250.432336 
L 140.322677 236.838652 
L 140.601399 254.157421 
L 140.88012 204.078912 
L 141.158841 242.411644 
L 141.437562 213.333709 
L 141.716284 234.395007 
L 141.995005 220.595402 
L 142.273726 246.491762 
L 142.552448 255.306171 
L 142.831169 245.028278 
L 143.10989 252.954405 
L 143.388611 253.069454 
L 143.946054 250.537286 
L 144.224775 253.657653 
L 144.503497 255.182181 
L 144.782218 247.846556 
L 145.060939 243.760005 
L 145.33966 251.886343 
L 145.618382 253.145408 
L 145.897103 217.910105 
L 146.175824 254.535193 
L 146.454545 248.141201 
L 146.733267 245.534753 
L 147.290709 253.077753 
L 147.569431 251.494521 
L 147.848152 255.071762 
L 148.126873 252.785411 
L 148.405594 248.605636 
L 148.684316 246.222316 
L 148.963037 254.543005 
L 149.241758 255.015526 
L 149.52048 254.691539 
L 150.077922 255.418199 
L 150.356643 251.322176 
L 150.635365 244.240416 
L 151.192807 254.668903 
L 151.471528 209.843233 
L 151.75025 255.62363 
L 152.028971 253.318066 
L 152.586414 250.774972 
L 152.865135 252.976039 
L 153.143856 221.420005 
L 153.422577 222.781299 
L 153.701299 218.370283 
L 153.98002 255.881374 
L 154.258741 255.671798 
L 154.537463 255.694691 
L 154.816184 256.028645 
L 155.373626 253.869707 
L 155.931069 255.539104 
L 156.20979 254.633435 
L 156.488511 255.525189 
L 156.767233 255.22923 
L 157.045954 255.606524 
L 157.324675 252.184575 
L 157.603397 254.51351 
L 157.882118 255.588507 
L 158.160839 253.727143 
L 158.43956 255.949343 
L 158.718282 255.543454 
L 158.997003 254.326638 
L 159.275724 255.091667 
L 159.554446 254.440745 
L 159.833167 254.974824 
L 160.111888 256.032235 
L 160.390609 255.258271 
L 160.669331 223.172205 
L 160.948052 255.765381 
L 161.226773 256.052871 
L 161.505495 256.021204 
L 161.784216 254.460617 
L 162.062937 255.951438 
L 162.62038 255.300434 
L 162.899101 255.804273 
L 163.456543 255.28243 
L 163.735265 254.391287 
L 164.013986 252.21665 
L 164.292707 255.099086 
L 164.571429 217.54158 
L 164.85015 255.933966 
L 165.128871 254.541572 
L 165.407592 255.867267 
L 165.686314 256.033665 
L 166.243756 255.440282 
L 166.522478 255.574908 
L 166.801199 254.782605 
L 167.07992 256.107283 
L 167.916084 255.91761 
L 168.194805 255.711706 
L 168.473526 255.752182 
L 168.752248 255.663138 
L 169.030969 255.135723 
L 169.30969 255.935324 
L 169.588412 225.047912 
L 169.867133 224.647536 
L 170.145854 255.451025 
L 170.424575 254.159626 
L 170.982018 255.983703 
L 171.260739 253.572735 
L 171.818182 255.362382 
L 172.375624 256.135216 
L 172.654346 255.081042 
L 172.933067 255.048572 
L 173.211788 248.770114 
L 173.490509 255.749536 
L 173.769231 256.076798 
L 174.047952 255.774618 
L 174.326673 254.746731 
L 174.605395 254.719246 
L 174.884116 255.372839 
L 175.162837 255.397169 
L 175.441558 253.930683 
L 175.72028 255.421113 
L 175.999001 255.013639 
L 176.277722 254.360049 
L 176.556444 254.964124 
L 176.835165 254.223316 
L 177.113886 254.304751 
L 177.392607 255.358045 
L 177.95005 254.864535 
L 178.228771 255.283166 
L 178.507493 209.443545 
L 178.786214 254.269877 
L 179.064935 254.462502 
L 179.343656 253.262208 
L 179.622378 250.297857 
L 179.901099 255.375435 
L 180.17982 248.279566 
L 180.458541 254.643833 
L 180.737263 255.88867 
L 181.015984 255.144109 
L 181.294705 255.979655 
L 181.573427 255.5436 
L 181.852148 250.053552 
L 182.130869 254.357826 
L 182.40959 254.886233 
L 182.688312 252.020325 
L 182.967033 252.140337 
L 183.245754 254.101501 
L 183.524476 229.320958 
L 183.803197 255.45411 
L 184.081918 254.873624 
L 184.360639 255.564079 
L 184.918082 252.02812 
L 185.196803 224.428154 
L 185.475524 252.793489 
L 185.754246 243.011811 
L 186.311688 251.912908 
L 186.59041 212.037825 
L 186.869131 228.670519 
L 187.147852 227.485533 
L 187.426573 250.150379 
L 187.705295 229.384096 
L 187.984016 240.114266 
L 188.262737 245.976185 
L 188.541459 235.604124 
L 188.82018 231.310402 
L 189.098901 241.151796 
L 189.377622 242.608953 
L 189.656344 254.500204 
L 189.935065 231.448628 
L 190.213786 227.269685 
L 190.492507 250.816354 
L 190.771229 203.832519 
L 191.04995 249.879346 
L 191.328671 227.732152 
L 191.607393 251.544441 
L 191.886114 249.4193 
L 192.164835 235.932837 
L 192.443556 246.723813 
L 192.722278 249.685592 
L 193.000999 230.20066 
L 193.27972 237.032283 
L 193.558442 253.467694 
L 193.837163 251.346018 
L 194.115884 254.421776 
L 194.394605 250.681019 
L 194.673327 252.005043 
L 194.952048 251.634461 
L 195.230769 254.588276 
L 195.509491 254.774212 
L 195.788212 254.744661 
L 196.066933 231.462124 
L 196.345654 254.704842 
L 196.624376 255.416838 
L 196.903097 255.008495 
L 197.181818 249.411122 
L 197.460539 255.216176 
L 197.739261 255.653807 
L 198.017982 254.738228 
L 198.296703 254.868174 
L 198.575425 254.795269 
L 198.854146 253.684204 
L 199.132867 254.910511 
L 199.411588 255.207566 
L 199.69031 231.89916 
L 199.969031 255.847394 
L 200.247752 255.306861 
L 200.526474 255.824059 
L 200.805195 255.882836 
L 201.083916 255.720284 
L 201.362637 255.994522 
L 201.92008 255.988126 
L 202.198801 256.098585 
L 202.477522 254.042087 
L 202.756244 255.749009 
L 203.034965 255.83653 
L 203.313686 255.6074 
L 203.592408 256.120862 
L 204.428571 255.964969 
L 204.707293 255.422092 
L 204.986014 255.436594 
L 205.264735 255.584089 
L 205.543457 256.143435 
L 205.822178 255.71694 
L 206.100899 256.061834 
L 206.37962 255.797812 
L 207.215784 256.077913 
L 207.494505 256.0253 
L 208.330669 256.171204 
L 208.609391 256.059194 
L 208.888112 229.264427 
L 209.166833 256.094159 
L 209.724276 256.128368 
L 210.002997 255.672779 
L 210.281718 255.574982 
L 210.56044 249.300399 
L 210.839161 254.332599 
L 211.117882 256.113252 
L 211.396603 254.23465 
L 211.675325 255.55905 
L 211.954046 253.86983 
L 212.232767 214.928221 
L 212.511489 254.594015 
L 212.79021 253.97116 
L 213.068931 255.643581 
L 213.626374 256.152699 
L 214.183816 255.622344 
L 214.462537 255.754479 
L 214.741259 254.652474 
L 215.01998 254.423191 
L 215.298701 253.836273 
L 215.577423 255.029123 
L 215.856144 254.539664 
L 216.134865 255.009903 
L 216.413586 255.829991 
L 216.692308 254.910239 
L 216.971029 237.510308 
L 217.24975 240.282773 
L 217.528472 239.559094 
L 217.807193 253.197721 
L 218.085914 255.518526 
L 218.364635 254.555507 
L 218.643357 238.710146 
L 218.922078 254.350156 
L 219.200799 254.976325 
L 219.47952 249.51188 
L 219.758242 240.369887 
L 220.036963 254.973835 
L 220.315684 252.109708 
L 220.873127 255.7475 
L 221.151848 225.33131 
L 221.430569 251.936838 
L 221.709291 255.259587 
L 221.988012 255.911158 
L 222.266733 241.145807 
L 222.545455 235.798632 
L 222.824176 254.039153 
L 223.102897 254.638218 
L 223.381618 254.626129 
L 223.66034 250.94559 
L 223.939061 213.255981 
L 224.217782 255.879431 
L 224.496503 254.085926 
L 224.775225 255.646934 
L 225.332667 254.094055 
L 225.611389 255.583491 
L 225.89011 255.542748 
L 226.168831 255.323068 
L 226.447552 237.745278 
L 226.726274 254.834595 
L 227.004995 242.021906 
L 227.283716 254.644594 
L 227.562438 251.083281 
L 227.841159 255.059667 
L 228.11988 255.365642 
L 228.398601 254.931335 
L 228.677323 255.341716 
L 228.956044 256.008173 
L 229.234765 239.409813 
L 229.513487 241.051865 
L 229.792208 255.574737 
L 230.070929 255.743212 
L 230.34965 255.652495 
L 230.628372 241.376643 
L 230.907093 255.594965 
L 231.185814 254.322652 
L 231.464535 255.842952 
L 231.743257 254.565267 
L 232.021978 255.505969 
L 232.300699 255.85342 
L 232.579421 252.019543 
L 232.858142 256.070965 
L 233.136863 255.528035 
L 233.415584 254.278281 
L 233.694306 255.782908 
L 233.973027 255.940861 
L 234.251748 255.677777 
L 234.53047 256.143556 
L 235.087912 254.908675 
L 235.366633 243.388807 
L 235.645355 255.119442 
L 235.924076 254.818355 
L 236.202797 255.627387 
L 236.481518 255.646727 
L 236.76024 255.834271 
L 237.038961 255.477207 
L 237.317682 255.654001 
L 237.596404 255.630582 
L 237.875125 255.060238 
L 238.153846 255.535123 
L 238.432567 255.256192 
L 238.711289 255.336362 
L 238.99001 255.720644 
L 239.268731 244.211196 
L 239.547453 255.970616 
L 239.826174 256.019397 
L 240.104895 255.269451 
L 240.662338 255.784305 
L 240.941059 255.486258 
L 241.21978 255.986414 
L 241.498501 256.084257 
L 241.777223 255.931928 
L 242.055944 254.792874 
L 242.613387 255.907222 
L 242.892108 255.990499 
L 243.170829 255.656018 
L 243.44955 254.396965 
L 243.728272 256.082937 
L 244.006993 255.732216 
L 244.564436 256.00585 
L 244.843157 254.893207 
L 245.121878 255.597011 
L 245.400599 255.867776 
L 245.679321 255.969138 
L 246.236763 254.513271 
L 246.515485 255.657626 
L 246.794206 239.246589 
L 247.072927 254.964082 
L 247.351648 252.48786 
L 247.909091 254.229125 
L 248.187812 241.480439 
L 248.745255 255.388128 
L 249.023976 242.076903 
L 249.302697 254.416468 
L 249.581419 252.289769 
L 249.86014 251.073524 
L 250.138861 255.716636 
L 250.417582 248.831155 
L 250.696304 255.664999 
L 250.975025 249.95431 
L 251.253746 255.944745 
L 251.532468 255.839836 
L 251.811189 256.112904 
L 252.08991 255.484317 
L 252.368631 255.87631 
L 252.647353 255.404923 
L 252.926074 250.265827 
L 253.204795 253.178083 
L 253.483516 251.939913 
L 253.762238 245.842908 
L 254.040959 254.342462 
L 254.31968 255.817973 
L 254.598402 254.26307 
L 254.877123 256.185205 
L 255.155844 256.224016 
L 255.713287 256.089804 
L 255.992008 255.599783 
L 256.270729 256.1671 
L 256.549451 256.125489 
L 256.828172 246.505159 
L 257.106893 245.437522 
L 257.385614 255.862982 
L 257.664336 256.142615 
L 258.5005 256.013103 
L 258.779221 256.147787 
L 259.057942 256.135414 
L 259.336663 254.19044 
L 259.615385 256.001391 
L 259.894106 255.137179 
L 260.172827 256.081057 
L 260.451548 256.15342 
L 260.73027 255.96198 
L 261.008991 256.05938 
L 261.287712 255.884382 
L 261.566434 248.370918 
L 261.845155 254.512947 
L 262.123876 256.21372 
L 262.402597 255.956522 
L 262.681319 255.990135 
L 262.96004 256.197246 
L 263.517483 255.52326 
L 263.796204 254.210536 
L 264.074925 255.656589 
L 264.353646 256.104778 
L 264.632368 255.682721 
L 264.911089 249.018627 
L 265.18981 256.087819 
L 265.468531 256.140553 
L 265.747253 256.011543 
L 266.025974 254.660541 
L 266.862138 256.195793 
L 267.140859 253.558546 
L 267.41958 255.034767 
L 267.698302 255.730984 
L 267.977023 248.891862 
L 268.255744 254.799388 
L 268.534466 255.86104 
L 268.813187 249.392566 
L 269.091908 256.11378 
L 269.370629 256.023513 
L 269.649351 256.12747 
L 269.928072 249.508983 
L 270.206793 255.644468 
L 270.485514 256.166809 
L 271.042957 255.945202 
L 271.6004 255.148876 
L 271.879121 256.190851 
L 272.157842 254.912019 
L 272.436563 256.048558 
L 272.715285 256.091973 
L 272.994006 255.923897 
L 273.272727 256.138392 
L 273.83017 253.443162 
L 274.108891 254.5577 
L 274.387612 251.063104 
L 274.666334 244.662435 
L 274.945055 252.485586 
L 275.223776 248.318105 
L 275.502498 250.079393 
L 275.781219 245.709361 
L 276.05994 247.708348 
L 276.338661 253.471539 
L 276.617383 255.110274 
L 276.896104 251.671153 
L 277.174825 254.426026 
L 277.453546 249.135816 
L 277.732268 255.131547 
L 278.28971 254.912964 
L 278.568432 254.529653 
L 278.847153 246.481093 
L 279.125874 246.97247 
L 279.404595 254.164447 
L 279.683317 255.776197 
L 279.962038 245.730549 
L 280.240759 252.701839 
L 280.519481 255.24589 
L 280.798202 254.580694 
L 281.076923 255.611661 
L 281.355644 255.696526 
L 281.634366 255.962615 
L 281.913087 250.433857 
L 282.191808 249.654679 
L 282.470529 255.973671 
L 282.749251 255.812055 
L 283.027972 249.259404 
L 283.306693 249.443965 
L 283.585415 255.710517 
L 283.864136 255.872818 
L 284.142857 250.670122 
L 284.421578 256.020653 
L 284.979021 256.141326 
L 285.257742 256.069578 
L 285.536464 256.130428 
L 285.815185 255.694505 
L 286.093906 256.110474 
L 286.372627 256.157625 
L 286.651349 255.770366 
L 286.93007 256.092143 
L 287.208791 255.263381 
L 287.487512 256.133754 
L 287.766234 255.668942 
L 288.044955 248.510764 
L 288.323676 256.156705 
L 288.602398 254.939066 
L 288.881119 255.957146 
L 289.15984 256.01001 
L 289.438561 255.495259 
L 289.717283 256.022737 
L 289.996004 256.175982 
L 290.274725 255.305549 
L 290.832168 255.70122 
L 291.110889 256.196037 
L 291.38961 256.056759 
L 291.668332 254.10039 
L 291.947053 256.161716 
L 292.783217 256.103956 
L 293.061938 249.291882 
L 293.340659 248.821255 
L 293.619381 255.826974 
L 293.898102 255.423709 
L 294.176823 256.14332 
L 294.455544 255.63767 
L 294.734266 255.8229 
L 295.012987 256.145617 
L 295.291708 256.170237 
L 295.57043 239.867148 
L 295.849151 256.119514 
L 296.127872 249.737095 
L 296.406593 256.073683 
L 296.685315 256.203347 
L 296.964036 249.801255 
L 297.242757 256.137526 
L 297.521479 256.149367 
L 297.8002 255.295088 
L 298.078921 256.16049 
L 298.636364 256.102226 
L 298.915085 255.242797 
L 299.193806 256.211916 
L 299.472527 255.785909 
L 299.751249 256.111966 
L 300.02997 249.912149 
L 300.308691 247.940763 
L 300.587413 255.871952 
L 300.866134 251.672148 
L 301.144855 251.812514 
L 301.423576 256.075903 
L 301.981019 256.27857 
L 302.25974 256.207906 
L 302.817183 256.244399 
L 303.095904 256.16454 
L 303.374625 256.232425 
L 304.210789 255.779283 
L 304.48951 252.032099 
L 304.768232 256.166074 
L 305.325674 255.930242 
L 305.604396 256.14855 
L 305.883117 256.173162 
L 306.161838 252.210012 
L 306.440559 256.216185 
L 306.719281 256.196565 
L 307.276723 255.917441 
L 307.555445 256.115877 
L 307.834166 255.663171 
L 308.112887 255.934437 
L 308.391608 255.613201 
L 308.67033 256.243286 
L 308.949051 256.191915 
L 309.227772 255.292953 
L 309.506494 256.047404 
L 309.785215 256.114016 
L 310.063936 255.40775 
L 310.342657 256.068094 
L 310.621379 255.985958 
L 310.9001 256.156087 
L 311.178821 256.015505 
L 311.457542 256.092327 
L 311.736264 254.642249 
L 312.014985 256.107604 
L 312.293706 255.75098 
L 312.572428 256.129831 
L 312.851149 256.157684 
L 313.12987 251.479333 
L 313.408591 256.158443 
L 313.687313 251.224431 
L 313.966034 256.080857 
L 314.523477 256.037183 
L 314.802198 255.603776 
L 315.080919 255.959369 
L 315.35964 255.790557 
L 315.638362 255.214303 
L 315.917083 256.16952 
L 316.195804 256.053862 
L 316.753247 256.076671 
L 317.031968 255.405524 
L 317.310689 256.122104 
L 317.589411 255.738373 
L 317.868132 255.076209 
L 318.146853 256.060394 
L 318.425574 256.003602 
L 318.983017 256.219749 
L 319.261738 255.478081 
L 319.54046 252.782701 
L 319.819181 255.657121 
L 320.097902 255.770754 
L 320.376623 256.134187 
L 320.655345 252.766254 
L 320.934066 255.936128 
L 321.212787 256.060166 
L 321.491508 252.851292 
L 321.77023 256.030728 
L 322.048951 256.124714 
L 322.327672 255.068767 
L 322.885115 255.827463 
L 323.442557 256.008426 
L 323.721279 255.637997 
L 323.721279 255.637997 
" clip-path="url(#pdc66795f5f)" style="fill: none; stroke: #0000ff; stroke-width: 1.5; stroke-linecap: square"/>
   </g>
   <g id="patch_3">
    <path d="M 45 256.32 
L 45 34.56 
" style="fill: none; stroke: #000000; stroke-width: 0.8; stroke-linejoin: miter; stroke-linecap: square"/>
   </g>
   <g id="patch_4">
    <path d="M 324 256.32 
L 324 34.56 
" style="fill: none; stroke: #000000; stroke-width: 0.8; stroke-linejoin: miter; stroke-linecap: square"/>
   </g>
   <g id="patch_5">
    <path d="M 45 256.32 
L 324 256.32 
" style="fill: none; stroke: #000000; stroke-width: 0.8; stroke-linejoin: miter; stroke-linecap: square"/>
   </g>
   <g id="patch_6">
    <path d="M 45 34.56 
L 324 34.56 
" style="fill: none; stroke: #000000; stroke-width: 0.8; stroke-linejoin: miter; stroke-linecap: square"/>
   </g>
  </g>
 </g>
 <defs>
  <clipPath id="pdc66795f5f">
   <rect x="45" y="34.56" width="279" height="221.76"/>
  </clipPath>
 </defs>
</svg>
