<?xml version="1.0" encoding="utf-8" standalone="no"?>
<!DOCTYPE svg PUBLIC "-//W3C//DTD SVG 1.1//EN"
  "http://www.w3.org/Graphics/SVG/1.1/DTD/svg11.dtd">
<svg xmlns:xlink="http://www.w3.org/1999/xlink" width="360pt" height="288pt" viewBox="0 0 360 288" xmlns="http://www.w3.org/2000/svg" version="1.1">
 <metadata>
  <rdf:RDF xmlns:dc="http://purl.org/dc/elements/1.1/" xmlns:cc="http://creativecommons.org/ns#" xmlns:rdf="http://www.w3.org/1999/02/22-rdf-syntax-ns#">
   <cc:Work>
    <dc:type rdf:resource="http://purl.org/dc/dcmitype/StillImage"/>
    <dc:date>2025-07-16T18:16:28.561132</dc:date>
    <dc:format>image/svg+xml</dc:format>
    <dc:creator>
     <cc:Agent>
      <dc:title>Matplotlib v3.5.1, https://matplotlib.org/</dc:title>
     </cc:Agent>
    </dc:creator>
   </cc:Work>
  </rdf:RDF>
 </metadata>
 <defs>
  <style type="text/css">*{stroke-linejoin: round; stroke-linecap: butt}</style>
 </defs>
 <g id="figure_1">
  <g id="patch_1">
   <path d="M 0 288 
L 360 288 
L 360 0 
L 0 0 
z
" style="fill: #ffffff"/>
  </g>
  <g id="axes_1">
   <g id="patch_2">
    <path d="M 45 256.32 
L 324 256.32 
L 324 34.56 
L 45 34.56 
z
" style="fill: #ffffff"/>
   </g>
   <g id="matplotlib.axis_1">
    <g id="xtick_1">
     <g id="line2d_1">
      <defs>
       <path id="mb2c454e23b" d="M 0 0 
L 0 3.5 
" style="stroke: #000000; stroke-width: 0.8"/>
      </defs>
      <g>
       <use xlink:href="#mb2c454e23b" x="45" y="256.32" style="stroke: #000000; stroke-width: 0.8"/>
      </g>
     </g>
     <g id="text_1">
      <!-- 0 -->
      <g transform="translate(42.5 270.26375)scale(0.1 -0.1)">
       <defs>
        <path id="TimesNewRomanPSMT-30" d="M 231 2094 
Q 231 2819 450 3342 
Q 669 3866 1031 4122 
Q 1313 4325 1613 4325 
Q 2100 4325 2488 3828 
Q 2972 3213 2972 2159 
Q 2972 1422 2759 906 
Q 2547 391 2217 158 
Q 1888 -75 1581 -75 
Q 975 -75 572 641 
Q 231 1244 231 2094 
z
M 844 2016 
Q 844 1141 1059 588 
Q 1238 122 1591 122 
Q 1759 122 1940 273 
Q 2122 425 2216 781 
Q 2359 1319 2359 2297 
Q 2359 3022 2209 3506 
Q 2097 3866 1919 4016 
Q 1791 4119 1609 4119 
Q 1397 4119 1231 3928 
Q 1006 3669 925 3112 
Q 844 2556 844 2016 
z
" transform="scale(0.015625)"/>
       </defs>
       <use xlink:href="#TimesNewRomanPSMT-30"/>
      </g>
     </g>
    </g>
    <g id="xtick_2">
     <g id="line2d_2">
      <g>
       <use xlink:href="#mb2c454e23b" x="100.744256" y="256.32" style="stroke: #000000; stroke-width: 0.8"/>
      </g>
     </g>
     <g id="text_2">
      <!-- 200 -->
      <g transform="translate(93.244256 270.26375)scale(0.1 -0.1)">
       <defs>
        <path id="TimesNewRomanPSMT-32" d="M 2934 816 
L 2638 0 
L 138 0 
L 138 116 
Q 1241 1122 1691 1759 
Q 2141 2397 2141 2925 
Q 2141 3328 1894 3587 
Q 1647 3847 1303 3847 
Q 991 3847 742 3664 
Q 494 3481 375 3128 
L 259 3128 
Q 338 3706 661 4015 
Q 984 4325 1469 4325 
Q 1984 4325 2329 3994 
Q 2675 3663 2675 3213 
Q 2675 2891 2525 2569 
Q 2294 2063 1775 1497 
Q 997 647 803 472 
L 1909 472 
Q 2247 472 2383 497 
Q 2519 522 2628 598 
Q 2738 675 2819 816 
L 2934 816 
z
" transform="scale(0.015625)"/>
       </defs>
       <use xlink:href="#TimesNewRomanPSMT-32"/>
       <use xlink:href="#TimesNewRomanPSMT-30" x="50"/>
       <use xlink:href="#TimesNewRomanPSMT-30" x="100"/>
      </g>
     </g>
    </g>
    <g id="xtick_3">
     <g id="line2d_3">
      <g>
       <use xlink:href="#mb2c454e23b" x="156.488511" y="256.32" style="stroke: #000000; stroke-width: 0.8"/>
      </g>
     </g>
     <g id="text_3">
      <!-- 400 -->
      <g transform="translate(148.988511 270.26375)scale(0.1 -0.1)">
       <defs>
        <path id="TimesNewRomanPSMT-34" d="M 2978 1563 
L 2978 1119 
L 2409 1119 
L 2409 0 
L 1894 0 
L 1894 1119 
L 100 1119 
L 100 1519 
L 2066 4325 
L 2409 4325 
L 2409 1563 
L 2978 1563 
z
M 1894 1563 
L 1894 3666 
L 406 1563 
L 1894 1563 
z
" transform="scale(0.015625)"/>
       </defs>
       <use xlink:href="#TimesNewRomanPSMT-34"/>
       <use xlink:href="#TimesNewRomanPSMT-30" x="50"/>
       <use xlink:href="#TimesNewRomanPSMT-30" x="100"/>
      </g>
     </g>
    </g>
    <g id="xtick_4">
     <g id="line2d_4">
      <g>
       <use xlink:href="#mb2c454e23b" x="212.232767" y="256.32" style="stroke: #000000; stroke-width: 0.8"/>
      </g>
     </g>
     <g id="text_4">
      <!-- 600 -->
      <g transform="translate(204.732767 270.26375)scale(0.1 -0.1)">
       <defs>
        <path id="TimesNewRomanPSMT-36" d="M 2869 4325 
L 2869 4209 
Q 2456 4169 2195 4045 
Q 1934 3922 1679 3669 
Q 1425 3416 1258 3105 
Q 1091 2794 978 2366 
Q 1428 2675 1881 2675 
Q 2316 2675 2634 2325 
Q 2953 1975 2953 1425 
Q 2953 894 2631 456 
Q 2244 -75 1606 -75 
Q 1172 -75 869 213 
Q 275 772 275 1663 
Q 275 2231 503 2743 
Q 731 3256 1154 3653 
Q 1578 4050 1965 4187 
Q 2353 4325 2688 4325 
L 2869 4325 
z
M 925 2138 
Q 869 1716 869 1456 
Q 869 1156 980 804 
Q 1091 453 1309 247 
Q 1469 100 1697 100 
Q 1969 100 2183 356 
Q 2397 613 2397 1088 
Q 2397 1622 2184 2012 
Q 1972 2403 1581 2403 
Q 1463 2403 1327 2353 
Q 1191 2303 925 2138 
z
" transform="scale(0.015625)"/>
       </defs>
       <use xlink:href="#TimesNewRomanPSMT-36"/>
       <use xlink:href="#TimesNewRomanPSMT-30" x="50"/>
       <use xlink:href="#TimesNewRomanPSMT-30" x="100"/>
      </g>
     </g>
    </g>
    <g id="xtick_5">
     <g id="line2d_5">
      <g>
       <use xlink:href="#mb2c454e23b" x="267.977023" y="256.32" style="stroke: #000000; stroke-width: 0.8"/>
      </g>
     </g>
     <g id="text_5">
      <!-- 800 -->
      <g transform="translate(260.477023 270.26375)scale(0.1 -0.1)">
       <defs>
        <path id="TimesNewRomanPSMT-38" d="M 1228 2134 
Q 725 2547 579 2797 
Q 434 3047 434 3316 
Q 434 3728 753 4026 
Q 1072 4325 1600 4325 
Q 2113 4325 2425 4047 
Q 2738 3769 2738 3413 
Q 2738 3175 2569 2928 
Q 2400 2681 1866 2347 
Q 2416 1922 2594 1678 
Q 2831 1359 2831 1006 
Q 2831 559 2490 242 
Q 2150 -75 1597 -75 
Q 994 -75 656 303 
Q 388 606 388 966 
Q 388 1247 577 1523 
Q 766 1800 1228 2134 
z
M 1719 2469 
Q 2094 2806 2194 3001 
Q 2294 3197 2294 3444 
Q 2294 3772 2109 3958 
Q 1925 4144 1606 4144 
Q 1288 4144 1088 3959 
Q 888 3775 888 3528 
Q 888 3366 970 3203 
Q 1053 3041 1206 2894 
L 1719 2469 
z
M 1375 2016 
Q 1116 1797 991 1539 
Q 866 1281 866 981 
Q 866 578 1086 336 
Q 1306 94 1647 94 
Q 1984 94 2187 284 
Q 2391 475 2391 747 
Q 2391 972 2272 1150 
Q 2050 1481 1375 2016 
z
" transform="scale(0.015625)"/>
       </defs>
       <use xlink:href="#TimesNewRomanPSMT-38"/>
       <use xlink:href="#TimesNewRomanPSMT-30" x="50"/>
       <use xlink:href="#TimesNewRomanPSMT-30" x="100"/>
      </g>
     </g>
    </g>
    <g id="xtick_6">
     <g id="line2d_6">
      <g>
       <use xlink:href="#mb2c454e23b" x="323.721279" y="256.32" style="stroke: #000000; stroke-width: 0.8"/>
      </g>
     </g>
     <g id="text_6">
      <!-- 1000 -->
      <g transform="translate(313.721279 270.26375)scale(0.1 -0.1)">
       <defs>
        <path id="TimesNewRomanPSMT-31" d="M 750 3822 
L 1781 4325 
L 1884 4325 
L 1884 747 
Q 1884 391 1914 303 
Q 1944 216 2037 169 
Q 2131 122 2419 116 
L 2419 0 
L 825 0 
L 825 116 
Q 1125 122 1212 167 
Q 1300 213 1334 289 
Q 1369 366 1369 747 
L 1369 3034 
Q 1369 3497 1338 3628 
Q 1316 3728 1258 3775 
Q 1200 3822 1119 3822 
Q 1003 3822 797 3725 
L 750 3822 
z
" transform="scale(0.015625)"/>
       </defs>
       <use xlink:href="#TimesNewRomanPSMT-31"/>
       <use xlink:href="#TimesNewRomanPSMT-30" x="50"/>
       <use xlink:href="#TimesNewRomanPSMT-30" x="100"/>
       <use xlink:href="#TimesNewRomanPSMT-30" x="150"/>
      </g>
     </g>
    </g>
    <g id="text_7">
     <!-- Train Step -->
     <g transform="translate(163.708594 283.346563)scale(0.1 -0.1)">
      <defs>
       <path id="TimesNewRomanPSMT-54" d="M 3703 4238 
L 3750 3244 
L 3631 3244 
Q 3597 3506 3538 3619 
Q 3441 3800 3280 3886 
Q 3119 3972 2856 3972 
L 2259 3972 
L 2259 734 
Q 2259 344 2344 247 
Q 2463 116 2709 116 
L 2856 116 
L 2856 0 
L 1059 0 
L 1059 116 
L 1209 116 
Q 1478 116 1591 278 
Q 1659 378 1659 734 
L 1659 3972 
L 1150 3972 
Q 853 3972 728 3928 
Q 566 3869 450 3700 
Q 334 3531 313 3244 
L 194 3244 
L 244 4238 
L 3703 4238 
z
" transform="scale(0.015625)"/>
       <path id="TimesNewRomanPSMT-72" d="M 1038 2947 
L 1038 2303 
Q 1397 2947 1775 2947 
Q 1947 2947 2059 2842 
Q 2172 2738 2172 2600 
Q 2172 2478 2090 2393 
Q 2009 2309 1897 2309 
Q 1788 2309 1652 2417 
Q 1516 2525 1450 2525 
Q 1394 2525 1328 2463 
Q 1188 2334 1038 2041 
L 1038 669 
Q 1038 431 1097 309 
Q 1138 225 1241 169 
Q 1344 113 1538 113 
L 1538 0 
L 72 0 
L 72 113 
Q 291 113 397 181 
Q 475 231 506 341 
Q 522 394 522 644 
L 522 1753 
Q 522 2253 501 2348 
Q 481 2444 426 2487 
Q 372 2531 291 2531 
Q 194 2531 72 2484 
L 41 2597 
L 906 2947 
L 1038 2947 
z
" transform="scale(0.015625)"/>
       <path id="TimesNewRomanPSMT-61" d="M 1822 413 
Q 1381 72 1269 19 
Q 1100 -59 909 -59 
Q 613 -59 420 144 
Q 228 347 228 678 
Q 228 888 322 1041 
Q 450 1253 767 1440 
Q 1084 1628 1822 1897 
L 1822 2009 
Q 1822 2438 1686 2597 
Q 1550 2756 1291 2756 
Q 1094 2756 978 2650 
Q 859 2544 859 2406 
L 866 2225 
Q 866 2081 792 2003 
Q 719 1925 600 1925 
Q 484 1925 411 2006 
Q 338 2088 338 2228 
Q 338 2497 613 2722 
Q 888 2947 1384 2947 
Q 1766 2947 2009 2819 
Q 2194 2722 2281 2516 
Q 2338 2381 2338 1966 
L 2338 994 
Q 2338 584 2353 492 
Q 2369 400 2405 369 
Q 2441 338 2488 338 
Q 2538 338 2575 359 
Q 2641 400 2828 588 
L 2828 413 
Q 2478 -56 2159 -56 
Q 2006 -56 1915 50 
Q 1825 156 1822 413 
z
M 1822 616 
L 1822 1706 
Q 1350 1519 1213 1441 
Q 966 1303 859 1153 
Q 753 1003 753 825 
Q 753 600 887 451 
Q 1022 303 1197 303 
Q 1434 303 1822 616 
z
" transform="scale(0.015625)"/>
       <path id="TimesNewRomanPSMT-69" d="M 928 4444 
Q 1059 4444 1151 4351 
Q 1244 4259 1244 4128 
Q 1244 3997 1151 3903 
Q 1059 3809 928 3809 
Q 797 3809 703 3903 
Q 609 3997 609 4128 
Q 609 4259 701 4351 
Q 794 4444 928 4444 
z
M 1188 2947 
L 1188 647 
Q 1188 378 1227 289 
Q 1266 200 1342 156 
Q 1419 113 1622 113 
L 1622 0 
L 231 0 
L 231 113 
Q 441 113 512 153 
Q 584 194 626 287 
Q 669 381 669 647 
L 669 1750 
Q 669 2216 641 2353 
Q 619 2453 572 2492 
Q 525 2531 444 2531 
Q 356 2531 231 2484 
L 188 2597 
L 1050 2947 
L 1188 2947 
z
" transform="scale(0.015625)"/>
       <path id="TimesNewRomanPSMT-6e" d="M 1034 2341 
Q 1538 2947 1994 2947 
Q 2228 2947 2397 2830 
Q 2566 2713 2666 2444 
Q 2734 2256 2734 1869 
L 2734 647 
Q 2734 375 2778 278 
Q 2813 200 2889 156 
Q 2966 113 3172 113 
L 3172 0 
L 1756 0 
L 1756 113 
L 1816 113 
Q 2016 113 2095 173 
Q 2175 234 2206 353 
Q 2219 400 2219 647 
L 2219 1819 
Q 2219 2209 2117 2386 
Q 2016 2563 1775 2563 
Q 1403 2563 1034 2156 
L 1034 647 
Q 1034 356 1069 288 
Q 1113 197 1189 155 
Q 1266 113 1500 113 
L 1500 0 
L 84 0 
L 84 113 
L 147 113 
Q 366 113 442 223 
Q 519 334 519 647 
L 519 1709 
Q 519 2225 495 2337 
Q 472 2450 423 2490 
Q 375 2531 294 2531 
Q 206 2531 84 2484 
L 38 2597 
L 900 2947 
L 1034 2947 
L 1034 2341 
z
" transform="scale(0.015625)"/>
       <path id="TimesNewRomanPSMT-20" transform="scale(0.015625)"/>
       <path id="TimesNewRomanPSMT-53" d="M 2934 4334 
L 2934 2869 
L 2819 2869 
Q 2763 3291 2617 3541 
Q 2472 3791 2203 3937 
Q 1934 4084 1647 4084 
Q 1322 4084 1109 3886 
Q 897 3688 897 3434 
Q 897 3241 1031 3081 
Q 1225 2847 1953 2456 
Q 2547 2138 2764 1967 
Q 2981 1797 3098 1565 
Q 3216 1334 3216 1081 
Q 3216 600 2842 251 
Q 2469 -97 1881 -97 
Q 1697 -97 1534 -69 
Q 1438 -53 1133 45 
Q 828 144 747 144 
Q 669 144 623 97 
Q 578 50 556 -97 
L 441 -97 
L 441 1356 
L 556 1356 
Q 638 900 775 673 
Q 913 447 1195 297 
Q 1478 147 1816 147 
Q 2206 147 2432 353 
Q 2659 559 2659 841 
Q 2659 997 2573 1156 
Q 2488 1316 2306 1453 
Q 2184 1547 1640 1851 
Q 1097 2156 867 2337 
Q 638 2519 519 2737 
Q 400 2956 400 3219 
Q 400 3675 750 4004 
Q 1100 4334 1641 4334 
Q 1978 4334 2356 4169 
Q 2531 4091 2603 4091 
Q 2684 4091 2736 4139 
Q 2788 4188 2819 4334 
L 2934 4334 
z
" transform="scale(0.015625)"/>
       <path id="TimesNewRomanPSMT-74" d="M 1031 3803 
L 1031 2863 
L 1700 2863 
L 1700 2644 
L 1031 2644 
L 1031 788 
Q 1031 509 1111 412 
Q 1191 316 1316 316 
Q 1419 316 1516 380 
Q 1613 444 1666 569 
L 1788 569 
Q 1678 263 1478 108 
Q 1278 -47 1066 -47 
Q 922 -47 784 33 
Q 647 113 581 261 
Q 516 409 516 719 
L 516 2644 
L 63 2644 
L 63 2747 
Q 234 2816 414 2980 
Q 594 3144 734 3369 
Q 806 3488 934 3803 
L 1031 3803 
z
" transform="scale(0.015625)"/>
       <path id="TimesNewRomanPSMT-65" d="M 681 1784 
Q 678 1147 991 784 
Q 1303 422 1725 422 
Q 2006 422 2214 576 
Q 2422 731 2563 1106 
L 2659 1044 
Q 2594 616 2278 264 
Q 1963 -88 1488 -88 
Q 972 -88 605 314 
Q 238 716 238 1394 
Q 238 2128 614 2539 
Q 991 2950 1559 2950 
Q 2041 2950 2350 2633 
Q 2659 2316 2659 1784 
L 681 1784 
z
M 681 1966 
L 2006 1966 
Q 1991 2241 1941 2353 
Q 1863 2528 1708 2628 
Q 1553 2728 1384 2728 
Q 1125 2728 920 2526 
Q 716 2325 681 1966 
z
" transform="scale(0.015625)"/>
       <path id="TimesNewRomanPSMT-70" d="M -6 2578 
L 875 2934 
L 994 2934 
L 994 2266 
Q 1216 2644 1439 2795 
Q 1663 2947 1909 2947 
Q 2341 2947 2628 2609 
Q 2981 2197 2981 1534 
Q 2981 794 2556 309 
Q 2206 -88 1675 -88 
Q 1444 -88 1275 -22 
Q 1150 25 994 166 
L 994 -706 
Q 994 -1000 1030 -1079 
Q 1066 -1159 1155 -1206 
Q 1244 -1253 1478 -1253 
L 1478 -1369 
L -22 -1369 
L -22 -1253 
L 56 -1253 
Q 228 -1256 350 -1188 
Q 409 -1153 442 -1076 
Q 475 -1000 475 -688 
L 475 2019 
Q 475 2297 450 2372 
Q 425 2447 370 2484 
Q 316 2522 222 2522 
Q 147 2522 31 2478 
L -6 2578 
z
M 994 2081 
L 994 1013 
Q 994 666 1022 556 
Q 1066 375 1236 237 
Q 1406 100 1666 100 
Q 1978 100 2172 344 
Q 2425 663 2425 1241 
Q 2425 1897 2138 2250 
Q 1938 2494 1663 2494 
Q 1513 2494 1366 2419 
Q 1253 2363 994 2081 
z
" transform="scale(0.015625)"/>
      </defs>
      <use xlink:href="#TimesNewRomanPSMT-54"/>
      <use xlink:href="#TimesNewRomanPSMT-72" x="57.583984"/>
      <use xlink:href="#TimesNewRomanPSMT-61" x="90.884766"/>
      <use xlink:href="#TimesNewRomanPSMT-69" x="135.269531"/>
      <use xlink:href="#TimesNewRomanPSMT-6e" x="163.052734"/>
      <use xlink:href="#TimesNewRomanPSMT-20" x="213.052734"/>
      <use xlink:href="#TimesNewRomanPSMT-53" x="238.052734"/>
      <use xlink:href="#TimesNewRomanPSMT-74" x="293.667969"/>
      <use xlink:href="#TimesNewRomanPSMT-65" x="321.451172"/>
      <use xlink:href="#TimesNewRomanPSMT-70" x="365.835938"/>
     </g>
    </g>
   </g>
   <g id="matplotlib.axis_2">
    <g id="ytick_1">
     <g id="line2d_7">
      <defs>
       <path id="m747a59a561" d="M 0 0 
L -3.5 0 
" style="stroke: #000000; stroke-width: 0.8"/>
      </defs>
      <g>
       <use xlink:href="#m747a59a561" x="45" y="256.32" style="stroke: #000000; stroke-width: 0.8"/>
      </g>
     </g>
     <g id="text_8">
      <!-- 0 -->
      <g transform="translate(33 259.791875)scale(0.1 -0.1)">
       <use xlink:href="#TimesNewRomanPSMT-30"/>
      </g>
     </g>
    </g>
    <g id="ytick_2">
     <g id="line2d_8">
      <g>
       <use xlink:href="#m747a59a561" x="45" y="224.64" style="stroke: #000000; stroke-width: 0.8"/>
      </g>
     </g>
     <g id="text_9">
      <!-- 50 -->
      <g transform="translate(28 228.111875)scale(0.1 -0.1)">
       <defs>
        <path id="TimesNewRomanPSMT-35" d="M 2778 4238 
L 2534 3706 
L 1259 3706 
L 981 3138 
Q 1809 3016 2294 2522 
Q 2709 2097 2709 1522 
Q 2709 1188 2573 903 
Q 2438 619 2231 419 
Q 2025 219 1772 97 
Q 1413 -75 1034 -75 
Q 653 -75 479 54 
Q 306 184 306 341 
Q 306 428 378 495 
Q 450 563 559 563 
Q 641 563 702 538 
Q 763 513 909 409 
Q 1144 247 1384 247 
Q 1750 247 2026 523 
Q 2303 800 2303 1197 
Q 2303 1581 2056 1914 
Q 1809 2247 1375 2428 
Q 1034 2569 447 2591 
L 1259 4238 
L 2778 4238 
z
" transform="scale(0.015625)"/>
       </defs>
       <use xlink:href="#TimesNewRomanPSMT-35"/>
       <use xlink:href="#TimesNewRomanPSMT-30" x="50"/>
      </g>
     </g>
    </g>
    <g id="ytick_3">
     <g id="line2d_9">
      <g>
       <use xlink:href="#m747a59a561" x="45" y="192.96" style="stroke: #000000; stroke-width: 0.8"/>
      </g>
     </g>
     <g id="text_10">
      <!-- 100 -->
      <g transform="translate(23 196.431875)scale(0.1 -0.1)">
       <use xlink:href="#TimesNewRomanPSMT-31"/>
       <use xlink:href="#TimesNewRomanPSMT-30" x="50"/>
       <use xlink:href="#TimesNewRomanPSMT-30" x="100"/>
      </g>
     </g>
    </g>
    <g id="ytick_4">
     <g id="line2d_10">
      <g>
       <use xlink:href="#m747a59a561" x="45" y="161.28" style="stroke: #000000; stroke-width: 0.8"/>
      </g>
     </g>
     <g id="text_11">
      <!-- 150 -->
      <g transform="translate(23 164.751875)scale(0.1 -0.1)">
       <use xlink:href="#TimesNewRomanPSMT-31"/>
       <use xlink:href="#TimesNewRomanPSMT-35" x="50"/>
       <use xlink:href="#TimesNewRomanPSMT-30" x="100"/>
      </g>
     </g>
    </g>
    <g id="ytick_5">
     <g id="line2d_11">
      <g>
       <use xlink:href="#m747a59a561" x="45" y="129.6" style="stroke: #000000; stroke-width: 0.8"/>
      </g>
     </g>
     <g id="text_12">
      <!-- 200 -->
      <g transform="translate(23 133.071875)scale(0.1 -0.1)">
       <use xlink:href="#TimesNewRomanPSMT-32"/>
       <use xlink:href="#TimesNewRomanPSMT-30" x="50"/>
       <use xlink:href="#TimesNewRomanPSMT-30" x="100"/>
      </g>
     </g>
    </g>
    <g id="ytick_6">
     <g id="line2d_12">
      <g>
       <use xlink:href="#m747a59a561" x="45" y="97.92" style="stroke: #000000; stroke-width: 0.8"/>
      </g>
     </g>
     <g id="text_13">
      <!-- 250 -->
      <g transform="translate(23 101.391875)scale(0.1 -0.1)">
       <use xlink:href="#TimesNewRomanPSMT-32"/>
       <use xlink:href="#TimesNewRomanPSMT-35" x="50"/>
       <use xlink:href="#TimesNewRomanPSMT-30" x="100"/>
      </g>
     </g>
    </g>
    <g id="ytick_7">
     <g id="line2d_13">
      <g>
       <use xlink:href="#m747a59a561" x="45" y="66.24" style="stroke: #000000; stroke-width: 0.8"/>
      </g>
     </g>
     <g id="text_14">
      <!-- 300 -->
      <g transform="translate(23 69.711875)scale(0.1 -0.1)">
       <defs>
        <path id="TimesNewRomanPSMT-33" d="M 325 3431 
Q 506 3859 782 4092 
Q 1059 4325 1472 4325 
Q 1981 4325 2253 3994 
Q 2459 3747 2459 3466 
Q 2459 3003 1878 2509 
Q 2269 2356 2469 2072 
Q 2669 1788 2669 1403 
Q 2669 853 2319 450 
Q 1863 -75 997 -75 
Q 569 -75 414 31 
Q 259 138 259 259 
Q 259 350 332 419 
Q 406 488 509 488 
Q 588 488 669 463 
Q 722 447 909 348 
Q 1097 250 1169 231 
Q 1284 197 1416 197 
Q 1734 197 1970 444 
Q 2206 691 2206 1028 
Q 2206 1275 2097 1509 
Q 2016 1684 1919 1775 
Q 1784 1900 1550 2001 
Q 1316 2103 1072 2103 
L 972 2103 
L 972 2197 
Q 1219 2228 1467 2375 
Q 1716 2522 1828 2728 
Q 1941 2934 1941 3181 
Q 1941 3503 1739 3701 
Q 1538 3900 1238 3900 
Q 753 3900 428 3381 
L 325 3431 
z
" transform="scale(0.015625)"/>
       </defs>
       <use xlink:href="#TimesNewRomanPSMT-33"/>
       <use xlink:href="#TimesNewRomanPSMT-30" x="50"/>
       <use xlink:href="#TimesNewRomanPSMT-30" x="100"/>
      </g>
     </g>
    </g>
    <g id="ytick_8">
     <g id="line2d_14">
      <g>
       <use xlink:href="#m747a59a561" x="45" y="34.56" style="stroke: #000000; stroke-width: 0.8"/>
      </g>
     </g>
     <g id="text_15">
      <!-- 350 -->
      <g transform="translate(23 38.031875)scale(0.1 -0.1)">
       <use xlink:href="#TimesNewRomanPSMT-33"/>
       <use xlink:href="#TimesNewRomanPSMT-35" x="50"/>
       <use xlink:href="#TimesNewRomanPSMT-30" x="100"/>
      </g>
     </g>
    </g>
    <g id="text_16">
     <!-- Actor Loss -->
     <g transform="translate(16.860937 167.520469)rotate(-90)scale(0.1 -0.1)">
      <defs>
       <path id="TimesNewRomanPSMT-41" d="M 2928 1419 
L 1288 1419 
L 1000 750 
Q 894 503 894 381 
Q 894 284 986 211 
Q 1078 138 1384 116 
L 1384 0 
L 50 0 
L 50 116 
Q 316 163 394 238 
Q 553 388 747 847 
L 2238 4334 
L 2347 4334 
L 3822 809 
Q 4000 384 4145 257 
Q 4291 131 4550 116 
L 4550 0 
L 2878 0 
L 2878 116 
Q 3131 128 3220 200 
Q 3309 272 3309 375 
Q 3309 513 3184 809 
L 2928 1419 
z
M 2841 1650 
L 2122 3363 
L 1384 1650 
L 2841 1650 
z
" transform="scale(0.015625)"/>
       <path id="TimesNewRomanPSMT-63" d="M 2631 1088 
Q 2516 522 2178 217 
Q 1841 -88 1431 -88 
Q 944 -88 581 321 
Q 219 731 219 1428 
Q 219 2103 620 2525 
Q 1022 2947 1584 2947 
Q 2006 2947 2278 2723 
Q 2550 2500 2550 2259 
Q 2550 2141 2473 2067 
Q 2397 1994 2259 1994 
Q 2075 1994 1981 2113 
Q 1928 2178 1911 2362 
Q 1894 2547 1784 2644 
Q 1675 2738 1481 2738 
Q 1169 2738 978 2506 
Q 725 2200 725 1697 
Q 725 1184 976 792 
Q 1228 400 1656 400 
Q 1963 400 2206 609 
Q 2378 753 2541 1131 
L 2631 1088 
z
" transform="scale(0.015625)"/>
       <path id="TimesNewRomanPSMT-6f" d="M 1600 2947 
Q 2250 2947 2644 2453 
Q 2978 2031 2978 1484 
Q 2978 1100 2793 706 
Q 2609 313 2286 112 
Q 1963 -88 1566 -88 
Q 919 -88 538 428 
Q 216 863 216 1403 
Q 216 1797 411 2186 
Q 606 2575 925 2761 
Q 1244 2947 1600 2947 
z
M 1503 2744 
Q 1338 2744 1170 2645 
Q 1003 2547 900 2300 
Q 797 2053 797 1666 
Q 797 1041 1045 587 
Q 1294 134 1700 134 
Q 2003 134 2200 384 
Q 2397 634 2397 1244 
Q 2397 2006 2069 2444 
Q 1847 2744 1503 2744 
z
" transform="scale(0.015625)"/>
       <path id="TimesNewRomanPSMT-4c" d="M 3669 1172 
L 3772 1150 
L 3409 0 
L 128 0 
L 128 116 
L 288 116 
Q 556 116 672 291 
Q 738 391 738 753 
L 738 3488 
Q 738 3884 650 3984 
Q 528 4122 288 4122 
L 128 4122 
L 128 4238 
L 2047 4238 
L 2047 4122 
Q 1709 4125 1573 4059 
Q 1438 3994 1388 3894 
Q 1338 3794 1338 3416 
L 1338 753 
Q 1338 494 1388 397 
Q 1425 331 1503 300 
Q 1581 269 1991 269 
L 2300 269 
Q 2788 269 2984 341 
Q 3181 413 3343 595 
Q 3506 778 3669 1172 
z
" transform="scale(0.015625)"/>
       <path id="TimesNewRomanPSMT-73" d="M 2050 2947 
L 2050 1972 
L 1947 1972 
Q 1828 2431 1642 2597 
Q 1456 2763 1169 2763 
Q 950 2763 815 2647 
Q 681 2531 681 2391 
Q 681 2216 781 2091 
Q 878 1963 1175 1819 
L 1631 1597 
Q 2266 1288 2266 781 
Q 2266 391 1970 151 
Q 1675 -88 1309 -88 
Q 1047 -88 709 6 
Q 606 38 541 38 
Q 469 38 428 -44 
L 325 -44 
L 325 978 
L 428 978 
Q 516 541 762 319 
Q 1009 97 1316 97 
Q 1531 97 1667 223 
Q 1803 350 1803 528 
Q 1803 744 1651 891 
Q 1500 1038 1047 1263 
Q 594 1488 453 1669 
Q 313 1847 313 2119 
Q 313 2472 555 2709 
Q 797 2947 1181 2947 
Q 1350 2947 1591 2875 
Q 1750 2828 1803 2828 
Q 1853 2828 1881 2850 
Q 1909 2872 1947 2947 
L 2050 2947 
z
" transform="scale(0.015625)"/>
      </defs>
      <use xlink:href="#TimesNewRomanPSMT-41"/>
      <use xlink:href="#TimesNewRomanPSMT-63" x="72.216797"/>
      <use xlink:href="#TimesNewRomanPSMT-74" x="116.601562"/>
      <use xlink:href="#TimesNewRomanPSMT-6f" x="144.384766"/>
      <use xlink:href="#TimesNewRomanPSMT-72" x="194.384766"/>
      <use xlink:href="#TimesNewRomanPSMT-20" x="227.685547"/>
      <use xlink:href="#TimesNewRomanPSMT-4c" x="252.685547"/>
      <use xlink:href="#TimesNewRomanPSMT-6f" x="313.769531"/>
      <use xlink:href="#TimesNewRomanPSMT-73" x="363.769531"/>
      <use xlink:href="#TimesNewRomanPSMT-73" x="402.685547"/>
     </g>
    </g>
   </g>
   <g id="line2d_15">
    <path d="M 45.278721 254.227202 
L 45.836164 259.300656 
L 46.114885 254.867363 
L 46.393606 245.812339 
L 46.672328 245.086941 
L 46.951049 247.382053 
L 47.22977 240.272322 
L 47.508492 239.309395 
L 47.787213 242.526802 
L 48.065934 235.42604 
L 48.344655 239.675306 
L 48.623377 239.642834 
L 49.180819 230.463269 
L 49.45954 235.390779 
L 49.738262 231.620288 
L 50.016983 233.780939 
L 50.574426 224.587194 
L 50.853147 229.653548 
L 51.131868 226.009927 
L 51.410589 228.399131 
L 51.689311 221.035138 
L 51.968032 220.055826 
L 52.246753 223.355248 
L 52.525475 221.499638 
L 52.804196 223.987958 
L 53.082917 219.601809 
L 53.361638 206.398564 
L 53.64036 205.611282 
L 54.476523 192.712133 
L 54.755245 190.158779 
L 55.033966 186.433879 
L 55.312687 188.311742 
L 55.591409 184.749516 
L 55.87013 186.444785 
L 56.148851 184.417567 
L 56.706294 169.496275 
L 56.985015 175.014384 
L 57.263736 170.808354 
L 57.542458 168.567744 
L 57.821179 164.843091 
L 58.0999 164.42354 
L 58.378621 170.42556 
L 58.936064 152.577774 
L 59.214785 158.842492 
L 59.493506 159.914438 
L 59.772228 155.086951 
L 60.050949 157.812119 
L 60.608392 150.267961 
L 60.887113 153.76125 
L 61.165834 145.385995 
L 61.444555 148.24753 
L 61.723277 144.844966 
L 62.001998 139.613889 
L 62.280719 142.948245 
L 62.559441 136.47236 
L 63.116883 129.992694 
L 63.395604 130.530039 
L 63.674326 137.256209 
L 63.953047 136.238337 
L 64.231768 127.348581 
L 64.51049 127.831332 
L 64.789211 129.336432 
L 65.067932 125.43268 
L 65.346653 129.324869 
L 65.625375 118.515036 
L 65.904096 130.961907 
L 66.182817 129.227068 
L 66.461538 117.641216 
L 66.74026 118.664831 
L 67.018981 121.400335 
L 67.297702 120.556601 
L 67.576424 118.927781 
L 67.855145 125.7524 
L 68.133866 119.591661 
L 68.412587 119.023165 
L 68.691309 114.403345 
L 68.97003 119.918196 
L 69.248751 113.466007 
L 69.527473 112.841214 
L 69.806194 113.811289 
L 70.363636 103.967779 
L 70.642358 106.269113 
L 70.921079 103.448425 
L 71.478521 94.263226 
L 71.757243 106.291542 
L 72.035964 89.63486 
L 72.593407 101.769041 
L 72.872128 91.595776 
L 73.150849 91.475989 
L 73.42957 85.884036 
L 73.708292 85.546508 
L 74.265734 93.566591 
L 74.823177 83.951641 
L 75.380619 90.453157 
L 75.659341 81.359852 
L 75.938062 81.416352 
L 76.216783 78.796448 
L 76.495504 81.699256 
L 76.774226 80.013607 
L 77.052947 77.205101 
L 77.331668 78.693736 
L 77.61039 76.9052 
L 77.889111 81.022518 
L 78.167832 71.232326 
L 78.725275 77.397049 
L 79.003996 71.642345 
L 79.282717 76.151776 
L 79.561439 71.995883 
L 79.84016 71.984494 
L 80.118881 65.478125 
L 80.397602 72.063559 
L 80.676324 75.297746 
L 80.955045 71.630821 
L 81.233766 75.376695 
L 81.512488 70.954546 
L 81.791209 71.983528 
L 82.06993 70.785105 
L 82.348651 72.386585 
L 82.627373 72.456233 
L 82.906094 78.113774 
L 83.184815 73.381496 
L 83.742258 77.295284 
L 84.020979 72.63919 
L 84.2997 78.336911 
L 84.578422 79.145694 
L 85.135864 75.063394 
L 85.414585 76.258742 
L 85.693307 76.825034 
L 85.972028 79.959002 
L 86.250749 73.920428 
L 86.808192 70.638191 
L 87.086913 77.994916 
L 87.365634 78.135043 
L 87.644356 77.559006 
L 87.923077 77.893344 
L 88.201798 79.673488 
L 88.480519 85.731708 
L 88.759241 77.138682 
L 89.037962 81.652714 
L 89.316683 74.794992 
L 89.595405 85.225493 
L 89.874126 68.629961 
L 90.152847 68.938369 
L 90.431568 73.63385 
L 90.71029 74.744873 
L 90.989011 73.080958 
L 91.267732 67.657904 
L 91.546454 76.187257 
L 91.825175 77.206512 
L 92.103896 75.823741 
L 92.382617 76.790693 
L 92.94006 75.876722 
L 93.218781 69.672632 
L 93.497502 74.38596 
L 93.776224 74.257144 
L 94.054945 62.637754 
L 94.333666 70.017701 
L 94.612388 67.306802 
L 94.891109 77.144463 
L 95.16983 69.273229 
L 95.448551 70.755115 
L 95.727273 70.339799 
L 96.005994 76.468112 
L 96.284715 76.762927 
L 96.563437 73.841866 
L 96.842158 77.798424 
L 97.120879 75.484492 
L 97.3996 67.860661 
L 97.957043 74.939664 
L 98.235764 74.120168 
L 98.514486 77.864147 
L 98.793207 72.530367 
L 99.071928 70.677404 
L 99.350649 70.747826 
L 99.629371 66.54893 
L 99.908092 67.732154 
L 100.186813 67.252971 
L 100.465534 76.419888 
L 100.744256 74.450058 
L 101.022977 64.900948 
L 101.301698 69.90153 
L 101.58042 71.315432 
L 101.859141 77.071141 
L 102.137862 69.977076 
L 102.695305 77.28198 
L 102.974026 76.965026 
L 103.252747 76.233083 
L 103.81019 73.470635 
L 104.088911 78.564379 
L 104.367632 70.635851 
L 104.925075 75.971681 
L 105.203796 74.653337 
L 105.482517 76.129713 
L 106.03996 68.57408 
L 106.318681 68.017437 
L 106.597403 70.737771 
L 106.876124 70.466101 
L 107.433566 77.48377 
L 107.991009 67.478235 
L 108.26973 74.09681 
L 108.548452 72.349151 
L 108.827173 75.915664 
L 109.105894 72.364484 
L 109.384615 76.588362 
L 109.663337 77.064432 
L 109.942058 73.057658 
L 110.220779 76.303137 
L 110.4995 72.080265 
L 110.778222 70.543136 
L 111.056943 70.005693 
L 111.335664 72.920566 
L 111.614386 68.478309 
L 111.893107 67.785541 
L 112.171828 71.327672 
L 112.450549 72.81389 
L 112.729271 72.420481 
L 113.007992 73.461547 
L 113.286713 75.832655 
L 113.565435 71.814879 
L 113.844156 73.213313 
L 114.122877 72.12497 
L 114.401598 73.336134 
L 114.68032 72.479243 
L 114.959041 76.165697 
L 115.516484 68.98491 
L 115.795205 72.865768 
L 116.073926 72.592397 
L 116.352647 73.141673 
L 116.631369 71.202491 
L 116.91009 72.938046 
L 117.188811 65.339796 
L 117.467532 67.036331 
L 117.746254 72.480848 
L 118.024975 75.221775 
L 118.303696 76.052215 
L 118.582418 69.926706 
L 118.861139 70.104287 
L 119.13986 74.482291 
L 119.418581 67.318095 
L 119.697303 69.790117 
L 119.976024 66.462673 
L 120.254745 71.633412 
L 120.533467 66.382583 
L 120.812188 78.773632 
L 121.090909 71.921749 
L 121.36963 72.965696 
L 121.648352 73.335593 
L 121.927073 70.825286 
L 122.205794 70.824377 
L 122.484515 65.82799 
L 123.041958 73.280176 
L 123.320679 71.911772 
L 123.599401 75.761441 
L 123.878122 72.477039 
L 124.156843 73.016067 
L 124.435564 72.218111 
L 124.714286 76.186368 
L 124.993007 70.809275 
L 125.55045 66.399947 
L 125.829171 75.050304 
L 126.386613 69.998423 
L 126.665335 70.230164 
L 126.944056 65.564557 
L 127.222777 66.475821 
L 127.501499 65.874435 
L 127.78022 70.836926 
L 128.058941 65.04326 
L 128.337662 69.216536 
L 128.616384 67.357617 
L 128.895105 71.061068 
L 129.173826 62.967045 
L 129.452547 68.673389 
L 129.731269 77.076323 
L 130.00999 76.975583 
L 130.288711 76.106858 
L 130.567433 72.377459 
L 130.846154 71.912449 
L 131.124875 67.72676 
L 131.403596 72.68869 
L 131.682318 73.508534 
L 131.961039 67.890052 
L 132.23976 69.986725 
L 132.518482 74.805395 
L 132.797203 69.958281 
L 133.075924 79.792945 
L 133.354645 70.997414 
L 133.633367 74.350227 
L 133.912088 69.956541 
L 134.190809 68.00191 
L 134.46953 74.072176 
L 134.748252 65.995323 
L 135.026973 70.660157 
L 135.305694 69.644556 
L 135.584416 74.715251 
L 135.863137 73.720494 
L 136.141858 68.203835 
L 136.420579 75.090716 
L 136.699301 73.654172 
L 136.978022 71.492279 
L 137.256743 66.49187 
L 137.535465 71.362013 
L 137.814186 81.770896 
L 138.092907 73.88512 
L 138.371628 72.419959 
L 138.65035 86.039033 
L 138.929071 73.191308 
L 139.207792 76.333862 
L 139.486513 74.595716 
L 139.765235 73.952177 
L 140.043956 76.888629 
L 140.322677 77.674481 
L 140.601399 74.596257 
L 140.88012 73.392093 
L 141.158841 73.018716 
L 141.437562 77.894543 
L 141.716284 70.169681 
L 141.995005 73.384822 
L 142.552448 69.840448 
L 142.831169 70.387404 
L 143.388611 68.573345 
L 143.667333 69.783813 
L 144.224775 77.897579 
L 144.782218 71.049234 
L 145.060939 75.434432 
L 145.33966 83.302457 
L 145.618382 85.40845 
L 145.897103 79.267085 
L 146.175824 85.113886 
L 146.454545 75.304223 
L 146.733267 81.762891 
L 147.011988 82.262067 
L 147.290709 80.640536 
L 147.569431 80.180476 
L 147.848152 80.220695 
L 148.126873 80.531075 
L 148.405594 81.939254 
L 148.684316 80.390368 
L 148.963037 80.983285 
L 149.241758 80.185271 
L 149.52048 76.939464 
L 149.799201 76.560653 
L 150.077922 75.2589 
L 150.356643 76.534066 
L 150.635365 73.772198 
L 150.914086 79.438556 
L 151.192807 74.004945 
L 151.471528 80.313623 
L 152.028971 72.03966 
L 152.307692 72.829958 
L 152.586414 71.214866 
L 152.865135 71.121319 
L 153.143856 70.738506 
L 153.422577 77.932113 
L 153.701299 72.615484 
L 153.98002 70.939329 
L 154.258741 65.469096 
L 154.537463 68.736888 
L 154.816184 69.356373 
L 155.094905 64.35142 
L 155.373626 67.922072 
L 155.652348 69.158682 
L 155.931069 71.757316 
L 156.20979 65.280087 
L 156.488511 76.251916 
L 156.767233 69.882813 
L 157.045954 69.532485 
L 157.603397 63.94641 
L 157.882118 65.84487 
L 158.718282 78.085949 
L 158.997003 70.783443 
L 159.275724 70.536909 
L 159.554446 75.827067 
L 159.833167 73.512459 
L 160.111888 75.599561 
L 160.669331 71.854731 
L 160.948052 73.916483 
L 161.226773 71.48934 
L 161.505495 74.892755 
L 161.784216 80.964432 
L 162.062937 76.879658 
L 162.341658 75.300356 
L 162.899101 83.163354 
L 163.177822 81.669034 
L 163.456543 81.949057 
L 163.735265 77.014197 
L 164.013986 85.305892 
L 164.292707 87.813589 
L 164.571429 94.74763 
L 164.85015 96.773147 
L 165.128871 96.959275 
L 165.407592 99.391803 
L 165.686314 95.908656 
L 166.243756 92.075133 
L 166.522478 100.610103 
L 167.07992 93.787465 
L 167.358641 102.116372 
L 167.637363 98.126866 
L 167.916084 101.5236 
L 168.194805 98.121248 
L 168.473526 106.03684 
L 168.752248 106.141815 
L 169.030969 107.042376 
L 169.588412 102.843722 
L 169.867133 95.474623 
L 170.145854 104.612825 
L 170.424575 104.140835 
L 170.703297 101.160529 
L 170.982018 104.035019 
L 171.260739 102.670927 
L 171.539461 104.784229 
L 171.818182 102.027253 
L 172.096903 98.142344 
L 172.375624 99.738458 
L 172.654346 98.614121 
L 172.933067 101.02189 
L 173.211788 89.295862 
L 173.490509 103.149327 
L 173.769231 95.105335 
L 174.047952 100.881618 
L 174.326673 100.883406 
L 174.884116 91.469415 
L 175.162837 89.019127 
L 175.441558 91.971995 
L 175.72028 90.09521 
L 175.999001 91.718655 
L 176.556444 86.483508 
L 176.835165 90.950787 
L 177.113886 84.485623 
L 177.392607 83.399252 
L 177.671329 89.923314 
L 177.95005 84.904323 
L 178.228771 84.64263 
L 178.507493 80.827592 
L 178.786214 85.873363 
L 179.064935 87.470859 
L 179.622378 76.852394 
L 179.901099 79.925706 
L 180.17982 78.05418 
L 180.458541 81.879834 
L 180.737263 76.674909 
L 181.015984 77.724348 
L 181.294705 73.029776 
L 181.573427 74.015773 
L 181.852148 73.998932 
L 182.130869 77.681654 
L 182.40959 73.646186 
L 182.688312 76.671506 
L 182.967033 67.726934 
L 183.524476 79.007829 
L 183.803197 77.445563 
L 184.081918 84.015682 
L 184.639361 71.888453 
L 184.918082 76.779014 
L 185.196803 75.497119 
L 185.754246 80.454814 
L 186.032967 78.950788 
L 186.311688 84.967977 
L 186.59041 79.400542 
L 186.869131 84.144073 
L 187.147852 76.137815 
L 187.426573 75.340034 
L 187.705295 80.197376 
L 187.984016 79.181852 
L 188.262737 68.028342 
L 188.541459 83.202142 
L 188.82018 76.59656 
L 189.098901 72.873116 
L 189.377622 77.926389 
L 189.656344 75.600527 
L 189.935065 77.556551 
L 190.213786 74.940553 
L 190.492507 73.844437 
L 190.771229 74.626325 
L 191.04995 80.736694 
L 191.328671 81.086732 
L 191.607393 83.744302 
L 191.886114 76.837776 
L 192.164835 85.270082 
L 192.443556 76.005151 
L 192.722278 79.926692 
L 193.000999 82.131414 
L 193.27972 73.965925 
L 193.558442 73.394742 
L 193.837163 79.974703 
L 194.115884 82.085723 
L 194.394605 75.034506 
L 195.230769 81.562744 
L 195.509491 70.45769 
L 195.788212 79.696208 
L 196.066933 81.313485 
L 196.345654 79.858552 
L 196.624376 82.201468 
L 196.903097 79.798263 
L 197.181818 85.850856 
L 197.460539 80.387796 
L 197.739261 72.567879 
L 198.017982 82.957852 
L 198.296703 87.613907 
L 198.854146 76.664623 
L 199.132867 78.435698 
L 199.411588 73.931333 
L 200.247752 78.499332 
L 200.526474 77.661835 
L 200.805195 82.076713 
L 201.362637 84.457431 
L 201.641359 81.288561 
L 201.92008 83.725295 
L 202.198801 78.378463 
L 202.477522 79.253898 
L 202.756244 81.013101 
L 203.034965 79.446175 
L 203.313686 84.532396 
L 203.592408 82.991245 
L 203.871129 82.643217 
L 204.14985 77.051322 
L 204.428571 78.279676 
L 204.707293 77.756291 
L 204.986014 73.680121 
L 205.264735 82.249247 
L 205.543457 76.585287 
L 205.822178 81.267446 
L 206.100899 77.969779 
L 206.37962 78.707348 
L 206.658342 78.833187 
L 206.937063 82.087425 
L 207.215784 81.960813 
L 207.494505 84.743796 
L 207.773227 75.875059 
L 208.051948 76.826484 
L 208.609391 69.652213 
L 209.166833 81.643201 
L 209.445554 74.751332 
L 209.724276 77.467122 
L 210.002997 76.891124 
L 210.281718 74.835926 
L 210.56044 68.81661 
L 210.839161 79.94889 
L 211.117882 77.176058 
L 211.396603 81.6077 
L 211.954046 77.309283 
L 212.232767 78.970472 
L 212.511489 76.594472 
L 212.79021 83.080983 
L 213.068931 78.238761 
L 213.347652 78.461589 
L 213.626374 74.355003 
L 213.905095 77.673785 
L 214.183816 75.977269 
L 214.462537 77.570859 
L 214.741259 75.683169 
L 215.01998 76.059137 
L 215.298701 76.033111 
L 215.577423 77.812771 
L 215.856144 71.960846 
L 216.134865 75.889484 
L 216.413586 73.740642 
L 216.692308 70.711668 
L 216.971029 82.261487 
L 217.24975 76.455446 
L 217.528472 80.204704 
L 217.807193 72.689347 
L 218.085914 76.289177 
L 218.364635 81.514772 
L 218.643357 76.399102 
L 219.200799 70.457903 
L 219.47952 80.178233 
L 219.758242 70.366482 
L 220.036963 73.822279 
L 220.315684 71.834409 
L 220.594406 75.170187 
L 220.873127 75.920827 
L 221.430569 72.478257 
L 221.709291 82.41484 
L 221.988012 76.35838 
L 222.266733 84.195274 
L 222.545455 76.428067 
L 222.824176 80.522954 
L 223.381618 81.294787 
L 223.66034 75.568004 
L 223.939061 81.874865 
L 224.217782 78.448827 
L 224.496503 78.43361 
L 224.775225 81.139906 
L 225.053946 75.713411 
L 225.332667 77.719823 
L 225.611389 76.620537 
L 225.89011 77.208001 
L 226.168831 74.197028 
L 226.447552 73.166055 
L 226.726274 75.649641 
L 227.004995 73.458802 
L 227.562438 78.010307 
L 227.841159 78.549722 
L 228.398601 81.846171 
L 228.677323 78.02943 
L 229.234765 79.460329 
L 229.513487 80.551069 
L 229.792208 77.379859 
L 230.070929 77.130947 
L 230.34965 80.723062 
L 230.628372 79.679869 
L 230.907093 82.011996 
L 231.185814 77.03216 
L 231.464535 82.059272 
L 231.743257 83.237372 
L 232.021978 73.810252 
L 232.300699 75.853364 
L 232.579421 87.720892 
L 232.858142 86.48171 
L 233.136863 87.354612 
L 233.415584 89.085043 
L 233.694306 87.913691 
L 233.973027 88.015959 
L 234.53047 90.368156 
L 234.809191 86.080277 
L 235.087912 85.989495 
L 235.366633 85.391318 
L 235.924076 80.814308 
L 236.202797 82.775707 
L 236.481518 81.454057 
L 236.76024 82.151582 
L 237.038961 81.22889 
L 237.317682 75.922819 
L 237.596404 77.559567 
L 237.875125 73.432891 
L 238.153846 77.975522 
L 238.432567 74.784319 
L 238.711289 74.215784 
L 238.99001 75.030987 
L 239.547453 69.333634 
L 239.826174 72.551753 
L 240.104895 68.268243 
L 240.383616 77.483925 
L 240.662338 77.622738 
L 240.941059 63.72888 
L 241.21978 71.294105 
L 241.498501 71.907557 
L 241.777223 70.881321 
L 242.055944 67.329077 
L 242.334665 76.743668 
L 242.613387 71.353369 
L 242.892108 72.055361 
L 243.170829 79.680081 
L 243.44955 69.257992 
L 243.728272 76.218427 
L 244.006993 72.354449 
L 244.285714 74.059047 
L 244.564436 77.754628 
L 244.843157 74.012003 
L 245.121878 73.613489 
L 245.400599 74.126994 
L 245.679321 84.400119 
L 245.958042 70.422151 
L 246.236763 81.748079 
L 246.515485 81.419175 
L 246.794206 84.168127 
L 247.072927 80.644771 
L 247.351648 82.205587 
L 247.63037 74.836603 
L 247.909091 76.367275 
L 248.187812 75.955322 
L 248.466533 74.453848 
L 249.023976 78.301178 
L 249.302697 78.021445 
L 249.581419 73.119301 
L 249.86014 75.600411 
L 250.138861 73.897882 
L 250.417582 77.709266 
L 250.696304 71.864283 
L 250.975025 69.181808 
L 251.253746 73.782427 
L 251.532468 68.92669 
L 251.811189 73.376546 
L 252.368631 67.156794 
L 252.647353 66.542182 
L 252.926074 62.038204 
L 253.204795 64.370215 
L 253.483516 68.515898 
L 253.762238 68.525972 
L 254.040959 69.218779 
L 254.31968 62.54467 
L 254.598402 63.598943 
L 254.877123 69.726424 
L 255.155844 65.865192 
L 255.434565 70.153323 
L 255.713287 69.851025 
L 255.992008 66.111087 
L 256.270729 70.218446 
L 256.549451 72.555465 
L 256.828172 72.715954 
L 257.106893 75.383907 
L 257.385614 65.915988 
L 257.664336 73.297985 
L 257.943057 72.775431 
L 258.221778 70.615955 
L 258.5005 71.40606 
L 258.779221 70.403472 
L 259.057942 72.237834 
L 259.336663 72.93532 
L 259.615385 72.018197 
L 259.894106 71.701204 
L 260.172827 81.388315 
L 260.451548 77.541353 
L 260.73027 78.165633 
L 261.008991 73.554321 
L 261.287712 75.483777 
L 261.566434 79.818488 
L 261.845155 78.412862 
L 262.402597 76.873296 
L 262.681319 83.912312 
L 262.96004 76.977362 
L 263.238761 78.344548 
L 263.517483 82.951393 
L 263.796204 76.227959 
L 264.074925 78.495601 
L 264.353646 79.467812 
L 264.632368 75.143522 
L 264.911089 82.467202 
L 265.747253 73.625651 
L 266.025974 72.783049 
L 266.304695 77.702498 
L 266.583417 75.540277 
L 266.862138 83.346233 
L 267.140859 72.193729 
L 267.41958 82.355344 
L 267.698302 79.253009 
L 267.977023 79.470229 
L 268.255744 74.990711 
L 268.534466 73.783375 
L 268.813187 79.87667 
L 269.091908 70.091177 
L 269.370629 79.235104 
L 269.928072 74.83552 
L 270.206793 80.64421 
L 270.485514 81.858797 
L 270.764236 75.689898 
L 271.042957 75.583705 
L 271.321678 72.633679 
L 271.6004 70.996428 
L 271.879121 78.859909 
L 272.157842 76.461866 
L 272.436563 77.456777 
L 272.715285 75.624987 
L 273.272727 84.283001 
L 273.83017 76.768611 
L 274.108891 72.489259 
L 274.666334 74.668071 
L 274.945055 72.02013 
L 275.223776 73.639438 
L 275.502498 76.777293 
L 275.781219 76.543676 
L 276.05994 80.624043 
L 276.338661 71.571189 
L 276.617383 71.220338 
L 276.896104 72.92045 
L 277.174825 79.654983 
L 277.453546 75.212803 
L 277.732268 74.172414 
L 278.010989 74.908185 
L 278.28971 82.992811 
L 278.847153 75.475675 
L 279.125874 72.715161 
L 279.404595 73.606954 
L 279.683317 69.762466 
L 279.962038 73.110909 
L 280.240759 78.067909 
L 280.519481 77.472555 
L 280.798202 78.627452 
L 281.076923 80.381609 
L 281.355644 74.208456 
L 281.634366 81.019366 
L 281.913087 71.229561 
L 282.191808 85.171971 
L 282.470529 81.459452 
L 282.749251 85.379736 
L 283.027972 80.037216 
L 283.306693 79.486007 
L 283.585415 85.493798 
L 283.864136 73.762144 
L 284.142857 78.962544 
L 284.421578 76.335409 
L 284.7003 79.120229 
L 284.979021 79.05207 
L 285.257742 80.539313 
L 285.536464 77.033688 
L 285.815185 80.163499 
L 286.093906 76.402543 
L 286.372627 77.034848 
L 286.651349 80.120187 
L 286.93007 80.959869 
L 287.208791 75.308555 
L 287.487512 77.236715 
L 287.766234 76.12691 
L 288.044955 79.336772 
L 288.323676 79.112398 
L 288.602398 73.027146 
L 288.881119 82.595496 
L 289.15984 74.209771 
L 289.438561 81.883373 
L 289.717283 81.076987 
L 289.996004 75.988561 
L 290.274725 78.571939 
L 290.553447 78.984896 
L 290.832168 78.408744 
L 291.110889 72.920972 
L 291.38961 75.828769 
L 291.668332 65.2634 
L 291.947053 74.897511 
L 292.225774 69.016215 
L 292.504496 76.445585 
L 292.783217 69.704652 
L 293.061938 67.212346 
L 293.340659 69.652774 
L 293.619381 70.162063 
L 293.898102 65.16643 
L 294.176823 69.308845 
L 294.455544 78.942686 
L 294.734266 71.226158 
L 295.012987 77.778643 
L 295.291708 65.564712 
L 295.57043 79.64344 
L 295.849151 71.636989 
L 296.406593 74.982705 
L 296.685315 75.071631 
L 296.964036 71.199339 
L 297.242757 72.151189 
L 297.521479 72.506004 
L 297.8002 66.961153 
L 298.078921 66.892453 
L 298.357642 71.212894 
L 298.636364 71.302458 
L 298.915085 66.245723 
L 299.193806 74.194128 
L 299.472527 73.99897 
L 300.308691 80.128772 
L 300.587413 75.352699 
L 300.866134 74.112975 
L 301.144855 70.817435 
L 301.423576 77.013965 
L 301.702298 71.398596 
L 301.981019 70.286664 
L 302.538462 79.675112 
L 302.817183 74.503464 
L 303.095904 73.655835 
L 303.374625 75.857038 
L 303.653347 75.179855 
L 303.932068 70.303447 
L 304.210789 78.649882 
L 304.48951 71.406485 
L 304.768232 71.794364 
L 305.046953 76.248939 
L 305.325674 73.081905 
L 305.604396 67.416166 
L 306.161838 75.569745 
L 306.440559 72.31686 
L 306.719281 75.926725 
L 307.555445 69.168292 
L 307.834166 75.464615 
L 308.112887 72.881488 
L 308.391608 78.884543 
L 308.67033 79.080532 
L 308.949051 75.254685 
L 309.227772 73.196626 
L 309.506494 73.533438 
L 309.785215 71.741036 
L 310.063936 86.55217 
L 310.342657 72.607808 
L 310.621379 77.645109 
L 310.9001 75.209071 
L 311.178821 74.33646 
L 311.457542 71.621752 
L 311.736264 81.715866 
L 312.014985 82.906573 
L 312.293706 80.553563 
L 312.572428 79.305003 
L 312.851149 81.167073 
L 313.408591 81.429732 
L 313.966034 85.970043 
L 314.244755 91.317551 
L 314.802198 89.120602 
L 315.638362 80.142616 
L 315.917083 86.697886 
L 316.195804 80.864176 
L 316.474525 79.73167 
L 316.753247 87.365246 
L 317.031968 79.803155 
L 317.310689 82.887565 
L 317.868132 75.75943 
L 318.146853 84.103119 
L 318.425574 80.759433 
L 318.704296 73.183148 
L 318.983017 73.249625 
L 319.261738 77.885764 
L 319.54046 87.832132 
L 319.819181 74.894901 
L 320.097902 75.146732 
L 320.376623 73.41431 
L 320.655345 79.253589 
L 320.934066 71.9395 
L 321.212787 72.812943 
L 321.77023 79.677394 
L 322.606394 75.307878 
L 322.885115 69.072521 
L 323.163836 73.260183 
L 323.442557 79.883844 
L 323.721279 77.156297 
L 323.721279 77.156297 
" clip-path="url(#pbb379d7250)" style="fill: none; stroke: #0000ff; stroke-linecap: square"/>
   </g>
   <g id="patch_3">
    <path d="M 45 256.32 
L 45 34.56 
" style="fill: none; stroke: #000000; stroke-width: 0.8; stroke-linejoin: miter; stroke-linecap: square"/>
   </g>
   <g id="patch_4">
    <path d="M 324 256.32 
L 324 34.56 
" style="fill: none; stroke: #000000; stroke-width: 0.8; stroke-linejoin: miter; stroke-linecap: square"/>
   </g>
   <g id="patch_5">
    <path d="M 45 256.32 
L 324 256.32 
" style="fill: none; stroke: #000000; stroke-width: 0.8; stroke-linejoin: miter; stroke-linecap: square"/>
   </g>
   <g id="patch_6">
    <path d="M 45 34.56 
L 324 34.56 
" style="fill: none; stroke: #000000; stroke-width: 0.8; stroke-linejoin: miter; stroke-linecap: square"/>
   </g>
  </g>
 </g>
 <defs>
  <clipPath id="pbb379d7250">
   <rect x="45" y="34.56" width="279" height="221.76"/>
  </clipPath>
 </defs>
</svg>
