<?xml version="1.0" encoding="utf-8" standalone="no"?>
<!DOCTYPE svg PUBLIC "-//W3C//DTD SVG 1.1//EN"
  "http://www.w3.org/Graphics/SVG/1.1/DTD/svg11.dtd">
<svg xmlns:xlink="http://www.w3.org/1999/xlink" width="360pt" height="288pt" viewBox="0 0 360 288" xmlns="http://www.w3.org/2000/svg" version="1.1">
 <metadata>
  <rdf:RDF xmlns:dc="http://purl.org/dc/elements/1.1/" xmlns:cc="http://creativecommons.org/ns#" xmlns:rdf="http://www.w3.org/1999/02/22-rdf-syntax-ns#">
   <cc:Work>
    <dc:type rdf:resource="http://purl.org/dc/dcmitype/StillImage"/>
    <dc:date>2025-06-13T17:32:44.921784</dc:date>
    <dc:format>image/svg+xml</dc:format>
    <dc:creator>
     <cc:Agent>
      <dc:title>Matplotlib v3.5.1, https://matplotlib.org/</dc:title>
     </cc:Agent>
    </dc:creator>
   </cc:Work>
  </rdf:RDF>
 </metadata>
 <defs>
  <style type="text/css">*{stroke-linejoin: round; stroke-linecap: butt}</style>
 </defs>
 <g id="figure_1">
  <g id="patch_1">
   <path d="M 0 288 
L 360 288 
L 360 0 
L 0 0 
z
" style="fill: #ffffff"/>
  </g>
  <g id="axes_1">
   <g id="patch_2">
    <path d="M 45 256.32 
L 324 256.32 
L 324 34.56 
L 45 34.56 
z
" style="fill: #ffffff"/>
   </g>
   <g id="matplotlib.axis_1">
    <g id="xtick_1">
     <g id="line2d_1">
      <defs>
       <path id="m5619a790ef" d="M 0 0 
L 0 3.5 
" style="stroke: #000000; stroke-width: 0.8"/>
      </defs>
      <g>
       <use xlink:href="#m5619a790ef" x="45" y="256.32" style="stroke: #000000; stroke-width: 0.8"/>
      </g>
     </g>
     <g id="text_1">
      <!-- 0 -->
      <g transform="translate(42.5 270.26375)scale(0.1 -0.1)">
       <defs>
        <path id="TimesNewRomanPSMT-30" d="M 231 2094 
Q 231 2819 450 3342 
Q 669 3866 1031 4122 
Q 1313 4325 1613 4325 
Q 2100 4325 2488 3828 
Q 2972 3213 2972 2159 
Q 2972 1422 2759 906 
Q 2547 391 2217 158 
Q 1888 -75 1581 -75 
Q 975 -75 572 641 
Q 231 1244 231 2094 
z
M 844 2016 
Q 844 1141 1059 588 
Q 1238 122 1591 122 
Q 1759 122 1940 273 
Q 2122 425 2216 781 
Q 2359 1319 2359 2297 
Q 2359 3022 2209 3506 
Q 2097 3866 1919 4016 
Q 1791 4119 1609 4119 
Q 1397 4119 1231 3928 
Q 1006 3669 925 3112 
Q 844 2556 844 2016 
z
" transform="scale(0.015625)"/>
       </defs>
       <use xlink:href="#TimesNewRomanPSMT-30"/>
      </g>
     </g>
    </g>
    <g id="xtick_2">
     <g id="line2d_2">
      <g>
       <use xlink:href="#m5619a790ef" x="100.744256" y="256.32" style="stroke: #000000; stroke-width: 0.8"/>
      </g>
     </g>
     <g id="text_2">
      <!-- 200 -->
      <g transform="translate(93.244256 270.26375)scale(0.1 -0.1)">
       <defs>
        <path id="TimesNewRomanPSMT-32" d="M 2934 816 
L 2638 0 
L 138 0 
L 138 116 
Q 1241 1122 1691 1759 
Q 2141 2397 2141 2925 
Q 2141 3328 1894 3587 
Q 1647 3847 1303 3847 
Q 991 3847 742 3664 
Q 494 3481 375 3128 
L 259 3128 
Q 338 3706 661 4015 
Q 984 4325 1469 4325 
Q 1984 4325 2329 3994 
Q 2675 3663 2675 3213 
Q 2675 2891 2525 2569 
Q 2294 2063 1775 1497 
Q 997 647 803 472 
L 1909 472 
Q 2247 472 2383 497 
Q 2519 522 2628 598 
Q 2738 675 2819 816 
L 2934 816 
z
" transform="scale(0.015625)"/>
       </defs>
       <use xlink:href="#TimesNewRomanPSMT-32"/>
       <use xlink:href="#TimesNewRomanPSMT-30" x="50"/>
       <use xlink:href="#TimesNewRomanPSMT-30" x="100"/>
      </g>
     </g>
    </g>
    <g id="xtick_3">
     <g id="line2d_3">
      <g>
       <use xlink:href="#m5619a790ef" x="156.488511" y="256.32" style="stroke: #000000; stroke-width: 0.8"/>
      </g>
     </g>
     <g id="text_3">
      <!-- 400 -->
      <g transform="translate(148.988511 270.26375)scale(0.1 -0.1)">
       <defs>
        <path id="TimesNewRomanPSMT-34" d="M 2978 1563 
L 2978 1119 
L 2409 1119 
L 2409 0 
L 1894 0 
L 1894 1119 
L 100 1119 
L 100 1519 
L 2066 4325 
L 2409 4325 
L 2409 1563 
L 2978 1563 
z
M 1894 1563 
L 1894 3666 
L 406 1563 
L 1894 1563 
z
" transform="scale(0.015625)"/>
       </defs>
       <use xlink:href="#TimesNewRomanPSMT-34"/>
       <use xlink:href="#TimesNewRomanPSMT-30" x="50"/>
       <use xlink:href="#TimesNewRomanPSMT-30" x="100"/>
      </g>
     </g>
    </g>
    <g id="xtick_4">
     <g id="line2d_4">
      <g>
       <use xlink:href="#m5619a790ef" x="212.232767" y="256.32" style="stroke: #000000; stroke-width: 0.8"/>
      </g>
     </g>
     <g id="text_4">
      <!-- 600 -->
      <g transform="translate(204.732767 270.26375)scale(0.1 -0.1)">
       <defs>
        <path id="TimesNewRomanPSMT-36" d="M 2869 4325 
L 2869 4209 
Q 2456 4169 2195 4045 
Q 1934 3922 1679 3669 
Q 1425 3416 1258 3105 
Q 1091 2794 978 2366 
Q 1428 2675 1881 2675 
Q 2316 2675 2634 2325 
Q 2953 1975 2953 1425 
Q 2953 894 2631 456 
Q 2244 -75 1606 -75 
Q 1172 -75 869 213 
Q 275 772 275 1663 
Q 275 2231 503 2743 
Q 731 3256 1154 3653 
Q 1578 4050 1965 4187 
Q 2353 4325 2688 4325 
L 2869 4325 
z
M 925 2138 
Q 869 1716 869 1456 
Q 869 1156 980 804 
Q 1091 453 1309 247 
Q 1469 100 1697 100 
Q 1969 100 2183 356 
Q 2397 613 2397 1088 
Q 2397 1622 2184 2012 
Q 1972 2403 1581 2403 
Q 1463 2403 1327 2353 
Q 1191 2303 925 2138 
z
" transform="scale(0.015625)"/>
       </defs>
       <use xlink:href="#TimesNewRomanPSMT-36"/>
       <use xlink:href="#TimesNewRomanPSMT-30" x="50"/>
       <use xlink:href="#TimesNewRomanPSMT-30" x="100"/>
      </g>
     </g>
    </g>
    <g id="xtick_5">
     <g id="line2d_5">
      <g>
       <use xlink:href="#m5619a790ef" x="267.977023" y="256.32" style="stroke: #000000; stroke-width: 0.8"/>
      </g>
     </g>
     <g id="text_5">
      <!-- 800 -->
      <g transform="translate(260.477023 270.26375)scale(0.1 -0.1)">
       <defs>
        <path id="TimesNewRomanPSMT-38" d="M 1228 2134 
Q 725 2547 579 2797 
Q 434 3047 434 3316 
Q 434 3728 753 4026 
Q 1072 4325 1600 4325 
Q 2113 4325 2425 4047 
Q 2738 3769 2738 3413 
Q 2738 3175 2569 2928 
Q 2400 2681 1866 2347 
Q 2416 1922 2594 1678 
Q 2831 1359 2831 1006 
Q 2831 559 2490 242 
Q 2150 -75 1597 -75 
Q 994 -75 656 303 
Q 388 606 388 966 
Q 388 1247 577 1523 
Q 766 1800 1228 2134 
z
M 1719 2469 
Q 2094 2806 2194 3001 
Q 2294 3197 2294 3444 
Q 2294 3772 2109 3958 
Q 1925 4144 1606 4144 
Q 1288 4144 1088 3959 
Q 888 3775 888 3528 
Q 888 3366 970 3203 
Q 1053 3041 1206 2894 
L 1719 2469 
z
M 1375 2016 
Q 1116 1797 991 1539 
Q 866 1281 866 981 
Q 866 578 1086 336 
Q 1306 94 1647 94 
Q 1984 94 2187 284 
Q 2391 475 2391 747 
Q 2391 972 2272 1150 
Q 2050 1481 1375 2016 
z
" transform="scale(0.015625)"/>
       </defs>
       <use xlink:href="#TimesNewRomanPSMT-38"/>
       <use xlink:href="#TimesNewRomanPSMT-30" x="50"/>
       <use xlink:href="#TimesNewRomanPSMT-30" x="100"/>
      </g>
     </g>
    </g>
    <g id="xtick_6">
     <g id="line2d_6">
      <g>
       <use xlink:href="#m5619a790ef" x="323.721279" y="256.32" style="stroke: #000000; stroke-width: 0.8"/>
      </g>
     </g>
     <g id="text_6">
      <!-- 1000 -->
      <g transform="translate(313.721279 270.26375)scale(0.1 -0.1)">
       <defs>
        <path id="TimesNewRomanPSMT-31" d="M 750 3822 
L 1781 4325 
L 1884 4325 
L 1884 747 
Q 1884 391 1914 303 
Q 1944 216 2037 169 
Q 2131 122 2419 116 
L 2419 0 
L 825 0 
L 825 116 
Q 1125 122 1212 167 
Q 1300 213 1334 289 
Q 1369 366 1369 747 
L 1369 3034 
Q 1369 3497 1338 3628 
Q 1316 3728 1258 3775 
Q 1200 3822 1119 3822 
Q 1003 3822 797 3725 
L 750 3822 
z
" transform="scale(0.015625)"/>
       </defs>
       <use xlink:href="#TimesNewRomanPSMT-31"/>
       <use xlink:href="#TimesNewRomanPSMT-30" x="50"/>
       <use xlink:href="#TimesNewRomanPSMT-30" x="100"/>
       <use xlink:href="#TimesNewRomanPSMT-30" x="150"/>
      </g>
     </g>
    </g>
    <g id="text_7">
     <!-- Train Step -->
     <g transform="translate(163.708594 283.346563)scale(0.1 -0.1)">
      <defs>
       <path id="TimesNewRomanPSMT-54" d="M 3703 4238 
L 3750 3244 
L 3631 3244 
Q 3597 3506 3538 3619 
Q 3441 3800 3280 3886 
Q 3119 3972 2856 3972 
L 2259 3972 
L 2259 734 
Q 2259 344 2344 247 
Q 2463 116 2709 116 
L 2856 116 
L 2856 0 
L 1059 0 
L 1059 116 
L 1209 116 
Q 1478 116 1591 278 
Q 1659 378 1659 734 
L 1659 3972 
L 1150 3972 
Q 853 3972 728 3928 
Q 566 3869 450 3700 
Q 334 3531 313 3244 
L 194 3244 
L 244 4238 
L 3703 4238 
z
" transform="scale(0.015625)"/>
       <path id="TimesNewRomanPSMT-72" d="M 1038 2947 
L 1038 2303 
Q 1397 2947 1775 2947 
Q 1947 2947 2059 2842 
Q 2172 2738 2172 2600 
Q 2172 2478 2090 2393 
Q 2009 2309 1897 2309 
Q 1788 2309 1652 2417 
Q 1516 2525 1450 2525 
Q 1394 2525 1328 2463 
Q 1188 2334 1038 2041 
L 1038 669 
Q 1038 431 1097 309 
Q 1138 225 1241 169 
Q 1344 113 1538 113 
L 1538 0 
L 72 0 
L 72 113 
Q 291 113 397 181 
Q 475 231 506 341 
Q 522 394 522 644 
L 522 1753 
Q 522 2253 501 2348 
Q 481 2444 426 2487 
Q 372 2531 291 2531 
Q 194 2531 72 2484 
L 41 2597 
L 906 2947 
L 1038 2947 
z
" transform="scale(0.015625)"/>
       <path id="TimesNewRomanPSMT-61" d="M 1822 413 
Q 1381 72 1269 19 
Q 1100 -59 909 -59 
Q 613 -59 420 144 
Q 228 347 228 678 
Q 228 888 322 1041 
Q 450 1253 767 1440 
Q 1084 1628 1822 1897 
L 1822 2009 
Q 1822 2438 1686 2597 
Q 1550 2756 1291 2756 
Q 1094 2756 978 2650 
Q 859 2544 859 2406 
L 866 2225 
Q 866 2081 792 2003 
Q 719 1925 600 1925 
Q 484 1925 411 2006 
Q 338 2088 338 2228 
Q 338 2497 613 2722 
Q 888 2947 1384 2947 
Q 1766 2947 2009 2819 
Q 2194 2722 2281 2516 
Q 2338 2381 2338 1966 
L 2338 994 
Q 2338 584 2353 492 
Q 2369 400 2405 369 
Q 2441 338 2488 338 
Q 2538 338 2575 359 
Q 2641 400 2828 588 
L 2828 413 
Q 2478 -56 2159 -56 
Q 2006 -56 1915 50 
Q 1825 156 1822 413 
z
M 1822 616 
L 1822 1706 
Q 1350 1519 1213 1441 
Q 966 1303 859 1153 
Q 753 1003 753 825 
Q 753 600 887 451 
Q 1022 303 1197 303 
Q 1434 303 1822 616 
z
" transform="scale(0.015625)"/>
       <path id="TimesNewRomanPSMT-69" d="M 928 4444 
Q 1059 4444 1151 4351 
Q 1244 4259 1244 4128 
Q 1244 3997 1151 3903 
Q 1059 3809 928 3809 
Q 797 3809 703 3903 
Q 609 3997 609 4128 
Q 609 4259 701 4351 
Q 794 4444 928 4444 
z
M 1188 2947 
L 1188 647 
Q 1188 378 1227 289 
Q 1266 200 1342 156 
Q 1419 113 1622 113 
L 1622 0 
L 231 0 
L 231 113 
Q 441 113 512 153 
Q 584 194 626 287 
Q 669 381 669 647 
L 669 1750 
Q 669 2216 641 2353 
Q 619 2453 572 2492 
Q 525 2531 444 2531 
Q 356 2531 231 2484 
L 188 2597 
L 1050 2947 
L 1188 2947 
z
" transform="scale(0.015625)"/>
       <path id="TimesNewRomanPSMT-6e" d="M 1034 2341 
Q 1538 2947 1994 2947 
Q 2228 2947 2397 2830 
Q 2566 2713 2666 2444 
Q 2734 2256 2734 1869 
L 2734 647 
Q 2734 375 2778 278 
Q 2813 200 2889 156 
Q 2966 113 3172 113 
L 3172 0 
L 1756 0 
L 1756 113 
L 1816 113 
Q 2016 113 2095 173 
Q 2175 234 2206 353 
Q 2219 400 2219 647 
L 2219 1819 
Q 2219 2209 2117 2386 
Q 2016 2563 1775 2563 
Q 1403 2563 1034 2156 
L 1034 647 
Q 1034 356 1069 288 
Q 1113 197 1189 155 
Q 1266 113 1500 113 
L 1500 0 
L 84 0 
L 84 113 
L 147 113 
Q 366 113 442 223 
Q 519 334 519 647 
L 519 1709 
Q 519 2225 495 2337 
Q 472 2450 423 2490 
Q 375 2531 294 2531 
Q 206 2531 84 2484 
L 38 2597 
L 900 2947 
L 1034 2947 
L 1034 2341 
z
" transform="scale(0.015625)"/>
       <path id="TimesNewRomanPSMT-20" transform="scale(0.015625)"/>
       <path id="TimesNewRomanPSMT-53" d="M 2934 4334 
L 2934 2869 
L 2819 2869 
Q 2763 3291 2617 3541 
Q 2472 3791 2203 3937 
Q 1934 4084 1647 4084 
Q 1322 4084 1109 3886 
Q 897 3688 897 3434 
Q 897 3241 1031 3081 
Q 1225 2847 1953 2456 
Q 2547 2138 2764 1967 
Q 2981 1797 3098 1565 
Q 3216 1334 3216 1081 
Q 3216 600 2842 251 
Q 2469 -97 1881 -97 
Q 1697 -97 1534 -69 
Q 1438 -53 1133 45 
Q 828 144 747 144 
Q 669 144 623 97 
Q 578 50 556 -97 
L 441 -97 
L 441 1356 
L 556 1356 
Q 638 900 775 673 
Q 913 447 1195 297 
Q 1478 147 1816 147 
Q 2206 147 2432 353 
Q 2659 559 2659 841 
Q 2659 997 2573 1156 
Q 2488 1316 2306 1453 
Q 2184 1547 1640 1851 
Q 1097 2156 867 2337 
Q 638 2519 519 2737 
Q 400 2956 400 3219 
Q 400 3675 750 4004 
Q 1100 4334 1641 4334 
Q 1978 4334 2356 4169 
Q 2531 4091 2603 4091 
Q 2684 4091 2736 4139 
Q 2788 4188 2819 4334 
L 2934 4334 
z
" transform="scale(0.015625)"/>
       <path id="TimesNewRomanPSMT-74" d="M 1031 3803 
L 1031 2863 
L 1700 2863 
L 1700 2644 
L 1031 2644 
L 1031 788 
Q 1031 509 1111 412 
Q 1191 316 1316 316 
Q 1419 316 1516 380 
Q 1613 444 1666 569 
L 1788 569 
Q 1678 263 1478 108 
Q 1278 -47 1066 -47 
Q 922 -47 784 33 
Q 647 113 581 261 
Q 516 409 516 719 
L 516 2644 
L 63 2644 
L 63 2747 
Q 234 2816 414 2980 
Q 594 3144 734 3369 
Q 806 3488 934 3803 
L 1031 3803 
z
" transform="scale(0.015625)"/>
       <path id="TimesNewRomanPSMT-65" d="M 681 1784 
Q 678 1147 991 784 
Q 1303 422 1725 422 
Q 2006 422 2214 576 
Q 2422 731 2563 1106 
L 2659 1044 
Q 2594 616 2278 264 
Q 1963 -88 1488 -88 
Q 972 -88 605 314 
Q 238 716 238 1394 
Q 238 2128 614 2539 
Q 991 2950 1559 2950 
Q 2041 2950 2350 2633 
Q 2659 2316 2659 1784 
L 681 1784 
z
M 681 1966 
L 2006 1966 
Q 1991 2241 1941 2353 
Q 1863 2528 1708 2628 
Q 1553 2728 1384 2728 
Q 1125 2728 920 2526 
Q 716 2325 681 1966 
z
" transform="scale(0.015625)"/>
       <path id="TimesNewRomanPSMT-70" d="M -6 2578 
L 875 2934 
L 994 2934 
L 994 2266 
Q 1216 2644 1439 2795 
Q 1663 2947 1909 2947 
Q 2341 2947 2628 2609 
Q 2981 2197 2981 1534 
Q 2981 794 2556 309 
Q 2206 -88 1675 -88 
Q 1444 -88 1275 -22 
Q 1150 25 994 166 
L 994 -706 
Q 994 -1000 1030 -1079 
Q 1066 -1159 1155 -1206 
Q 1244 -1253 1478 -1253 
L 1478 -1369 
L -22 -1369 
L -22 -1253 
L 56 -1253 
Q 228 -1256 350 -1188 
Q 409 -1153 442 -1076 
Q 475 -1000 475 -688 
L 475 2019 
Q 475 2297 450 2372 
Q 425 2447 370 2484 
Q 316 2522 222 2522 
Q 147 2522 31 2478 
L -6 2578 
z
M 994 2081 
L 994 1013 
Q 994 666 1022 556 
Q 1066 375 1236 237 
Q 1406 100 1666 100 
Q 1978 100 2172 344 
Q 2425 663 2425 1241 
Q 2425 1897 2138 2250 
Q 1938 2494 1663 2494 
Q 1513 2494 1366 2419 
Q 1253 2363 994 2081 
z
" transform="scale(0.015625)"/>
      </defs>
      <use xlink:href="#TimesNewRomanPSMT-54"/>
      <use xlink:href="#TimesNewRomanPSMT-72" x="57.583984"/>
      <use xlink:href="#TimesNewRomanPSMT-61" x="90.884766"/>
      <use xlink:href="#TimesNewRomanPSMT-69" x="135.269531"/>
      <use xlink:href="#TimesNewRomanPSMT-6e" x="163.052734"/>
      <use xlink:href="#TimesNewRomanPSMT-20" x="213.052734"/>
      <use xlink:href="#TimesNewRomanPSMT-53" x="238.052734"/>
      <use xlink:href="#TimesNewRomanPSMT-74" x="293.667969"/>
      <use xlink:href="#TimesNewRomanPSMT-65" x="321.451172"/>
      <use xlink:href="#TimesNewRomanPSMT-70" x="365.835938"/>
     </g>
    </g>
   </g>
   <g id="matplotlib.axis_2">
    <g id="ytick_1">
     <g id="line2d_7">
      <defs>
       <path id="m554b93fce5" d="M 0 0 
L -3.5 0 
" style="stroke: #000000; stroke-width: 0.8"/>
      </defs>
      <g>
       <use xlink:href="#m554b93fce5" x="45" y="236.16" style="stroke: #000000; stroke-width: 0.8"/>
      </g>
     </g>
     <g id="text_8">
      <!-- 0 -->
      <g transform="translate(33 239.631875)scale(0.1 -0.1)">
       <use xlink:href="#TimesNewRomanPSMT-30"/>
      </g>
     </g>
    </g>
    <g id="ytick_2">
     <g id="line2d_8">
      <g>
       <use xlink:href="#m554b93fce5" x="45" y="195.84" style="stroke: #000000; stroke-width: 0.8"/>
      </g>
     </g>
     <g id="text_9">
      <!-- 200 -->
      <g transform="translate(23 199.311875)scale(0.1 -0.1)">
       <use xlink:href="#TimesNewRomanPSMT-32"/>
       <use xlink:href="#TimesNewRomanPSMT-30" x="50"/>
       <use xlink:href="#TimesNewRomanPSMT-30" x="100"/>
      </g>
     </g>
    </g>
    <g id="ytick_3">
     <g id="line2d_9">
      <g>
       <use xlink:href="#m554b93fce5" x="45" y="155.52" style="stroke: #000000; stroke-width: 0.8"/>
      </g>
     </g>
     <g id="text_10">
      <!-- 400 -->
      <g transform="translate(23 158.991875)scale(0.1 -0.1)">
       <use xlink:href="#TimesNewRomanPSMT-34"/>
       <use xlink:href="#TimesNewRomanPSMT-30" x="50"/>
       <use xlink:href="#TimesNewRomanPSMT-30" x="100"/>
      </g>
     </g>
    </g>
    <g id="ytick_4">
     <g id="line2d_10">
      <g>
       <use xlink:href="#m554b93fce5" x="45" y="115.2" style="stroke: #000000; stroke-width: 0.8"/>
      </g>
     </g>
     <g id="text_11">
      <!-- 600 -->
      <g transform="translate(23 118.671875)scale(0.1 -0.1)">
       <use xlink:href="#TimesNewRomanPSMT-36"/>
       <use xlink:href="#TimesNewRomanPSMT-30" x="50"/>
       <use xlink:href="#TimesNewRomanPSMT-30" x="100"/>
      </g>
     </g>
    </g>
    <g id="ytick_5">
     <g id="line2d_11">
      <g>
       <use xlink:href="#m554b93fce5" x="45" y="74.88" style="stroke: #000000; stroke-width: 0.8"/>
      </g>
     </g>
     <g id="text_12">
      <!-- 800 -->
      <g transform="translate(23 78.351875)scale(0.1 -0.1)">
       <use xlink:href="#TimesNewRomanPSMT-38"/>
       <use xlink:href="#TimesNewRomanPSMT-30" x="50"/>
       <use xlink:href="#TimesNewRomanPSMT-30" x="100"/>
      </g>
     </g>
    </g>
    <g id="ytick_6">
     <g id="line2d_12">
      <g>
       <use xlink:href="#m554b93fce5" x="45" y="34.56" style="stroke: #000000; stroke-width: 0.8"/>
      </g>
     </g>
     <g id="text_13">
      <!-- 1000 -->
      <g transform="translate(18 38.031875)scale(0.1 -0.1)">
       <use xlink:href="#TimesNewRomanPSMT-31"/>
       <use xlink:href="#TimesNewRomanPSMT-30" x="50"/>
       <use xlink:href="#TimesNewRomanPSMT-30" x="100"/>
       <use xlink:href="#TimesNewRomanPSMT-30" x="150"/>
      </g>
     </g>
    </g>
    <g id="text_14">
     <!-- Actor Loss -->
     <g transform="translate(11.860937 167.520469)rotate(-90)scale(0.1 -0.1)">
      <defs>
       <path id="TimesNewRomanPSMT-41" d="M 2928 1419 
L 1288 1419 
L 1000 750 
Q 894 503 894 381 
Q 894 284 986 211 
Q 1078 138 1384 116 
L 1384 0 
L 50 0 
L 50 116 
Q 316 163 394 238 
Q 553 388 747 847 
L 2238 4334 
L 2347 4334 
L 3822 809 
Q 4000 384 4145 257 
Q 4291 131 4550 116 
L 4550 0 
L 2878 0 
L 2878 116 
Q 3131 128 3220 200 
Q 3309 272 3309 375 
Q 3309 513 3184 809 
L 2928 1419 
z
M 2841 1650 
L 2122 3363 
L 1384 1650 
L 2841 1650 
z
" transform="scale(0.015625)"/>
       <path id="TimesNewRomanPSMT-63" d="M 2631 1088 
Q 2516 522 2178 217 
Q 1841 -88 1431 -88 
Q 944 -88 581 321 
Q 219 731 219 1428 
Q 219 2103 620 2525 
Q 1022 2947 1584 2947 
Q 2006 2947 2278 2723 
Q 2550 2500 2550 2259 
Q 2550 2141 2473 2067 
Q 2397 1994 2259 1994 
Q 2075 1994 1981 2113 
Q 1928 2178 1911 2362 
Q 1894 2547 1784 2644 
Q 1675 2738 1481 2738 
Q 1169 2738 978 2506 
Q 725 2200 725 1697 
Q 725 1184 976 792 
Q 1228 400 1656 400 
Q 1963 400 2206 609 
Q 2378 753 2541 1131 
L 2631 1088 
z
" transform="scale(0.015625)"/>
       <path id="TimesNewRomanPSMT-6f" d="M 1600 2947 
Q 2250 2947 2644 2453 
Q 2978 2031 2978 1484 
Q 2978 1100 2793 706 
Q 2609 313 2286 112 
Q 1963 -88 1566 -88 
Q 919 -88 538 428 
Q 216 863 216 1403 
Q 216 1797 411 2186 
Q 606 2575 925 2761 
Q 1244 2947 1600 2947 
z
M 1503 2744 
Q 1338 2744 1170 2645 
Q 1003 2547 900 2300 
Q 797 2053 797 1666 
Q 797 1041 1045 587 
Q 1294 134 1700 134 
Q 2003 134 2200 384 
Q 2397 634 2397 1244 
Q 2397 2006 2069 2444 
Q 1847 2744 1503 2744 
z
" transform="scale(0.015625)"/>
       <path id="TimesNewRomanPSMT-4c" d="M 3669 1172 
L 3772 1150 
L 3409 0 
L 128 0 
L 128 116 
L 288 116 
Q 556 116 672 291 
Q 738 391 738 753 
L 738 3488 
Q 738 3884 650 3984 
Q 528 4122 288 4122 
L 128 4122 
L 128 4238 
L 2047 4238 
L 2047 4122 
Q 1709 4125 1573 4059 
Q 1438 3994 1388 3894 
Q 1338 3794 1338 3416 
L 1338 753 
Q 1338 494 1388 397 
Q 1425 331 1503 300 
Q 1581 269 1991 269 
L 2300 269 
Q 2788 269 2984 341 
Q 3181 413 3343 595 
Q 3506 778 3669 1172 
z
" transform="scale(0.015625)"/>
       <path id="TimesNewRomanPSMT-73" d="M 2050 2947 
L 2050 1972 
L 1947 1972 
Q 1828 2431 1642 2597 
Q 1456 2763 1169 2763 
Q 950 2763 815 2647 
Q 681 2531 681 2391 
Q 681 2216 781 2091 
Q 878 1963 1175 1819 
L 1631 1597 
Q 2266 1288 2266 781 
Q 2266 391 1970 151 
Q 1675 -88 1309 -88 
Q 1047 -88 709 6 
Q 606 38 541 38 
Q 469 38 428 -44 
L 325 -44 
L 325 978 
L 428 978 
Q 516 541 762 319 
Q 1009 97 1316 97 
Q 1531 97 1667 223 
Q 1803 350 1803 528 
Q 1803 744 1651 891 
Q 1500 1038 1047 1263 
Q 594 1488 453 1669 
Q 313 1847 313 2119 
Q 313 2472 555 2709 
Q 797 2947 1181 2947 
Q 1350 2947 1591 2875 
Q 1750 2828 1803 2828 
Q 1853 2828 1881 2850 
Q 1909 2872 1947 2947 
L 2050 2947 
z
" transform="scale(0.015625)"/>
      </defs>
      <use xlink:href="#TimesNewRomanPSMT-41"/>
      <use xlink:href="#TimesNewRomanPSMT-63" x="72.216797"/>
      <use xlink:href="#TimesNewRomanPSMT-74" x="116.601562"/>
      <use xlink:href="#TimesNewRomanPSMT-6f" x="144.384766"/>
      <use xlink:href="#TimesNewRomanPSMT-72" x="194.384766"/>
      <use xlink:href="#TimesNewRomanPSMT-20" x="227.685547"/>
      <use xlink:href="#TimesNewRomanPSMT-4c" x="252.685547"/>
      <use xlink:href="#TimesNewRomanPSMT-6f" x="313.769531"/>
      <use xlink:href="#TimesNewRomanPSMT-73" x="363.769531"/>
      <use xlink:href="#TimesNewRomanPSMT-73" x="402.685547"/>
     </g>
    </g>
   </g>
   <g id="line2d_13">
    <path d="M 102.634096 -1 
L 102.974026 11.442691 
L 103.252747 11.609469 
L 103.517185 -1 
M 103.540439 -1 
L 104.088911 37.623941 
L 104.367632 42.595699 
L 104.646354 16.337964 
L 104.925075 36.982719 
L 105.203796 39.624634 
L 105.482517 51.038241 
L 105.761239 41.3309 
L 106.03996 65.371147 
L 106.318681 37.150063 
L 106.597403 54.161724 
L 107.154845 27.792299 
L 107.433566 58.703803 
L 107.712288 54.548399 
L 107.991009 46.577619 
L 108.26973 31.936985 
L 108.548452 63.582463 
L 108.827173 60.815939 
L 109.105894 56.793266 
L 109.384615 62.072691 
L 109.942058 48.679703 
L 110.220779 61.840009 
L 110.4995 64.035313 
L 110.778222 56.417493 
L 111.335664 64.505081 
L 111.614386 73.074841 
L 111.893107 51.23925 
L 112.171828 52.159505 
L 112.450549 77.229334 
L 112.729271 66.526618 
L 113.007992 73.227382 
L 113.286713 65.450746 
L 113.844156 69.170514 
L 114.122877 80.384059 
L 114.401598 74.943025 
L 114.68032 77.737075 
L 114.959041 73.188721 
L 115.237762 82.555172 
L 115.516484 67.65609 
L 115.795205 92.541189 
L 116.073926 70.37518 
L 116.352647 99.864348 
L 116.631369 116.589581 
L 117.188811 73.86447 
L 117.467532 88.231583 
L 117.746254 94.164103 
L 118.024975 91.184363 
L 118.303696 108.615946 
L 118.861139 91.218139 
L 119.13986 101.418873 
L 119.418581 98.665773 
L 119.697303 113.266651 
L 119.976024 113.571229 
L 120.254745 106.992663 
L 120.533467 117.988501 
L 120.812188 113.222538 
L 121.090909 132.035532 
L 121.36963 128.234897 
L 121.648352 126.136825 
L 121.927073 136.257485 
L 122.205794 119.025687 
L 122.484515 137.861506 
L 122.763237 124.726166 
L 123.041958 117.193581 
L 123.320679 125.536257 
L 123.599401 126.685564 
L 123.878122 122.050143 
L 124.156843 123.171543 
L 124.435564 134.845135 
L 124.714286 131.865112 
L 124.993007 141.250568 
L 125.271728 124.015435 
L 125.55045 133.577186 
L 125.829171 128.999067 
L 126.107892 130.550196 
L 126.386613 142.200816 
L 126.665335 147.186613 
L 126.944056 137.96046 
L 127.222777 143.525551 
L 127.501499 134.611758 
L 127.78022 138.827215 
L 128.058941 134.383672 
L 128.337662 143.030521 
L 128.616384 144.829891 
L 128.895105 130.716113 
L 129.173826 145.669187 
L 129.452547 136.910212 
L 129.731269 140.115589 
L 130.00999 152.176607 
L 130.288711 138.815956 
L 130.567433 162.541707 
L 130.846154 144.015449 
L 131.124875 145.935867 
L 131.403596 143.230306 
L 131.682318 144.212614 
L 131.961039 133.916106 
L 132.23976 135.105773 
L 132.518482 144.759668 
L 132.797203 145.399345 
L 133.354645 133.353505 
L 133.633367 142.886156 
L 133.912088 133.885123 
L 134.190809 154.169579 
L 134.46953 145.386499 
L 134.748252 148.474453 
L 135.026973 155.466444 
L 135.305694 141.682056 
L 135.584416 139.160746 
L 135.863137 140.404885 
L 136.141858 140.65387 
L 136.420579 154.505774 
L 136.699301 148.901106 
L 136.978022 147.606179 
L 137.256743 154.542651 
L 137.535465 140.635419 
L 137.814186 140.359604 
L 138.092907 140.876628 
L 138.371628 138.570441 
L 138.65035 143.416408 
L 138.929071 137.089338 
L 139.207792 150.238053 
L 139.486513 149.117551 
L 140.043956 137.762256 
L 140.322677 136.389115 
L 140.601399 141.495142 
L 140.88012 139.234045 
L 141.158841 146.534348 
L 141.437562 147.288742 
L 141.716284 143.503039 
L 141.995005 150.421221 
L 142.273726 141.456407 
L 142.552448 140.989481 
L 142.831169 142.978964 
L 143.388611 149.723803 
L 143.667333 154.00389 
L 144.224775 144.351207 
L 144.503497 143.391836 
L 144.782218 151.200741 
L 145.060939 143.148812 
L 145.33966 152.099666 
L 145.618382 146.877667 
L 145.897103 155.771594 
L 146.175824 144.869653 
L 146.733267 155.014948 
L 147.011988 156.113787 
L 147.290709 145.550342 
L 147.569431 157.78976 
L 147.848152 147.319738 
L 148.126873 152.783413 
L 148.405594 154.860592 
L 148.684316 151.192663 
L 148.963037 152.251346 
L 149.241758 155.714759 
L 149.52048 155.676952 
L 149.799201 146.820783 
L 150.077922 141.89801 
L 150.356643 147.27856 
L 150.635365 145.185145 
L 150.914086 154.383281 
L 151.192807 153.337505 
L 151.471528 155.08861 
L 151.75025 143.55881 
L 152.028971 155.369735 
L 152.307692 141.943242 
L 152.586414 151.395173 
L 152.865135 150.525835 
L 153.143856 155.912286 
L 153.422577 146.892538 
L 153.701299 147.857182 
L 153.98002 153.286539 
L 154.258741 155.037718 
L 154.537463 147.596323 
L 154.816184 159.605082 
L 155.094905 163.105686 
L 155.373626 161.663484 
L 155.652348 149.545625 
L 155.931069 158.70166 
L 156.488511 142.809848 
L 157.045954 164.048594 
L 157.324675 153.412736 
L 157.603397 151.937096 
L 157.882118 148.249068 
L 158.160839 148.188849 
L 158.43956 149.230422 
L 158.718282 150.704684 
L 158.997003 151.133637 
L 159.554446 159.786878 
L 159.833167 156.617381 
L 160.111888 151.036406 
L 160.390609 158.422614 
L 160.669331 157.787514 
L 160.948052 151.47401 
L 161.226773 152.974492 
L 161.505495 149.566771 
L 161.784216 151.519525 
L 162.062937 145.708673 
L 162.341658 160.739993 
L 162.62038 153.743382 
L 162.899101 153.268427 
L 163.177822 148.238086 
L 163.456543 153.699214 
L 163.735265 151.245776 
L 164.013986 150.374469 
L 164.292707 157.292878 
L 164.571429 154.937619 
L 164.85015 147.859618 
L 165.128871 154.205392 
L 165.407592 143.462483 
L 165.686314 148.190313 
L 165.965035 150.646446 
L 166.243756 150.382307 
L 166.522478 159.586508 
L 166.801199 156.614317 
L 167.07992 149.908779 
L 167.358641 149.01712 
L 167.916084 141.060639 
L 168.194805 149.327641 
L 168.473526 138.686099 
L 168.752248 154.256684 
L 169.030969 141.668699 
L 169.30969 155.565503 
L 169.588412 149.853913 
L 169.867133 150.051397 
L 170.145854 159.112981 
L 170.424575 154.313605 
L 170.703297 152.151173 
L 170.982018 155.349334 
L 171.260739 148.952453 
L 171.539461 148.992911 
L 171.818182 147.353859 
L 172.096903 150.857705 
L 172.375624 147.503459 
L 172.654346 148.185557 
L 172.933067 152.536852 
L 173.211788 163.769985 
L 173.490509 151.657349 
L 173.769231 147.587322 
L 174.047952 161.46541 
L 174.326673 136.872135 
L 174.605395 155.923988 
L 175.162837 151.610315 
L 175.441558 145.958273 
L 175.72028 156.307623 
L 175.999001 146.19042 
L 176.277722 150.536885 
L 176.556444 153.146869 
L 176.835165 153.14813 
L 177.113886 145.73295 
L 177.392607 144.316065 
L 177.671329 151.806328 
L 177.95005 154.705411 
L 178.228771 149.014093 
L 178.507493 151.174723 
L 178.786214 147.707188 
L 179.064935 149.031394 
L 179.343656 155.319132 
L 179.622378 156.407894 
L 179.901099 145.959553 
L 180.17982 155.614586 
L 180.458541 150.548709 
L 180.737263 151.979191 
L 181.015984 147.390687 
L 181.294705 149.541848 
L 181.573427 154.380081 
L 181.852148 147.66422 
L 182.130869 153.613918 
L 182.40959 145.177018 
L 182.967033 169.064053 
L 183.245754 157.430426 
L 183.524476 153.534048 
L 183.803197 155.563399 
L 184.081918 171.046116 
L 184.360639 157.48907 
L 184.639361 160.063469 
L 184.918082 155.847932 
L 185.196803 164.988309 
L 185.475524 159.336853 
L 185.754246 160.651276 
L 186.032967 162.709937 
L 186.311688 168.881365 
L 186.59041 157.463199 
L 186.869131 164.996418 
L 187.147852 166.411119 
L 187.426573 170.26085 
L 187.705295 166.774501 
L 187.984016 155.192966 
L 188.262737 159.771971 
L 188.541459 158.082334 
L 189.098901 170.544429 
L 189.377622 155.225118 
L 189.656344 162.513701 
L 189.935065 156.752044 
L 190.213786 161.880822 
L 190.492507 156.17568 
L 190.771229 165.416002 
L 191.04995 158.055504 
L 191.328671 164.327086 
L 191.607393 153.423933 
L 191.886114 156.187738 
L 192.164835 164.6109 
L 192.443556 155.44552 
L 192.722278 151.209385 
L 193.000999 156.894827 
L 193.27972 157.067757 
L 193.558442 146.797619 
L 193.837163 158.182421 
L 194.115884 160.169978 
L 194.394605 164.275831 
L 194.673327 139.719526 
L 194.952048 152.653094 
L 195.230769 154.394933 
L 195.509491 166.132658 
L 195.788212 147.28702 
L 196.066933 158.45484 
L 196.345654 151.79814 
L 196.624376 156.525484 
L 196.903097 140.410988 
L 197.181818 158.054335 
L 197.460539 154.035427 
L 197.739261 157.610819 
L 198.017982 149.760526 
L 198.296703 148.89694 
L 198.575425 169.702297 
L 199.132867 152.295058 
L 199.411588 152.508311 
L 199.69031 148.791274 
L 199.969031 158.960981 
L 200.247752 144.047085 
L 200.526474 153.710393 
L 200.805195 152.971995 
L 201.083916 149.426934 
L 201.362637 144.157015 
L 201.641359 143.215331 
L 201.92008 147.281969 
L 202.198801 147.111063 
L 202.477522 150.386189 
L 202.756244 146.56567 
L 203.034965 140.372561 
L 203.592408 156.436921 
L 203.871129 146.915646 
L 204.707293 162.545146 
L 204.986014 148.402224 
L 205.264735 151.407312 
L 205.543457 162.982842 
L 205.822178 152.835271 
L 206.100899 152.437504 
L 206.37962 153.254203 
L 206.658342 149.701569 
L 206.937063 160.283674 
L 207.215784 160.536375 
L 207.494505 160.99614 
L 207.773227 152.162684 
L 208.051948 160.501657 
L 208.609391 143.435505 
L 208.888112 158.672203 
L 209.166833 160.438762 
L 209.445554 152.966236 
L 209.724276 157.115352 
L 210.002997 156.749011 
L 210.281718 155.488285 
L 210.56044 145.270657 
L 210.839161 141.416343 
L 211.117882 149.014881 
L 211.396603 153.451047 
L 211.675325 137.489874 
L 211.954046 145.491224 
L 212.232767 145.275339 
L 212.511489 155.086044 
L 212.79021 154.961995 
L 213.068931 149.6122 
L 213.347652 154.2966 
L 213.626374 152.810779 
L 213.905095 148.164848 
L 214.183816 158.942776 
L 214.462537 157.835275 
L 214.741259 144.072617 
L 215.01998 153.903878 
L 215.298701 154.613877 
L 215.577423 156.554381 
L 215.856144 159.593787 
L 216.134865 156.939555 
L 216.413586 160.929947 
L 216.692308 148.384278 
L 216.971029 162.390962 
L 217.24975 154.113045 
L 217.528472 160.166705 
L 217.807193 161.797359 
L 218.085914 154.034061 
L 218.364635 156.164729 
L 218.643357 153.794858 
L 218.922078 156.906431 
L 219.200799 157.849253 
L 219.47952 162.568076 
L 219.758242 154.802754 
L 220.036963 158.595489 
L 220.315684 155.974037 
L 220.594406 157.587015 
L 220.873127 155.215139 
L 221.151848 146.836041 
L 221.430569 153.032989 
L 221.709291 150.939143 
L 221.988012 157.078426 
L 222.266733 153.839721 
L 222.545455 153.279538 
L 222.824176 160.851978 
L 223.102897 150.506154 
L 223.381618 148.298834 
L 223.66034 151.497745 
L 223.939061 152.107978 
L 224.217782 153.418999 
L 224.496503 144.301269 
L 224.775225 160.369579 
L 225.053946 151.209287 
L 225.332667 154.297382 
L 225.611389 150.001803 
L 226.168831 156.158564 
L 226.447552 148.167316 
L 226.726274 163.604186 
L 227.004995 155.054114 
L 227.283716 152.994783 
L 227.562438 166.375281 
L 227.841159 154.874385 
L 228.11988 156.075963 
L 228.398601 155.427026 
L 228.677323 159.248622 
L 228.956044 143.898733 
L 229.234765 160.735016 
L 229.513487 152.016745 
L 229.792208 158.390444 
L 230.070929 160.014004 
L 230.34965 158.465336 
L 230.628372 163.397055 
L 230.907093 160.864633 
L 231.185814 150.632689 
L 231.464535 155.818758 
L 231.743257 156.468476 
L 232.021978 154.083606 
L 232.300699 157.293764 
L 232.579421 157.023934 
L 232.858142 159.400732 
L 233.136863 165.343066 
L 233.415584 158.466419 
L 233.694306 164.694412 
L 233.973027 156.043491 
L 234.251748 163.102118 
L 234.53047 156.966662 
L 235.087912 164.648737 
L 235.366633 158.179843 
L 235.924076 162.430559 
L 236.202797 158.048484 
L 236.481518 165.745091 
L 236.76024 166.502893 
L 237.038961 153.972329 
L 237.317682 156.14047 
L 237.596404 164.557947 
L 237.875125 157.153312 
L 238.153846 165.392285 
L 238.432567 160.465106 
L 238.711289 160.86555 
L 238.99001 156.121102 
L 239.268731 159.841332 
L 239.826174 154.483287 
L 240.104895 162.897263 
L 240.383616 159.975294 
L 240.662338 161.222952 
L 240.941059 164.701573 
L 241.21978 162.487923 
L 241.498501 163.385169 
L 242.055944 172.539265 
L 242.334665 158.935763 
L 242.613387 160.345369 
L 242.892108 164.759319 
L 243.170829 158.890149 
L 243.44955 161.563429 
L 243.728272 158.244861 
L 244.006993 159.325741 
L 244.564436 147.529877 
L 244.843157 154.094988 
L 245.121878 153.710294 
L 245.679321 157.025337 
L 246.236763 153.38286 
L 246.515485 139.731363 
L 246.794206 146.604368 
L 247.072927 157.64302 
L 247.63037 142.118879 
L 247.909091 148.201258 
L 248.187812 145.900349 
L 248.466533 150.53574 
L 248.745255 148.192109 
L 249.023976 152.390001 
L 249.581419 146.289602 
L 249.86014 146.94789 
L 250.138861 156.322309 
L 250.417582 145.532396 
L 250.696304 145.605092 
L 250.975025 149.034101 
L 251.253746 150.768127 
L 251.811189 140.859371 
L 252.08991 144.663414 
L 252.368631 142.051966 
L 252.647353 144.122746 
L 253.204795 149.934435 
L 253.483516 143.316703 
L 253.762238 152.824892 
L 254.040959 148.478169 
L 254.598402 145.617852 
L 254.877123 151.623721 
L 255.155844 149.48017 
L 255.434565 141.659877 
L 255.713287 147.779626 
L 255.992008 142.22831 
L 256.270729 160.774741 
L 256.828172 149.21103 
L 257.106893 151.127805 
L 257.385614 150.24311 
L 257.664336 147.868305 
L 258.221778 152.245717 
L 258.5005 149.253087 
L 258.779221 147.824046 
L 259.057942 147.812707 
L 259.336663 159.517842 
L 259.615385 162.723139 
L 259.894106 151.254359 
L 260.172827 148.402956 
L 260.451548 152.589614 
L 260.73027 150.922544 
L 261.008991 150.291043 
L 261.287712 150.447343 
L 261.566434 152.256034 
L 261.845155 156.111646 
L 262.402597 147.333728 
L 262.681319 142.794492 
L 262.96004 150.441289 
L 263.238761 154.095843 
L 263.517483 149.028662 
L 263.796204 149.788317 
L 264.074925 148.869193 
L 264.353646 155.689472 
L 264.632368 157.592263 
L 264.911089 143.716181 
L 265.18981 160.830408 
L 265.468531 153.641406 
L 265.747253 152.714353 
L 266.025974 152.304496 
L 266.304695 160.865661 
L 266.862138 148.377596 
L 267.140859 150.034478 
L 267.41958 157.318915 
L 267.698302 159.918372 
L 267.977023 155.039176 
L 268.255744 161.052704 
L 268.534466 156.97733 
L 268.813187 158.107239 
L 269.091908 149.223575 
L 269.370629 153.596064 
L 269.649351 150.579336 
L 269.928072 151.81624 
L 270.206793 148.967643 
L 270.485514 155.240967 
L 270.764236 151.563945 
L 271.042957 145.636893 
L 271.321678 154.045474 
L 271.6004 156.248401 
L 271.879121 147.751928 
L 272.157842 153.747325 
L 272.436563 153.64559 
L 272.715285 147.864103 
L 272.994006 154.843304 
L 273.272727 156.529723 
L 273.551449 155.221125 
L 273.83017 163.344926 
L 274.387612 151.057336 
L 274.666334 157.944159 
L 274.945055 155.670837 
L 275.223776 160.875923 
L 275.502498 151.84427 
L 275.781219 150.607427 
L 276.05994 154.154813 
L 276.338661 162.161904 
L 276.617383 161.893471 
L 276.896104 158.093082 
L 277.174825 159.326209 
L 277.453546 160.017572 
L 278.010989 153.709384 
L 278.28971 158.958779 
L 278.568432 160.433988 
L 278.847153 155.09323 
L 279.125874 153.164028 
L 279.404595 154.200088 
L 279.683317 153.546599 
L 279.962038 166.14575 
L 280.240759 161.692622 
L 280.519481 154.039512 
L 281.076923 177.126601 
L 281.355644 157.584948 
L 281.634366 156.007635 
L 281.913087 158.298743 
L 282.191808 166.97252 
L 282.470529 159.269983 
L 282.749251 156.842994 
L 283.027972 158.150644 
L 283.306693 157.339223 
L 283.864136 169.744305 
L 284.142857 162.783248 
L 284.421578 160.803042 
L 284.7003 160.245984 
L 284.979021 156.064605 
L 285.257742 154.158129 
L 285.536464 163.817838 
L 285.815185 159.702665 
L 286.093906 182.299387 
L 286.372627 172.674918 
L 286.651349 158.29344 
L 286.93007 160.724384 
L 287.208791 159.423742 
L 287.487512 162.120905 
L 287.766234 167.561207 
L 288.044955 166.507311 
L 288.323676 172.230479 
L 288.881119 155.030372 
L 289.15984 165.900259 
L 289.438561 165.381924 
L 289.996004 161.853567 
L 290.274725 158.876713 
L 290.553447 166.034134 
L 290.832168 161.887017 
L 291.38961 150.566059 
L 291.668332 157.607884 
L 292.225774 164.985012 
L 292.504496 172.717622 
L 292.783217 161.619901 
L 293.061938 157.946226 
L 293.340659 166.352924 
L 293.619381 155.214647 
L 293.898102 169.447528 
L 294.176823 161.743563 
L 294.455544 178.280067 
L 295.291708 140.545657 
L 295.57043 163.656598 
L 295.849151 155.227099 
L 296.127872 168.483911 
L 296.406593 169.572267 
L 296.685315 164.141808 
L 296.964036 153.527022 
L 297.242757 152.863707 
L 297.521479 150.949891 
L 297.8002 160.252137 
L 298.078921 158.760169 
L 298.357642 165.356226 
L 298.636364 159.560379 
L 298.915085 158.678712 
L 299.193806 158.461202 
L 299.472527 153.054178 
L 299.751249 150.277477 
L 300.02997 151.392897 
L 300.308691 159.510496 
L 300.587413 158.661165 
L 300.866134 154.007422 
L 301.144855 157.610154 
L 301.423576 154.942787 
L 301.702298 154.120945 
L 301.981019 143.391282 
L 302.25974 155.510329 
L 302.538462 147.516391 
L 303.095904 164.010136 
L 303.374625 155.13789 
L 303.653347 152.743804 
L 303.932068 138.818817 
L 304.48951 171.653217 
L 304.768232 146.96711 
L 305.046953 150.353705 
L 305.325674 162.933187 
L 305.604396 161.732077 
L 305.883117 149.883401 
L 306.161838 157.472932 
L 306.440559 148.558494 
L 306.719281 170.886709 
L 306.998002 139.203972 
L 307.276723 153.403262 
L 307.555445 153.215061 
L 307.834166 153.707187 
L 308.112887 148.28883 
L 308.391608 138.040447 
L 308.949051 150.581526 
L 309.227772 152.479247 
L 309.506494 150.838091 
L 309.785215 162.247674 
L 310.063936 154.413033 
L 310.621379 162.031284 
L 310.9001 176.658192 
L 311.178821 164.50548 
L 311.457542 160.131114 
L 311.736264 159.719061 
L 312.014985 168.406656 
L 312.293706 167.317611 
L 312.572428 170.919396 
L 312.851149 169.108116 
L 313.12987 154.168767 
L 313.408591 153.313265 
L 313.687313 164.536395 
L 313.966034 158.980853 
L 314.244755 161.80286 
L 314.523477 156.648131 
L 314.802198 143.27328 
L 315.080919 151.649062 
L 315.35964 148.024557 
L 315.917083 159.01487 
L 316.474525 144.516625 
L 316.753247 159.070013 
L 317.031968 160.557078 
L 317.310689 155.867429 
L 317.589411 157.946571 
L 317.868132 152.555985 
L 318.146853 141.942522 
L 318.704296 151.686462 
L 318.983017 150.503324 
L 319.261738 151.838721 
L 319.54046 155.856152 
L 319.819181 152.554066 
L 320.097902 157.353189 
L 320.376623 148.168577 
L 320.655345 154.600465 
L 321.212787 160.44564 
L 321.491508 148.457085 
L 321.77023 154.293813 
L 322.048951 146.283449 
L 322.327672 145.82422 
L 322.606394 144.953959 
L 322.885115 157.298895 
L 323.163836 149.312765 
L 323.442557 156.273416 
L 323.721279 159.20614 
L 323.721279 159.20614 
" clip-path="url(#p4b359a1577)" style="fill: none; stroke: #0000ff; stroke-width: 1.5; stroke-linecap: square"/>
   </g>
   <g id="patch_3">
    <path d="M 45 256.32 
L 45 34.56 
" style="fill: none; stroke: #000000; stroke-width: 0.8; stroke-linejoin: miter; stroke-linecap: square"/>
   </g>
   <g id="patch_4">
    <path d="M 324 256.32 
L 324 34.56 
" style="fill: none; stroke: #000000; stroke-width: 0.8; stroke-linejoin: miter; stroke-linecap: square"/>
   </g>
   <g id="patch_5">
    <path d="M 45 256.32 
L 324 256.32 
" style="fill: none; stroke: #000000; stroke-width: 0.8; stroke-linejoin: miter; stroke-linecap: square"/>
   </g>
   <g id="patch_6">
    <path d="M 45 34.56 
L 324 34.56 
" style="fill: none; stroke: #000000; stroke-width: 0.8; stroke-linejoin: miter; stroke-linecap: square"/>
   </g>
  </g>
 </g>
 <defs>
  <clipPath id="p4b359a1577">
   <rect x="45" y="34.56" width="279" height="221.76"/>
  </clipPath>
 </defs>
</svg>
