<?xml version="1.0" encoding="utf-8" standalone="no"?>
<!DOCTYPE svg PUBLIC "-//W3C//DTD SVG 1.1//EN"
  "http://www.w3.org/Graphics/SVG/1.1/DTD/svg11.dtd">
<svg xmlns:xlink="http://www.w3.org/1999/xlink" width="360pt" height="288pt" viewBox="0 0 360 288" xmlns="http://www.w3.org/2000/svg" version="1.1">
 <metadata>
  <rdf:RDF xmlns:dc="http://purl.org/dc/elements/1.1/" xmlns:cc="http://creativecommons.org/ns#" xmlns:rdf="http://www.w3.org/1999/02/22-rdf-syntax-ns#">
   <cc:Work>
    <dc:type rdf:resource="http://purl.org/dc/dcmitype/StillImage"/>
    <dc:date>2025-06-13T17:32:45.001349</dc:date>
    <dc:format>image/svg+xml</dc:format>
    <dc:creator>
     <cc:Agent>
      <dc:title>Matplotlib v3.5.1, https://matplotlib.org/</dc:title>
     </cc:Agent>
    </dc:creator>
   </cc:Work>
  </rdf:RDF>
 </metadata>
 <defs>
  <style type="text/css">*{stroke-linejoin: round; stroke-linecap: butt}</style>
 </defs>
 <g id="figure_1">
  <g id="patch_1">
   <path d="M 0 288 
L 360 288 
L 360 0 
L 0 0 
z
" style="fill: #ffffff"/>
  </g>
  <g id="axes_1">
   <g id="patch_2">
    <path d="M 45 256.32 
L 324 256.32 
L 324 34.56 
L 45 34.56 
z
" style="fill: #ffffff"/>
   </g>
   <g id="matplotlib.axis_1">
    <g id="xtick_1">
     <g id="line2d_1">
      <defs>
       <path id="m73e3c6af0e" d="M 0 0 
L 0 3.5 
" style="stroke: #000000; stroke-width: 0.8"/>
      </defs>
      <g>
       <use xlink:href="#m73e3c6af0e" x="45" y="256.32" style="stroke: #000000; stroke-width: 0.8"/>
      </g>
     </g>
     <g id="text_1">
      <!-- 0 -->
      <g transform="translate(42.5 270.26375)scale(0.1 -0.1)">
       <defs>
        <path id="TimesNewRomanPSMT-30" d="M 231 2094 
Q 231 2819 450 3342 
Q 669 3866 1031 4122 
Q 1313 4325 1613 4325 
Q 2100 4325 2488 3828 
Q 2972 3213 2972 2159 
Q 2972 1422 2759 906 
Q 2547 391 2217 158 
Q 1888 -75 1581 -75 
Q 975 -75 572 641 
Q 231 1244 231 2094 
z
M 844 2016 
Q 844 1141 1059 588 
Q 1238 122 1591 122 
Q 1759 122 1940 273 
Q 2122 425 2216 781 
Q 2359 1319 2359 2297 
Q 2359 3022 2209 3506 
Q 2097 3866 1919 4016 
Q 1791 4119 1609 4119 
Q 1397 4119 1231 3928 
Q 1006 3669 925 3112 
Q 844 2556 844 2016 
z
" transform="scale(0.015625)"/>
       </defs>
       <use xlink:href="#TimesNewRomanPSMT-30"/>
      </g>
     </g>
    </g>
    <g id="xtick_2">
     <g id="line2d_2">
      <g>
       <use xlink:href="#m73e3c6af0e" x="100.744256" y="256.32" style="stroke: #000000; stroke-width: 0.8"/>
      </g>
     </g>
     <g id="text_2">
      <!-- 200 -->
      <g transform="translate(93.244256 270.26375)scale(0.1 -0.1)">
       <defs>
        <path id="TimesNewRomanPSMT-32" d="M 2934 816 
L 2638 0 
L 138 0 
L 138 116 
Q 1241 1122 1691 1759 
Q 2141 2397 2141 2925 
Q 2141 3328 1894 3587 
Q 1647 3847 1303 3847 
Q 991 3847 742 3664 
Q 494 3481 375 3128 
L 259 3128 
Q 338 3706 661 4015 
Q 984 4325 1469 4325 
Q 1984 4325 2329 3994 
Q 2675 3663 2675 3213 
Q 2675 2891 2525 2569 
Q 2294 2063 1775 1497 
Q 997 647 803 472 
L 1909 472 
Q 2247 472 2383 497 
Q 2519 522 2628 598 
Q 2738 675 2819 816 
L 2934 816 
z
" transform="scale(0.015625)"/>
       </defs>
       <use xlink:href="#TimesNewRomanPSMT-32"/>
       <use xlink:href="#TimesNewRomanPSMT-30" x="50"/>
       <use xlink:href="#TimesNewRomanPSMT-30" x="100"/>
      </g>
     </g>
    </g>
    <g id="xtick_3">
     <g id="line2d_3">
      <g>
       <use xlink:href="#m73e3c6af0e" x="156.488511" y="256.32" style="stroke: #000000; stroke-width: 0.8"/>
      </g>
     </g>
     <g id="text_3">
      <!-- 400 -->
      <g transform="translate(148.988511 270.26375)scale(0.1 -0.1)">
       <defs>
        <path id="TimesNewRomanPSMT-34" d="M 2978 1563 
L 2978 1119 
L 2409 1119 
L 2409 0 
L 1894 0 
L 1894 1119 
L 100 1119 
L 100 1519 
L 2066 4325 
L 2409 4325 
L 2409 1563 
L 2978 1563 
z
M 1894 1563 
L 1894 3666 
L 406 1563 
L 1894 1563 
z
" transform="scale(0.015625)"/>
       </defs>
       <use xlink:href="#TimesNewRomanPSMT-34"/>
       <use xlink:href="#TimesNewRomanPSMT-30" x="50"/>
       <use xlink:href="#TimesNewRomanPSMT-30" x="100"/>
      </g>
     </g>
    </g>
    <g id="xtick_4">
     <g id="line2d_4">
      <g>
       <use xlink:href="#m73e3c6af0e" x="212.232767" y="256.32" style="stroke: #000000; stroke-width: 0.8"/>
      </g>
     </g>
     <g id="text_4">
      <!-- 600 -->
      <g transform="translate(204.732767 270.26375)scale(0.1 -0.1)">
       <defs>
        <path id="TimesNewRomanPSMT-36" d="M 2869 4325 
L 2869 4209 
Q 2456 4169 2195 4045 
Q 1934 3922 1679 3669 
Q 1425 3416 1258 3105 
Q 1091 2794 978 2366 
Q 1428 2675 1881 2675 
Q 2316 2675 2634 2325 
Q 2953 1975 2953 1425 
Q 2953 894 2631 456 
Q 2244 -75 1606 -75 
Q 1172 -75 869 213 
Q 275 772 275 1663 
Q 275 2231 503 2743 
Q 731 3256 1154 3653 
Q 1578 4050 1965 4187 
Q 2353 4325 2688 4325 
L 2869 4325 
z
M 925 2138 
Q 869 1716 869 1456 
Q 869 1156 980 804 
Q 1091 453 1309 247 
Q 1469 100 1697 100 
Q 1969 100 2183 356 
Q 2397 613 2397 1088 
Q 2397 1622 2184 2012 
Q 1972 2403 1581 2403 
Q 1463 2403 1327 2353 
Q 1191 2303 925 2138 
z
" transform="scale(0.015625)"/>
       </defs>
       <use xlink:href="#TimesNewRomanPSMT-36"/>
       <use xlink:href="#TimesNewRomanPSMT-30" x="50"/>
       <use xlink:href="#TimesNewRomanPSMT-30" x="100"/>
      </g>
     </g>
    </g>
    <g id="xtick_5">
     <g id="line2d_5">
      <g>
       <use xlink:href="#m73e3c6af0e" x="267.977023" y="256.32" style="stroke: #000000; stroke-width: 0.8"/>
      </g>
     </g>
     <g id="text_5">
      <!-- 800 -->
      <g transform="translate(260.477023 270.26375)scale(0.1 -0.1)">
       <defs>
        <path id="TimesNewRomanPSMT-38" d="M 1228 2134 
Q 725 2547 579 2797 
Q 434 3047 434 3316 
Q 434 3728 753 4026 
Q 1072 4325 1600 4325 
Q 2113 4325 2425 4047 
Q 2738 3769 2738 3413 
Q 2738 3175 2569 2928 
Q 2400 2681 1866 2347 
Q 2416 1922 2594 1678 
Q 2831 1359 2831 1006 
Q 2831 559 2490 242 
Q 2150 -75 1597 -75 
Q 994 -75 656 303 
Q 388 606 388 966 
Q 388 1247 577 1523 
Q 766 1800 1228 2134 
z
M 1719 2469 
Q 2094 2806 2194 3001 
Q 2294 3197 2294 3444 
Q 2294 3772 2109 3958 
Q 1925 4144 1606 4144 
Q 1288 4144 1088 3959 
Q 888 3775 888 3528 
Q 888 3366 970 3203 
Q 1053 3041 1206 2894 
L 1719 2469 
z
M 1375 2016 
Q 1116 1797 991 1539 
Q 866 1281 866 981 
Q 866 578 1086 336 
Q 1306 94 1647 94 
Q 1984 94 2187 284 
Q 2391 475 2391 747 
Q 2391 972 2272 1150 
Q 2050 1481 1375 2016 
z
" transform="scale(0.015625)"/>
       </defs>
       <use xlink:href="#TimesNewRomanPSMT-38"/>
       <use xlink:href="#TimesNewRomanPSMT-30" x="50"/>
       <use xlink:href="#TimesNewRomanPSMT-30" x="100"/>
      </g>
     </g>
    </g>
    <g id="xtick_6">
     <g id="line2d_6">
      <g>
       <use xlink:href="#m73e3c6af0e" x="323.721279" y="256.32" style="stroke: #000000; stroke-width: 0.8"/>
      </g>
     </g>
     <g id="text_6">
      <!-- 1000 -->
      <g transform="translate(313.721279 270.26375)scale(0.1 -0.1)">
       <defs>
        <path id="TimesNewRomanPSMT-31" d="M 750 3822 
L 1781 4325 
L 1884 4325 
L 1884 747 
Q 1884 391 1914 303 
Q 1944 216 2037 169 
Q 2131 122 2419 116 
L 2419 0 
L 825 0 
L 825 116 
Q 1125 122 1212 167 
Q 1300 213 1334 289 
Q 1369 366 1369 747 
L 1369 3034 
Q 1369 3497 1338 3628 
Q 1316 3728 1258 3775 
Q 1200 3822 1119 3822 
Q 1003 3822 797 3725 
L 750 3822 
z
" transform="scale(0.015625)"/>
       </defs>
       <use xlink:href="#TimesNewRomanPSMT-31"/>
       <use xlink:href="#TimesNewRomanPSMT-30" x="50"/>
       <use xlink:href="#TimesNewRomanPSMT-30" x="100"/>
       <use xlink:href="#TimesNewRomanPSMT-30" x="150"/>
      </g>
     </g>
    </g>
    <g id="text_7">
     <!-- Train Step -->
     <g transform="translate(163.708594 283.346563)scale(0.1 -0.1)">
      <defs>
       <path id="TimesNewRomanPSMT-54" d="M 3703 4238 
L 3750 3244 
L 3631 3244 
Q 3597 3506 3538 3619 
Q 3441 3800 3280 3886 
Q 3119 3972 2856 3972 
L 2259 3972 
L 2259 734 
Q 2259 344 2344 247 
Q 2463 116 2709 116 
L 2856 116 
L 2856 0 
L 1059 0 
L 1059 116 
L 1209 116 
Q 1478 116 1591 278 
Q 1659 378 1659 734 
L 1659 3972 
L 1150 3972 
Q 853 3972 728 3928 
Q 566 3869 450 3700 
Q 334 3531 313 3244 
L 194 3244 
L 244 4238 
L 3703 4238 
z
" transform="scale(0.015625)"/>
       <path id="TimesNewRomanPSMT-72" d="M 1038 2947 
L 1038 2303 
Q 1397 2947 1775 2947 
Q 1947 2947 2059 2842 
Q 2172 2738 2172 2600 
Q 2172 2478 2090 2393 
Q 2009 2309 1897 2309 
Q 1788 2309 1652 2417 
Q 1516 2525 1450 2525 
Q 1394 2525 1328 2463 
Q 1188 2334 1038 2041 
L 1038 669 
Q 1038 431 1097 309 
Q 1138 225 1241 169 
Q 1344 113 1538 113 
L 1538 0 
L 72 0 
L 72 113 
Q 291 113 397 181 
Q 475 231 506 341 
Q 522 394 522 644 
L 522 1753 
Q 522 2253 501 2348 
Q 481 2444 426 2487 
Q 372 2531 291 2531 
Q 194 2531 72 2484 
L 41 2597 
L 906 2947 
L 1038 2947 
z
" transform="scale(0.015625)"/>
       <path id="TimesNewRomanPSMT-61" d="M 1822 413 
Q 1381 72 1269 19 
Q 1100 -59 909 -59 
Q 613 -59 420 144 
Q 228 347 228 678 
Q 228 888 322 1041 
Q 450 1253 767 1440 
Q 1084 1628 1822 1897 
L 1822 2009 
Q 1822 2438 1686 2597 
Q 1550 2756 1291 2756 
Q 1094 2756 978 2650 
Q 859 2544 859 2406 
L 866 2225 
Q 866 2081 792 2003 
Q 719 1925 600 1925 
Q 484 1925 411 2006 
Q 338 2088 338 2228 
Q 338 2497 613 2722 
Q 888 2947 1384 2947 
Q 1766 2947 2009 2819 
Q 2194 2722 2281 2516 
Q 2338 2381 2338 1966 
L 2338 994 
Q 2338 584 2353 492 
Q 2369 400 2405 369 
Q 2441 338 2488 338 
Q 2538 338 2575 359 
Q 2641 400 2828 588 
L 2828 413 
Q 2478 -56 2159 -56 
Q 2006 -56 1915 50 
Q 1825 156 1822 413 
z
M 1822 616 
L 1822 1706 
Q 1350 1519 1213 1441 
Q 966 1303 859 1153 
Q 753 1003 753 825 
Q 753 600 887 451 
Q 1022 303 1197 303 
Q 1434 303 1822 616 
z
" transform="scale(0.015625)"/>
       <path id="TimesNewRomanPSMT-69" d="M 928 4444 
Q 1059 4444 1151 4351 
Q 1244 4259 1244 4128 
Q 1244 3997 1151 3903 
Q 1059 3809 928 3809 
Q 797 3809 703 3903 
Q 609 3997 609 4128 
Q 609 4259 701 4351 
Q 794 4444 928 4444 
z
M 1188 2947 
L 1188 647 
Q 1188 378 1227 289 
Q 1266 200 1342 156 
Q 1419 113 1622 113 
L 1622 0 
L 231 0 
L 231 113 
Q 441 113 512 153 
Q 584 194 626 287 
Q 669 381 669 647 
L 669 1750 
Q 669 2216 641 2353 
Q 619 2453 572 2492 
Q 525 2531 444 2531 
Q 356 2531 231 2484 
L 188 2597 
L 1050 2947 
L 1188 2947 
z
" transform="scale(0.015625)"/>
       <path id="TimesNewRomanPSMT-6e" d="M 1034 2341 
Q 1538 2947 1994 2947 
Q 2228 2947 2397 2830 
Q 2566 2713 2666 2444 
Q 2734 2256 2734 1869 
L 2734 647 
Q 2734 375 2778 278 
Q 2813 200 2889 156 
Q 2966 113 3172 113 
L 3172 0 
L 1756 0 
L 1756 113 
L 1816 113 
Q 2016 113 2095 173 
Q 2175 234 2206 353 
Q 2219 400 2219 647 
L 2219 1819 
Q 2219 2209 2117 2386 
Q 2016 2563 1775 2563 
Q 1403 2563 1034 2156 
L 1034 647 
Q 1034 356 1069 288 
Q 1113 197 1189 155 
Q 1266 113 1500 113 
L 1500 0 
L 84 0 
L 84 113 
L 147 113 
Q 366 113 442 223 
Q 519 334 519 647 
L 519 1709 
Q 519 2225 495 2337 
Q 472 2450 423 2490 
Q 375 2531 294 2531 
Q 206 2531 84 2484 
L 38 2597 
L 900 2947 
L 1034 2947 
L 1034 2341 
z
" transform="scale(0.015625)"/>
       <path id="TimesNewRomanPSMT-20" transform="scale(0.015625)"/>
       <path id="TimesNewRomanPSMT-53" d="M 2934 4334 
L 2934 2869 
L 2819 2869 
Q 2763 3291 2617 3541 
Q 2472 3791 2203 3937 
Q 1934 4084 1647 4084 
Q 1322 4084 1109 3886 
Q 897 3688 897 3434 
Q 897 3241 1031 3081 
Q 1225 2847 1953 2456 
Q 2547 2138 2764 1967 
Q 2981 1797 3098 1565 
Q 3216 1334 3216 1081 
Q 3216 600 2842 251 
Q 2469 -97 1881 -97 
Q 1697 -97 1534 -69 
Q 1438 -53 1133 45 
Q 828 144 747 144 
Q 669 144 623 97 
Q 578 50 556 -97 
L 441 -97 
L 441 1356 
L 556 1356 
Q 638 900 775 673 
Q 913 447 1195 297 
Q 1478 147 1816 147 
Q 2206 147 2432 353 
Q 2659 559 2659 841 
Q 2659 997 2573 1156 
Q 2488 1316 2306 1453 
Q 2184 1547 1640 1851 
Q 1097 2156 867 2337 
Q 638 2519 519 2737 
Q 400 2956 400 3219 
Q 400 3675 750 4004 
Q 1100 4334 1641 4334 
Q 1978 4334 2356 4169 
Q 2531 4091 2603 4091 
Q 2684 4091 2736 4139 
Q 2788 4188 2819 4334 
L 2934 4334 
z
" transform="scale(0.015625)"/>
       <path id="TimesNewRomanPSMT-74" d="M 1031 3803 
L 1031 2863 
L 1700 2863 
L 1700 2644 
L 1031 2644 
L 1031 788 
Q 1031 509 1111 412 
Q 1191 316 1316 316 
Q 1419 316 1516 380 
Q 1613 444 1666 569 
L 1788 569 
Q 1678 263 1478 108 
Q 1278 -47 1066 -47 
Q 922 -47 784 33 
Q 647 113 581 261 
Q 516 409 516 719 
L 516 2644 
L 63 2644 
L 63 2747 
Q 234 2816 414 2980 
Q 594 3144 734 3369 
Q 806 3488 934 3803 
L 1031 3803 
z
" transform="scale(0.015625)"/>
       <path id="TimesNewRomanPSMT-65" d="M 681 1784 
Q 678 1147 991 784 
Q 1303 422 1725 422 
Q 2006 422 2214 576 
Q 2422 731 2563 1106 
L 2659 1044 
Q 2594 616 2278 264 
Q 1963 -88 1488 -88 
Q 972 -88 605 314 
Q 238 716 238 1394 
Q 238 2128 614 2539 
Q 991 2950 1559 2950 
Q 2041 2950 2350 2633 
Q 2659 2316 2659 1784 
L 681 1784 
z
M 681 1966 
L 2006 1966 
Q 1991 2241 1941 2353 
Q 1863 2528 1708 2628 
Q 1553 2728 1384 2728 
Q 1125 2728 920 2526 
Q 716 2325 681 1966 
z
" transform="scale(0.015625)"/>
       <path id="TimesNewRomanPSMT-70" d="M -6 2578 
L 875 2934 
L 994 2934 
L 994 2266 
Q 1216 2644 1439 2795 
Q 1663 2947 1909 2947 
Q 2341 2947 2628 2609 
Q 2981 2197 2981 1534 
Q 2981 794 2556 309 
Q 2206 -88 1675 -88 
Q 1444 -88 1275 -22 
Q 1150 25 994 166 
L 994 -706 
Q 994 -1000 1030 -1079 
Q 1066 -1159 1155 -1206 
Q 1244 -1253 1478 -1253 
L 1478 -1369 
L -22 -1369 
L -22 -1253 
L 56 -1253 
Q 228 -1256 350 -1188 
Q 409 -1153 442 -1076 
Q 475 -1000 475 -688 
L 475 2019 
Q 475 2297 450 2372 
Q 425 2447 370 2484 
Q 316 2522 222 2522 
Q 147 2522 31 2478 
L -6 2578 
z
M 994 2081 
L 994 1013 
Q 994 666 1022 556 
Q 1066 375 1236 237 
Q 1406 100 1666 100 
Q 1978 100 2172 344 
Q 2425 663 2425 1241 
Q 2425 1897 2138 2250 
Q 1938 2494 1663 2494 
Q 1513 2494 1366 2419 
Q 1253 2363 994 2081 
z
" transform="scale(0.015625)"/>
      </defs>
      <use xlink:href="#TimesNewRomanPSMT-54"/>
      <use xlink:href="#TimesNewRomanPSMT-72" x="57.583984"/>
      <use xlink:href="#TimesNewRomanPSMT-61" x="90.884766"/>
      <use xlink:href="#TimesNewRomanPSMT-69" x="135.269531"/>
      <use xlink:href="#TimesNewRomanPSMT-6e" x="163.052734"/>
      <use xlink:href="#TimesNewRomanPSMT-20" x="213.052734"/>
      <use xlink:href="#TimesNewRomanPSMT-53" x="238.052734"/>
      <use xlink:href="#TimesNewRomanPSMT-74" x="293.667969"/>
      <use xlink:href="#TimesNewRomanPSMT-65" x="321.451172"/>
      <use xlink:href="#TimesNewRomanPSMT-70" x="365.835938"/>
     </g>
    </g>
   </g>
   <g id="matplotlib.axis_2">
    <g id="ytick_1">
     <g id="line2d_7">
      <defs>
       <path id="me834c3ae44" d="M 0 0 
L -3.5 0 
" style="stroke: #000000; stroke-width: 0.8"/>
      </defs>
      <g>
       <use xlink:href="#me834c3ae44" x="45" y="256.319778" style="stroke: #000000; stroke-width: 0.8"/>
      </g>
     </g>
     <g id="text_8">
      <!-- 0.0 -->
      <g transform="translate(25.5 259.791653)scale(0.1 -0.1)">
       <defs>
        <path id="TimesNewRomanPSMT-2e" d="M 800 606 
Q 947 606 1047 504 
Q 1147 403 1147 259 
Q 1147 116 1045 14 
Q 944 -88 800 -88 
Q 656 -88 554 14 
Q 453 116 453 259 
Q 453 406 554 506 
Q 656 606 800 606 
z
" transform="scale(0.015625)"/>
       </defs>
       <use xlink:href="#TimesNewRomanPSMT-30"/>
       <use xlink:href="#TimesNewRomanPSMT-2e" x="50"/>
       <use xlink:href="#TimesNewRomanPSMT-30" x="75"/>
      </g>
     </g>
    </g>
    <g id="ytick_2">
     <g id="line2d_8">
      <g>
       <use xlink:href="#me834c3ae44" x="45" y="211.967823" style="stroke: #000000; stroke-width: 0.8"/>
      </g>
     </g>
     <g id="text_9">
      <!-- 0.2 -->
      <g transform="translate(25.5 215.439698)scale(0.1 -0.1)">
       <use xlink:href="#TimesNewRomanPSMT-30"/>
       <use xlink:href="#TimesNewRomanPSMT-2e" x="50"/>
       <use xlink:href="#TimesNewRomanPSMT-32" x="75"/>
      </g>
     </g>
    </g>
    <g id="ytick_3">
     <g id="line2d_9">
      <g>
       <use xlink:href="#me834c3ae44" x="45" y="167.615867" style="stroke: #000000; stroke-width: 0.8"/>
      </g>
     </g>
     <g id="text_10">
      <!-- 0.4 -->
      <g transform="translate(25.5 171.087742)scale(0.1 -0.1)">
       <use xlink:href="#TimesNewRomanPSMT-30"/>
       <use xlink:href="#TimesNewRomanPSMT-2e" x="50"/>
       <use xlink:href="#TimesNewRomanPSMT-34" x="75"/>
      </g>
     </g>
    </g>
    <g id="ytick_4">
     <g id="line2d_10">
      <g>
       <use xlink:href="#me834c3ae44" x="45" y="123.263911" style="stroke: #000000; stroke-width: 0.8"/>
      </g>
     </g>
     <g id="text_11">
      <!-- 0.6 -->
      <g transform="translate(25.5 126.735786)scale(0.1 -0.1)">
       <use xlink:href="#TimesNewRomanPSMT-30"/>
       <use xlink:href="#TimesNewRomanPSMT-2e" x="50"/>
       <use xlink:href="#TimesNewRomanPSMT-36" x="75"/>
      </g>
     </g>
    </g>
    <g id="ytick_5">
     <g id="line2d_11">
      <g>
       <use xlink:href="#me834c3ae44" x="45" y="78.911956" style="stroke: #000000; stroke-width: 0.8"/>
      </g>
     </g>
     <g id="text_12">
      <!-- 0.8 -->
      <g transform="translate(25.5 82.383831)scale(0.1 -0.1)">
       <use xlink:href="#TimesNewRomanPSMT-30"/>
       <use xlink:href="#TimesNewRomanPSMT-2e" x="50"/>
       <use xlink:href="#TimesNewRomanPSMT-38" x="75"/>
      </g>
     </g>
    </g>
    <g id="ytick_6">
     <g id="line2d_12">
      <g>
       <use xlink:href="#me834c3ae44" x="45" y="34.56" style="stroke: #000000; stroke-width: 0.8"/>
      </g>
     </g>
     <g id="text_13">
      <!-- 1.0 -->
      <g transform="translate(25.5 38.031875)scale(0.1 -0.1)">
       <use xlink:href="#TimesNewRomanPSMT-31"/>
       <use xlink:href="#TimesNewRomanPSMT-2e" x="50"/>
       <use xlink:href="#TimesNewRomanPSMT-30" x="75"/>
      </g>
     </g>
    </g>
    <g id="text_14">
     <!-- 1e6 -->
     <g transform="translate(45 31.56)scale(0.1 -0.1)">
      <use xlink:href="#TimesNewRomanPSMT-31"/>
      <use xlink:href="#TimesNewRomanPSMT-65" x="50"/>
      <use xlink:href="#TimesNewRomanPSMT-36" x="94.384766"/>
     </g>
    </g>
   </g>
   <g id="line2d_13">
    <path d="M 68.54381 -1 
L 68.691309 67.677564 
L 68.827219 -1 
M 69.776962 -1 
L 69.806194 1.66166 
L 69.902727 -1 
M 70.250044 -1 
L 70.363636 2.45556 
L 70.642358 6.952016 
L 71.1998 109.205353 
L 71.478521 51.492967 
L 71.757243 106.67032 
L 72.035964 66.027699 
L 72.314685 84.577197 
L 72.593407 187.763602 
L 72.872128 75.482759 
L 73.42957 150.652117 
L 73.708292 186.031963 
L 74.265734 124.11375 
L 74.544456 128.57309 
L 75.101898 191.82008 
L 75.380619 167.152701 
L 75.659341 159.724386 
L 76.216783 220.054445 
L 76.495504 220.333738 
L 76.774226 190.73 
L 77.052947 209.75616 
L 77.331668 211.248184 
L 77.61039 203.038887 
L 77.889111 207.417745 
L 78.167832 222.917108 
L 78.446553 203.635937 
L 79.003996 230.792653 
L 79.282717 230.228749 
L 79.561439 227.631932 
L 79.84016 217.269274 
L 80.118881 230.001359 
L 80.397602 235.473091 
L 80.955045 224.534346 
L 81.233766 238.70029 
L 81.512488 226.140074 
L 82.06993 238.011806 
L 82.348651 232.844002 
L 82.627373 230.107282 
L 82.906094 242.435511 
L 83.184815 238.683306 
L 83.463536 237.443101 
L 83.742258 234.641991 
L 84.020979 242.669601 
L 84.2997 245.123903 
L 84.578422 244.777396 
L 85.135864 241.622632 
L 85.414585 246.992186 
L 85.693307 236.711294 
L 85.972028 245.626041 
L 86.529471 247.640237 
L 86.808192 238.053952 
L 87.086913 251.092817 
L 87.365634 250.443994 
L 87.644356 251.680784 
L 87.923077 252.113722 
L 88.201798 251.527381 
L 88.480519 251.492763 
L 88.759241 251.896509 
L 89.037962 242.035524 
L 89.316683 249.691762 
L 89.595405 251.953031 
L 89.874126 252.036725 
L 90.152847 253.38959 
L 90.431568 253.115421 
L 90.71029 236.120879 
L 90.989011 243.934764 
L 91.267732 246.45734 
L 91.546454 253.21744 
L 91.825175 244.992642 
L 92.103896 246.830802 
L 92.661339 253.753784 
L 92.94006 248.521719 
L 93.218781 252.272132 
L 93.776224 253.231568 
L 94.054945 251.349129 
L 94.333666 253.969854 
L 94.612388 254.626798 
L 94.891109 254.529897 
L 95.16983 253.772872 
L 95.448551 253.589376 
L 95.727273 254.699179 
L 96.005994 253.691971 
L 96.284715 255.00036 
L 96.563437 255.494404 
L 96.842158 254.95455 
L 97.120879 254.971115 
L 97.3996 255.443328 
L 97.678322 255.558179 
L 97.957043 254.822036 
L 98.235764 255.708241 
L 98.514486 255.866829 
L 98.793207 247.498455 
L 99.071928 254.309447 
L 99.629371 250.578839 
L 99.908092 255.414364 
L 100.186813 255.522449 
L 100.465534 254.289566 
L 100.744256 254.049782 
L 101.022977 255.516703 
L 101.58042 254.940554 
L 101.859141 255.426377 
L 102.137862 255.67124 
L 102.695305 255.517624 
L 102.974026 255.004364 
L 103.252747 255.108496 
L 103.531469 255.665223 
L 103.81019 255.520099 
L 104.088911 255.070975 
L 104.367632 249.019458 
L 104.646354 255.839241 
L 104.925075 255.78368 
L 105.203796 255.150188 
L 105.482517 255.266645 
L 105.761239 255.772173 
L 106.03996 255.493499 
L 106.318681 255.798351 
L 106.597403 255.892187 
L 107.154845 255.405121 
L 107.433566 254.553076 
L 107.712288 255.942392 
L 107.991009 254.9487 
L 108.26973 255.996841 
L 108.548452 255.678028 
L 109.105894 255.947675 
L 109.384615 255.831822 
L 109.663337 255.446667 
L 109.942058 255.698485 
L 110.220779 255.468718 
L 110.4995 255.78245 
L 110.778222 255.679472 
L 111.056943 255.914807 
L 111.335664 255.845392 
L 111.614386 252.141494 
L 111.893107 254.635316 
L 112.171828 252.554473 
L 112.450549 253.312636 
L 112.729271 255.719024 
L 113.007992 254.402365 
L 113.286713 255.26125 
L 113.565435 255.498922 
L 113.844156 254.400325 
L 114.122877 253.889923 
L 114.401598 254.992058 
L 114.68032 254.369126 
L 114.959041 254.930384 
L 115.237762 253.523665 
L 115.516484 255.316633 
L 115.795205 254.391027 
L 116.073926 252.878349 
L 116.352647 254.224283 
L 116.631369 254.917424 
L 116.91009 254.624755 
L 117.188811 252.82931 
L 117.467532 254.83827 
L 118.024975 255.054618 
L 118.303696 255.020457 
L 118.582418 255.449992 
L 118.861139 254.961276 
L 119.13986 248.336371 
L 119.418581 255.563675 
L 119.697303 254.952869 
L 119.976024 252.383656 
L 120.254745 254.345635 
L 120.533467 253.160067 
L 120.812188 253.322575 
L 121.090909 255.159607 
L 121.36963 255.596884 
L 121.648352 254.760928 
L 121.927073 255.554312 
L 122.205794 253.925258 
L 122.763237 255.144823 
L 123.041958 254.732459 
L 123.320679 255.261557 
L 123.599401 251.447378 
L 123.878122 255.357587 
L 124.156843 249.14218 
L 124.435564 254.848348 
L 124.714286 249.450342 
L 124.993007 253.999484 
L 125.271728 255.345538 
L 125.55045 255.891897 
L 125.829171 249.654789 
L 126.107892 254.783318 
L 126.386613 255.654957 
L 126.665335 255.637603 
L 126.944056 254.958963 
L 127.222777 255.398773 
L 127.501499 250.095763 
L 127.78022 255.461032 
L 128.058941 255.515444 
L 128.337662 253.18433 
L 128.616384 255.424637 
L 128.895105 255.724815 
L 129.173826 254.586007 
L 129.452547 255.619554 
L 129.731269 254.01449 
L 130.00999 255.502954 
L 130.288711 255.25601 
L 130.567433 255.170711 
L 131.124875 255.494499 
L 131.403596 254.962955 
L 131.961039 255.540678 
L 132.23976 255.64655 
L 132.518482 254.126851 
L 133.075924 237.898741 
L 133.354645 255.702075 
L 133.633367 254.791214 
L 133.912088 253.464728 
L 134.190809 248.998526 
L 134.46953 254.322356 
L 134.748252 255.759843 
L 135.026973 254.676604 
L 135.305694 254.63243 
L 135.584416 254.990876 
L 135.863137 255.602834 
L 136.141858 255.922305 
L 136.420579 251.010396 
L 136.699301 255.050386 
L 136.978022 255.784636 
L 137.256743 250.698381 
L 137.535465 241.614035 
L 137.814186 255.536232 
L 138.092907 255.790539 
L 138.65035 255.474655 
L 138.929071 254.770137 
L 139.207792 255.57771 
L 139.486513 255.729752 
L 139.765235 255.428203 
L 140.043956 254.793463 
L 140.322677 255.514007 
L 140.601399 255.281455 
L 140.88012 255.693611 
L 141.158841 255.503042 
L 141.437562 247.028229 
L 141.716284 255.548544 
L 141.995005 255.639745 
L 142.273726 253.897114 
L 142.552448 253.946748 
L 142.831169 254.194715 
L 143.10989 255.763953 
L 143.388611 254.865337 
L 143.946054 255.859747 
L 144.224775 255.86188 
L 144.503497 250.842435 
L 144.782218 255.906045 
L 145.060939 255.603488 
L 145.33966 255.627225 
L 145.618382 249.720203 
L 145.897103 255.742886 
L 146.175824 255.765277 
L 146.454545 255.523172 
L 146.733267 254.730742 
L 147.011988 251.452217 
L 147.290709 255.776927 
L 147.569431 255.640641 
L 147.848152 251.176617 
L 148.126873 255.661957 
L 148.405594 255.932009 
L 148.684316 255.823051 
L 149.52048 255.932425 
L 149.799201 251.280918 
L 150.077922 255.943532 
L 150.356643 255.803727 
L 150.635365 252.234475 
L 150.914086 255.606087 
L 151.192807 251.627855 
L 151.471528 254.975783 
L 151.75025 251.905309 
L 152.028971 255.265855 
L 152.307692 255.698151 
L 152.586414 255.500353 
L 152.865135 256.023928 
L 153.143856 249.97236 
L 153.422577 251.310242 
L 153.701299 255.569424 
L 153.98002 255.894416 
L 154.816184 255.948164 
L 155.373626 255.689203 
L 155.652348 252.386984 
L 155.931069 255.910397 
L 156.20979 255.962753 
L 156.488511 255.857655 
L 156.767233 255.920223 
L 157.045954 255.843808 
L 157.324675 255.888493 
L 157.603397 255.694008 
L 157.882118 255.79343 
L 158.160839 253.152562 
L 158.43956 255.804478 
L 158.718282 254.895791 
L 158.997003 255.254519 
L 159.275724 255.887975 
L 159.554446 247.96993 
L 159.833167 256.057318 
L 160.111888 252.630866 
L 160.390609 252.149955 
L 160.669331 255.736589 
L 160.948052 252.56275 
L 161.226773 255.94734 
L 161.505495 256.044131 
L 162.062937 255.840232 
L 162.341658 256.009785 
L 163.177822 255.920827 
L 163.456543 255.544115 
L 163.735265 256.022632 
L 164.013986 256.110793 
L 164.85015 255.945504 
L 165.128871 256.07514 
L 165.686314 255.159742 
L 165.965035 255.154187 
L 166.243756 255.930289 
L 166.522478 255.921819 
L 166.801199 255.665793 
L 167.07992 255.720798 
L 167.358641 255.38285 
L 167.637363 256.030668 
L 167.916084 254.977923 
L 168.194805 255.64445 
L 168.473526 255.718926 
L 168.752248 255.33144 
L 169.30969 255.494607 
L 169.588412 252.714563 
L 169.867133 255.864913 
L 170.145854 255.442198 
L 170.424575 256.070369 
L 170.703297 255.835999 
L 170.982018 255.828048 
L 171.260739 256.024967 
L 171.818182 255.60854 
L 172.096903 253.489758 
L 172.375624 255.341465 
L 172.654346 256.025483 
L 172.933067 256.159818 
L 173.490509 254.340925 
L 173.769231 254.278449 
L 174.047952 254.654923 
L 174.326673 254.202888 
L 174.605395 254.515635 
L 174.884116 255.826623 
L 175.162837 252.761554 
L 175.441558 255.954532 
L 175.999001 256.013928 
L 176.277722 255.879454 
L 177.113886 256.053529 
L 177.392607 255.889158 
L 177.671329 256.0503 
L 178.228771 255.462888 
L 178.507493 256.04772 
L 178.786214 256.086677 
L 179.064935 255.587931 
L 179.343656 256.131342 
L 179.622378 255.900069 
L 179.901099 255.897631 
L 180.17982 252.703359 
L 180.458541 255.994438 
L 180.737263 256.001289 
L 181.015984 254.564079 
L 181.294705 255.84532 
L 181.573427 255.9697 
L 181.852148 251.303849 
L 182.130869 255.906464 
L 182.40959 254.521335 
L 182.688312 251.173516 
L 182.967033 255.82113 
L 183.245754 252.793333 
L 183.524476 255.365902 
L 183.803197 255.29701 
L 184.081918 255.804954 
L 184.360639 255.974128 
L 184.639361 255.911596 
L 184.918082 255.003585 
L 185.196803 255.970857 
L 185.475524 254.96154 
L 185.754246 254.86125 
L 186.032967 253.819467 
L 186.311688 255.604128 
L 186.59041 251.233311 
L 186.869131 255.867712 
L 187.147852 255.425083 
L 187.426573 252.745007 
L 187.705295 255.56866 
L 187.984016 252.80875 
L 188.262737 256.007969 
L 188.541459 256.079004 
L 188.82018 255.818353 
L 189.098901 256.018174 
L 189.377622 254.285043 
L 189.656344 255.77612 
L 189.935065 252.380433 
L 190.213786 255.639073 
L 190.492507 255.883709 
L 190.771229 255.533618 
L 191.04995 255.663162 
L 191.328671 255.199669 
L 191.607393 255.679278 
L 191.886114 255.5926 
L 192.164835 252.019566 
L 192.443556 255.909171 
L 192.722278 255.697608 
L 193.000999 254.404402 
L 193.27972 255.29381 
L 193.558442 255.759995 
L 193.837163 255.922312 
L 194.115884 255.796909 
L 194.394605 254.213627 
L 194.673327 255.838027 
L 194.952048 255.3832 
L 195.230769 255.935846 
L 195.509491 255.531462 
L 195.788212 255.964522 
L 196.066933 253.081659 
L 196.345654 255.628013 
L 196.624376 255.800028 
L 196.903097 256.119551 
L 197.460539 255.95494 
L 197.739261 253.366477 
L 198.017982 255.753256 
L 198.296703 253.296404 
L 198.575425 255.891396 
L 198.854146 256.088576 
L 199.411588 255.749226 
L 200.247752 255.924847 
L 200.526474 255.5917 
L 200.805195 256.017225 
L 201.083916 255.890782 
L 201.362637 255.900763 
L 201.641359 253.492045 
L 201.92008 255.765577 
L 202.198801 255.948352 
L 202.756244 255.919934 
L 203.034965 255.702743 
L 203.313686 256.019213 
L 203.592408 256.144489 
L 204.986014 256.211328 
L 205.264735 255.885211 
L 206.100899 256.22339 
L 206.37962 255.867658 
L 206.658342 256.177449 
L 206.937063 256.080589 
L 207.215784 253.890685 
L 207.494505 256.107891 
L 207.773227 256.225606 
L 208.051948 255.821132 
L 208.330669 256.095265 
L 208.609391 256.001264 
L 208.888112 256.141426 
L 209.166833 253.793931 
L 209.445554 255.737274 
L 209.724276 256.047772 
L 210.281718 256.083332 
L 210.56044 256.077551 
L 210.839161 255.923382 
L 211.117882 255.909596 
L 211.675325 256.185763 
L 212.232767 256.055813 
L 212.511489 253.753454 
L 212.79021 255.670718 
L 213.068931 255.57559 
L 213.347652 256.126239 
L 213.626374 255.937411 
L 214.183816 256.112483 
L 214.462537 256.006559 
L 214.741259 256.12471 
L 215.577423 256.11959 
L 215.856144 254.063588 
L 216.134865 256.124153 
L 216.413586 256.036526 
L 216.692308 255.284442 
L 216.971029 255.64465 
L 217.24975 253.666946 
L 217.528472 256.078144 
L 217.807193 255.954611 
L 218.643357 256.148268 
L 218.922078 256.022096 
L 219.200799 256.020772 
L 219.47952 255.711378 
L 219.758242 256.132726 
L 220.036963 256.050949 
L 220.315684 256.149779 
L 220.594406 256.043538 
L 221.151848 256.053215 
L 221.709291 255.947308 
L 221.988012 256.104346 
L 222.266733 256.116845 
L 222.545455 255.80549 
L 222.824176 256.112177 
L 223.102897 256.082752 
L 223.381618 255.929338 
L 224.217782 256.108284 
L 224.496503 256.025745 
L 224.775225 255.819214 
L 225.053946 253.4785 
L 225.332667 255.952006 
L 225.611389 255.397065 
L 226.168831 255.976116 
L 226.726274 255.922724 
L 227.004995 256.076508 
L 227.283716 256.094846 
L 227.562438 255.935972 
L 227.841159 255.265327 
L 228.11988 250.968364 
L 228.398601 255.986449 
L 228.677323 253.505319 
L 228.956044 256.063619 
L 229.234765 252.594816 
L 229.513487 255.867328 
L 229.792208 255.733562 
L 230.070929 251.756153 
L 230.34965 255.95881 
L 230.628372 255.931661 
L 230.907093 256.127201 
L 231.743257 256.022034 
L 232.021978 256.093244 
L 232.300699 253.876801 
L 232.579421 256.12001 
L 233.415584 256.089433 
L 233.694306 256.153669 
L 233.973027 253.969725 
L 234.251748 254.006639 
L 234.53047 256.141415 
L 234.809191 256.018545 
L 235.366633 256.140308 
L 235.645355 255.917444 
L 235.924076 255.974091 
L 236.202797 256.205765 
L 236.481518 255.987426 
L 236.76024 253.98733 
L 237.038961 255.612167 
L 237.596404 256.139167 
L 237.875125 254.008737 
L 238.153846 255.843235 
L 238.432567 255.908928 
L 238.711289 254.084795 
L 238.99001 255.846639 
L 239.268731 256.130046 
L 239.547453 255.436383 
L 239.826174 256.063591 
L 240.104895 256.186441 
L 240.383616 256.181251 
L 240.662338 256.053261 
L 241.21978 256.182681 
L 241.498501 254.048593 
L 241.777223 256.147922 
L 242.334665 256.161634 
L 242.613387 256.121719 
L 242.892108 256.210082 
L 243.170829 255.675081 
L 243.44955 256.080379 
L 243.728272 256.141104 
L 244.006993 255.48502 
L 244.285714 253.776262 
L 244.564436 255.3302 
L 244.843157 256.08878 
L 245.121878 255.960407 
L 245.400599 256.206628 
L 245.679321 255.857926 
L 245.958042 256.142675 
L 246.236763 255.467424 
L 246.515485 255.867949 
L 246.794206 255.80501 
L 247.072927 256.025625 
L 247.909091 256.012348 
L 248.187812 253.825897 
L 248.466533 256.081221 
L 248.745255 255.880956 
L 249.023976 256.10223 
L 249.581419 256.047584 
L 249.86014 254.090778 
L 250.138861 256.086927 
L 250.417582 256.163161 
L 250.696304 254.203703 
L 250.975025 256.20701 
L 251.532468 256.132908 
L 251.811189 255.780301 
L 252.08991 254.472291 
L 252.368631 256.205127 
L 252.647353 255.903622 
L 252.926074 256.127192 
L 253.762238 256.042209 
L 254.31968 256.167114 
L 254.598402 255.202444 
L 254.877123 256.044813 
L 255.155844 256.244513 
L 255.434565 256.241454 
L 255.713287 256.035405 
L 255.992008 256.184688 
L 256.270729 255.985403 
L 256.549451 256.218129 
L 256.828172 256.064839 
L 257.385614 256.164725 
L 257.664336 255.54152 
L 257.943057 256.139521 
L 258.221778 256.203425 
L 258.5005 256.060851 
L 258.779221 256.23722 
L 259.057942 256.265186 
L 259.336663 255.133311 
L 259.615385 255.099623 
L 259.894106 256.246218 
L 260.172827 256.216216 
L 260.451548 255.160731 
L 260.73027 256.221899 
L 261.287712 256.20441 
L 261.845155 256.26258 
L 262.123876 256.135648 
L 262.681319 256.277394 
L 263.238761 256.202596 
L 263.517483 256.203718 
L 263.796204 256.087507 
L 264.074925 256.246275 
L 264.353646 256.172962 
L 264.632368 256.259709 
L 264.911089 256.111359 
L 265.18981 256.098003 
L 265.468531 255.306549 
L 265.747253 256.150218 
L 266.025974 255.247805 
L 266.304695 256.227701 
L 267.41958 256.219321 
L 267.698302 254.862851 
L 267.977023 256.245377 
L 269.649351 256.151686 
L 270.206793 256.170787 
L 270.764236 256.182638 
L 271.321678 256.244397 
L 271.6004 256.126172 
L 271.879121 255.098087 
L 272.157842 256.190102 
L 272.436563 256.130266 
L 272.715285 256.249812 
L 272.994006 256.186774 
L 273.272727 256.269784 
L 273.551449 256.065076 
L 274.108891 256.217356 
L 274.387612 256.148318 
L 274.945055 256.190087 
L 275.502498 256.239622 
L 275.781219 256.097842 
L 276.05994 256.15023 
L 276.338661 254.89128 
L 276.617383 256.129875 
L 277.174825 256.165642 
L 277.732268 256.163931 
L 278.847153 256.157838 
L 279.125874 255.98095 
L 279.404595 256.234748 
L 279.683317 255.539924 
L 279.962038 256.085969 
L 280.519481 256.195024 
L 280.798202 256.029084 
L 281.076923 256.196442 
L 281.355644 256.032017 
L 281.634366 256.17271 
L 285.815185 256.090285 
L 286.093906 255.03342 
L 286.372627 256.186057 
L 286.93007 256.050139 
L 287.766234 256.183098 
L 288.044955 255.081916 
L 288.323676 256.121774 
L 288.602398 255.071053 
L 288.881119 255.120058 
L 289.15984 254.952109 
L 289.438561 256.090892 
L 289.996004 256.176604 
L 290.274725 256.039469 
L 290.553447 256.19824 
L 291.668332 256.225108 
L 291.947053 256.104406 
L 293.619381 256.22847 
L 293.898102 255.337339 
L 294.176823 256.187608 
L 294.455544 256.082017 
L 294.734266 256.225908 
L 295.012987 256.161733 
L 295.57043 256.200276 
L 295.849151 256.03286 
L 296.127872 256.148394 
L 298.078921 256.184908 
L 298.636364 256.242179 
L 298.915085 256.007148 
L 299.193806 256.185739 
L 300.866134 256.148436 
L 301.144855 256.055808 
L 301.423576 256.213167 
L 302.25974 256.243451 
L 302.538462 256.078485 
L 302.817183 255.374833 
L 303.095904 256.248604 
L 304.210789 256.2677 
L 304.48951 255.402079 
L 304.768232 256.249767 
L 305.604396 256.086705 
L 305.883117 256.210843 
L 306.161838 256.161717 
L 306.440559 255.99716 
L 306.719281 256.25156 
L 308.112887 256.236259 
L 308.391608 255.462853 
L 308.67033 256.216242 
L 308.949051 256.035832 
L 309.227772 256.179341 
L 310.063936 255.95355 
L 310.342657 256.231108 
L 311.457542 256.191553 
L 311.736264 256.151484 
L 312.014985 256.239943 
L 312.293706 256.207404 
L 312.572428 255.349308 
L 312.851149 255.9002 
L 313.408591 256.160082 
L 313.687313 255.572263 
L 313.966034 256.14478 
L 314.802198 256.231536 
L 315.080919 256.120727 
L 315.35964 256.170305 
L 315.638362 255.359177 
L 316.195804 256.221659 
L 316.753247 256.209368 
L 317.031968 255.390955 
L 317.310689 256.24198 
L 317.589411 254.486339 
L 317.868132 256.251979 
L 318.704296 256.191901 
L 318.983017 256.280859 
L 319.819181 256.262314 
L 320.097902 256.266773 
L 320.376623 254.397181 
L 320.655345 256.281785 
L 320.934066 254.996433 
L 321.212787 255.41849 
L 321.491508 256.263437 
L 322.606394 256.110933 
L 322.885115 256.268425 
L 323.721279 256.239822 
L 323.721279 256.239822 
" clip-path="url(#p87e4240727)" style="fill: none; stroke: #ff0000; stroke-width: 1.5; stroke-linecap: square"/>
   </g>
   <g id="line2d_14">
    <path d="M 68.113377 -1 
L 68.133866 52.075474 
L 68.412587 54.991449 
L 68.414794 -1 
M 71.453455 -1 
L 71.478521 35.199874 
L 71.58998 -1 
M 72.218145 -1 
L 72.314685 50.220731 
L 72.323945 -1 
M 72.853468 -1 
L 72.872128 105.944764 
L 73.150849 170.37442 
L 73.42957 61.405781 
L 73.708292 153.565888 
L 73.987013 113.269046 
L 74.157204 -1 
M 74.736691 -1 
L 74.823177 175.082976 
L 75.101898 187.51151 
L 75.380619 205.036658 
L 75.659341 198.064621 
L 76.216783 227.100453 
L 76.774226 209.947037 
L 77.052947 223.571445 
L 77.331668 213.897296 
L 77.61039 104.26625 
L 77.889111 183.414761 
L 78.167832 203.869495 
L 78.446553 183.36043 
L 78.703788 -1 
M 78.743004 -1 
L 79.003996 225.693554 
L 79.561439 239.621544 
L 79.84016 154.838526 
L 80.118881 230.518797 
L 80.397602 221.812131 
L 80.676324 182.977049 
L 80.955045 171.696621 
L 81.233766 182.582254 
L 81.512488 208.781398 
L 81.791209 199.045901 
L 82.06993 216.702151 
L 82.348651 111.62205 
L 82.627373 217.370161 
L 82.906094 199.368925 
L 83.184815 220.933345 
L 83.463536 218.877053 
L 83.742258 244.35993 
L 84.020979 236.124846 
L 84.578422 246.521055 
L 84.857143 234.72751 
L 85.135864 239.738812 
L 85.414585 247.311367 
L 85.693307 236.782756 
L 85.972028 244.773745 
L 86.250749 234.052415 
L 86.529471 246.918042 
L 86.808192 233.113962 
L 87.086913 252.357498 
L 87.365634 248.739942 
L 87.644356 253.440101 
L 87.923077 249.738466 
L 88.201798 253.144388 
L 88.480519 251.643003 
L 88.759241 250.862418 
L 89.037962 244.481952 
L 89.316683 250.552294 
L 89.595405 251.464265 
L 89.874126 247.867884 
L 90.152847 253.765579 
L 90.431568 252.10031 
L 90.71029 241.673628 
L 90.989011 243.381692 
L 91.267732 253.068791 
L 91.546454 252.975962 
L 91.825175 253.257639 
L 92.103896 251.339377 
L 92.382617 254.494608 
L 92.661339 252.511196 
L 92.94006 254.94519 
L 93.218781 254.748475 
L 93.497502 253.862226 
L 93.776224 254.365413 
L 94.054945 252.696217 
L 94.333666 254.787094 
L 94.612388 254.021131 
L 94.891109 255.117705 
L 95.16983 255.21435 
L 95.448551 255.103957 
L 95.727273 255.129333 
L 96.005994 255.315862 
L 96.563437 255.177049 
L 96.842158 253.675765 
L 97.3996 254.965871 
L 97.678322 255.036895 
L 97.957043 254.497431 
L 98.235764 255.535761 
L 98.514486 255.37395 
L 98.793207 247.515335 
L 99.071928 254.235106 
L 99.350649 252.64157 
L 99.629371 249.864774 
L 99.908092 255.521278 
L 100.186813 255.108891 
L 100.465534 254.942707 
L 100.744256 255.527081 
L 101.022977 255.599579 
L 101.301698 255.826182 
L 101.58042 255.54562 
L 101.859141 255.871657 
L 102.137862 255.558972 
L 102.695305 255.243435 
L 103.252747 254.052116 
L 103.531469 255.142895 
L 103.81019 254.787267 
L 104.088911 255.517942 
L 104.367632 248.220103 
L 104.646354 254.906519 
L 104.925075 254.988626 
L 105.203796 255.496644 
L 105.761239 255.75692 
L 106.03996 255.652458 
L 106.318681 255.941226 
L 106.876124 255.595873 
L 107.154845 255.887235 
L 107.433566 255.401003 
L 107.712288 254.565338 
L 108.26973 254.97932 
L 108.827173 255.058956 
L 109.384615 255.711478 
L 109.663337 254.944644 
L 109.942058 255.541402 
L 110.778222 254.950533 
L 111.056943 255.856093 
L 111.335664 255.738888 
L 111.614386 252.17119 
L 111.893107 254.353815 
L 112.171828 251.846385 
L 112.450549 252.615697 
L 112.729271 255.671901 
L 113.007992 253.600302 
L 113.565435 254.752068 
L 113.844156 252.321859 
L 114.401598 255.109281 
L 114.68032 248.309945 
L 114.959041 252.529016 
L 115.237762 253.24649 
L 115.516484 253.52524 
L 115.795205 255.067459 
L 116.073926 253.266754 
L 116.352647 254.994165 
L 116.631369 254.511777 
L 116.91009 255.182753 
L 117.188811 252.620325 
L 117.467532 254.840174 
L 117.746254 252.967261 
L 118.024975 255.241059 
L 118.303696 254.553352 
L 118.582418 255.559206 
L 118.861139 254.585458 
L 119.13986 248.13027 
L 119.418581 255.437855 
L 119.697303 255.135067 
L 119.976024 253.595821 
L 120.254745 253.99372 
L 120.533467 253.84793 
L 120.812188 253.10866 
L 121.090909 255.251688 
L 121.36963 254.176308 
L 121.648352 254.242197 
L 121.927073 255.643915 
L 122.205794 253.491289 
L 122.484515 254.699629 
L 122.763237 255.1906 
L 123.041958 255.151004 
L 123.320679 254.500017 
L 123.599401 252.891688 
L 123.878122 254.954804 
L 124.156843 250.103947 
L 124.435564 255.172108 
L 124.714286 248.516146 
L 124.993007 254.367586 
L 125.55045 255.801811 
L 125.829171 246.593405 
L 126.107892 254.680066 
L 126.386613 255.499448 
L 126.665335 255.640592 
L 126.944056 254.925064 
L 127.222777 255.314947 
L 127.501499 250.100102 
L 127.78022 255.077463 
L 128.058941 254.664667 
L 128.337662 253.173341 
L 128.616384 254.883018 
L 128.895105 255.468791 
L 129.173826 255.248836 
L 129.452547 255.498444 
L 129.731269 254.268832 
L 130.00999 255.361456 
L 130.288711 254.922642 
L 130.567433 255.030049 
L 130.846154 254.963554 
L 131.124875 255.121312 
L 131.403596 255.096939 
L 131.961039 255.554398 
L 132.23976 255.644653 
L 132.518482 254.43223 
L 132.797203 244.084382 
L 133.075924 238.525593 
L 133.354645 255.607963 
L 133.633367 254.243069 
L 133.912088 253.919156 
L 134.190809 249.067327 
L 134.46953 254.226815 
L 134.748252 255.529087 
L 135.026973 254.922843 
L 135.305694 254.937618 
L 135.584416 255.17941 
L 135.863137 255.696524 
L 136.141858 255.827645 
L 136.420579 251.158363 
L 136.699301 255.016045 
L 136.978022 255.799377 
L 137.256743 250.892315 
L 137.535465 241.652101 
L 137.814186 255.289324 
L 138.092907 255.817579 
L 138.65035 255.309329 
L 138.929071 254.53364 
L 139.207792 255.822719 
L 139.765235 255.611929 
L 140.043956 254.904042 
L 140.322677 255.521017 
L 140.601399 255.332572 
L 140.88012 255.591667 
L 141.158841 255.348135 
L 141.437562 246.866672 
L 141.716284 255.661396 
L 141.995005 255.761522 
L 142.273726 253.964053 
L 142.552448 254.525974 
L 142.831169 254.401797 
L 143.10989 255.692824 
L 143.388611 254.995277 
L 143.667333 255.294441 
L 143.946054 255.357863 
L 144.224775 255.765107 
L 144.503497 250.877191 
L 144.782218 255.820317 
L 145.060939 255.580132 
L 145.33966 255.652775 
L 145.618382 249.938999 
L 145.897103 255.742537 
L 146.175824 255.737485 
L 146.454545 255.506924 
L 146.733267 253.938383 
L 147.011988 251.455505 
L 147.290709 255.887369 
L 147.569431 255.728596 
L 147.848152 251.292849 
L 148.126873 255.842324 
L 148.963037 255.899775 
L 149.241758 255.613116 
L 149.52048 255.951914 
L 149.799201 251.461132 
L 150.077922 255.962583 
L 150.356643 255.840679 
L 150.635365 251.460331 
L 150.914086 255.457255 
L 151.192807 251.417941 
L 151.471528 254.770857 
L 151.75025 251.993431 
L 152.028971 255.17423 
L 152.307692 255.765017 
L 152.586414 255.606833 
L 152.865135 255.992321 
L 153.143856 250.049052 
L 153.422577 251.323206 
L 153.701299 255.732212 
L 153.98002 255.938077 
L 154.537463 255.773267 
L 154.816184 255.879526 
L 155.094905 255.86042 
L 155.373626 255.712654 
L 155.652348 252.086504 
L 155.931069 255.958661 
L 156.20979 255.832608 
L 156.767233 256.002721 
L 157.045954 255.844342 
L 157.324675 255.922704 
L 157.603397 255.618608 
L 157.882118 255.772347 
L 158.160839 253.131576 
L 158.43956 255.756804 
L 158.718282 254.544986 
L 158.997003 255.626999 
L 159.275724 255.79276 
L 159.554446 247.158598 
L 159.833167 255.97399 
L 160.111888 252.787597 
L 160.390609 252.058409 
L 160.669331 255.518988 
L 160.948052 252.694913 
L 161.226773 255.834416 
L 162.62038 256.016749 
L 163.177822 255.860585 
L 163.456543 255.438632 
L 163.735265 255.999191 
L 164.571429 256.082298 
L 164.85015 255.853461 
L 165.128871 256.033247 
L 165.407592 255.619 
L 165.686314 254.645737 
L 165.965035 255.500912 
L 167.07992 255.855888 
L 167.358641 255.527768 
L 167.637363 255.972737 
L 167.916084 255.27659 
L 168.194805 255.655912 
L 168.473526 255.702698 
L 168.752248 255.119095 
L 169.030969 255.386103 
L 169.30969 255.899377 
L 169.588412 252.635884 
L 169.867133 255.817735 
L 170.145854 255.154472 
L 170.424575 255.87306 
L 170.703297 255.464801 
L 170.982018 256.004142 
L 171.260739 255.87057 
L 171.818182 255.943743 
L 172.096903 253.422917 
L 172.375624 255.277557 
L 172.654346 255.963396 
L 172.933067 256.006469 
L 173.490509 254.542692 
L 173.769231 254.312266 
L 174.326673 254.530914 
L 174.884116 255.856767 
L 175.162837 252.824834 
L 175.441558 255.993238 
L 176.277722 255.847332 
L 176.835165 256.010789 
L 177.671329 256.06179 
L 178.228771 255.467552 
L 178.507493 256.047215 
L 178.786214 256.101611 
L 179.064935 255.610825 
L 179.343656 256.116677 
L 179.901099 255.880222 
L 180.17982 252.807861 
L 180.458541 256.000917 
L 180.737263 255.982049 
L 181.015984 254.43045 
L 181.294705 255.889954 
L 181.573427 255.984204 
L 181.852148 252.404323 
L 182.130869 255.626145 
L 182.40959 254.518531 
L 182.688312 251.586269 
L 182.967033 255.874763 
L 183.245754 253.563572 
L 183.524476 254.867966 
L 184.360639 255.808408 
L 184.639361 255.982719 
L 184.918082 255.239555 
L 185.196803 255.734632 
L 185.475524 255.705495 
L 185.754246 254.980497 
L 186.032967 253.865407 
L 186.311688 255.43039 
L 186.59041 255.919704 
L 186.869131 255.843314 
L 187.147852 255.985996 
L 187.426573 252.739166 
L 187.705295 255.417526 
L 187.984016 253.485427 
L 188.262737 255.680331 
L 188.541459 256.085256 
L 188.82018 255.921776 
L 189.098901 255.92439 
L 189.377622 254.19039 
L 189.656344 255.668351 
L 189.935065 252.512942 
L 190.213786 254.959711 
L 190.492507 255.86019 
L 190.771229 255.558178 
L 191.04995 255.837733 
L 191.328671 255.304398 
L 191.607393 255.824695 
L 191.886114 255.58178 
L 192.164835 252.822873 
L 192.443556 255.964411 
L 192.722278 255.823136 
L 193.000999 254.279003 
L 193.558442 255.669214 
L 193.837163 255.820758 
L 194.115884 255.809367 
L 194.394605 254.448838 
L 194.673327 255.657239 
L 194.952048 255.405797 
L 195.230769 255.928073 
L 195.509491 255.740525 
L 195.788212 255.988145 
L 196.066933 253.148481 
L 196.345654 255.968044 
L 196.903097 256.084718 
L 197.181818 256.030833 
L 197.460539 255.854392 
L 197.739261 253.262032 
L 198.017982 255.602099 
L 198.296703 253.275838 
L 198.575425 255.869861 
L 198.854146 256.065006 
L 199.132867 255.93352 
L 199.411588 256.086051 
L 199.69031 255.855176 
L 199.969031 256.038389 
L 200.247752 256.0517 
L 200.526474 255.168961 
L 200.805195 255.99655 
L 201.083916 256.051432 
L 201.641359 253.417872 
L 201.92008 255.809412 
L 202.198801 255.664416 
L 204.428571 256.18178 
L 204.986014 256.193178 
L 205.264735 255.939855 
L 205.543457 256.130935 
L 206.100899 256.203552 
L 206.37962 256.040364 
L 206.658342 256.146907 
L 206.937063 255.952656 
L 207.215784 253.961851 
L 207.494505 256.102003 
L 207.773227 256.117402 
L 208.051948 255.815272 
L 208.330669 256.076695 
L 208.888112 256.128197 
L 209.166833 253.774722 
L 209.445554 255.71847 
L 209.724276 255.984871 
L 211.117882 256.001825 
L 211.675325 256.207447 
L 211.954046 255.280933 
L 212.232767 255.963244 
L 212.511489 253.754341 
L 212.79021 255.830662 
L 213.068931 255.785122 
L 213.347652 256.079883 
L 214.462537 255.990331 
L 214.741259 256.111262 
L 215.298701 256.091549 
L 215.577423 256.130638 
L 215.856144 254.228567 
L 216.134865 256.15248 
L 216.413586 256.028663 
L 216.692308 255.31428 
L 216.971029 255.904137 
L 217.24975 253.675758 
L 217.528472 255.885846 
L 218.364635 256.132395 
L 218.643357 256.000491 
L 218.922078 256.060116 
L 219.200799 255.966064 
L 219.47952 255.639399 
L 219.758242 256.022225 
L 220.036963 256.005839 
L 220.315684 256.132266 
L 220.594406 255.921298 
L 220.873127 256.092406 
L 221.709291 255.98554 
L 221.988012 256.115131 
L 222.545455 255.839592 
L 222.824176 256.097916 
L 223.102897 256.009645 
L 223.381618 255.711708 
L 223.66034 256.032758 
L 223.939061 256.082399 
L 224.217782 256.01191 
L 224.496503 256.067283 
L 224.775225 255.895108 
L 225.053946 253.343361 
L 225.332667 256.006689 
L 225.611389 255.029193 
L 225.89011 255.40888 
L 226.168831 256.044256 
L 227.004995 256.110445 
L 227.283716 256.106034 
L 227.562438 255.990242 
L 227.841159 255.534553 
L 228.11988 251.066139 
L 228.398601 256.097782 
L 228.677323 253.311711 
L 228.956044 256.074027 
L 229.234765 253.441787 
L 229.513487 255.955101 
L 229.792208 255.744186 
L 230.070929 251.793896 
L 230.34965 255.893525 
L 230.907093 256.097558 
L 231.185814 256.141495 
L 231.464535 255.988912 
L 232.021978 256.088774 
L 232.300699 253.892629 
L 232.579421 256.127127 
L 233.136863 255.900809 
L 233.415584 256.125269 
L 233.694306 256.126584 
L 233.973027 253.907948 
L 234.251748 254.088188 
L 234.53047 256.099076 
L 234.809191 256.044997 
L 235.366633 256.15296 
L 235.924076 255.923491 
L 236.202797 256.186892 
L 236.481518 255.984368 
L 236.76024 254.011711 
L 237.038961 255.8409 
L 237.317682 255.824053 
L 237.596404 256.155448 
L 237.875125 254.062026 
L 238.153846 256.018199 
L 238.432567 255.928856 
L 238.711289 254.086228 
L 238.99001 256.021587 
L 239.268731 256.200963 
L 239.547453 255.74846 
L 239.826174 256.099214 
L 240.383616 256.169023 
L 240.662338 256.092635 
L 241.21978 256.221561 
L 241.498501 254.091845 
L 241.777223 256.14926 
L 242.613387 256.093691 
L 242.892108 256.179879 
L 243.170829 255.526687 
L 243.44955 256.117908 
L 243.728272 256.054438 
L 244.006993 255.66586 
L 244.285714 254.06205 
L 244.843157 256.135247 
L 245.121878 255.97197 
L 245.400599 256.215847 
L 245.679321 255.94038 
L 245.958042 256.082036 
L 246.236763 255.741442 
L 247.63037 256.138308 
L 247.909091 256.016959 
L 248.187812 253.849352 
L 248.466533 256.094888 
L 248.745255 255.942716 
L 249.581419 256.083291 
L 249.86014 254.234985 
L 250.138861 255.974408 
L 250.417582 256.134176 
L 250.696304 254.202558 
L 250.975025 256.161868 
L 251.532468 256.109948 
L 251.811189 255.575946 
L 252.08991 254.61643 
L 252.368631 256.149839 
L 252.647353 255.95152 
L 253.204795 256.046666 
L 253.483516 256.037017 
L 254.040959 256.185338 
L 254.31968 256.132117 
L 254.598402 255.194697 
L 254.877123 256.052771 
L 255.155844 256.205862 
L 255.434565 256.230174 
L 255.992008 256.100725 
L 256.270729 256.0441 
L 256.549451 256.215674 
L 256.828172 256.067315 
L 257.385614 256.146074 
L 257.664336 255.552772 
L 257.943057 256.183308 
L 258.779221 256.214297 
L 259.057942 256.254363 
L 259.336663 255.147545 
L 259.615385 255.140719 
L 259.894106 256.260503 
L 260.172827 256.206091 
L 260.451548 255.137657 
L 260.73027 256.178131 
L 261.845155 256.26117 
L 262.402597 256.228231 
L 263.238761 256.230243 
L 264.074925 256.240227 
L 264.353646 255.797128 
L 264.632368 256.261465 
L 265.18981 256.125422 
L 265.468531 255.212159 
L 265.747253 256.146189 
L 266.025974 255.291936 
L 266.304695 256.212998 
L 267.41958 256.172675 
L 267.698302 254.945165 
L 267.977023 256.260314 
L 268.813187 256.228645 
L 270.206793 256.163772 
L 270.485514 256.107124 
L 270.764236 256.227013 
L 271.6004 256.184055 
L 271.879121 255.101351 
L 272.157842 256.21637 
L 272.436563 256.083298 
L 272.715285 256.258668 
L 272.994006 256.203839 
L 273.272727 256.263915 
L 273.551449 256.133096 
L 274.108891 256.214604 
L 274.387612 256.144689 
L 275.502498 256.245884 
L 276.05994 256.152337 
L 276.338661 254.937402 
L 276.617383 256.215504 
L 277.453546 256.069442 
L 278.010989 256.198995 
L 278.28971 256.13314 
L 278.568432 256.231281 
L 279.125874 256.155123 
L 279.404595 256.2216 
L 279.683317 255.467009 
L 279.962038 256.195411 
L 282.191808 256.176189 
L 282.470529 255.999992 
L 282.749251 256.20628 
L 283.306693 256.111087 
L 283.585415 256.235272 
L 283.864136 256.103623 
L 284.421578 256.156664 
L 284.7003 256.223014 
L 284.979021 256.155064 
L 285.257742 255.801583 
L 285.536464 256.210187 
L 285.815185 256.131564 
L 286.093906 255.084948 
L 286.372627 256.171906 
L 287.208791 256.000998 
L 287.487512 256.2106 
L 287.766234 256.197221 
L 288.044955 255.018987 
L 288.323676 256.110152 
L 288.602398 255.057603 
L 288.881119 254.979469 
L 289.15984 255.024914 
L 289.438561 256.125627 
L 289.996004 256.164713 
L 290.274725 256.088463 
L 290.832168 256.220837 
L 293.619381 256.238266 
L 293.898102 255.279059 
L 294.176823 256.228237 
L 294.455544 255.973256 
L 294.734266 256.175681 
L 296.406593 256.034495 
L 296.685315 256.18988 
L 296.964036 256.131417 
L 297.521479 256.248783 
L 297.8002 256.156402 
L 298.636364 256.250106 
L 298.915085 255.928075 
L 299.193806 256.179721 
L 300.866134 256.137921 
L 301.144855 256.073106 
L 301.702298 256.227627 
L 302.25974 256.25417 
L 302.538462 256.101609 
L 302.817183 255.360205 
L 303.095904 256.218478 
L 304.210789 256.234016 
L 304.48951 255.445789 
L 304.768232 256.254096 
L 305.604396 256.114283 
L 306.161838 256.177274 
L 306.440559 256.048627 
L 306.719281 256.219872 
L 307.276723 256.131696 
L 307.834166 256.208781 
L 308.112887 256.239645 
L 308.391608 255.520772 
L 308.67033 256.235674 
L 308.949051 256.045341 
L 309.227772 256.235938 
L 309.506494 256.131752 
L 309.785215 256.213876 
L 310.063936 255.947702 
L 310.342657 256.260451 
L 312.293706 256.207575 
L 312.572428 255.37312 
L 312.851149 255.924266 
L 313.12987 256.114794 
L 313.408591 256.018567 
L 313.687313 255.389407 
L 313.966034 256.187466 
L 314.523477 256.178494 
L 314.802198 256.255018 
L 315.35964 256.170581 
L 315.638362 255.38769 
L 316.195804 256.233929 
L 316.753247 256.147075 
L 317.031968 255.408926 
L 317.310689 256.222569 
L 317.589411 254.486635 
L 317.868132 256.24519 
L 319.54046 256.268982 
L 320.097902 256.274058 
L 320.376623 254.287237 
L 320.655345 256.27527 
L 320.934066 254.956678 
L 321.212787 255.374643 
L 321.491508 256.272027 
L 322.048951 256.249381 
L 323.721279 256.252566 
L 323.721279 256.252566 
" clip-path="url(#p87e4240727)" style="fill: none; stroke: #0000ff; stroke-width: 1.5; stroke-linecap: square"/>
   </g>
   <g id="patch_3">
    <path d="M 45 256.32 
L 45 34.56 
" style="fill: none; stroke: #000000; stroke-width: 0.8; stroke-linejoin: miter; stroke-linecap: square"/>
   </g>
   <g id="patch_4">
    <path d="M 324 256.32 
L 324 34.56 
" style="fill: none; stroke: #000000; stroke-width: 0.8; stroke-linejoin: miter; stroke-linecap: square"/>
   </g>
   <g id="patch_5">
    <path d="M 45 256.32 
L 324 256.32 
" style="fill: none; stroke: #000000; stroke-width: 0.8; stroke-linejoin: miter; stroke-linecap: square"/>
   </g>
   <g id="patch_6">
    <path d="M 45 34.56 
L 324 34.56 
" style="fill: none; stroke: #000000; stroke-width: 0.8; stroke-linejoin: miter; stroke-linecap: square"/>
   </g>
   <g id="legend_1">
    <g id="patch_7">
     <path d="M 235.834375 70.838125 
L 317 70.838125 
Q 319 70.838125 319 68.838125 
L 319 41.56 
Q 319 39.56 317 39.56 
L 235.834375 39.56 
Q 233.834375 39.56 233.834375 41.56 
L 233.834375 68.838125 
Q 233.834375 70.838125 235.834375 70.838125 
z
" style="fill: #ffffff; opacity: 0.8; stroke: #cccccc; stroke-linejoin: miter"/>
    </g>
    <g id="line2d_15">
     <path d="M 237.834375 47.06 
L 247.834375 47.06 
L 257.834375 47.06 
" style="fill: none; stroke: #ff0000; stroke-width: 1.5; stroke-linecap: square"/>
    </g>
    <g id="text_15">
     <!-- Critic1 Loss -->
     <g transform="translate(265.834375 50.56)scale(0.1 -0.1)">
      <defs>
       <path id="TimesNewRomanPSMT-43" d="M 3853 4334 
L 3950 2894 
L 3853 2894 
Q 3659 3541 3300 3825 
Q 2941 4109 2438 4109 
Q 2016 4109 1675 3895 
Q 1334 3681 1139 3212 
Q 944 2744 944 2047 
Q 944 1472 1128 1050 
Q 1313 628 1683 403 
Q 2053 178 2528 178 
Q 2941 178 3256 354 
Q 3572 531 3950 1056 
L 4047 994 
Q 3728 428 3303 165 
Q 2878 -97 2294 -97 
Q 1241 -97 663 684 
Q 231 1266 231 2053 
Q 231 2688 515 3219 
Q 800 3750 1298 4042 
Q 1797 4334 2388 4334 
Q 2847 4334 3294 4109 
Q 3425 4041 3481 4041 
Q 3566 4041 3628 4100 
Q 3709 4184 3744 4334 
L 3853 4334 
z
" transform="scale(0.015625)"/>
       <path id="TimesNewRomanPSMT-63" d="M 2631 1088 
Q 2516 522 2178 217 
Q 1841 -88 1431 -88 
Q 944 -88 581 321 
Q 219 731 219 1428 
Q 219 2103 620 2525 
Q 1022 2947 1584 2947 
Q 2006 2947 2278 2723 
Q 2550 2500 2550 2259 
Q 2550 2141 2473 2067 
Q 2397 1994 2259 1994 
Q 2075 1994 1981 2113 
Q 1928 2178 1911 2362 
Q 1894 2547 1784 2644 
Q 1675 2738 1481 2738 
Q 1169 2738 978 2506 
Q 725 2200 725 1697 
Q 725 1184 976 792 
Q 1228 400 1656 400 
Q 1963 400 2206 609 
Q 2378 753 2541 1131 
L 2631 1088 
z
" transform="scale(0.015625)"/>
       <path id="TimesNewRomanPSMT-4c" d="M 3669 1172 
L 3772 1150 
L 3409 0 
L 128 0 
L 128 116 
L 288 116 
Q 556 116 672 291 
Q 738 391 738 753 
L 738 3488 
Q 738 3884 650 3984 
Q 528 4122 288 4122 
L 128 4122 
L 128 4238 
L 2047 4238 
L 2047 4122 
Q 1709 4125 1573 4059 
Q 1438 3994 1388 3894 
Q 1338 3794 1338 3416 
L 1338 753 
Q 1338 494 1388 397 
Q 1425 331 1503 300 
Q 1581 269 1991 269 
L 2300 269 
Q 2788 269 2984 341 
Q 3181 413 3343 595 
Q 3506 778 3669 1172 
z
" transform="scale(0.015625)"/>
       <path id="TimesNewRomanPSMT-6f" d="M 1600 2947 
Q 2250 2947 2644 2453 
Q 2978 2031 2978 1484 
Q 2978 1100 2793 706 
Q 2609 313 2286 112 
Q 1963 -88 1566 -88 
Q 919 -88 538 428 
Q 216 863 216 1403 
Q 216 1797 411 2186 
Q 606 2575 925 2761 
Q 1244 2947 1600 2947 
z
M 1503 2744 
Q 1338 2744 1170 2645 
Q 1003 2547 900 2300 
Q 797 2053 797 1666 
Q 797 1041 1045 587 
Q 1294 134 1700 134 
Q 2003 134 2200 384 
Q 2397 634 2397 1244 
Q 2397 2006 2069 2444 
Q 1847 2744 1503 2744 
z
" transform="scale(0.015625)"/>
       <path id="TimesNewRomanPSMT-73" d="M 2050 2947 
L 2050 1972 
L 1947 1972 
Q 1828 2431 1642 2597 
Q 1456 2763 1169 2763 
Q 950 2763 815 2647 
Q 681 2531 681 2391 
Q 681 2216 781 2091 
Q 878 1963 1175 1819 
L 1631 1597 
Q 2266 1288 2266 781 
Q 2266 391 1970 151 
Q 1675 -88 1309 -88 
Q 1047 -88 709 6 
Q 606 38 541 38 
Q 469 38 428 -44 
L 325 -44 
L 325 978 
L 428 978 
Q 516 541 762 319 
Q 1009 97 1316 97 
Q 1531 97 1667 223 
Q 1803 350 1803 528 
Q 1803 744 1651 891 
Q 1500 1038 1047 1263 
Q 594 1488 453 1669 
Q 313 1847 313 2119 
Q 313 2472 555 2709 
Q 797 2947 1181 2947 
Q 1350 2947 1591 2875 
Q 1750 2828 1803 2828 
Q 1853 2828 1881 2850 
Q 1909 2872 1947 2947 
L 2050 2947 
z
" transform="scale(0.015625)"/>
      </defs>
      <use xlink:href="#TimesNewRomanPSMT-43"/>
      <use xlink:href="#TimesNewRomanPSMT-72" x="66.699219"/>
      <use xlink:href="#TimesNewRomanPSMT-69" x="100"/>
      <use xlink:href="#TimesNewRomanPSMT-74" x="127.783203"/>
      <use xlink:href="#TimesNewRomanPSMT-69" x="155.566406"/>
      <use xlink:href="#TimesNewRomanPSMT-63" x="183.349609"/>
      <use xlink:href="#TimesNewRomanPSMT-31" x="227.734375"/>
      <use xlink:href="#TimesNewRomanPSMT-20" x="277.734375"/>
      <use xlink:href="#TimesNewRomanPSMT-4c" x="302.734375"/>
      <use xlink:href="#TimesNewRomanPSMT-6f" x="363.818359"/>
      <use xlink:href="#TimesNewRomanPSMT-73" x="413.818359"/>
      <use xlink:href="#TimesNewRomanPSMT-73" x="452.734375"/>
     </g>
    </g>
    <g id="line2d_16">
     <path d="M 237.834375 61.199062 
L 247.834375 61.199062 
L 257.834375 61.199062 
" style="fill: none; stroke: #0000ff; stroke-width: 1.5; stroke-linecap: square"/>
    </g>
    <g id="text_16">
     <!-- Critic2 Loss -->
     <g transform="translate(265.834375 64.699062)scale(0.1 -0.1)">
      <use xlink:href="#TimesNewRomanPSMT-43"/>
      <use xlink:href="#TimesNewRomanPSMT-72" x="66.699219"/>
      <use xlink:href="#TimesNewRomanPSMT-69" x="100"/>
      <use xlink:href="#TimesNewRomanPSMT-74" x="127.783203"/>
      <use xlink:href="#TimesNewRomanPSMT-69" x="155.566406"/>
      <use xlink:href="#TimesNewRomanPSMT-63" x="183.349609"/>
      <use xlink:href="#TimesNewRomanPSMT-32" x="227.734375"/>
      <use xlink:href="#TimesNewRomanPSMT-20" x="277.734375"/>
      <use xlink:href="#TimesNewRomanPSMT-4c" x="302.734375"/>
      <use xlink:href="#TimesNewRomanPSMT-6f" x="363.818359"/>
      <use xlink:href="#TimesNewRomanPSMT-73" x="413.818359"/>
      <use xlink:href="#TimesNewRomanPSMT-73" x="452.734375"/>
     </g>
    </g>
   </g>
  </g>
 </g>
 <defs>
  <clipPath id="p87e4240727">
   <rect x="45" y="34.56" width="279" height="221.76"/>
  </clipPath>
 </defs>
</svg>
